<svg xmlns="http://www.w3.org/2000/svg" xmlns:xlink="http://www.w3.org/1999/xlink" width="108" height="108" viewBox="0 0 108 108">
  <defs>
    <filter id="Fondo" x="0" y="0" width="108" height="108" filterUnits="userSpaceOnUse">
      <feOffset dy="3" input="SourceAlpha"/>
      <feGaussianBlur stdDeviation="3" result="blur"/>
      <feFlood flood-opacity="0.161"/>
      <feComposite operator="in" in2="blur"/>
      <feComposite in="SourceGraphic"/>
    </filter>
  </defs>
  <g id="Grupo_1231537" data-name="Grupo 1231537" transform="translate(-198.144 -4889)">
    <g id="Grupo_1231386" data-name="Grupo 1231386" transform="translate(0.065 2117.683)">
      <g id="Grupo_1230136" data-name="Grupo 1230136" transform="translate(-0.396 -7418.683)">
        <g id="Grupo_1220769" data-name="Grupo 1220769" transform="translate(207.475 10196)">
          <g id="Grupo_1220768" data-name="Grupo 1220768" transform="translate(0 0)">
            <g id="Grupo_1220472" data-name="Grupo 1220472">
              <g id="Grupo_1210004" data-name="Grupo 1210004">
                <g id="Grupo_1143757" data-name="Grupo 1143757" transform="translate(0)">
                  <g transform="matrix(1, 0, 0, 1, -9, -6)" filter="url(#Fondo)">
                    <g id="Fondo-2" data-name="Fondo" transform="translate(9 6)" fill="#fff6f9">
                      <path d="M 44.99994659423828 88.4998779296875 C 39.12683486938477 88.4998779296875 33.43019485473633 87.34995269775391 28.06827163696289 85.08205413818359 C 22.88850975036621 82.89120483398438 18.23629570007324 79.75447845458984 14.24084663391113 75.75904083251953 C 10.24540901184082 71.76358795166016 7.108684062957764 67.11137390136719 4.917834281921387 61.93161392211914 C 2.649934053421021 56.5696907043457 1.500009059906006 50.87305068969727 1.500009059906006 44.99993896484375 C 1.500009059906006 39.12682723999023 2.649934053421021 33.4301872253418 4.917834281921387 28.06826400756836 C 7.108684062957764 22.88850212097168 10.24540901184082 18.23628807067871 14.24084663391113 14.2408390045166 C 18.23629570007324 10.24540138244629 22.88850975036621 7.108676433563232 28.06827163696289 4.917826652526855 C 33.43019485473633 2.649926424026489 39.12683486938477 1.500001430511475 44.99994659423828 1.500001430511475 C 50.8730583190918 1.500001430511475 56.56969833374023 2.649926424026489 61.93162155151367 4.917826652526855 C 67.11138153076172 7.108676433563232 71.76359558105469 10.24540138244629 75.75904846191406 14.2408390045166 C 79.75448608398438 18.23628807067871 82.89121246337891 22.88850212097168 85.08206176757812 28.06826400756836 C 87.34996032714844 33.4301872253418 88.49988555908203 39.12682723999023 88.49988555908203 44.99993896484375 C 88.49988555908203 50.87305068969727 87.34996032714844 56.5696907043457 85.08206176757812 61.93161392211914 C 82.89121246337891 67.11137390136719 79.75448608398438 71.76358795166016 75.75904846191406 75.75904083251953 C 71.76359558105469 79.75447845458984 67.11138153076172 82.89120483398438 61.93162155151367 85.08205413818359 C 56.56969833374023 87.34995269775391 50.8730583190918 88.4998779296875 44.99994659423828 88.4998779296875 Z" stroke="none"/>
                      <path d="M 44.99994659423828 2.999992370605469 C 39.32867431640625 2.999992370605469 33.82863235473633 4.110054016113281 28.65260314941406 6.299324035644531 C 23.65163421630859 8.41455078125 19.15967559814453 11.44332122802734 15.30150604248047 15.30149841308594 C 11.44332885742188 19.15966796875 8.414558410644531 23.65162658691406 6.299331665039062 28.65258026123047 C 4.110061645507812 33.82860946655273 3 39.32866668701172 3 44.99993896484375 C 3 50.67121124267578 4.110061645507812 56.1712532043457 6.299331665039062 61.34728240966797 C 8.414558410644531 66.34825134277344 11.44332885742188 70.8402099609375 15.30150604248047 74.69837951660156 C 19.15967559814453 78.55654907226562 23.65163421630859 81.5853271484375 28.65260314941406 83.70055389404297 C 33.82863235473633 85.88982391357422 39.32867431640625 86.9998779296875 44.99994659423828 86.9998779296875 C 50.67121887207031 86.9998779296875 56.17126083374023 85.88982391357422 61.3472900390625 83.70055389404297 C 66.34825897216797 81.5853271484375 70.84021759033203 78.55654907226562 74.69838714599609 74.69837951660156 C 78.55656433105469 70.8402099609375 81.58533477783203 66.34825134277344 83.7005615234375 61.34728240966797 C 85.88983154296875 56.1712532043457 86.99989318847656 50.67121124267578 86.99989318847656 44.99993896484375 C 86.99989318847656 39.32866668701172 85.88983154296875 33.82860946655273 83.7005615234375 28.65258026123047 C 81.58533477783203 23.65162658691406 78.55656433105469 19.15966796875 74.69838714599609 15.30149841308594 C 70.84021759033203 11.44332122802734 66.34825897216797 8.41455078125 61.3472900390625 6.299324035644531 C 56.17126083374023 4.110054016113281 50.67121887207031 2.999992370605469 44.99994659423828 2.999992370605469 M 44.99994659423828 -7.62939453125e-06 C 69.85272216796875 -7.62939453125e-06 89.99989318847656 20.14715576171875 89.99989318847656 44.99993896484375 C 89.99989318847656 69.85270690917969 69.85272216796875 89.99988555908203 44.99994659423828 89.99988555908203 C 20.14717864990234 89.99988555908203 0 69.85270690917969 0 44.99993896484375 C 0 20.14715576171875 20.14717864990234 -7.62939453125e-06 44.99994659423828 -7.62939453125e-06 Z" stroke="none" fill="#8b5e6f"/>
                    </g>
                  </g>
                </g>
              </g>
            </g>
          </g>
        </g>
      </g>
    </g>
    <g id="rompecabezas_1_" data-name="rompecabezas (1)" transform="translate(218.572 4889.575)">
      <g id="Grupo_1231535" data-name="Grupo 1231535" transform="translate(0.984 20.381)">
        <path id="Trazado_1192871" data-name="Trazado 1192871" d="M365.951,58.225a9.457,9.457,0,0,0-5.4-7.654,1.213,1.213,0,0,1-.662-1.33,8.364,8.364,0,0,0-8.274-9.9,1.219,1.219,0,0,1-1.146-.8,5.986,5.986,0,0,0-2.022-2.675h-1.895L345.043,39.5v6.415l3.279.995-3.279,3.738v7.082l.907,1.4h.115a.836.836,0,0,1,.629.285h6.223a.836.836,0,0,1,.629-.285h11.568a.835.835,0,0,0,.837-.906Z" transform="translate(-300.778 -34.696)" fill="#ff636e"/>
        <path id="Trazado_1192872" data-name="Trazado 1192872" d="M90.035,138.345a2.947,2.947,0,0,0-2.969-2.8H85.988a.839.839,0,0,1-.839-.839v-3.744a6.116,6.116,0,0,0-1.657-4.187h-2.57l-5.77,3.355s-3.665,7.092-4.368,7.306-2.364,4.465-2.452,4.7-2.623,3.57-2.623,3.57l1.022,3.626-1.022.645H83.545l1.6-.645v-7.143a.839.839,0,0,1,.839-.839h1.148A2.9,2.9,0,0,0,90.035,138.345Z" transform="translate(-58.077 -113.681)" fill="#ffe02f"/>
        <path id="Trazado_1192873" data-name="Trazado 1192873" d="M21.6,128.317a1.213,1.213,0,0,0,.662-1.33,8.364,8.364,0,0,1,8.274-9.9,1.219,1.219,0,0,0,1.146-.8,5.972,5.972,0,0,1,1.234-1.972,5.888,5.888,0,0,0-4.179-1.879,5.966,5.966,0,0,0-5.711,3.851,1.219,1.219,0,0,1-1.146.8,8.364,8.364,0,0,0-8.274,9.9,1.213,1.213,0,0,1-.662,1.33A9.451,9.451,0,0,0,7.5,136.878l1.251.645h8.655l-1.251-.645A9.452,9.452,0,0,1,21.6,128.317Z" transform="translate(-7.503 -101.224)" fill="#fbc700"/>
        <path id="Trazado_1192874" data-name="Trazado 1192874" d="M312.591,51.335h-6.3a.839.839,0,0,1-.839-.839v-6.3a.839.839,0,0,1,.839-.839h1.148a2.9,2.9,0,0,0,2.9-3.007,2.947,2.947,0,0,0-2.969-2.8h-1.079a.839.839,0,0,1-.839-.839V32.966a6.113,6.113,0,0,1,2.443-4.89A5.936,5.936,0,0,0,304.2,26.9a6.032,6.032,0,0,0-5.836,6.066v3.744a.839.839,0,0,0,.839.839h1.079a2.946,2.946,0,0,1,2.969,2.8,2.9,2.9,0,0,1-2.9,3.007h-1.148a.839.839,0,0,0-.839.839v6.3a.839.839,0,0,0,.839.839h6.3a.839.839,0,0,1,.839.839v1.079a2.946,2.946,0,0,0,2.8,2.969,2.9,2.9,0,0,0,3.007-2.9V52.174a.839.839,0,0,1,.64-.814A.845.845,0,0,0,312.591,51.335Z" transform="translate(-260.222 -26.899)" fill="#ff4654"/>
        <path id="Trazado_1192875" data-name="Trazado 1192875" d="M202.572,298.772H191a.839.839,0,0,0-.839.839v1.079a2.946,2.946,0,0,1-2.8,2.969,2.9,2.9,0,0,1-3.007-2.9v-1.148a.839.839,0,0,0-.839-.839H176.38l-.9.935v6.005H172.9l-2.186,2.833v2.444l2.229,2.2h2.492v2.885l.948,1.068a6.032,6.032,0,0,0,5.836,6.066,5.966,5.966,0,0,0,5.711-3.851,1.219,1.219,0,0,1,1.146-.8,8.366,8.366,0,0,0,8.274-9.9,1.213,1.213,0,0,1,.662-1.33,9.457,9.457,0,0,0,5.4-7.654.836.836,0,0,0-.837-.906Z" transform="translate(-149.308 -263.118)" fill="#60b9fe"/>
        <path id="Trazado_1192876" data-name="Trazado 1192876" d="M77.166,265.544v-1.079a2.947,2.947,0,0,0-2.8-2.969,2.9,2.9,0,0,0-3.007,2.9v1.148a.839.839,0,0,1-.839.839H66.732l-1.022.645s2.011,6.819,2.535,7.781,4.721,7.606,4.721,8.131,3.322,4.022,3.322,4.022l7.2,1.977a6.116,6.116,0,0,0,1.657-4.187v-3.744a.839.839,0,0,0-.839-.839H83.161a2.9,2.9,0,0,1-2.9-3.007,2.947,2.947,0,0,1,2.969-2.8h1.079a.839.839,0,0,0,.839-.839v-7.143H78.005a.839.839,0,0,1-.839-.839Z" transform="translate(-58.077 -230.73)" fill="#73d578"/>
        <g id="Grupo_1231534" data-name="Grupo 1231534" transform="translate(0 35.653)">
          <path id="Trazado_1192877" data-name="Trazado 1192877" d="M31.684,319.354a1.219,1.219,0,0,0-1.146-.8,8.365,8.365,0,0,1-8.274-9.9,1.213,1.213,0,0,0-.662-1.33,9.451,9.451,0,0,1-5.444-8.561H7.5a9.451,9.451,0,0,0,5.444,8.561,1.213,1.213,0,0,1,.662,1.33,8.365,8.365,0,0,0,8.274,9.9,1.219,1.219,0,0,1,1.146.8,5.966,5.966,0,0,0,5.711,3.851,5.887,5.887,0,0,0,4.179-1.879A5.972,5.972,0,0,1,31.684,319.354Z" transform="translate(-7.503 -298.771)" fill="#00c63a"/>
        </g>
      </g>
      <g id="Grupo_1231536" data-name="Grupo 1231536" transform="translate(0 19.397)">
        <path id="Trazado_1192878" data-name="Trazado 1192878" d="M319.853,43.816a10.475,10.475,0,0,0-5.963-8.451.232.232,0,0,1-.113-.255,9.348,9.348,0,0,0-9.153-11.064h-.1a.238.238,0,0,1-.214-.161,6.966,6.966,0,0,0-6.5-4.487l-.15,0a7.04,7.04,0,0,0-6.8,7.049v3.744a1.825,1.825,0,0,0,1.823,1.823h1.079a1.97,1.97,0,0,1,1.986,1.847,1.916,1.916,0,0,1-1.916,1.988h-1.148a1.825,1.825,0,0,0-1.823,1.823v6.3a1.825,1.825,0,0,0,1.823,1.823h6.16v.935a3.953,3.953,0,0,0,3.744,3.952,3.881,3.881,0,0,0,4.025-3.882v-1h2.975a.984.984,0,0,0,0-1.967h-3.12a1.825,1.825,0,0,0-1.823,1.823V46.8a1.916,1.916,0,0,1-1.988,1.916,1.97,1.97,0,0,1-1.847-1.986V45.655a1.825,1.825,0,0,0-1.823-1.823h-6.16V37.817h1a3.882,3.882,0,0,0,3.882-4.025,3.953,3.953,0,0,0-3.952-3.744h-.935v-3.6a5.063,5.063,0,0,1,4.873-5.083,5,5,0,0,1,4.77,3.216,2.211,2.211,0,0,0,2.053,1.431h.1a7.38,7.38,0,0,1,7.221,8.729,2.194,2.194,0,0,0,1.21,2.4,8.5,8.5,0,0,1,4.822,6.686h-3.7a.984.984,0,1,0,0,1.967h3.859A1.82,1.82,0,0,0,319.853,43.816Z" transform="translate(-252.717 -19.397)"/>
        <path id="Trazado_1192879" data-name="Trazado 1192879" d="M54.248,129.373H42.679a1.825,1.825,0,0,0-1.823,1.823v1.079a1.97,1.97,0,0,1-1.847,1.986,1.916,1.916,0,0,1-1.988-1.916V131.2a1.825,1.825,0,0,0-1.823-1.823h-6.16v-6.015h1a3.885,3.885,0,0,0,3.882-4.025,3.953,3.953,0,0,0-3.952-3.744h-.935v-3.6a7.04,7.04,0,0,0-6.8-7.049,6.955,6.955,0,0,0-6.652,4.485.238.238,0,0,1-.214.161h-.1A9.348,9.348,0,0,0,6.123,120.65a.232.232,0,0,1-.113.256,10.436,10.436,0,0,0,0,18.9.231.231,0,0,1,.113.255,9.349,9.349,0,0,0,9.154,11.064h.1a.238.238,0,0,1,.214.161,6.917,6.917,0,0,0,12.466,1.031,6.917,6.917,0,0,0,12.466-1.031.238.238,0,0,1,.214-.161h.1A9.263,9.263,0,0,0,45.259,150a.984.984,0,1,0-.942-1.727,7.186,7.186,0,0,1-3.481.884h-.1a2.211,2.211,0,0,0-2.053,1.431,5,5,0,0,1-4.77,3.216,5.062,5.062,0,0,1-4.873-5.082v-3.744h0a1.825,1.825,0,0,0-1.823-1.823H26.068a1.916,1.916,0,0,1-1.916-1.988,1.97,1.97,0,0,1,1.986-1.847h1.079a1.825,1.825,0,0,0,1.813-1.637,1.858,1.858,0,0,0,.009-.186v-6.16h6.015v1a3.882,3.882,0,0,0,4.025,3.882,3.953,3.953,0,0,0,3.744-3.952v-.935H54.087a8.5,8.5,0,0,1-4.822,6.686,2.193,2.193,0,0,0-1.21,2.4,7.319,7.319,0,0,1-.847,5,.983.983,0,1,0,1.707.978,9.288,9.288,0,0,0,1.072-6.348.232.232,0,0,1,.113-.255,10.475,10.475,0,0,0,5.963-8.451,1.809,1.809,0,0,0-.463-1.385,1.834,1.834,0,0,0-1.353-.6Zm-27.176,7.983h-.935a3.953,3.953,0,0,0-3.952,3.744,3.882,3.882,0,0,0,3.882,4.025h1v3.6a5.063,5.063,0,0,1-4.873,5.083,5,5,0,0,1-4.77-3.216,2.211,2.211,0,0,0-2.053-1.431h-.022a7.382,7.382,0,0,1-7.3-8.729,2.194,2.194,0,0,0-1.21-2.4,8.514,8.514,0,0,1-4.82-6.686H13.432a1.825,1.825,0,0,0,1.823-1.823v-1.079a1.919,1.919,0,1,1,3.835,0v1.079a1.825,1.825,0,0,0,1.823,1.823h6.16v6.015Zm1.823-15.965a1.825,1.825,0,0,0-1.823,1.823v6.16H21.056v-1a3.885,3.885,0,1,0-7.769.069v.935H2.025a8.514,8.514,0,0,1,4.82-6.686,2.194,2.194,0,0,0,1.21-2.4,7.381,7.381,0,0,1,7.221-8.729h.1a2.211,2.211,0,0,0,2.053-1.431,5,5,0,0,1,4.77-3.216,5.063,5.063,0,0,1,4.873,5.082v3.744a1.825,1.825,0,0,0,1.823,1.823h1.079a1.97,1.97,0,0,1,1.986,1.847,1.918,1.918,0,0,1-1.916,1.988H28.895Z" transform="translate(0 -93.72)"/>
      </g>
    </g>
  </g>
</svg>
