<svg xmlns="http://www.w3.org/2000/svg" xmlns:xlink="http://www.w3.org/1999/xlink" width="400" height="329" viewBox="0 0 400 329">
  <defs>
    <clipPath id="clip-path">
      <rect id="Rect치ngulo_423050" data-name="Rect치ngulo 423050" width="400" height="329" transform="translate(179.555 1661)" fill="#fff" stroke="#707070" stroke-width="1"/>
    </clipPath>
    <clipPath id="clip-path-2">
      <rect id="Rect치ngulo_422957" data-name="Rect치ngulo 422957" width="418.837" height="314.128" transform="translate(179.555 3660)" fill="#fff" stroke="#707070" stroke-width="1"/>
    </clipPath>
  </defs>
  <g id="Enmascarar_grupo_1225074" data-name="Enmascarar grupo 1225074" transform="translate(-179.555 -1661)" clip-path="url(#clip-path)">
    <g id="Enmascarar_grupo_1211511" data-name="Enmascarar grupo 1211511" transform="translate(-8.391 -1981.668)" clip-path="url(#clip-path-2)">
      <g id="Grupo_1230769" data-name="Grupo 1230769" transform="translate(195.437 3660)">
        <g id="Grupo_1230500" data-name="Grupo 1230500" transform="translate(119.315 70.371)">
          <g id="Grupo_1230499" data-name="Grupo 1230499" transform="translate(0)">
            <path id="Trazado_1182068" data-name="Trazado 1182068" d="M2155.253,787.273l-3.587-8.4c-11.194,4.793-20.5,5.758-29.354,2.823a35.394,35.394,0,0,1-7.537-4.016c-1.972-1.16-4.191.084-5.786,1.725l-.739.761a4.675,4.675,0,0,0,.594,7.027,36.162,36.162,0,0,0,10.591,5.457C2127.129,795.02,2140.769,795.03,2155.253,787.273Z" transform="translate(-2106.929 -777.227)" fill="#ffba41"/>
          </g>
        </g>
        <g id="Grupo_1230501" data-name="Grupo 1230501" transform="translate(0 237.311)">
          <ellipse id="Elipse_12893" data-name="Elipse 12893" cx="193.536" cy="31.699" rx="193.536" ry="31.699" fill="#786ab5"/>
        </g>
        <g id="Grupo_1230502" data-name="Grupo 1230502" transform="translate(27.093 148.588)">
          <path id="Trazado_1182069" data-name="Trazado 1182069" d="M1835.576,1137.255s-74.236-64.718-94.372-42.509,61.176,31.576,82.077,51.148Z" transform="translate(-1738.026 -1090.105)" fill="#553e93"/>
        </g>
        <g id="Grupo_1230506" data-name="Grupo 1230506" transform="translate(48.227 130.775)">
          <g id="Grupo_1230503" data-name="Grupo 1230503" transform="translate(0 0)">
            <path id="Trazado_1182070" data-name="Trazado 1182070" d="M1887.929,1075.614s-40.415-68.165-61.038-55.1,38.592,38.907,49.641,59.171Z" transform="translate(-1822.565 -1018.851)" fill="#786ab5"/>
          </g>
          <g id="Grupo_1230505" data-name="Grupo 1230505" transform="translate(11.362 9.891)">
            <g id="Grupo_1230504" data-name="Grupo 1230504">
              <path id="Trazado_1182071" data-name="Trazado 1182071" d="M1915.663,1107.626c-7.391-14.146-19.951-26.62-29.187-34.593a179.828,179.828,0,0,0-18.46-14.057l.318-.56a180.461,180.461,0,0,1,18.53,14.108c9.276,8.008,21.9,20.543,29.333,34.778Z" transform="translate(-1868.016 -1058.417)" fill="#fff"/>
            </g>
          </g>
        </g>
        <g id="Grupo_1230520" data-name="Grupo 1230520" transform="translate(9.117 163.05)">
          <g id="Grupo_1230508" data-name="Grupo 1230508" transform="translate(0 0)">
            <g id="Grupo_1230507" data-name="Grupo 1230507">
              <path id="Trazado_1182072" data-name="Trazado 1182072" d="M1826.462,1247.883c-7.989.164-16.138.376-24.3.616-11.188.332-22.4.714-33.265,1.091-.142-.326-.21-.509-.21-.509-10.474-10.758-8.653-9.154-32.137-4.93-16.841,3.02-18.856-11.807-26.025-22.538q-.2-.3-.407-.595c-2.769-3.972-6.32-7.309-11.71-8.843a68.9,68.9,0,0,1-16.688-7.237c-.426-.258-.848-.52-1.261-.789-10.15-6.536-17-15.545-13.345-24.894v0c.088-.223.179-.442.28-.664a19.733,19.733,0,0,1,2.967-4.655c13.574-16.175,27.385-10.463,43.315-8.013,8.8,1.355,21.336-9.868,33.661-15.222l.013-.006c.177-.077.354-.153.531-.227,9.787-4.117,19.407-4.355,26.88,8.542,0,0,0,0,0,0,.153.262.3.522.454.778,12.272,20.867,19.96,20.867,32.474,21.465a104.389,104.389,0,0,1,10.813.955c1.608.241,3.3.546,5.07.942l.179.039h0a30.383,30.383,0,0,1,9.088,3.138c.046.026.092.055.135.085a11.057,11.057,0,0,1,1.475,1.1,42.5,42.5,0,0,1,4.493,4.63q.862,1.039,1.615,2.1C1853.421,1212.242,1843.531,1233.917,1826.462,1247.883Z" transform="translate(-1666.12 -1147.956)" fill="#c8c1e1"/>
            </g>
          </g>
          <g id="Grupo_1230519" data-name="Grupo 1230519" transform="translate(0.936 2.445)">
            <g id="Grupo_1230510" data-name="Grupo 1230510" transform="translate(0 28.165)">
              <g id="Grupo_1230509" data-name="Grupo 1230509">
                <path id="Trazado_1182073" data-name="Trazado 1182073" d="M1823.2,1317.632l.835-1.083c-.477-.368-49-36.934-154.046-46.147l-.12,1.363C1774.516,1280.945,1822.722,1317.267,1823.2,1317.632Z" transform="translate(-1669.866 -1270.401)" fill="#fff"/>
              </g>
            </g>
            <g id="Grupo_1230512" data-name="Grupo 1230512" transform="translate(89.636 8.408)">
              <g id="Grupo_1230511" data-name="Grupo 1230511">
                <path id="Trazado_1182074" data-name="Trazado 1182074" d="M2029.273,1213.533c14.678-11.6,17.756-21.355,17.88-21.765l-1.309-.4c-.029.1-3.117,9.787-17.42,21.088Z" transform="translate(-2028.424 -1191.371)" fill="#fff"/>
              </g>
            </g>
            <g id="Grupo_1230514" data-name="Grupo 1230514" transform="translate(79.609)">
              <g id="Grupo_1230513" data-name="Grupo 1230513">
                <path id="Trazado_1182075" data-name="Trazado 1182075" d="M1995.838,1202.878c4.339-6.621,4.606-16.546.771-28.7a91.449,91.449,0,0,0-7.117-16.44l-1.182.688c.165.283,16.36,28.481,6.382,43.7Z" transform="translate(-1988.311 -1157.736)" fill="#fff"/>
              </g>
            </g>
            <g id="Grupo_1230516" data-name="Grupo 1230516" transform="translate(13.341 37.82)">
              <g id="Grupo_1230515" data-name="Grupo 1230515">
                <path id="Trazado_1182076" data-name="Trazado 1182076" d="M1769.492,1312.192c1.74-1.276,2.69-2.117,2.733-2.156l-.915-1.017c-.2.179-20.23,17.868-47.951,15.248l-.128,1.361C1745.567,1327.739,1763.009,1316.945,1769.492,1312.192Z" transform="translate(-1723.231 -1309.02)" fill="#fff"/>
              </g>
            </g>
            <g id="Grupo_1230518" data-name="Grupo 1230518" transform="translate(42.973 44.74)">
              <g id="Grupo_1230517" data-name="Grupo 1230517">
                <path id="Trazado_1182077" data-name="Trazado 1182077" d="M1842.723,1363.647a32.272,32.272,0,0,0,9.756-18.272,23.892,23.892,0,0,0-.12-8.671l-1.327.334c.033.133,3.169,13.431-9.267,25.633Z" transform="translate(-1841.764 -1336.704)" fill="#fff"/>
              </g>
            </g>
          </g>
        </g>
        <g id="Grupo_1230521" data-name="Grupo 1230521" transform="translate(221.375 115.268)" opacity="0.6">
          <path id="Trazado_1182078" data-name="Trazado 1182078" d="M2515.18,1051.9s31.4-104.036,60.278-94.461-37.017,65.055-45.163,95.63Z" transform="translate(-2515.18 -956.821)" fill="#553e93"/>
        </g>
        <g id="Grupo_1230525" data-name="Grupo 1230525" transform="translate(235.542 123.157)">
          <g id="Grupo_1230522" data-name="Grupo 1230522" transform="translate(0)">
            <path id="Trazado_1182079" data-name="Trazado 1182079" d="M2571.85,1059.555s71.809-89.05,101.574-67.942-64.805,48.618-84.673,75.228Z" transform="translate(-2571.85 -988.377)" fill="#c8c1e1"/>
          </g>
          <g id="Grupo_1230524" data-name="Grupo 1230524" transform="translate(8.645 13.633)">
            <g id="Grupo_1230523" data-name="Grupo 1230523">
              <path id="Trazado_1182080" data-name="Trazado 1182080" d="M2607.2,1104.614c13.374-18.622,34.439-34.182,49.755-43.957a280.988,280.988,0,0,1,30.345-16.922l-.407-.824a282.04,282.04,0,0,0-30.459,16.984c-15.384,9.818-36.548,25.455-50.006,44.193Z" transform="translate(-2606.431 -1042.912)" fill="#fff"/>
            </g>
          </g>
        </g>
        <g id="Grupo_1230539" data-name="Grupo 1230539" transform="translate(181.641 167.322)">
          <g id="Grupo_1230527" data-name="Grupo 1230527">
            <g id="Grupo_1230526" data-name="Grupo 1230526">
              <path id="Trazado_1182081" data-name="Trazado 1182081" d="M2513.728,1239.6c-19.946-.443-23.165,28.22-43.67,17.984-17.341-8.667-18.51-10.667-26.031-7.025a29.972,29.972,0,0,0-7.032,4.792c-2.522,2.284-7.107,5.446-12.9,5.1-35.358-2.144-115.583-47.687-29.094-80.389,3.082-1.165,6.911-1.221,11.187-.886,23.19,1.834,27.9,13.436,51.4-8.053s39.092,20.81,54.419,23.022,29.573.93,37.758,19.1S2533.672,1240.052,2513.728,1239.6Z" transform="translate(-2356.24 -1165.043)" fill="#553e93"/>
            </g>
          </g>
          <g id="Grupo_1230538" data-name="Grupo 1230538" transform="translate(41.019 5.824)" opacity="0.5">
            <g id="Grupo_1230529" data-name="Grupo 1230529" transform="translate(0 37.731)">
              <g id="Grupo_1230528" data-name="Grupo 1230528">
                <path id="Trazado_1182082" data-name="Trazado 1182082" d="M2520.8,1348.746l-.479-1.2c.538-.2,55-19.409,154.211,1.369l-.254,1.249C2575.438,1329.466,2521.337,1348.551,2520.8,1348.746Z" transform="translate(-2520.323 -1339.268)" fill="#fff"/>
              </g>
            </g>
            <g id="Grupo_1230531" data-name="Grupo 1230531" transform="translate(59.677 0.24)">
              <g id="Grupo_1230530" data-name="Grupo 1230530">
                <path id="Trazado_1182083" data-name="Trazado 1182083" d="M2769.7,1213.64c-10.423-14.393-10.653-23.943-10.658-24.342l1.312.008c0,.094.257,9.587,10.414,23.612Z" transform="translate(-2759.039 -1189.298)" fill="#fff"/>
              </g>
            </g>
            <g id="Grupo_1230533" data-name="Grupo 1230533" transform="translate(68.722)">
              <g id="Grupo_1230532" data-name="Grupo 1230532">
                <path id="Trazado_1182084" data-name="Trazado 1182084" d="M2796.027,1226.841c-2.229-7.1.176-16.025,6.954-25.806a83.724,83.724,0,0,1,10.945-12.7l.9.94c-.227.207-22.674,20.881-17.549,37.21Z" transform="translate(-2795.219 -1188.34)" fill="#fff"/>
              </g>
            </g>
            <g id="Grupo_1230535" data-name="Grupo 1230535" transform="translate(94.056 39.068)">
              <g id="Grupo_1230534" data-name="Grupo 1230534">
                <path id="Trazado_1182085" data-name="Trazado 1182085" d="M2898.5,1347.948c-1.262-1.618-1.913-2.63-1.943-2.677l1.114-.654c.136.214,13.863,21.516,40.1,26.832l-.246,1.249C2916.388,1368.414,2903.206,1353.977,2898.5,1347.948Z" transform="translate(-2896.561 -1344.617)" fill="#fff"/>
              </g>
            </g>
            <g id="Grupo_1230537" data-name="Grupo 1230537" transform="translate(97.889 47.408)">
              <g id="Grupo_1230536" data-name="Grupo 1230536">
                <path id="Trazado_1182086" data-name="Trazado 1182086" d="M2916.239,1404.662c-4.477-7.818-4.7-14.64-4.107-18.986a21.548,21.548,0,0,1,2.426-7.7l1.133.664c-.066.109-6.5,11.1,1.691,25.415Z" transform="translate(-2911.892 -1377.978)" fill="#fff"/>
              </g>
            </g>
          </g>
        </g>
        <g id="Grupo_1230540" data-name="Grupo 1230540" transform="translate(293.968 107.923)">
          <path id="Trazado_1182087" data-name="Trazado 1182087" d="M2809.676,930.792c2.485-3.555,4.4-3.837,5.843-2.88s1.88,2.79-.6,6.345c-4.527,6.476-9.333,7.873-9.333,7.873S2805.083,937.362,2809.676,930.792Z" transform="translate(-2805.565 -927.44)" fill="#786ab5"/>
        </g>
        <g id="Grupo_1230541" data-name="Grupo 1230541" transform="translate(306.752 182.611)">
          <path id="Trazado_1182088" data-name="Trazado 1182088" d="M2869.361,1226.211c4.728-.114,6.185,1.308,6.248,3.1s-1.292,3.287-6.019,3.4c-8.611.209-12.887-2.943-12.887-2.943S2860.626,1226.423,2869.361,1226.211Z" transform="translate(-2856.702 -1226.204)" fill="#553e93"/>
        </g>
        <g id="Grupo_1230542" data-name="Grupo 1230542" transform="translate(300.861 170.938)">
          <path id="Trazado_1182089" data-name="Trazado 1182089" d="M2838.865,1182.24c2.987-3.17,4.923-3.184,6.215-2.039s1.453,3.018-1.533,6.188c-5.44,5.775-10.409,6.492-10.409,6.492S2833.349,1188.1,2838.865,1182.24Z" transform="translate(-2833.138 -1179.507)" fill="#553e93"/>
        </g>
        <g id="Grupo_1230547" data-name="Grupo 1230547" transform="translate(94.698 231.092)">
          <g id="Grupo_1230545" data-name="Grupo 1230545" transform="translate(0 9.107)">
            <g id="Grupo_1230543" data-name="Grupo 1230543" transform="translate(0 6.276)">
              <ellipse id="Elipse_12894" data-name="Elipse 12894" cx="102.912" cy="17.699" rx="102.912" ry="17.699" fill="#ffba41"/>
            </g>
            <g id="Grupo_1230544" data-name="Grupo 1230544" transform="translate(0.684)">
              <path id="Trazado_1182090" data-name="Trazado 1182090" d="M2028,1456.56s-12.476,9.631-16.8,21.926l205.139,2.05s-1.963-9.769-17.486-23.976Z" transform="translate(-2011.193 -1456.56)" fill="#ffba41"/>
            </g>
          </g>
          <g id="Grupo_1230546" data-name="Grupo 1230546" transform="translate(17.487)">
            <ellipse id="Elipse_12895" data-name="Elipse 12895" cx="85.425" cy="9.107" rx="85.425" ry="9.107" fill="#fecaff"/>
          </g>
        </g>
        <g id="Grupo_1230590" data-name="Grupo 1230590" transform="translate(126.551 116.648)">
          <g id="Grupo_1230549" data-name="Grupo 1230549" transform="translate(20.915 6.537)">
            <g id="Grupo_1230548" data-name="Grupo 1230548">
              <path id="Trazado_1182091" data-name="Trazado 1182091" d="M2323.069,1021.418c0,.086,0,.17,0,.256a107.386,107.386,0,0,1-.784,12.446l-.031.253q-.539,4.306-1.414,8.274c-.019.086-.036.172-.058.256a81.871,81.871,0,0,1-2.177,7.949c-.026.086-.055.172-.084.256a72.255,72.255,0,0,1-8.444,17.4c-.055.086-.112.17-.172.256a67.675,67.675,0,0,1-8.308,10.09c-.084.086-.17.17-.256.254a69.406,69.406,0,0,1-5.377,4.8l-.318.254a74.583,74.583,0,0,1-17.55,10.315c-.014,0-.027.012-.041.017l-.083.036c-18.916,7.891-37.974,7.181-44.2,2.71-7.085-5.081-9.595-14.891-10.174-25.774-.029-.519-.053-1.041-.07-1.567-.615-16.809,3.009-35.725,1.385-43.621-4.81-23.4-5.38-37.785-5.38-37.785h99.778q1.9,8.745,2.81,16.656l.031.253q.638,5.551.83,10.709c0,.086.007.17.01.256Q2323.085,1018.936,2323.069,1021.418Z" transform="translate(-2219.534 -988.489)" fill="#ff443c"/>
            </g>
          </g>
          <g id="Grupo_1230551" data-name="Grupo 1230551" transform="translate(0 5.749)">
            <g id="Grupo_1230550" data-name="Grupo 1230550">
              <path id="Trazado_1182092" data-name="Trazado 1182092" d="M2157.146,985.336s-12.585,9.893-8.234,33.845c2.973,16.368-15.452,29.651-12.772,34.659s12.39,1.594,14.035,7.108c2.042,6.839,1.958,10.932,3.318,20.719,1.714,12.342,15.164,30.577,61.816,10.458,58.187-25.093,0-74.74,0-74.74Z" transform="translate(-2135.872 -985.336)" fill="#ff443c"/>
            </g>
          </g>
          <g id="Grupo_1230553" data-name="Grupo 1230553" transform="translate(75.171 46.758)">
            <g id="Grupo_1230552" data-name="Grupo 1230552" transform="translate(0 0)">
              <circle id="Elipse_12896" data-name="Elipse 12896" cx="1.993" cy="1.993" r="1.993" transform="translate(0 3.934) rotate(-80.782)" fill="#daebe8"/>
            </g>
          </g>
          <g id="Grupo_1230555" data-name="Grupo 1230555" transform="translate(84.445 31.675)">
            <g id="Grupo_1230554" data-name="Grupo 1230554" transform="translate(0 0)">
              <circle id="Elipse_12897" data-name="Elipse 12897" cx="1.993" cy="1.993" r="1.993" transform="translate(0 1.525) rotate(-22.5)" fill="#daebe8"/>
            </g>
          </g>
          <g id="Grupo_1230557" data-name="Grupo 1230557" transform="translate(53.243 42.032)">
            <g id="Grupo_1230556" data-name="Grupo 1230556" transform="translate(0 0)">
              <circle id="Elipse_12898" data-name="Elipse 12898" cx="1.993" cy="1.993" r="1.993" transform="translate(0 3.934) rotate(-80.782)" fill="#daebe8"/>
            </g>
          </g>
          <g id="Grupo_1230559" data-name="Grupo 1230559" transform="translate(85.039 67.035)">
            <g id="Grupo_1230558" data-name="Grupo 1230558">
              <path id="Trazado_1182093" data-name="Trazado 1182093" d="M2476.04,1232.483a1.993,1.993,0,1,1,1.993,1.993A1.993,1.993,0,0,1,2476.04,1232.483Z" transform="translate(-2476.04 -1230.49)" fill="#daebe8"/>
            </g>
          </g>
          <g id="Grupo_1230561" data-name="Grupo 1230561" transform="translate(84.76 58.535)">
            <g id="Grupo_1230560" data-name="Grupo 1230560" transform="translate(0 0)">
              <circle id="Elipse_12899" data-name="Elipse 12899" cx="1.993" cy="1.993" r="1.993" transform="translate(0 3.934) rotate(-80.782)" fill="#daebe8"/>
            </g>
          </g>
          <g id="Grupo_1230563" data-name="Grupo 1230563" transform="translate(70.192 65.043)">
            <g id="Grupo_1230562" data-name="Grupo 1230562">
              <path id="Trazado_1182094" data-name="Trazado 1182094" d="M2416.65,1224.512a1.993,1.993,0,1,1,1.993,1.992A1.993,1.993,0,0,1,2416.65,1224.512Z" transform="translate(-2416.65 -1222.519)" fill="#daebe8"/>
            </g>
          </g>
          <g id="Grupo_1230565" data-name="Grupo 1230565" transform="translate(50.699 59.004)">
            <g id="Grupo_1230564" data-name="Grupo 1230564" transform="translate(0 0)">
              <circle id="Elipse_12900" data-name="Elipse 12900" cx="1.993" cy="1.993" r="1.993" transform="translate(0 2.818) rotate(-45)" fill="#daebe8"/>
            </g>
          </g>
          <g id="Grupo_1230567" data-name="Grupo 1230567" transform="translate(56.988 76.55)">
            <g id="Grupo_1230566" data-name="Grupo 1230566" transform="translate(0 0)">
              <circle id="Elipse_12901" data-name="Elipse 12901" cx="1.993" cy="1.993" r="1.993" transform="translate(0 2.818) rotate(-45)" fill="#daebe8"/>
            </g>
          </g>
          <g id="Grupo_1230569" data-name="Grupo 1230569" transform="translate(61.41 105.596)">
            <g id="Grupo_1230568" data-name="Grupo 1230568" transform="translate(0 0)">
              <circle id="Elipse_12902" data-name="Elipse 12902" cx="1.993" cy="1.993" r="1.993" transform="translate(0 3.879) rotate(-76.714)" fill="#daebe8"/>
            </g>
          </g>
          <g id="Grupo_1230571" data-name="Grupo 1230571" transform="translate(77.353 39.466)">
            <g id="Grupo_1230570" data-name="Grupo 1230570">
              <path id="Trazado_1182095" data-name="Trazado 1182095" d="M2492.392,1120.21c0,.086,0,.17,0,.256h-37.5l-9.417,9.417-.179-.179,1.407-1.406,5.336-5.339,2.748-2.748Z" transform="translate(-2445.295 -1120.21)" fill="#daebe8"/>
            </g>
          </g>
          <g id="Grupo_1230573" data-name="Grupo 1230573" transform="translate(87.031 34.155)">
            <g id="Grupo_1230572" data-name="Grupo 1230572">
              <path id="Trazado_1182096" data-name="Trazado 1182096" d="M2521.354,1099.222H2484.01v-.256h37.333C2521.346,1099.052,2521.351,1099.135,2521.354,1099.222Z" transform="translate(-2484.01 -1098.966)" fill="#daebe8"/>
            </g>
          </g>
          <g id="Grupo_1230575" data-name="Grupo 1230575" transform="translate(72.092 52.168)">
            <g id="Grupo_1230574" data-name="Grupo 1230574">
              <path id="Trazado_1182097" data-name="Trazado 1182097" d="M2475.823,1171.02h-36.712l-13.412,13.412-1.45,1.448.183.18,1.445-1.445,13.343-13.342h36.573Z" transform="translate(-2424.25 -1171.02)" fill="#daebe8"/>
            </g>
          </g>
          <g id="Grupo_1230577" data-name="Grupo 1230577" transform="translate(87.882 60.695)">
            <g id="Grupo_1230576" data-name="Grupo 1230576">
              <path id="Trazado_1182098" data-name="Trazado 1182098" d="M2521.751,1205.13c-.02.086-.036.172-.058.256h-34.281v-.256Z" transform="translate(-2487.413 -1205.13)" fill="#daebe8"/>
            </g>
          </g>
          <g id="Grupo_1230579" data-name="Grupo 1230579" transform="translate(87.884 68.9)">
            <g id="Grupo_1230578" data-name="Grupo 1230578">
              <path id="Trazado_1182099" data-name="Trazado 1182099" d="M2519.525,1237.95c-.026.086-.055.172-.084.256h-32.02v-.256Z" transform="translate(-2487.421 -1237.95)" fill="#daebe8"/>
            </g>
          </g>
          <g id="Grupo_1230581" data-name="Grupo 1230581" transform="translate(53.433 61.73)">
            <g id="Grupo_1230580" data-name="Grupo 1230580">
              <path id="Trazado_1182100" data-name="Trazado 1182100" d="M2407.635,1234.1h-33.016l-23.424-23.422-1.4-1.405-.18.18,1.405,1.4,23.5,23.5h32.949Z" transform="translate(-2349.61 -1209.27)" fill="#daebe8"/>
            </g>
          </g>
          <g id="Grupo_1230583" data-name="Grupo 1230583" transform="translate(55.425 23.192)">
            <g id="Grupo_1230582" data-name="Grupo 1230582">
              <path id="Trazado_1182101" data-name="Trazado 1182101" d="M2425.658,1055.11H2378.62l-8.363,8.36-11.272,11.275-1.405,1.4.18.18,1.407-1.4,11.322-11.325,8.235-8.235h46.966Z" transform="translate(-2357.58 -1055.11)" fill="#daebe8"/>
            </g>
          </g>
          <g id="Grupo_1230585" data-name="Grupo 1230585" transform="translate(59.72 79.277)">
            <g id="Grupo_1230584" data-name="Grupo 1230584">
              <path id="Trazado_1182102" data-name="Trazado 1182102" d="M2418.02,1297.086c-.084.086-.17.17-.256.254h-25.3l-17.7-17.7.18-.182,1.406,1.407,16.218,16.22h25.454Z" transform="translate(-2374.762 -1279.459)" fill="#daebe8"/>
            </g>
          </g>
          <g id="Grupo_1230587" data-name="Grupo 1230587" transform="translate(63.165 101.954)">
            <g id="Grupo_1230586" data-name="Grupo 1230586">
              <path id="Trazado_1182103" data-name="Trazado 1182103" d="M2422.722,1370.17h-19.929l-11.939,4.925-2.312.952.1.235,2.337-.962,11.867-4.9H2422.4Z" transform="translate(-2388.541 -1370.17)" fill="#daebe8"/>
            </g>
          </g>
          <g id="Grupo_1230589" data-name="Grupo 1230589" transform="translate(20.916)">
            <g id="Grupo_1230588" data-name="Grupo 1230588">
              <ellipse id="Elipse_12903" data-name="Elipse 12903" cx="49.889" cy="6.536" rx="49.889" ry="6.536" fill="#553e93"/>
            </g>
          </g>
        </g>
        <g id="Grupo_1230611" data-name="Grupo 1230611" transform="translate(139.951 51.161)">
          <g id="Grupo_1230591" data-name="Grupo 1230591" transform="translate(0 0)">
            <path id="Trazado_1182104" data-name="Trazado 1182104" d="M2219.581,764.745s-24.171,6.283-28.79-12.861,4.407-26.245,4.407-26.245,1.257-10.371,10.472-14.724,13.638-3.124,13.638-3.124,8.666-7.906,19.7-7.383,12,2.621,12,2.621,15.533-6.06,23.35,2.244a15.877,15.877,0,0,1,16.581,7.457s12.76,5.164,14.188,15.222c0,0,9.212,8.637,6.1,19.268,0,0,5.4,15.549-5.695,20.092,0,0-5.466,8.163-21.452,2.069,0,0-13.285,2.584-19.262-2.043a8.027,8.027,0,0,0-5.749,3.072C2256.35,773.55,2225.691,785.036,2219.581,764.745Z" transform="translate(-2189.476 -700.383)" fill="#ff8548"/>
          </g>
          <g id="Grupo_1230610" data-name="Grupo 1230610" transform="translate(7.515 11.404)">
            <g id="Grupo_1230592" data-name="Grupo 1230592" transform="translate(24.386 36.351)">
              <path id="Trazado_1182105" data-name="Trazado 1182105" d="M2318.074,907.912a.664.664,0,0,1-.65-.534c-.8-4-.185-7.393,1.818-10.095,3.761-5.072,11.026-5.839,11.333-5.87a.664.664,0,1,1,.13,1.321c-.077.008-7,.749-10.4,5.345-1.767,2.387-2.3,5.428-1.578,9.039a.664.664,0,0,1-.521.78A.651.651,0,0,1,2318.074,907.912Z" transform="translate(-2317.085 -891.41)" fill="#ff443c"/>
            </g>
            <g id="Grupo_1230593" data-name="Grupo 1230593" transform="translate(39.495 49.791)">
              <path id="Trazado_1182106" data-name="Trazado 1182106" d="M2385,949.311a15.663,15.663,0,0,1-1.944-.124,17.466,17.466,0,0,1-5.167-1.462.663.663,0,0,1,.592-1.188c.084.042,8.029,3.888,13.871-1.2a.664.664,0,0,1,.872,1A12.246,12.246,0,0,1,2385,949.311Z" transform="translate(-2377.525 -945.172)" fill="#ff443c"/>
            </g>
            <g id="Grupo_1230594" data-name="Grupo 1230594" transform="translate(44.143 52.604)">
              <path id="Trazado_1182107" data-name="Trazado 1182107" d="M2396.778,963.619a.664.664,0,0,1-.257-1.275c.115-.049,2.573-1.168,1.805-5.13a.663.663,0,1,1,1.3-.252,6.34,6.34,0,0,1-.885,5.178,4.411,4.411,0,0,1-1.714,1.429A.659.659,0,0,1,2396.778,963.619Z" transform="translate(-2396.115 -956.424)" fill="#ff443c"/>
            </g>
            <g id="Grupo_1230595" data-name="Grupo 1230595" transform="translate(46.591 31.311)">
              <path id="Trazado_1182108" data-name="Trazado 1182108" d="M2406.571,884.74a.663.663,0,0,1-.03-1.326,25.212,25.212,0,0,0,7.559-1.746c4.819-2.02,7.195-5.3,7.063-9.737a.663.663,0,1,1,1.326-.039c.148,4.985-2.587,8.794-7.908,11.013a26.114,26.114,0,0,1-7.981,1.835Z" transform="translate(-2405.908 -871.246)" fill="#ff443c"/>
            </g>
            <g id="Grupo_1230596" data-name="Grupo 1230596" transform="translate(59.727 35.174)">
              <path id="Trazado_1182109" data-name="Trazado 1182109" d="M2466.958,891.849a32.813,32.813,0,0,1-8-1.116.663.663,0,0,1,.325-1.286c13.407,3.391,16.519-2.328,16.548-2.386a.663.663,0,1,1,1.18.606C2476.9,887.881,2474.748,891.849,2466.958,891.849Z" transform="translate(-2458.454 -886.699)" fill="#ff443c"/>
            </g>
            <g id="Grupo_1230597" data-name="Grupo 1230597" transform="translate(85.927 40.285)">
              <path id="Trazado_1182110" data-name="Trazado 1182110" d="M2574.969,920.382h-.023a.664.664,0,0,1-.641-.685,13.849,13.849,0,0,0-1.194-5.539c-1.66-3.608-4.76-5.521-9.213-5.687a.664.664,0,0,1,.049-1.326c6.245.232,9.1,3.665,10.39,6.5a14.978,14.978,0,0,1,1.294,6.093A.662.662,0,0,1,2574.969,920.382Z" transform="translate(-2563.26 -907.145)" fill="#ff443c"/>
            </g>
            <g id="Grupo_1230598" data-name="Grupo 1230598" transform="translate(2.609 12.701)">
              <path id="Trazado_1182111" data-name="Trazado 1182111" d="M2230.638,802.437a.664.664,0,0,1-.429-1.17c4.62-3.917,10.468-5.291,16.914-3.975a27.681,27.681,0,0,1,8.392,3.192.664.664,0,0,1-.7,1.125,26.861,26.861,0,0,0-7.994-3.025c-6.1-1.236-11.4.008-15.749,3.7A.66.66,0,0,1,2230.638,802.437Z" transform="translate(-2229.974 -796.807)" fill="#ff443c"/>
            </g>
            <g id="Grupo_1230599" data-name="Grupo 1230599" transform="translate(18.208 3.175)">
              <path id="Trazado_1182112" data-name="Trazado 1182112" d="M2293.833,769.406a.664.664,0,0,1-.6-.376c-3.075-6.391,3.074-10.2,3.137-10.233a.664.664,0,0,1,.686,1.136c-.219.133-5.172,3.232-2.627,8.522a.664.664,0,0,1-.6.951Z" transform="translate(-2292.374 -758.701)" fill="#ff443c"/>
            </g>
            <g id="Grupo_1230600" data-name="Grupo 1230600" transform="translate(0 27.835)">
              <path id="Trazado_1182113" data-name="Trazado 1182113" d="M2227.383,869.731a6.749,6.749,0,0,1-4.4-1.691,9.146,9.146,0,0,1-2.9-10.294.664.664,0,0,1,1.221.52,7.692,7.692,0,0,0,2.53,8.76,5.311,5.311,0,0,0,5.756.913c2.256-.937,3.813-2.973,3.875-3.724a.663.663,0,1,1,1.322.109c-.116,1.414-2.146,3.785-4.687,4.841A7.09,7.09,0,0,1,2227.383,869.731Z" transform="translate(-2219.538 -857.342)" fill="#ff443c"/>
            </g>
            <g id="Grupo_1230601" data-name="Grupo 1230601" transform="translate(9.209 38.728)">
              <path id="Trazado_1182114" data-name="Trazado 1182114" d="M2264.147,908.874a.663.663,0,0,1-.074,0c-2.639-.293-7.643-2.193-7.7-7.283a.664.664,0,0,1,1.327-.015c.058,5.2,6.455,5.972,6.52,5.979a.664.664,0,0,1-.073,1.323Z" transform="translate(-2256.374 -900.916)" fill="#ff443c"/>
            </g>
            <g id="Grupo_1230602" data-name="Grupo 1230602" transform="translate(21.042 11.205)">
              <path id="Trazado_1182115" data-name="Trazado 1182115" d="M2310.83,805.309a11.7,11.7,0,0,1-2.906-.384,14.413,14.413,0,0,1-3.916-1.648.664.664,0,0,1,.723-1.113h0c.058.037,5.861,3.719,10.506.473a6.76,6.76,0,0,0,3.04-5.763,6.088,6.088,0,0,0-2.182-4.834.663.663,0,0,1,.728-1.109,7.356,7.356,0,0,1,2.781,5.924,8.06,8.06,0,0,1-3.606,6.871A8.875,8.875,0,0,1,2310.83,805.309Z" transform="translate(-2303.707 -790.821)" fill="#ff443c"/>
            </g>
            <g id="Grupo_1230603" data-name="Grupo 1230603" transform="translate(48.167 7.297)">
              <path id="Trazado_1182116" data-name="Trazado 1182116" d="M2415.75,794.282a.663.663,0,0,1-.519-.249,12.494,12.494,0,0,1-2.559-11.328,10.539,10.539,0,0,1,7.224-7.016c3.332-1.055,7.119-.445,10.952,1.764a23.411,23.411,0,0,1,4.79,3.651.664.664,0,0,1-.958.918c-.071-.074-7.167-7.352-14.382-5.068a9.246,9.246,0,0,0-6.355,6.136,11.173,11.173,0,0,0,2.325,10.113.663.663,0,0,1-.517,1.078Z" transform="translate(-2412.212 -775.186)" fill="#ff443c"/>
            </g>
            <g id="Grupo_1230604" data-name="Grupo 1230604" transform="translate(60.226 12.057)">
              <path id="Trazado_1182117" data-name="Trazado 1182117" d="M2468.113,805.022c-6.112,0-7.561-3.8-7.622-3.966a.663.663,0,0,1,1.246-.456c.056.146,1.348,3.35,7.052,3.079a9.8,9.8,0,0,0,7.806-4.27,4.713,4.713,0,0,0,.689-4.264.663.663,0,1,1,1.228-.5,6,6,0,0,1-.8,5.479,11.176,11.176,0,0,1-8.863,4.882C2468.6,805.017,2468.353,805.022,2468.113,805.022Z" transform="translate(-2460.451 -794.23)" fill="#ff443c"/>
            </g>
            <g id="Grupo_1230605" data-name="Grupo 1230605" transform="translate(27.99)">
              <path id="Trazado_1182118" data-name="Trazado 1182118" d="M2332.167,755.517l-.063,0a.664.664,0,0,1-.6-.723c.021-.223.63-5.5,10.5-8.134a18.767,18.767,0,0,1,16.815,3.635.664.664,0,0,1-.891.984h0a17.752,17.752,0,0,0-15.582-3.337c-8.988,2.4-9.517,6.932-9.521,6.977A.664.664,0,0,1,2332.167,755.517Z" transform="translate(-2331.503 -745.999)" fill="#ff443c"/>
            </g>
            <g id="Grupo_1230606" data-name="Grupo 1230606" transform="translate(40.895 25.366)">
              <path id="Trazado_1182119" data-name="Trazado 1182119" d="M2392.619,857.822c-3.2,0-5.842-1.624-7.661-4.718a15.816,15.816,0,0,1-1.826-4.863.664.664,0,0,1,1.309-.221h0a14.721,14.721,0,0,0,1.68,4.442c1.657,2.8,3.964,4.151,6.869,4.024a.664.664,0,1,1,.059,1.326C2392.9,857.819,2392.762,857.822,2392.619,857.822Z" transform="translate(-2383.123 -847.468)" fill="#ff443c"/>
            </g>
            <g id="Grupo_1230607" data-name="Grupo 1230607" transform="translate(72.842 4.053)">
              <path id="Trazado_1182120" data-name="Trazado 1182120" d="M2525.05,782.94a.664.664,0,0,1-.162-1.307c2.5-.63,4.5-3.341,4.978-6.744a9.36,9.36,0,0,0-4.373-9.6,12.771,12.771,0,0,0-13.525.386.663.663,0,0,1-.777-1.076c.07-.051,7.1-5.021,14.967-.459a10.664,10.664,0,0,1,5.021,10.936c-.56,3.994-2.9,7.074-5.968,7.847A.645.645,0,0,1,2525.05,782.94Z" transform="translate(-2510.917 -762.213)" fill="#ff443c"/>
            </g>
            <g id="Grupo_1230608" data-name="Grupo 1230608" transform="translate(90.215 20.358)">
              <path id="Trazado_1182121" data-name="Trazado 1182121" d="M2594.006,842.349a.664.664,0,0,1-.65-.536,27.655,27.655,0,0,0-2.662-7.158c-2.482-4.446-5.683-6.393-9.518-5.789a.664.664,0,1,1-.207-1.311c4.385-.691,8.154,1.549,10.9,6.479a28.5,28.5,0,0,1,2.791,7.523.663.663,0,0,1-.523.779A.732.732,0,0,1,2594.006,842.349Z" transform="translate(-2580.408 -827.433)" fill="#ff443c"/>
            </g>
            <g id="Grupo_1230609" data-name="Grupo 1230609" transform="translate(78.707 18.037)">
              <path id="Trazado_1182122" data-name="Trazado 1182122" d="M2541.918,831.882c-3.095,0-5.336-1.058-6.526-3.1-3.193-5.472,2.164-10.416,2.219-10.466a.664.664,0,1,1,.89.984,10.42,10.42,0,0,0-2.024,2.759,6.052,6.052,0,0,0,.062,6.054c2.641,4.526,11.253,1.367,11.34,1.334a.663.663,0,1,1,.466,1.242,21.46,21.46,0,0,1-5.14,1.13C2542.763,831.863,2542.333,831.882,2541.918,831.882Z" transform="translate(-2534.377 -818.15)" fill="#ff443c"/>
            </g>
          </g>
        </g>
        <g id="Grupo_1230614" data-name="Grupo 1230614" transform="translate(35.272 68.274)">
          <g id="Grupo_1230612" data-name="Grupo 1230612" transform="translate(0)">
            <path id="Trazado_1182123" data-name="Trazado 1182123" d="M1797.782,820.578q-.108,0-.217-.008l-4.65-.352a2.8,2.8,0,0,1-2.584-3.009l.266-3.479a2.51,2.51,0,0,0-1.42-2.45l-.034-.016a2.5,2.5,0,0,0-2.877.52l-2.582,2.673a2.8,2.8,0,0,1-3.964.068l-3.353-3.24a2.8,2.8,0,0,1-.068-3.965l3.006-3.11a2.486,2.486,0,0,0,.514-2.694q-.145-.346-.278-.7a2.508,2.508,0,0,0-2.161-1.6l-4.047-.307a2.807,2.807,0,0,1-2.583-3.007l.352-4.645a2.8,2.8,0,0,1,3.008-2.583l3.008.229a2.509,2.509,0,0,0,2.531-1.607,18.869,18.869,0,0,1,1.134-2.387,2.528,2.528,0,0,0-.127-2.693l-2.216-3.13a2.807,2.807,0,0,1,.668-3.908l3.8-2.694a2.8,2.8,0,0,1,3.908.668l1.566,2.211a2.486,2.486,0,0,0,2.838.926q.318-.107.641-.2a2.5,2.5,0,0,0,1.756-2.2l.189-2.455a2.808,2.808,0,0,1,3.007-2.581l4.647.352a2.8,2.8,0,0,1,2.583,3.008l-.187,2.453a2.5,2.5,0,0,0,1.4,2.443q.306.144.606.3a2.486,2.486,0,0,0,2.943-.488l1.883-1.95a2.8,2.8,0,0,1,3.965-.069l3.351,3.238a2.807,2.807,0,0,1,.069,3.964l-2.662,2.757a2.527,2.527,0,0,0-.531,2.645,18.791,18.791,0,0,1,.762,2.527,2.509,2.509,0,0,0,2.258,1.969l3.01.229a2.807,2.807,0,0,1,2.583,3.008l-.354,4.648a2.8,2.8,0,0,1-3.009,2.582l-4.047-.309a2.511,2.511,0,0,0-2.378,1.258c-.121.217-.249.435-.379.647a2.487,2.487,0,0,0,.1,2.741l2.5,3.53a2.807,2.807,0,0,1-.666,3.908l-3.8,2.7a2.8,2.8,0,0,1-3.91-.667l-2.146-3.031a2.5,2.5,0,0,0-2.767-.949l-.04.012a2.509,2.509,0,0,0-1.774,2.208l-.263,3.477a2.8,2.8,0,0,1-2.791,2.593Zm-8.477-9.569a2.812,2.812,0,0,1,1.591,2.744l-.266,3.479a2.5,2.5,0,0,0,2.307,2.687l4.65.352a2.5,2.5,0,0,0,2.686-2.308l.263-3.477a2.811,2.811,0,0,1,1.987-2.473l.082.132-.043-.143a2.8,2.8,0,0,1,3.1,1.063l2.146,3.031a2.5,2.5,0,0,0,3.492.6l3.8-2.7a2.507,2.507,0,0,0,.594-3.491l-2.5-3.53a2.786,2.786,0,0,1-.112-3.071c.128-.209.254-.423.373-.637a2.808,2.808,0,0,1,2.662-1.41l4.047.309a2.5,2.5,0,0,0,2.687-2.307l.354-4.648a2.507,2.507,0,0,0-2.307-2.687l-3.01-.229a2.807,2.807,0,0,1-2.527-2.2,18.45,18.45,0,0,0-.75-2.487,2.828,2.828,0,0,1,.6-2.96l.108.1-.108-.1,2.662-2.757a2.507,2.507,0,0,0-.062-3.54l-3.351-3.238a2.5,2.5,0,0,0-3.541.061l-1.883,1.95a2.784,2.784,0,0,1-3.3.546q-.3-.152-.6-.293a2.8,2.8,0,0,1-1.576-2.737l.187-2.453a2.5,2.5,0,0,0-2.307-2.687l-4.647-.352a2.507,2.507,0,0,0-2.686,2.305l-.189,2.455a2.8,2.8,0,0,1-1.969,2.465q-.317.094-.631.2a2.785,2.785,0,0,1-3.178-1.037l-1.566-2.211a2.5,2.5,0,0,0-3.491-.6l-3.8,2.694a2.507,2.507,0,0,0-.6,3.49l2.215,3.13a2.829,2.829,0,0,1,.143,3.013,18.535,18.535,0,0,0-1.117,2.348,2.8,2.8,0,0,1-2.832,1.8l-3.008-.229a2.5,2.5,0,0,0-2.687,2.308l-.352,4.645a2.507,2.507,0,0,0,2.307,2.686l4.047.308a2.81,2.81,0,0,1,2.419,1.8q.13.347.273.687a2.786,2.786,0,0,1-.575,3.018l-3.006,3.11a2.5,2.5,0,0,0,.061,3.541l3.353,3.24a2.5,2.5,0,0,0,3.541-.061l2.582-2.673a2.806,2.806,0,0,1,3.221-.582l-.031.151Z" transform="translate(-1770.744 -768.838)" fill="#4f1a44"/>
          </g>
          <g id="Grupo_1230613" data-name="Grupo 1230613" transform="translate(15.646 16.034)">
            <path id="Trazado_1182124" data-name="Trazado 1182124" d="M1842.9,853.53q-.313,0-.617-.023a9.112,9.112,0,0,1-6.679-4.05,12.109,12.109,0,0,1-2.242-7.824,8.665,8.665,0,0,1,4.247-6.534,13.16,13.16,0,0,1,8.015-2.09,10.3,10.3,0,0,1,6.845,3.229,9.229,9.229,0,0,1,2.433,7.036h0a10.872,10.872,0,0,1-4.416,7.331A12.7,12.7,0,0,1,1842.9,853.53Zm1.86-20.254a13.152,13.152,0,0,0-6.989,2.074,8.376,8.376,0,0,0-4.112,6.305,11.807,11.807,0,0,0,2.187,7.627,8.82,8.82,0,0,0,6.458,3.926c5.47.416,11.906-4.8,12.3-9.957a8.934,8.934,0,0,0-2.354-6.811,10.006,10.006,0,0,0-6.648-3.133Q1845.184,833.276,1844.76,833.276Zm9.992,9.987h0Z" transform="translate(-1833.331 -832.975)" fill="#4f1a44"/>
          </g>
        </g>
        <g id="Grupo_1230618" data-name="Grupo 1230618" transform="translate(262.405 0)">
          <g id="Grupo_1230615" data-name="Grupo 1230615">
            <path id="Trazado_1182125" data-name="Trazado 1182125" d="M2766.976,543.853l6.806-2.292a4.972,4.972,0,0,0,3.126-6.3l-2.782-8.276a4.973,4.973,0,0,0-6.3-3.128l-4.814,1.62a4.967,4.967,0,0,1-5.635-1.83q-.364-.512-.746-1.011a4.939,4.939,0,0,1-.246-5.595l2.426-3.92a4.973,4.973,0,0,0-1.613-6.846l-7.427-4.593a4.973,4.973,0,0,0-6.842,1.61l-2.431,3.923a4.938,4.938,0,0,1-5.11,2.274q-.614-.118-1.231-.214a4.969,4.969,0,0,1-4.159-4.227l-.7-5.029a4.973,4.973,0,0,0-5.61-4.241l-8.652,1.2a4.973,4.973,0,0,0-4.241,5.608l.987,7.117a4.993,4.993,0,0,1-2.235,4.863,34.9,34.9,0,0,0-3.914,2.968,5,5,0,0,1-5.928.519l-4.807-2.975a4.973,4.973,0,0,0-6.846,1.613l-4.591,7.424a4.973,4.973,0,0,0,1.613,6.844l6.466,4a4.972,4.972,0,0,1,2.344,4.8q-.083.695-.139,1.39a4.95,4.95,0,0,1-3.369,4.282l-7.683,2.581a4.972,4.972,0,0,0-3.129,6.3l2.785,8.282a4.973,4.973,0,0,0,6.3,3.128l6.6-2.22a4.976,4.976,0,0,1,5.548,1.712l.042.055a4.96,4.96,0,0,1,.265,5.619l-3.442,5.559a4.973,4.973,0,0,0,1.613,6.847l7.433,4.6a4.972,4.972,0,0,0,6.845-1.615l3.435-5.558a4.96,4.96,0,0,1,5.146-2.272l.076.015a4.976,4.976,0,0,1,4.009,4.2l.956,6.893a4.973,4.973,0,0,0,5.613,4.242l8.655-1.208a4.973,4.973,0,0,0,4.238-5.611l-1.119-8.029a4.95,4.95,0,0,1,2.329-4.926q.6-.359,1.179-.744a4.968,4.968,0,0,1,5.342-.046l6.466,4a4.973,4.973,0,0,0,6.846-1.611l4.6-7.428a4.973,4.973,0,0,0-1.612-6.845l-4.81-2.977a5,5,0,0,1-2.182-5.533,34.755,34.755,0,0,0,.9-4.822A5,5,0,0,1,2766.976,543.853ZM2745.516,554.7c-5.337,8.625-20.807,11.388-29.432,6.051s-9.85-18.444-4.51-27.06,18.825-9.019,27.45-3.682S2750.854,546.075,2745.516,554.7Z" transform="translate(-2679.305 -495.733)" fill="#c8c1e1"/>
          </g>
          <g id="Grupo_1230617" data-name="Grupo 1230617" transform="translate(2.163 4.717)">
            <g id="Grupo_1230616" data-name="Grupo 1230616">
              <path id="Trazado_1182126" data-name="Trazado 1182126" d="M2740.895,613.024a5.123,5.123,0,0,1-5.063-4.419l-.956-6.893a4.826,4.826,0,0,0-3.89-4.076l-.076-.015a4.837,4.837,0,0,0-4.991,2.2l-3.435,5.557a5.122,5.122,0,0,1-7.051,1.664l-7.432-4.6a5.122,5.122,0,0,1-1.661-7.053l3.442-5.559a4.835,4.835,0,0,0-.257-5.449l-.042-.055a4.825,4.825,0,0,0-5.381-1.662l-6.6,2.22a5.122,5.122,0,0,1-6.488-3.222l-2.785-8.282a5.123,5.123,0,0,1,3.223-6.488l7.683-2.581a4.79,4.79,0,0,0,3.267-4.152c.038-.465.084-.935.14-1.4a4.833,4.833,0,0,0-2.274-4.658l-6.466-4a5.128,5.128,0,0,1-1.662-7.05l4.592-7.424a5.122,5.122,0,0,1,7.051-1.661l4.807,2.974a4.831,4.831,0,0,0,5.752-.5,35.206,35.206,0,0,1,3.93-2.98,4.867,4.867,0,0,0,2.168-4.717l-.987-7.117a5.128,5.128,0,0,1,4.368-5.777l8.652-1.2a5.123,5.123,0,0,1,5.779,4.369l.7,5.029a4.79,4.79,0,0,0,4.034,4.1c.411.064.827.136,1.236.215a4.81,4.81,0,0,0,4.955-2.206l2.43-3.923a5.128,5.128,0,0,1,7.048-1.658l7.427,4.593a5.122,5.122,0,0,1,1.661,7.052l-2.426,3.92a4.809,4.809,0,0,0,.237,5.425c.254.332.506.673.749,1.015a4.79,4.79,0,0,0,5.466,1.775l4.814-1.62a5.122,5.122,0,0,1,6.489,3.222l2.782,8.276a5.128,5.128,0,0,1-3.221,6.487l-6.806,2.292h0a4.868,4.868,0,0,0-3.254,4.052,35.081,35.081,0,0,1-.907,4.843,4.831,4.831,0,0,0,2.115,5.368l4.81,2.977a5.123,5.123,0,0,1,1.661,7.051l-4.6,7.428a5.122,5.122,0,0,1-7.052,1.659l-6.467-4a4.828,4.828,0,0,0-5.182.044c-.389.257-.787.508-1.184.747a4.791,4.791,0,0,0-2.258,4.777l1.119,8.029a5.128,5.128,0,0,1-4.365,5.78l-8.654,1.208A5.123,5.123,0,0,1,2740.895,613.024Zm-10.869-15.785a4.993,4.993,0,0,1,.942.089l.076.014a5.124,5.124,0,0,1,4.13,4.328l.957,6.893a4.823,4.823,0,0,0,5.444,4.114l8.654-1.208a4.829,4.829,0,0,0,4.111-5.443L2753.219,598a5.089,5.089,0,0,1,2.4-5.075c.393-.237.789-.486,1.174-.74a5.128,5.128,0,0,1,5.5-.048l6.466,4a4.823,4.823,0,0,0,6.64-1.563l4.6-7.428a4.823,4.823,0,0,0-1.563-6.639l-4.81-2.977a5.128,5.128,0,0,1-2.248-5.7,34.868,34.868,0,0,0,.9-4.8,5.167,5.167,0,0,1,3.456-4.3l.047.141-.047-.141,6.806-2.292a4.829,4.829,0,0,0,3.032-6.108l-2.782-8.276a4.824,4.824,0,0,0-6.111-3.034l-4.814,1.62a5.087,5.087,0,0,1-5.8-1.885c-.241-.339-.491-.678-.742-1.007a5.108,5.108,0,0,1-.254-5.764l2.427-3.92a4.823,4.823,0,0,0-1.564-6.641l-7.427-4.593a4.829,4.829,0,0,0-6.637,1.562l-2.43,3.923a5.11,5.11,0,0,1-5.265,2.342c-.406-.078-.818-.149-1.226-.213a5.087,5.087,0,0,1-4.284-4.354l-.7-5.029a4.824,4.824,0,0,0-5.442-4.114l-8.651,1.2a4.829,4.829,0,0,0-4.114,5.439l.987,7.117a5.168,5.168,0,0,1-2.3,5.008,34.909,34.909,0,0,0-3.9,2.955,5.128,5.128,0,0,1-6.105.534l-4.807-2.975a4.823,4.823,0,0,0-6.64,1.565l-4.591,7.424a4.829,4.829,0,0,0,1.564,6.639l6.467,4a5.131,5.131,0,0,1,2.414,4.948c-.055.457-.1.922-.138,1.384a5.087,5.087,0,0,1-3.47,4.411l-7.683,2.581a4.824,4.824,0,0,0-3.036,6.109l2.785,8.282a4.823,4.823,0,0,0,6.109,3.034l6.6-2.22a5.124,5.124,0,0,1,5.715,1.764l.041.054a5.136,5.136,0,0,1,.274,5.788l-3.442,5.559a4.824,4.824,0,0,0,1.564,6.641l7.432,4.6a4.823,4.823,0,0,0,6.639-1.567l3.435-5.557A5.143,5.143,0,0,1,2730.026,597.239Z" transform="translate(-2687.959 -514.603)" fill="#4f1a44"/>
            </g>
          </g>
        </g>
        <g id="Grupo_1230619" data-name="Grupo 1230619" transform="translate(343.672 92.818)">
          <path id="Trazado_1182127" data-name="Trazado 1182127" d="M3019.094,900.3l0,2.774a1.921,1.921,0,0,0,1.917,1.924l3.373.008a1.92,1.92,0,0,0,1.925-1.917l0-1.962a1.919,1.919,0,0,1,1.368-1.835q.232-.07.462-.148a1.907,1.907,0,0,1,2.077.6l1.134,1.373a1.921,1.921,0,0,0,2.7.259l2.6-2.148a1.921,1.921,0,0,0,.259-2.7l-1.134-1.376a1.908,1.908,0,0,1-.2-2.151q.12-.21.231-.424a1.92,1.92,0,0,1,2.062-1l1.927.368a1.921,1.921,0,0,0,2.247-1.527l.632-3.315a1.92,1.92,0,0,0-1.526-2.247l-2.727-.521a1.93,1.93,0,0,1-1.5-1.42,13.491,13.491,0,0,0-.6-1.8,1.931,1.931,0,0,1,.545-2.233l1.684-1.39a1.921,1.921,0,0,0,.258-2.7l-2.148-2.6a1.921,1.921,0,0,0-2.7-.258l-2.265,1.87a1.921,1.921,0,0,1-2.048.262q-.244-.117-.491-.223a1.912,1.912,0,0,1-1.15-1.764l.008-3.131a1.921,1.921,0,0,0-1.917-1.926l-3.375-.008a1.921,1.921,0,0,0-1.925,1.917l-.006,2.69a1.923,1.923,0,0,1-1.314,1.818l-.026.008a1.915,1.915,0,0,1-2.088-.6l-1.608-1.948a1.92,1.92,0,0,0-2.7-.258l-2.6,2.15a1.921,1.921,0,0,0-.257,2.705l1.607,1.945a1.914,1.914,0,0,1,.193,2.164l-.015.026a1.922,1.922,0,0,1-2.034.946l-2.64-.5a1.921,1.921,0,0,0-2.248,1.528l-.631,3.316a1.921,1.921,0,0,0,1.528,2.246l3.077.586a1.913,1.913,0,0,1,1.514,1.463q.057.263.126.524a1.92,1.92,0,0,1-.646,1.961l-2.266,1.87a1.921,1.921,0,0,0-.259,2.7l2.149,2.6a1.921,1.921,0,0,0,2.7.259l1.685-1.391a1.932,1.932,0,0,1,2.3-.112,13.433,13.433,0,0,0,1.652.928A1.926,1.926,0,0,1,3019.094,900.3Zm-1.308-9.2c-2.494-3.021-1.587-9.025,1.434-11.519s7.969-1.318,10.46,1.7.967,8.006-2.054,10.5A6.892,6.892,0,0,1,3017.786,891.109Z" transform="translate(-3004.388 -867.018)" fill="#553e93"/>
        </g>
        <g id="Grupo_1230620" data-name="Grupo 1230620" transform="translate(220.437 8.738)">
          <path id="Trazado_1182128" data-name="Trazado 1182128" d="M2525.171,561.795l0,2.593a1.8,1.8,0,0,0,1.791,1.8l3.152.007a1.8,1.8,0,0,0,1.8-1.792l0-1.834a1.793,1.793,0,0,1,1.279-1.715q.217-.065.432-.138a1.783,1.783,0,0,1,1.942.564l1.06,1.284a1.8,1.8,0,0,0,2.528.242l2.431-2.008a1.8,1.8,0,0,0,.242-2.526l-1.06-1.285a1.782,1.782,0,0,1-.186-2.011q.111-.2.216-.4a1.794,1.794,0,0,1,1.927-.933l1.8.344a1.8,1.8,0,0,0,2.1-1.427l.591-3.1a1.8,1.8,0,0,0-1.427-2.1l-2.548-.487a1.8,1.8,0,0,1-1.4-1.327,12.653,12.653,0,0,0-.562-1.682,1.8,1.8,0,0,1,.509-2.088l1.574-1.3a1.8,1.8,0,0,0,.241-2.528l-2.007-2.43a1.8,1.8,0,0,0-2.527-.241l-2.117,1.748a1.8,1.8,0,0,1-1.914.245q-.228-.109-.459-.208a1.787,1.787,0,0,1-1.074-1.648l.007-2.926a1.8,1.8,0,0,0-1.791-1.8l-3.155-.007a1.8,1.8,0,0,0-1.8,1.791l-.005,2.514a1.8,1.8,0,0,1-1.229,1.7l-.024.008a1.791,1.791,0,0,1-1.952-.56l-1.5-1.821a1.8,1.8,0,0,0-2.528-.242l-2.432,2.009a1.8,1.8,0,0,0-.241,2.528l1.5,1.818a1.792,1.792,0,0,1,.181,2.023l-.014.024a1.8,1.8,0,0,1-1.9.884l-2.468-.471a1.8,1.8,0,0,0-2.1,1.428l-.589,3.1a1.8,1.8,0,0,0,1.427,2.1l2.875.548a1.785,1.785,0,0,1,1.415,1.367q.054.245.118.489a1.794,1.794,0,0,1-.6,1.832l-2.118,1.747a1.8,1.8,0,0,0-.242,2.528l2.008,2.432a1.8,1.8,0,0,0,2.528.242l1.575-1.3a1.8,1.8,0,0,1,2.145-.105,12.63,12.63,0,0,0,1.544.867A1.8,1.8,0,0,1,2525.171,561.795Zm-1.222-8.595c-2.332-2.824-1.484-8.434,1.34-10.765s7.448-1.232,9.776,1.592.9,7.482-1.92,9.813A6.441,6.441,0,0,1,2523.948,553.2Z" transform="translate(-2511.428 -530.685)" fill="#786ab5"/>
        </g>
        <g id="Grupo_1230676" data-name="Grupo 1230676" transform="translate(263.584 129.285)">
          <g id="Grupo_1230627" data-name="Grupo 1230627" transform="translate(9.514 71.495)">
            <g id="Grupo_1230621" data-name="Grupo 1230621" transform="translate(2.362 5.353)">
              <path id="Trazado_1182129" data-name="Trazado 1182129" d="M2732.171,1320.323h0a.883.883,0,0,0-.611,1.085l2.025,7.238a.883.883,0,0,0,1.085.611h0a.883.883,0,0,0,.611-1.085l-2.025-7.238A.883.883,0,0,0,2732.171,1320.323Z" transform="translate(-2731.528 -1320.291)" fill="#fdad9b"/>
            </g>
            <g id="Grupo_1230622" data-name="Grupo 1230622" transform="translate(4.532 4.745)">
              <path id="Trazado_1182130" data-name="Trazado 1182130" d="M2740.85,1317.893h0a.883.883,0,0,0-.61,1.085l2.264,8.095a.883.883,0,0,0,1.085.611h0a.884.884,0,0,0,.611-1.085l-2.265-8.095A.883.883,0,0,0,2740.85,1317.893Z" transform="translate(-2740.208 -1317.861)" fill="#fdad9b"/>
            </g>
            <g id="Grupo_1230623" data-name="Grupo 1230623" transform="translate(4.234)">
              <path id="Trazado_1182131" data-name="Trazado 1182131" d="M2739.311,1299.357l-.075.1a1.16,1.16,0,0,0,.26,1.615l4.472,3.233a1.16,1.16,0,0,0,1.615-.26l.076-.1a1.161,1.161,0,0,0-.26-1.616l-4.472-3.233A1.161,1.161,0,0,0,2739.311,1299.357Z" transform="translate(-2739.017 -1298.879)" fill="#fdad9b"/>
            </g>
            <g id="Grupo_1230624" data-name="Grupo 1230624" transform="translate(6.704 4.139)">
              <path id="Trazado_1182132" data-name="Trazado 1182132" d="M2749.54,1315.47h0a.882.882,0,0,0-.611,1.085l1.815,6.489a.883.883,0,0,0,1.085.611h0a.882.882,0,0,0,.611-1.085l-1.815-6.489A.881.881,0,0,0,2749.54,1315.47Z" transform="translate(-2748.897 -1315.437)" fill="#fdad9b"/>
            </g>
            <g id="Grupo_1230625" data-name="Grupo 1230625" transform="translate(0 1.425)">
              <path id="Trazado_1182133" data-name="Trazado 1182133" d="M2722.46,1304.828s-1.285,4.865.872,7.716c.746.987,7.087-.977,7.337-2.34s-1.4-5.627-1.4-5.627Z" transform="translate(-2722.08 -1304.578)" fill="#fdad9b"/>
            </g>
            <g id="Grupo_1230626" data-name="Grupo 1230626" transform="translate(0.206 5.95)">
              <path id="Trazado_1182134" data-name="Trazado 1182134" d="M2723.544,1322.713h0a.882.882,0,0,0-.61,1.083l1.812,6.476a.881.881,0,0,0,1.083.609h0a.881.881,0,0,0,.609-1.083l-1.812-6.476A.882.882,0,0,0,2723.544,1322.713Z" transform="translate(-2722.902 -1322.681)" fill="#fdad9b"/>
            </g>
          </g>
          <g id="Grupo_1230629" data-name="Grupo 1230629" transform="translate(9.349 27.833)">
            <g id="Grupo_1230628" data-name="Grupo 1230628">
              <path id="Trazado_1182135" data-name="Trazado 1182135" d="M2729.833,1169.823c0-9.82.766-23.929,4.411-35.378a33.522,33.522,0,0,1,1.919-5.124c.574-1.184-.86-3.542-2.875-4.545-1.891-.941-4.663-.508-5.054.079a29.535,29.535,0,0,0-2.294,5.793c-3.437,10.219-4.878,23.148-4.444,39.609Z" transform="translate(-2721.421 -1124.226)" fill="#fdad9b"/>
            </g>
          </g>
          <g id="Grupo_1230630" data-name="Grupo 1230630" transform="translate(24.381 141.7)">
            <path id="Trazado_1182136" data-name="Trazado 1182136" d="M2789.249,1579.71s-.07,2.781-1.951,3.566-7.334,1.492-5.3,3.28c1.169,1.026,6.678.363,8.234.363s3.016.678,4.172-.363c1.271-1.145,0-6.845,0-6.845a6.212,6.212,0,0,1-2.55.668A4.948,4.948,0,0,1,2789.249,1579.71Z" transform="translate(-2781.552 -1579.71)" fill="#66192d"/>
          </g>
          <g id="Grupo_1230631" data-name="Grupo 1230631" transform="translate(15.834 57.776)">
            <path id="Trazado_1182137" data-name="Trazado 1182137" d="M2747.372,1244s-.375,12.55,3.63,36.626c2.891,17.381,6.3,34.895,7.979,43.292a6.551,6.551,0,0,0,6.119,5.32l1.608.065a5.5,5.5,0,0,0,5.628-5.956l-4.062-56.806-1-18.7Z" transform="translate(-2747.363 -1244)" fill="#ff443c"/>
          </g>
          <g id="Grupo_1230632" data-name="Grupo 1230632" transform="translate(42.203 141.7)">
            <path id="Trazado_1182138" data-name="Trazado 1182138" d="M2860.538,1579.71s-.07,2.781-1.952,3.566-7.334,1.492-5.3,3.28c1.169,1.026,6.678.363,8.233.363s3.016.678,4.172-.363c1.272-1.145,0-6.845,0-6.845a6.209,6.209,0,0,1-2.549.668A4.949,4.949,0,0,1,2860.538,1579.71Z" transform="translate(-2852.841 -1579.71)" fill="#66192d"/>
          </g>
          <g id="Grupo_1230633" data-name="Grupo 1230633" transform="translate(33.656 57.776)">
            <path id="Trazado_1182139" data-name="Trazado 1182139" d="M2818.662,1244s-.375,12.55,3.63,36.626c2.892,17.381,6.3,34.895,7.979,43.292a6.551,6.551,0,0,0,6.119,5.32l1.609.065a5.5,5.5,0,0,0,5.628-5.956l-4.062-56.806-1-18.7Z" transform="translate(-2818.653 -1244)" fill="#ff443c"/>
          </g>
          <g id="Grupo_1230634" data-name="Grupo 1230634" transform="translate(14.678 20.647)">
            <path id="Trazado_1182140" data-name="Trazado 1182140" d="M2780.82,1103.5s-2-7.936-16.777-8.017c-21.306-.116-19.333,19.461-21.305,49.213,0,0,20.987-2.968,40.864,1.3C2783.6,1145.99,2785.447,1115.621,2780.82,1103.5Z" transform="translate(-2742.738 -1095.479)" fill="#552748"/>
          </g>
          <g id="Grupo_1230635" data-name="Grupo 1230635" transform="translate(14.679 20.579)">
            <path id="Trazado_1182141" data-name="Trazado 1182141" d="M2786.279,1102.153l-9.649,5.339s-21.129,1.919-26.738.995-7.148-5.043-7.148-5.043a30.913,30.913,0,0,1,16.128-7.832c.954-.156,1.943-.271,2.969-.338a29.177,29.177,0,0,1,5.133.1C2779.842,1096.829,2786.279,1102.153,2786.279,1102.153Z" transform="translate(-2742.744 -1095.208)" fill="#552748"/>
          </g>
          <g id="Grupo_1230636" data-name="Grupo 1230636" transform="translate(32.272 8.021)">
            <path id="Trazado_1182142" data-name="Trazado 1182142" d="M2818.858,1055.783l-1.115-3.6-.324-1.048-1.909-6.161-.251,6.129-.15,3.678-.047,1.165c-.032.79-.515.956-1.1,1.643-.238.278-1.758,1.966-.032,2.728,2.149.95,6.167-.488,7.7-2.372C2821.611,1057.943,2819.218,1056.945,2818.858,1055.783Z" transform="translate(-2813.115 -1044.974)" fill="#fdad9b"/>
          </g>
          <g id="Grupo_1230637" data-name="Grupo 1230637" transform="translate(12.014 20.637)">
            <path id="Trazado_1182143" data-name="Trazado 1182143" d="M2753.185,1095.44s-8.536,17.637-7.767,33.641.909,48.152.909,48.152-8.222,2.655-14.245-2c0,0-.293-59.743,6.349-71.67Z" transform="translate(-2732.08 -1095.44)" fill="#ffba41"/>
          </g>
          <g id="Grupo_1230654" data-name="Grupo 1230654" transform="translate(27.189)">
            <g id="Grupo_1230638" data-name="Grupo 1230638" transform="translate(2.394 5.707)">
              <path id="Trazado_1182144" data-name="Trazado 1182144" d="M2802.531,1035.72a8.1,8.1,0,0,0,0,3.361c.389,1.87,2.291-2.726,2.291-2.726Z" transform="translate(-2802.359 -1035.72)" fill="#5c305d"/>
            </g>
            <g id="Grupo_1230639" data-name="Grupo 1230639" transform="translate(1.501 3.062)">
              <ellipse id="Elipse_12904" data-name="Elipse 12904" cx="6.602" cy="5.476" rx="6.602" ry="5.476" transform="translate(0 13.092) rotate(-82.519)" fill="#fdad9b"/>
            </g>
            <g id="Grupo_1230640" data-name="Grupo 1230640">
              <path id="Trazado_1182145" data-name="Trazado 1182145" d="M2806.117,1022.032l-2.651-.275a1.93,1.93,0,0,1-1.431-.867c-.543-.85-1.2-1.286-3.669-1.193-3.131.118-5.2-1.749-5.536-3.387a1.87,1.87,0,0,1,2.829-2.008c1.573.8.9-1.158,2.41-1.365,2.825-.388,3.355,1.791,5.668,1.719,3.033-.093,8.466,2.212,5.889,7.552Z" transform="translate(-2792.783 -1012.89)" fill="#66192d"/>
            </g>
            <g id="Grupo_1230642" data-name="Grupo 1230642" transform="translate(7.43 9.829)">
              <g id="Grupo_1230641" data-name="Grupo 1230641">
                <path id="Trazado_1182146" data-name="Trazado 1182146" d="M2822.554,1052.423a.111.111,0,0,1,.05-.2,1.2,1.2,0,0,1,1.279.728.112.112,0,0,1-.05.149.121.121,0,0,1-.148-.05,1.9,1.9,0,0,0-1.062-.606A.113.113,0,0,1,2822.554,1052.423Z" transform="translate(-2822.502 -1052.208)" fill="#080435"/>
              </g>
            </g>
            <g id="Grupo_1230643" data-name="Grupo 1230643" transform="translate(7.267 10.904)">
              <path id="Trazado_1182147" data-name="Trazado 1182147" d="M2822.546,1057.07c-.069.255-.276.422-.462.371a.43.43,0,0,1-.21-.554c.07-.255.277-.422.462-.371A.431.431,0,0,1,2822.546,1057.07Z" transform="translate(-2821.852 -1056.507)" fill="#080435"/>
            </g>
            <g id="Grupo_1230645" data-name="Grupo 1230645" transform="translate(3.307 9.319)">
              <g id="Grupo_1230644" data-name="Grupo 1230644">
                <path id="Trazado_1182148" data-name="Trazado 1182148" d="M2806.076,1050.563a.082.082,0,0,1-.06-.055.133.133,0,0,1,.043-.15.779.779,0,0,1,1.132.128.133.133,0,0,1,0,.155.082.082,0,0,1-.123.017,1.163,1.163,0,0,0-.94-.108A.074.074,0,0,1,2806.076,1050.563Z" transform="translate(-2806.009 -1050.167)" fill="#080435"/>
              </g>
            </g>
            <g id="Grupo_1230646" data-name="Grupo 1230646" transform="translate(3.691 10.417)">
              <path id="Trazado_1182149" data-name="Trazado 1182149" d="M2808.243,1055c.033.263-.095.5-.286.519s-.372-.17-.4-.433.095-.5.286-.519S2808.211,1054.733,2808.243,1055Z" transform="translate(-2807.548 -1054.561)" fill="#080435"/>
            </g>
            <g id="Grupo_1230647" data-name="Grupo 1230647" transform="translate(10.094 8.549)">
              <path id="Trazado_1182150" data-name="Trazado 1182150" d="M2839.908,1047.859s-1.83,3.95-4.425,4.24c0,0,2.1-3.01-2.325-4.845C2833.158,1047.251,2837.221,1046.614,2839.908,1047.859Z" transform="translate(-2833.158 -1047.088)" fill="#66192d"/>
            </g>
            <g id="Grupo_1230648" data-name="Grupo 1230648" transform="translate(11.459 9.499)">
              <path id="Trazado_1182151" data-name="Trazado 1182151" d="M2840.346,1052.887a1.071,1.071,0,1,1,.434-1.538A1.133,1.133,0,0,1,2840.346,1052.887Z" transform="translate(-2838.618 -1050.886)" fill="#fdad9b"/>
            </g>
            <g id="Grupo_1230649" data-name="Grupo 1230649" transform="translate(2.565 8.712)">
              <path id="Trazado_1182152" data-name="Trazado 1182152" d="M2810.572,1047.74s.354,3.315-.321,3.941-5.129.9-7.208.093h0a4.33,4.33,0,0,0,3.565,4.361,6.289,6.289,0,0,0,2.126-.007h0a4.33,4.33,0,0,0,3.47-2.206,12.625,12.625,0,0,0-.348-2.938,2.86,2.86,0,0,1,.663-2.255A4.252,4.252,0,0,0,2810.572,1047.74Z" transform="translate(-2803.043 -1047.74)" fill="#66192d"/>
            </g>
            <g id="Grupo_1230650" data-name="Grupo 1230650" transform="translate(3.664 13.942)">
              <path id="Trazado_1182153" data-name="Trazado 1182153" d="M2807.44,1068.66a11.235,11.235,0,0,0,3.572.281,1.723,1.723,0,0,1-2.161,1.383C2807.753,1070.125,2807.44,1068.66,2807.44,1068.66Z" transform="translate(-2807.44 -1068.66)" fill="#fff"/>
            </g>
            <g id="Grupo_1230651" data-name="Grupo 1230651" transform="translate(3.168 0.423)">
              <path id="Trazado_1182154" data-name="Trazado 1182154" d="M2805.5,1015.311h-.045l0-.149a.69.69,0,0,0,.788-.58l.149.014A.834.834,0,0,1,2805.5,1015.311Z" transform="translate(-2805.457 -1014.581)" fill="#66192d"/>
            </g>
            <g id="Grupo_1230652" data-name="Grupo 1230652" transform="translate(1.131 1.921)">
              <path id="Trazado_1182155" data-name="Trazado 1182155" d="M2800.873,1024.583a10,10,0,0,1-1.719-.715c-1.143-.616-1.778-1.33-1.837-2.063a1.19,1.19,0,0,1,.274-1.047c.359-.309.979-.164,1.527-.036.081.019.16.038.237.054l-.016.073-.238-.054c-.531-.124-1.132-.264-1.462.02a1.127,1.127,0,0,0-.248.984c.138,1.715,3.469,2.7,3.5,2.712Z" transform="translate(-2797.307 -1020.574)" fill="#fff"/>
            </g>
            <g id="Grupo_1230653" data-name="Grupo 1230653" transform="translate(7.355 0.904)">
              <path id="Trazado_1182156" data-name="Trazado 1182156" d="M2826.1,1018.053a5.228,5.228,0,0,1-3.9-1.5l.057-.048a4.064,4.064,0,0,0,1.184.87,6.109,6.109,0,0,0,3.649.536l.01.074A7.646,7.646,0,0,1,2826.1,1018.053Z" transform="translate(-2822.202 -1016.504)" fill="#fff"/>
            </g>
          </g>
          <g id="Grupo_1230655" data-name="Grupo 1230655" transform="translate(18.247 27.981)">
            <path id="Trazado_1182157" data-name="Trazado 1182157" d="M2757.248,1129.974l-.234-.065a19.661,19.661,0,0,1,2.727-5.09l.195.145A19.422,19.422,0,0,0,2757.248,1129.974Z" transform="translate(-2757.013 -1124.819)" fill="#66192d"/>
          </g>
          <g id="Grupo_1230656" data-name="Grupo 1230656" transform="translate(29.193 78.461)">
            <path id="Trazado_1182158" data-name="Trazado 1182158" d="M2809.579,1347.587c-.017-.1-1.664-10.319-2.793-13.963-1.118-3.608-5.935-6.643-5.984-6.674l.128-.206c.049.03,4.942,3.113,6.088,6.808,1.134,3.66,2.785,13.893,2.8,14Z" transform="translate(-2800.802 -1326.744)" fill="#66192d"/>
          </g>
          <g id="Grupo_1230657" data-name="Grupo 1230657" transform="translate(34.938 20.154)">
            <path id="Trazado_1182159" data-name="Trazado 1182159" d="M2828.075,1093.51s-4.644,5.76-4.274,20.058,5.864,62.216,5.864,62.216h22.874s.16-52.107-8.491-69.324C2844.046,1106.46,2834.389,1094.708,2828.075,1093.51Z" transform="translate(-2823.78 -1093.51)" fill="#ffba41"/>
          </g>
          <g id="Grupo_1230658" data-name="Grupo 1230658" transform="translate(33.972 20.154)">
            <path id="Trazado_1182160" data-name="Trazado 1182160" d="M2825.177,1093.51s12.575,1.2,18.983,7.37,22.549,41.395-24.243,43.633c0,0,3.356-8.615,0-17.123,0,0,11.226.744,13.233-2.76s-9.115-23.93-9.115-23.93Z" transform="translate(-2819.917 -1093.51)" fill="#ffba41"/>
          </g>
          <g id="Grupo_1230659" data-name="Grupo 1230659" transform="translate(32.649 54.036)">
            <path id="Trazado_1182161" data-name="Trazado 1182161" d="M2818.078,1238.453c.354,6.406-1.4,7.711-2.133,7.711s-1.321-3.833-1.321-8.561.592-8.561,1.321-8.561S2817.818,1233.731,2818.078,1238.453Z" transform="translate(-2814.624 -1229.041)" fill="#66192d"/>
          </g>
          <g id="Grupo_1230660" data-name="Grupo 1230660" transform="translate(33.884 61.266)">
            <path id="Trazado_1182162" data-name="Trazado 1182162" d="M2819.665,1267.943h-.014a.089.089,0,0,1,0-.177h.014c.542,0,15.945-.11,27.516-9.781a.089.089,0,0,1,.114.136C2835.677,1267.833,2820.215,1267.943,2819.665,1267.943Z" transform="translate(-2819.563 -1257.964)" fill="#66192d"/>
          </g>
          <g id="Grupo_1230661" data-name="Grupo 1230661" transform="translate(33.884 39.979)">
            <path id="Trazado_1182163" data-name="Trazado 1182163" d="M2820.813,1186.988c-.656,0-1.079-.026-1.167-.032a.089.089,0,0,1,.012-.177c.51.035,12.508.759,15.255-7.09.733-2.094-.42-6.721-.432-6.767a.089.089,0,0,1,.172-.043c.049.192,1.178,4.725.427,6.869C2832.762,1186.365,2824.015,1186.988,2820.813,1186.988Z" transform="translate(-2819.563 -1172.811)" fill="#66192d"/>
          </g>
          <g id="Grupo_1230662" data-name="Grupo 1230662" transform="translate(7.646 20.637)">
            <path id="Trazado_1182164" data-name="Trazado 1182164" d="M2740.083,1095.44s-13.293.826-18.438,8.179-7.033,45.046-7.033,45.046,2.141,3.785,7.033,1.423,9.539-31.647,9.539-31.647l-2.4-13.058,6.022-5.888Z" transform="translate(-2714.611 -1095.44)" fill="#ffba41"/>
          </g>
          <g id="Grupo_1230665" data-name="Grupo 1230665" transform="translate(0 38.384)">
            <g id="Grupo_1230663" data-name="Grupo 1230663" transform="translate(0 0.103)">
              <path id="Trazado_1182165" data-name="Trazado 1182165" d="M2712.35,1201.9l-19.086-2.088a2.839,2.839,0,0,1-2.431-2.083l-6.71-24.92a2.838,2.838,0,0,1,2.387-3.554l19.065-2.39a2.838,2.838,0,0,1,3.119,2.182l6.73,29.4A2.837,2.837,0,0,1,2712.35,1201.9Z" transform="translate(-2684.024 -1166.847)" fill="#66192d"/>
            </g>
            <g id="Grupo_1230664" data-name="Grupo 1230664" transform="translate(5.356)">
              <path id="Trazado_1182166" data-name="Trazado 1182166" d="M2705.451,1167.707s.122,1.893,1.1,1.954,8.55-.427,8.55-.672-.305-2.093-1.221-2.451S2705.274,1166.777,2705.451,1167.707Z" transform="translate(-2705.448 -1166.433)" fill="#ff443c"/>
            </g>
          </g>
          <g id="Grupo_1230674" data-name="Grupo 1230674" transform="translate(21.429 47.17)">
            <g id="Grupo_1230667" data-name="Grupo 1230667" transform="translate(6.434 6.635)">
              <g id="Grupo_1230666" data-name="Grupo 1230666">
                <path id="Trazado_1182167" data-name="Trazado 1182167" d="M2801.89,1237.238a.927.927,0,0,1-1.142.595,50.517,50.517,0,0,1-5.119-1.826c-.877-.365,2.386-8.325,3.14-7.87a9.919,9.919,0,0,0,2.5,1.033.77.77,0,0,1,.483.375C2802.425,1230.811,2802.708,1234.773,2801.89,1237.238Z" transform="translate(-2795.481 -1228.118)" fill="#fdad9b"/>
              </g>
            </g>
            <g id="Grupo_1230673" data-name="Grupo 1230673">
              <g id="Grupo_1230669" data-name="Grupo 1230669">
                <g id="Grupo_1230668" data-name="Grupo 1230668">
                  <path id="Trazado_1182168" data-name="Trazado 1182168" d="M2779.464,1208.229s-.521-4.093-2.514-5.458-5.57-1.6-4.514-.494a15.937,15.937,0,0,0,2.8,2.152s-3.822-2.056-3.915-.954,3.247,2.858,3.247,2.858-4.743-2.083-4.494-1.014,3.863,2.627,3.863,2.627-4.49-1.762-4.172-.526,3.72,1.432,3.627,2.534-.093,5.511,2.938,6.145Z" transform="translate(-2769.743 -1201.576)" fill="#fdad9b"/>
                </g>
              </g>
              <g id="Grupo_1230670" data-name="Grupo 1230670" transform="translate(5.318 2.682)">
                <path id="Trazado_1182169" data-name="Trazado 1182169" d="M2792.549,1213.8a.172.172,0,0,1-.166-.129c-.163-.635-1.244-1.032-1.255-1.035a.171.171,0,0,1,.116-.323c.052.018,1.262.462,1.471,1.273a.171.171,0,0,1-.123.209A.12.12,0,0,1,2792.549,1213.8Z" transform="translate(-2791.015 -1212.303)" fill="#ec865c"/>
              </g>
              <g id="Grupo_1230671" data-name="Grupo 1230671" transform="translate(4.648 4.587)">
                <path id="Trazado_1182170" data-name="Trazado 1182170" d="M2790.135,1221.647a.171.171,0,0,1-.155-.1,2.911,2.911,0,0,0-1.528-1.29.171.171,0,0,1,.11-.325,3.222,3.222,0,0,1,1.727,1.466.172.172,0,0,1-.08.229A.2.2,0,0,1,2790.135,1221.647Z" transform="translate(-2788.336 -1219.927)" fill="#ec865c"/>
              </g>
              <g id="Grupo_1230672" data-name="Grupo 1230672" transform="translate(4.017 6.199)">
                <path id="Trazado_1182171" data-name="Trazado 1182171" d="M2787.512,1228.01a.172.172,0,0,1-.169-.143c-.1-.57-1.055-1.032-1.417-1.161a.171.171,0,1,1,.115-.323c.06.022,1.49.542,1.639,1.427a.171.171,0,0,1-.141.2A.089.089,0,0,1,2787.512,1228.01Z" transform="translate(-2785.813 -1226.373)" fill="#ec865c"/>
              </g>
            </g>
          </g>
          <g id="Grupo_1230675" data-name="Grupo 1230675" transform="translate(12.33 69.05)">
            <path id="Trazado_1182172" data-name="Trazado 1182172" d="M2733.435,1296.2h0a.089.089,0,0,1-.085-.092l.276-6.923a.09.09,0,0,1,.093-.085.088.088,0,0,1,.084.092l-.276,6.923A.087.087,0,0,1,2733.435,1296.2Z" transform="translate(-2733.346 -1289.1)" fill="#66192d"/>
          </g>
        </g>
        <g id="Grupo_1230682" data-name="Grupo 1230682" transform="translate(63.315 165.68)">
          <g id="Grupo_1230677" data-name="Grupo 1230677" transform="translate(54.12 0)">
            <path id="Trazado_1182173" data-name="Trazado 1182173" d="M2100.116,1280.932a.755.755,0,0,1-.092-.006.707.707,0,0,1-.61-.793l15.775-121.043a.707.707,0,1,1,1.4.183l-15.776,121.043A.706.706,0,0,1,2100.116,1280.932Z" transform="translate(-2099.408 -1158.474)" fill="#4f1a44"/>
          </g>
          <g id="Grupo_1230678" data-name="Grupo 1230678" transform="translate(0 0.001)">
            <path id="Trazado_1182174" data-name="Trazado 1182174" d="M1883.626,1265.081a.707.707,0,0,1-.692-.855l22.533-105.19a.707.707,0,0,1,1.383.3l-22.533,105.19A.708.708,0,0,1,1883.626,1265.081Z" transform="translate(-1882.919 -1158.477)" fill="#4f1a44"/>
          </g>
          <g id="Grupo_1230679" data-name="Grupo 1230679" transform="translate(21.267 10.964)">
            <rect id="Rect치ngulo_422964" data-name="Rect치ngulo 422964" width="47.893" height="1.635" fill="#4f1a44"/>
          </g>
          <g id="Grupo_1230680" data-name="Grupo 1230680" transform="translate(11.502 54.677)">
            <rect id="Rect치ngulo_422965" data-name="Rect치ngulo 422965" width="51.958" height="1.635" fill="#4f1a44"/>
          </g>
          <g id="Grupo_1230681" data-name="Grupo 1230681" transform="translate(4.496 84.9)">
            <rect id="Rect치ngulo_422966" data-name="Rect치ngulo 422966" width="1.635" height="54.485" transform="translate(0 1.632) rotate(-86.44)" fill="#4f1a44"/>
          </g>
        </g>
        <g id="Grupo_1230724" data-name="Grupo 1230724" transform="translate(89.358 47.444)">
          <g id="Grupo_1230683" data-name="Grupo 1230683" transform="translate(23.104 122.652)">
            <path id="Trazado_1182175" data-name="Trazado 1182175" d="M2084.838,1176.14s.065,2.587,1.815,3.317,6.823,1.388,4.928,3.052c-1.088.954-6.213.338-7.66.338s-2.806.631-3.881-.338c-1.183-1.066,0-6.369,0-6.369a5.787,5.787,0,0,0,2.372.622A4.6,4.6,0,0,0,2084.838,1176.14Z" transform="translate(-2079.514 -1176.14)" fill="#66192d"/>
          </g>
          <g id="Grupo_1230684" data-name="Grupo 1230684" transform="translate(2.999 122.652)">
            <path id="Trazado_1182176" data-name="Trazado 1182176" d="M2004.418,1176.14s.065,2.587,1.815,3.317,6.823,1.388,4.928,3.052c-1.087.954-6.213.338-7.66.338s-2.806.631-3.881-.338c-1.183-1.065,0-6.369,0-6.369a5.785,5.785,0,0,0,2.372.622A4.63,4.63,0,0,0,2004.418,1176.14Z" transform="translate(-1999.094 -1176.14)" fill="#66192d"/>
          </g>
          <g id="Grupo_1230685" data-name="Grupo 1230685" transform="translate(19.882 51.726)">
            <path id="Trazado_1182177" data-name="Trazado 1182177" d="M2088.186,892.427s.323,10.83-3.133,31.605c-2.5,15-5.441,30.112-6.887,37.357a5.652,5.652,0,0,1-5.28,4.591l-1.388.056a4.745,4.745,0,0,1-4.856-5.14l3.507-49.02.865-16.134Z" transform="translate(-2066.628 -892.427)" fill="#ff8548"/>
          </g>
          <g id="Grupo_1230686" data-name="Grupo 1230686" transform="translate(9.818 55.711)">
            <path id="Trazado_1182178" data-name="Trazado 1182178" d="M2026.372,913.914c.159,1.318,7.613,1.158,16.738,0s16.229-3.132,16.069-4.45-7.521-1.478-16.647-.323S2026.212,912.6,2026.372,913.914Z" transform="translate(-2026.37 -908.369)" fill="#66192d"/>
          </g>
          <g id="Grupo_1230687" data-name="Grupo 1230687" transform="translate(0 58.446)">
            <path id="Trazado_1182179" data-name="Trazado 1182179" d="M2018.058,920.323l-19.482,62.584a6.28,6.28,0,0,1-5.861,4.461l-1.171.02a4.445,4.445,0,0,1-4.374-5.291l10.657-58.806a1.936,1.936,0,0,1,1.345-1.449C2002.826,920.787,2018.418,917.735,2018.058,920.323Z" transform="translate(-1987.095 -919.308)" fill="#ff8548"/>
          </g>
          <g id="Grupo_1230688" data-name="Grupo 1230688" transform="translate(9.688 18.211)">
            <path id="Trazado_1182180" data-name="Trazado 1182180" d="M2036.769,758.5a23.016,23.016,0,0,1,4.074-.09h.01a10.473,10.473,0,0,1,1.418.149c.32.044.634.1.946.148,5.733.9,12.836,6.865,12.836,6.865a7.084,7.084,0,0,1-2.965,3.416c2.872,6.325,4.879,15.57,5.7,27.969,0,0-15.121-3.316-32.834,4.42,0,0-.82-21.214,2.14-32.973C2028.094,768.407,2028.786,759.366,2036.769,758.5Z" transform="translate(-2025.849 -758.362)" fill="#4f1a44"/>
          </g>
          <g id="Grupo_1230689" data-name="Grupo 1230689" transform="translate(20.61 8.147)">
            <path id="Trazado_1182181" data-name="Trazado 1182181" d="M2069.553,728.311a2.746,2.746,0,0,0,2.239-1.638l1.231-2.858.357-.83,2.1-4.878-.364,5.056-.219,3.034-.062.865a1.38,1.38,0,0,0,1.139,1.455l.012,0c.374.608.89,1.843-.652,2.334-1.812.577-4.743-.85-5.8-2.541Z" transform="translate(-2069.537 -718.107)" fill="#fdad9b"/>
          </g>
          <g id="Grupo_1230690" data-name="Grupo 1230690" transform="translate(21.944 67.68)">
            <path id="Trazado_1182182" data-name="Trazado 1182182" d="M2075.186,976l-.311-.1,4.19-12.737a12.4,12.4,0,0,1,5.6-6.913l.164.285a12.075,12.075,0,0,0-5.457,6.731Z" transform="translate(-2074.875 -956.248)" fill="#020202"/>
          </g>
          <g id="Grupo_1230691" data-name="Grupo 1230691" transform="translate(20.447 7.315)">
            <path id="Trazado_1182183" data-name="Trazado 1182183" d="M2069.278,714.777a5.646,5.646,0,0,1-.281,2.53c-.7,2.488,2.145,3.526,2.873,2.816.09-.088-.029-4.319-.029-4.319l-.909-.54Z" transform="translate(-2068.887 -714.777)" fill="#4f1a44"/>
          </g>
          <g id="Grupo_1230692" data-name="Grupo 1230692" transform="translate(24.089 12.93)">
            <path id="Trazado_1182184" data-name="Trazado 1182184" d="M2083.456,738.081c0,.028,0,.056.005.084a3.207,3.207,0,0,0,1.864,2.391l.01-.009.219-3.034a2.588,2.588,0,0,0-1.736-.177A.709.709,0,0,0,2083.456,738.081Z" transform="translate(-2083.454 -737.24)" fill="#66192d"/>
          </g>
          <g id="Grupo_1230693" data-name="Grupo 1230693" transform="translate(22.03 3.096)">
            <path id="Trazado_1182185" data-name="Trazado 1182185" d="M2084.72,703.76c0-3.236-2.127-5.86-4.75-5.86s-4.75,2.623-4.75,5.86,2.126,5.86,4.75,5.86S2084.72,707,2084.72,703.76Z" transform="translate(-2075.22 -697.9)" fill="#fdad9b"/>
          </g>
          <g id="Grupo_1230694" data-name="Grupo 1230694" transform="translate(20.751 2.154)">
            <path id="Trazado_1182186" data-name="Trazado 1182186" d="M2078.013,696.436c-.132.18.615,3.195-4.969,3.914s-2.23-6.056,1.891-6.209c5.95-.221,6.816,3.78,6.244,5.22S2078.013,696.436,2078.013,696.436Z" transform="translate(-2070.101 -694.133)" fill="#4f1a44"/>
          </g>
          <g id="Grupo_1230695" data-name="Grupo 1230695" transform="translate(1.866 0)">
            <path id="Trazado_1182187" data-name="Trazado 1182187" d="M2012.75,686.268s2.509,1.678.579,3.258-7.236,2.27-5.79,4.936,2.7,6.615.1,7.108-4.245.3-5.307,2.369-5.79.79-5.4-1.678-3.666-4.64-1.93-6.911,5.982-4.245,7.044-7.206S2010.722,684.985,2012.75,686.268Z" transform="translate(-1994.561 -685.517)" fill="#4f1a44"/>
          </g>
          <g id="Grupo_1230696" data-name="Grupo 1230696" transform="translate(21.463 7.412)">
            <path id="Trazado_1182188" data-name="Trazado 1182188" d="M2075.794,715.166s-2.282,2.406-1.491,4.866c0,0-1.323-1.446-1.353-1.986a20.889,20.889,0,0,1,.322-2.49Z" transform="translate(-2072.948 -715.166)" fill="#4f1a44"/>
          </g>
          <g id="Grupo_1230697" data-name="Grupo 1230697" transform="translate(22.169 7.792)">
            <path id="Trazado_1182189" data-name="Trazado 1182189" d="M2076.27,718.732a1.167,1.167,0,0,0,1.68.118,1.306,1.306,0,0,0-.268-1.743,1.168,1.168,0,0,0-1.681-.118A1.307,1.307,0,0,0,2076.27,718.732Z" transform="translate(-2075.773 -716.685)" fill="#fdad9b"/>
          </g>
          <g id="Grupo_1230698" data-name="Grupo 1230698" transform="translate(5.197 0.972)">
            <path id="Trazado_1182190" data-name="Trazado 1182190" d="M2008.074,707.658a.113.113,0,0,1-.041-.218,1.694,1.694,0,0,0,1.091-.868c.192-.535-.172-1.183-.557-1.869a3.466,3.466,0,0,1-.669-2.045c.13-.863,1.177-1.05,2.19-1.23.776-.138,1.578-.281,1.863-.724a.935.935,0,0,0,.066-.766c-.1-.406-.236-.773-.362-1.129-.574-1.616-1.027-2.893,1.484-5.791,3.182-3.671,5.828-3.846,8.212-3.49.3.044,1.154.435,1.147.936s-.8.837-2.434,1.042a6.413,6.413,0,0,0-4.04,3.578c-.676,1.515.277,3.124,1.119,4.545.581.98,1.082,1.827.907,2.461a1.012,1.012,0,0,1-.531.616,8.423,8.423,0,0,1-1.854.662c-1.564.423-3.041.822-3.233,3.492a.113.113,0,1,1-.226-.016c.2-2.83,1.828-3.269,3.4-3.694a8.268,8.268,0,0,0,1.805-.642.784.784,0,0,0,.422-.477c.149-.542-.329-1.35-.884-2.286-.826-1.394-1.854-3.13-1.131-4.752a6.639,6.639,0,0,1,4.208-3.708c2.023-.255,2.245-.66,2.247-.823,0-.315-.684-.669-.954-.71-2.322-.348-4.9-.175-8.008,3.414-2.426,2.8-1.992,4.02-1.443,5.567.127.36.26.732.367,1.148a1.158,1.158,0,0,1-.1.944c-.338.526-1.19.678-2.013.824-.977.174-1.9.338-2.006,1.041a3.326,3.326,0,0,0,.643,1.9c.411.733.8,1.424.572,2.056a1.893,1.893,0,0,1-1.222,1A.113.113,0,0,1,2008.074,707.658Z" transform="translate(-2007.882 -689.403)" fill="#fff"/>
          </g>
          <g id="Grupo_1230699" data-name="Grupo 1230699" transform="translate(23.537 4.614)">
            <path id="Trazado_1182191" data-name="Trazado 1182191" d="M2081.361,705.956a.113.113,0,0,1,0-.226,3.938,3.938,0,0,0,3.072-1.7.113.113,0,0,1,.192.119,4.1,4.1,0,0,1-3.26,1.808Z" transform="translate(-2081.248 -703.975)" fill="#fff"/>
          </g>
          <g id="Grupo_1230700" data-name="Grupo 1230700" transform="translate(12.422 57.688)">
            <path id="Trazado_1182192" data-name="Trazado 1182192" d="M2065.639,916.58a55.392,55.392,0,0,0-10.611-.119,108.015,108.015,0,0,0-18.242,3.013l3.131.526,19.607.777,3.947-3.237Z" transform="translate(-2036.787 -916.279)" fill="#ff8548"/>
          </g>
          <g id="Grupo_1230701" data-name="Grupo 1230701" transform="translate(26.158 12.215)">
            <path id="Trazado_1182193" data-name="Trazado 1182193" d="M2094.977,734.911a10.316,10.316,0,0,1-3.245-.532,1.582,1.582,0,0,0,1.623,1.706C2094.375,736.148,2094.977,734.911,2094.977,734.911Z" transform="translate(-2091.729 -734.379)" fill="#e9633e"/>
          </g>
          <g id="Grupo_1230702" data-name="Grupo 1230702" transform="translate(26.16 12.215)">
            <path id="Trazado_1182194" data-name="Trazado 1182194" d="M2094.984,734.911a2.122,2.122,0,0,1-1.309.322,3.8,3.8,0,0,1-1.936-.854A15.5,15.5,0,0,0,2094.984,734.911Z" transform="translate(-2091.739 -734.379)" fill="#fff"/>
          </g>
          <g id="Grupo_1230704" data-name="Grupo 1230704" transform="translate(25.824 8.696)">
            <g id="Grupo_1230703" data-name="Grupo 1230703">
              <path id="Trazado_1182195" data-name="Trazado 1182195" d="M2091.812,720.619a.108.108,0,0,0,.012-.2,1.17,1.17,0,0,0-1.4.312.109.109,0,0,0,0,.153.119.119,0,0,0,.153,0,1.85,1.85,0,0,1,1.162-.26A.112.112,0,0,0,2091.812,720.619Z" transform="translate(-2090.396 -720.303)" fill="#080435"/>
            </g>
          </g>
          <g id="Grupo_1230705" data-name="Grupo 1230705" transform="translate(26.385 9.743)">
            <path id="Trazado_1182196" data-name="Trazado 1182196" d="M2092.639,724.948c-.009.258.136.471.323.477s.346-.2.354-.456-.137-.471-.323-.477S2092.649,724.69,2092.639,724.948Z" transform="translate(-2092.639 -724.492)" fill="#080435"/>
          </g>
          <g id="Grupo_1230707" data-name="Grupo 1230707" transform="translate(29.711 9.011)">
            <g id="Grupo_1230706" data-name="Grupo 1230706">
              <path id="Trazado_1182197" data-name="Trazado 1182197" d="M2107.329,722.127a.108.108,0,0,0,.089-.185,1.17,1.17,0,0,0-1.412-.244.109.109,0,0,0-.055.143.119.119,0,0,0,.143.055,1.851,1.851,0,0,1,1.173.2A.108.108,0,0,0,2107.329,722.127Z" transform="translate(-2105.943 -721.563)" fill="#080435"/>
            </g>
          </g>
          <g id="Grupo_1230708" data-name="Grupo 1230708" transform="translate(29.801 10.039)">
            <path id="Trazado_1182198" data-name="Trazado 1182198" d="M2106.356,725.982a.419.419,0,0,0,.117.565c.171.077.4-.052.5-.287a.418.418,0,0,0-.117-.565C2106.686,725.618,2106.461,725.747,2106.356,725.982Z" transform="translate(-2106.302 -725.673)" fill="#080435"/>
          </g>
          <g id="Grupo_1230709" data-name="Grupo 1230709" transform="translate(34.748 24.919)">
            <rect id="Rect치ngulo_422967" data-name="Rect치ngulo 422967" width="0.226" height="4.616" transform="translate(0 0.107) rotate(-28.151)" fill="#66192d"/>
          </g>
          <g id="Grupo_1230710" data-name="Grupo 1230710" transform="translate(5.302 18.469)">
            <path id="Trazado_1182199" data-name="Trazado 1182199" d="M2022.7,759.419s6.493,29.236,3.185,56.375c0,0-10.633,2.037-17.577,0C2008.311,815.793,2007.551,758.076,2022.7,759.419Z" transform="translate(-2008.304 -759.396)" fill="#ffba41"/>
          </g>
          <g id="Grupo_1230711" data-name="Grupo 1230711" transform="translate(5.994 18.524)">
            <path id="Trazado_1182200" data-name="Trazado 1182200" d="M2023.461,759.618s-5-.249-8.2,3.117-4.162,25.892-4.19,33.221c-.017,4.785,9.947-20.733,9.947-20.733Z" transform="translate(-2011.072 -759.613)" fill="#ffba41"/>
          </g>
          <g id="Grupo_1230712" data-name="Grupo 1230712" transform="translate(28.053 18.762)">
            <path id="Trazado_1182201" data-name="Trazado 1182201" d="M2099.31,760.566s13.294,19.715,8.979,55.443c0,0,5.568,1.412,7.631-.869,0,0,1.427-37.941-4.771-47.911C2111.15,767.229,2105.325,761.158,2099.31,760.566Z" transform="translate(-2099.31 -760.566)" fill="#ffba41"/>
          </g>
          <g id="Grupo_1230713" data-name="Grupo 1230713" transform="translate(13.473 38.007)">
            <path id="Trazado_1182202" data-name="Trazado 1182202" d="M2050.8,844.13a.105.105,0,0,1-.042-.008c-.064-.026-6.422-2.685-9.743-6.39a.108.108,0,1,1,.162-.145c3.289,3.668,9.6,6.308,9.664,6.334a.109.109,0,0,1,.06.142A.111.111,0,0,1,2050.8,844.13Z" transform="translate(-2040.989 -837.551)" fill="#66192d"/>
          </g>
          <g id="Grupo_1230720" data-name="Grupo 1230720" transform="translate(47.897 30.633)">
            <g id="Grupo_1230719" data-name="Grupo 1230719">
              <g id="Grupo_1230715" data-name="Grupo 1230715">
                <g id="Grupo_1230714" data-name="Grupo 1230714">
                  <path id="Trazado_1182203" data-name="Trazado 1182203" d="M2178.69,814.672s1.344-4.642,3.9-5.861,6.735-.847,5.313.245a8.255,8.255,0,0,1-2.217,1.338s3.388-1.04,3.3.252-3.541,2.537-3.541,2.537,5.131-1.371,4.65-.178-4.945,2.341-4.945,2.341,5.514-1.227,4.923.145-4.563.984-4.655,2.277-2.568,5.581-6.19,5.766Z" transform="translate(-2178.69 -808.052)" fill="#fdad9b"/>
                </g>
              </g>
              <g id="Grupo_1230716" data-name="Grupo 1230716" transform="translate(3.703 2.887)">
                <path id="Trazado_1182204" data-name="Trazado 1182204" d="M2193.695,820.832l-.191-.083c.367-.854,1.8-1.138,1.862-1.15l.039.205C2195.392,819.807,2194.02,820.079,2193.695,820.832Z" transform="translate(-2193.503 -819.599)" fill="#f18c7e"/>
              </g>
              <g id="Grupo_1230717" data-name="Grupo 1230717" transform="translate(3.796 5.21)">
                <path id="Trazado_1182205" data-name="Trazado 1182205" d="M2194.045,830.357l-.172-.119a3.671,3.671,0,0,1,2.2-1.344l.036.206A3.525,3.525,0,0,0,2194.045,830.357Z" transform="translate(-2193.873 -828.894)" fill="#f18c7e"/>
              </g>
              <g id="Grupo_1230718" data-name="Grupo 1230718" transform="translate(4.352 7.192)">
                <path id="Trazado_1182206" data-name="Trazado 1182206" d="M2196.3,838.176l-.2-.066c.315-.944,2.01-1.277,2.082-1.291l.039.205C2198.2,837.027,2196.573,837.347,2196.3,838.176Z" transform="translate(-2196.097 -836.819)" fill="#f18c7e"/>
              </g>
            </g>
          </g>
          <g id="Grupo_1230722" data-name="Grupo 1230722" transform="translate(9.753 22.053)">
            <g id="Grupo_1230721" data-name="Grupo 1230721">
              <path id="Trazado_1182207" data-name="Trazado 1182207" d="M2064.059,800.235s1.883-.7,1.347-6.3a50.392,50.392,0,0,0-1.155-5c-11.292.011-17.367-2.539-24.05-8.036a29.843,29.843,0,0,1-5.048-5.294,4.6,4.6,0,0,0-5.479-1.513l-.907.38a4.336,4.336,0,0,0-2.053,6.21c1.505,2.55.973,7.411,4.206,10.148C2036.617,795.65,2048.879,801.574,2064.059,800.235Z" transform="translate(-2026.107 -773.734)" fill="#ffba41"/>
            </g>
          </g>
          <g id="Grupo_1230723" data-name="Grupo 1230723" transform="translate(34.557 35.37)">
            <path id="Trazado_1182208" data-name="Trazado 1182208" d="M2137.886,829a43.577,43.577,0,0,1-12.482-1.791.109.109,0,1,1,.066-.207,43.888,43.888,0,0,0,13.192,1.77.11.11,0,0,1,.113.1.108.108,0,0,1-.1.113C2138.658,828.994,2138.376,829,2137.886,829Z" transform="translate(-2125.329 -827.002)" fill="#66192d"/>
          </g>
        </g>
        <g id="Grupo_1230725" data-name="Grupo 1230725" transform="translate(126.281 95.677)">
          <path id="Trazado_1182209" data-name="Trazado 1182209" d="M2141.307,879.088c-2.694,0-6.379-.411-6.421-.415a.108.108,0,0,1-.1-.12.107.107,0,0,1,.12-.1,61.454,61.454,0,0,0,7.338.393.109.109,0,1,1,.01.217C2141.965,879.082,2141.645,879.088,2141.307,879.088Z" transform="translate(-2134.79 -878.456)" fill="#66192d"/>
        </g>
        <g id="Grupo_1230768" data-name="Grupo 1230768" transform="translate(136.685 179.609)">
          <g id="Grupo_1230726" data-name="Grupo 1230726" transform="translate(38.905 100.277)">
            <path id="Trazado_1182210" data-name="Trazado 1182210" d="M2336.685,1617.214s.87,4.631,2.848,6.94c1.3,1.522,4.861,4.5,2.44,5.619-1.933.89-5.833-2.654-7.089-3.525s-3.163-2.538-2.8-4.024a23.823,23.823,0,0,0,.338-6.9Z" transform="translate(-2332.037 -1615.318)" fill="#66192d"/>
          </g>
          <g id="Grupo_1230727" data-name="Grupo 1230727" transform="translate(27.601 95.62)">
            <path id="Trazado_1182211" data-name="Trazado 1182211" d="M2293.17,1599.949s-.794,4.644.257,7.5c.694,1.881,2.991,5.913.334,6.116-2.122.162-4.546-4.516-5.421-5.77s-2.083-3.479-1.229-4.748a23.842,23.842,0,0,0,2.718-6.356Z" transform="translate(-2286.82 -1596.689)" fill="#66192d"/>
          </g>
          <g id="Grupo_1230729" data-name="Grupo 1230729" transform="translate(21.029 48.956)">
            <g id="Grupo_1230728" data-name="Grupo 1230728">
              <path id="Trazado_1182212" data-name="Trazado 1182212" d="M2274.893,1463.164c24.886-17.833,23.13-32.666,19.408-38.365-4.324-6.618-10.99-11.743-21.011-13.793a55.118,55.118,0,0,0-7.322-.97,5.1,5.1,0,0,0-5.427,5.387l.519,8.656h-.019c4.244-.231,17.173.631,20.779,7.385.749,1.4-15.711,22.1-14.95,25.693C2267.728,1461.219,2272.46,1464.906,2274.893,1463.164Z" transform="translate(-2260.531 -1410.024)" fill="#ff8548"/>
            </g>
          </g>
          <g id="Grupo_1230731" data-name="Grupo 1230731" transform="translate(3.276 50.76)">
            <g id="Grupo_1230730" data-name="Grupo 1230730">
              <path id="Trazado_1182213" data-name="Trazado 1182213" d="M2231.587,1470.79a5.073,5.073,0,0,0,4.91-5.537c-.6-6.484-2.179-17.5-6.243-25.728a35.753,35.753,0,0,0-10.569-12.464,56.725,56.725,0,0,0-12.543-7.116c-7.938-3.333-13.552-2.642-13.552-2.642l-4.061,6.443c.057.01-.985,6.4,8.237,11.749,5.088,2.954,15.171,4.525,19.562,12.453,3.135,5.66,4.516,13.257,5.069,18.58a4.893,4.893,0,0,0,5.009,4.381Z" transform="translate(-2189.518 -1417.243)" fill="#ff8548"/>
            </g>
          </g>
          <g id="Grupo_1230732" data-name="Grupo 1230732" transform="translate(30.339 27.47)">
            <path id="Trazado_1182214" data-name="Trazado 1182214" d="M2304.384,1324.08a56.15,56.15,0,0,1,7.8,19.813c1.51,7.882-13.219-.859-13.219-.859l-1.2-16.531Z" transform="translate(-2297.771 -1324.08)" fill="#fdad9b"/>
          </g>
          <g id="Grupo_1230733" data-name="Grupo 1230733" transform="translate(2.114 18.311)">
            <path id="Trazado_1182215" data-name="Trazado 1182215" d="M2193.307,1292.915s3.77-6.969,13.059-5.181,13.361,11.078,14.779,33.668c0,0-5.208,9.982-30.457,8.917-2.8-.118-6.808-.353-5.6-4.923C2187.345,1316.9,2189.237,1300.04,2193.307,1292.915Z" transform="translate(-2184.87 -1287.441)" fill="#4f1a44"/>
          </g>
          <g id="Grupo_1230734" data-name="Grupo 1230734" transform="translate(0.477 18.049)">
            <path id="Trazado_1182216" data-name="Trazado 1182216" d="M2178.32,1294.466l9.542,1.464s16.746,4.348,21.389,4.231a7.522,7.522,0,0,0,6.451-3.576,24.572,24.572,0,0,0-11.9-8.964,22.827,22.827,0,0,0-2.344-.672,17.061,17.061,0,0,0-4.147-.552C2181.65,1286.744,2178.32,1294.466,2178.32,1294.466Z" transform="translate(-2178.32 -1286.395)" fill="#4f1a44"/>
          </g>
          <g id="Grupo_1230735" data-name="Grupo 1230735" transform="translate(0.466 25.527)">
            <path id="Trazado_1182217" data-name="Trazado 1182217" d="M2178.287,1316.9c-.18.755,1.849,1.935,4.533,2.637s5.005.66,5.185-.095-1.849-1.935-4.533-2.637S2178.467,1316.147,2178.287,1316.9Z" transform="translate(-2178.276 -1316.307)" fill="#66192d"/>
          </g>
          <g id="Grupo_1230737" data-name="Grupo 1230737" transform="translate(0 26.433)">
            <g id="Grupo_1230736" data-name="Grupo 1230736">
              <path id="Trazado_1182218" data-name="Trazado 1182218" d="M2179.234,1340.619c4.262,6.211,12.422,9.992,20.843,9.444l-1.125-6.734c-6.577-.972-11.731-5.058-12.784-8.613a29.131,29.131,0,0,1-.619-12.187.854.854,0,0,0-.35-.81,11.541,11.541,0,0,0-6.938-1.788.75.75,0,0,0-.719.582C2176.127,1326.667,2175.429,1335.079,2179.234,1340.619Z" transform="translate(-2176.412 -1319.929)" fill="#fdad9b"/>
            </g>
          </g>
          <g id="Grupo_1230738" data-name="Grupo 1230738" transform="translate(5.3 45.448)" opacity="0.3">
            <path id="Trazado_1182219" data-name="Trazado 1182219" d="M2199.432,1399.607a1.312,1.312,0,0,1-.451-.084,2.152,2.152,0,0,1-1.143-1.131,1.7,1.7,0,0,1,.479-2.3,1.172,1.172,0,0,1,.915-.018,2.154,2.154,0,0,1,1.143,1.131,1.7,1.7,0,0,1-.479,2.3A1.111,1.111,0,0,1,2199.432,1399.607Zm-.653-3.3a.781.781,0,0,0-.332.072c-.544.255-.691,1.1-.328,1.885h0a1.837,1.837,0,0,0,.967.969.867.867,0,0,0,.676-.008c.544-.254.691-1.1.329-1.884a1.84,1.84,0,0,0-.967-.969A.973.973,0,0,0,2198.779,1396.3Z" transform="translate(-2197.613 -1395.993)" fill="#f18c7e"/>
          </g>
          <g id="Grupo_1230743" data-name="Grupo 1230743" transform="translate(22.171 48.353)">
            <g id="Grupo_1230739" data-name="Grupo 1230739">
              <path id="Trazado_1182220" data-name="Trazado 1182220" d="M2265.468,1409.1s5.99-2.129,7.945-1.282,3.813,3.405,2.49,3.138a14.037,14.037,0,0,1-2.92-1.076s3.33,1.888,2.551,2.475-3.659-1.082-3.659-1.082,3.783,2.562,2.868,2.879-3.775-1.65-3.775-1.65,3.424,2.524,2.353,2.867-2.817-2.1-3.6-1.517-2.727,3.231-4.624,1.266Z" transform="translate(-2265.101 -1407.615)" fill="#fdad9b"/>
            </g>
            <g id="Grupo_1230740" data-name="Grupo 1230740" transform="translate(6.358 1.667)">
              <path id="Trazado_1182221" data-name="Trazado 1182221" d="M2292.009,1414.938c-.008-.006-.84-.65-1.429-.462l-.048-.15c.667-.214,1.537.459,1.574.488Z" transform="translate(-2290.532 -1414.285)" fill="#e9845c"/>
            </g>
            <g id="Grupo_1230741" data-name="Grupo 1230741" transform="translate(4.972 2.994)">
              <path id="Trazado_1182222" data-name="Trazado 1182222" d="M2286.743,1420.311a2.652,2.652,0,0,0-1.735-.55l-.018-.156a2.76,2.76,0,0,1,1.852.584Z" transform="translate(-2284.991 -1419.592)" fill="#e9845c"/>
            </g>
            <g id="Grupo_1230742" data-name="Grupo 1230742" transform="translate(4.151 4.214)">
              <path id="Trazado_1182223" data-name="Trazado 1182223" d="M2283.373,1425.2c-.01-.008-1-.775-1.6-.522l-.061-.145c.692-.288,1.719.51,1.763.544Z" transform="translate(-2281.707 -1424.471)" fill="#e9845c"/>
            </g>
          </g>
          <g id="Grupo_1230750" data-name="Grupo 1230750" transform="translate(23.216 44.238)">
            <g id="Grupo_1230744" data-name="Grupo 1230744" transform="translate(6.098 0.04)">
              <path id="Trazado_1182224" data-name="Trazado 1182224" d="M2294.648,1406.038l19.437-.652a.944.944,0,0,0,.875-.672l3.635-12.2a.941.941,0,0,0-.938-1.2l-18.692.626a1.979,1.979,0,0,0-1.832,1.407l-3.423,11.488A.94.94,0,0,0,2294.648,1406.038Z" transform="translate(-2293.671 -1391.311)" fill="#66192d"/>
            </g>
            <g id="Grupo_1230745" data-name="Grupo 1230745" transform="translate(7.317)">
              <path id="Trazado_1182225" data-name="Trazado 1182225" d="M2299.528,1405.878l19.437-.651a.944.944,0,0,0,.875-.672l3.635-12.2a.939.939,0,0,0-.937-1.2l-18.692.626a1.978,1.978,0,0,0-1.832,1.407l-3.423,11.488A.941.941,0,0,0,2299.528,1405.878Z" transform="translate(-2298.551 -1391.152)" fill="#66192d"/>
            </g>
            <g id="Grupo_1230746" data-name="Grupo 1230746" transform="translate(19.484 6.292)">
              <path id="Trazado_1182226" data-name="Trazado 1182226" d="M2349.4,1416.933c-.015-.458-.55-.627-1.011-.612a1.323,1.323,0,0,0-1.171,1.185c.028.692.573.764,1.034.749A1.526,1.526,0,0,0,2349.4,1416.933Z" transform="translate(-2347.218 -1416.32)" fill="#daebe8"/>
            </g>
            <g id="Grupo_1230747" data-name="Grupo 1230747" transform="translate(0 12.37)">
              <path id="Trazado_1182227" data-name="Trazado 1182227" d="M2270.367,1441.525l26.6-.892.058,1.7-27.151.91a.572.572,0,0,1-.591-.552v-.008A1.123,1.123,0,0,1,2270.367,1441.525Z" transform="translate(-2269.28 -1440.633)" fill="#66192d"/>
            </g>
            <g id="Grupo_1230748" data-name="Grupo 1230748" transform="translate(9.292 0.582)">
              <path id="Trazado_1182228" data-name="Trazado 1182228" d="M2306.572,1399.739l-.123-.028a33.319,33.319,0,0,1,1.433-4.806,2.7,2.7,0,0,1,1.4-1.423l.038.121a2.636,2.636,0,0,0-1.322,1.36A33.885,33.885,0,0,0,2306.572,1399.739Z" transform="translate(-2306.448 -1393.482)" fill="#4f1a44"/>
            </g>
            <g id="Grupo_1230749" data-name="Grupo 1230749" transform="translate(6.746 8.15)">
              <path id="Trazado_1182229" data-name="Trazado 1182229" d="M2296.267,1428.739l0-.126c.637-.021.786-.291.788-.293l1.359-4.564.121.036-1.363,4.575C2297.157,1428.391,2296.987,1428.714,2296.267,1428.739Z" transform="translate(-2296.263 -1423.755)" fill="#4f1a44"/>
            </g>
          </g>
          <g id="Grupo_1230751" data-name="Grupo 1230751" transform="translate(35.051 60.208)">
            <path id="Trazado_1182230" data-name="Trazado 1182230" d="M2330.56,1484.668a71.381,71.381,0,0,0-2.619-12.346c-1.856-5.991-5.327-13.829-11.321-17.149l.076-.138c6.041,3.346,9.531,11.223,11.4,17.243a71.53,71.53,0,0,1,2.624,12.374Z" transform="translate(-2316.62 -1455.036)" fill="#020202"/>
          </g>
          <g id="Grupo_1230752" data-name="Grupo 1230752" transform="translate(32.808 85.316)">
            <path id="Trazado_1182231" data-name="Trazado 1182231" d="M2311.225,1571.476a45.965,45.965,0,0,0-3.578-15.937l.142-.067a46.16,46.16,0,0,1,3.593,16Z" transform="translate(-2307.647 -1555.472)" fill="#020202"/>
          </g>
          <g id="Grupo_1230753" data-name="Grupo 1230753" transform="translate(23.346 10.244)">
            <path id="Trazado_1182232" data-name="Trazado 1182232" d="M2273.949,1263.857s-2.192-1.036-2.468-2.308-1.135-.939-1.6-1.289,1.094-3.67,1.094-3.67l4.757-1.417-.845,5.939Z" transform="translate(-2269.799 -1255.173)" fill="#66192d"/>
          </g>
          <g id="Grupo_1230754" data-name="Grupo 1230754" transform="translate(17.748 8.205)">
            <path id="Trazado_1182233" data-name="Trazado 1182233" d="M2247.422,1256.934a2.772,2.772,0,0,0,2.356-1.513l1.416-2.8.411-.814,2.416-4.786-.677,5.072-.407,3.044-.116.868a1.393,1.393,0,0,0,1.058,1.536l.012,0c.339.635.784,1.912-.8,2.311-1.862.47-4.728-1.147-5.684-2.916Z" transform="translate(-2247.406 -1247.016)" fill="#fdad9b"/>
          </g>
          <g id="Grupo_1230755" data-name="Grupo 1230755" transform="translate(21.536 12.92)">
            <path id="Trazado_1182234" data-name="Trazado 1182234" d="M2262.559,1266.674c0,.028,0,.056,0,.085a3.236,3.236,0,0,0,1.731,2.524l.011-.009.407-3.044a2.614,2.614,0,0,0-1.738-.285A.719.719,0,0,0,2262.559,1266.674Z" transform="translate(-2262.558 -1265.875)" fill="#f18c7e"/>
          </g>
          <g id="Grupo_1230756" data-name="Grupo 1230756" transform="translate(19.745 3.119)">
            <path id="Trazado_1182235" data-name="Trazado 1182235" d="M2264.981,1232.878c.2-3.261-1.783-6.036-4.426-6.2s-4.947,2.352-5.146,5.613,1.783,6.035,4.426,6.2S2264.781,1236.14,2264.981,1232.878Z" transform="translate(-2255.395 -1226.674)" fill="#fdad9b"/>
          </g>
          <g id="Grupo_1230757" data-name="Grupo 1230757" transform="translate(23.641 12.275)">
            <path id="Trazado_1182236" data-name="Trazado 1182236" d="M2274.227,1264.032a10.4,10.4,0,0,1-3.237-.736,1.6,1.6,0,0,0,1.53,1.819C2273.545,1265.24,2274.227,1264.032,2274.227,1264.032Z" transform="translate(-2270.98 -1263.296)" fill="#fff"/>
          </g>
          <g id="Grupo_1230759" data-name="Grupo 1230759" transform="translate(23.565 8.767)">
            <g id="Grupo_1230758" data-name="Grupo 1230758">
              <path id="Trazado_1182237" data-name="Trazado 1182237" d="M2272.115,1249.617a.107.107,0,0,0,.076-.06.108.108,0,0,0-.052-.145,1.181,1.181,0,0,0-1.428.228.11.11,0,0,0-.005.154.12.12,0,0,0,.154.006,1.867,1.867,0,0,1,1.187-.191A.1.1,0,0,0,2272.115,1249.617Z" transform="translate(-2270.677 -1249.266)" fill="#080435"/>
            </g>
          </g>
          <g id="Grupo_1230760" data-name="Grupo 1230760" transform="translate(23.838 9.752)">
            <path id="Trazado_1182238" data-name="Trazado 1182238" d="M2271.772,1253.645c-.024.259.109.484.3.5s.36-.179.384-.438-.109-.483-.3-.5S2271.8,1253.387,2271.772,1253.645Z" transform="translate(-2271.769 -1253.206)" fill="#080435"/>
          </g>
          <g id="Grupo_1230761" data-name="Grupo 1230761" transform="translate(26.921 10.17)">
            <path id="Trazado_1182239" data-name="Trazado 1182239" d="M2284.106,1255.293c-.041.257.078.489.264.519s.37-.155.411-.412-.078-.49-.264-.519S2284.146,1255.036,2284.106,1255.293Z" transform="translate(-2284.098 -1254.877)" fill="#080435"/>
          </g>
          <g id="Grupo_1230762" data-name="Grupo 1230762" transform="translate(19.737 0)">
            <path id="Trazado_1182240" data-name="Trazado 1182240" d="M2258.076,1219.3a8.4,8.4,0,0,1,5.893,8.306q-.01.328-.031.675a3.387,3.387,0,0,0-2.789,2.818c-.088.759,2.032,2.189,2.189,2.13,1.184-.443,4.364-3.066,4.021-8.676s-2.252-9.833-7.356-10.316-4.63,2.969-4.63,2.969A4.805,4.805,0,0,0,2258.076,1219.3Z" transform="translate(-2255.361 -1214.195)" fill="#66192d"/>
          </g>
          <g id="Grupo_1230763" data-name="Grupo 1230763" transform="translate(15.966 2.658)">
            <path id="Trazado_1182241" data-name="Trazado 1182241" d="M2247.481,1227.333s-.091.051-.237.151a5.488,5.488,0,0,0-2.325,3.286c-.436,2.24,1.652,3.78.948,5.491s-2.16-.346-3.458-.126-2.2-.433-2.127-3,1.031-8.492,4.057-8.308Z" transform="translate(-2240.279 -1224.828)" fill="#66192d"/>
          </g>
          <g id="Grupo_1230764" data-name="Grupo 1230764" transform="translate(19.356 7.597)">
            <path id="Trazado_1182242" data-name="Trazado 1182242" d="M2254.278,1246.623a1.179,1.179,0,0,0,1.686.222,1.319,1.319,0,0,0-.163-1.773,1.179,1.179,0,0,0-1.686-.222A1.315,1.315,0,0,0,2254.278,1246.623Z" transform="translate(-2253.84 -1244.585)" fill="#fdad9b"/>
          </g>
          <g id="Grupo_1230765" data-name="Grupo 1230765" transform="translate(22.864 4.062)">
            <path id="Trazado_1182243" data-name="Trazado 1182243" d="M2274.4,1242.715h-.009a.058.058,0,0,1-.048-.066,13.737,13.737,0,0,0-1.872-9.253c-2.084-3.072-4.514-2.835-4.539-2.832a.06.06,0,0,1-.064-.051.058.058,0,0,1,.051-.064c.025,0,2.525-.247,4.647,2.882a13.865,13.865,0,0,1,1.891,9.336A.059.059,0,0,1,2274.4,1242.715Z" transform="translate(-2267.873 -1230.444)" fill="#fff"/>
          </g>
          <g id="Grupo_1230766" data-name="Grupo 1230766" transform="translate(17.676 3.454)">
            <path id="Trazado_1182244" data-name="Trazado 1182244" d="M2247.622,1236.549a.057.057,0,0,1-.053-.036c-1-2.483-.159-6.63.882-7.82a2.215,2.215,0,0,1,2.6-.429.058.058,0,1,1-.053.1,2.066,2.066,0,0,0-2.465.4c-1.023,1.17-1.85,5.253-.862,7.7a.057.057,0,0,1-.032.075A.074.074,0,0,1,2247.622,1236.549Z" transform="translate(-2247.119 -1228.013)" fill="#fff"/>
          </g>
          <g id="Grupo_1230767" data-name="Grupo 1230767" transform="translate(22.4 2.774)">
            <path id="Trazado_1182245" data-name="Trazado 1182245" d="M2273.612,1234.315h0a.058.058,0,0,1-.058-.058c0-.069-.005-6.936-2.655-8.268a5.007,5.007,0,0,0-4.794.043.058.058,0,0,1-.063-.1,5.13,5.13,0,0,1,4.909-.05c1.142.574,1.947,2.16,2.391,4.713a23.73,23.73,0,0,1,.327,3.659A.057.057,0,0,1,2273.612,1234.315Z" transform="translate(-2266.017 -1225.29)" fill="#fff"/>
          </g>
        </g>
      </g>
    </g>
  </g>
</svg>
