<svg xmlns="http://www.w3.org/2000/svg" xmlns:xlink="http://www.w3.org/1999/xlink" width="113" height="113" viewBox="0 0 113 113">
  <defs>
    <filter id="Trazado_982547" x="0" y="0" width="113" height="113" filterUnits="userSpaceOnUse">
      <feOffset dy="3" input="SourceAlpha"/>
      <feGaussianBlur stdDeviation="3" result="blur"/>
      <feFlood flood-opacity="0.161"/>
      <feComposite operator="in" in2="blur"/>
      <feComposite in="SourceGraphic"/>
    </filter>
  </defs>
  <g id="Grupo_1231500" data-name="Grupo 1231500" transform="translate(-272.446 -819.544)">
    <g id="Grupo_1228247" data-name="Grupo 1228247" transform="translate(0.446 -1115)">
      <g id="Grupo_1227859" data-name="Grupo 1227859" transform="translate(0 -6.331)">
        <g id="Grupo_1203498" data-name="Grupo 1203498" transform="translate(0 -197.72)">
          <g id="Grupo_1202589" data-name="Grupo 1202589" transform="translate(281 2144.596)">
            <g id="Grupo_1172010" data-name="Grupo 1172010" transform="translate(0)">
              <g id="Grupo_1171046" data-name="Grupo 1171046">
                <g id="Grupo_1148525" data-name="Grupo 1148525">
                  <g transform="matrix(1, 0, 0, 1, -9, -6)" filter="url(#Trazado_982547)">
                    <g id="Trazado_982547-2" data-name="Trazado 982547" transform="translate(9 6)" fill="#ffe6ef">
                      <path d="M 47.5 93.5 C 41.28937149047852 93.5 35.26533508300781 92.28397369384766 29.59518623352051 89.88570404052734 C 24.11771965026855 87.56893157958984 19.19813346862793 84.25196075439453 14.97309303283691 80.02691650390625 C 10.74804019927979 75.80186462402344 7.431066513061523 70.88229370117188 5.114293098449707 65.40481567382812 C 2.716026782989502 59.73468017578125 1.5 53.71062850952148 1.5 47.5 C 1.5 41.28937149047852 2.716026782989502 35.26533508300781 5.114293098449707 29.59518623352051 C 7.431066513061523 24.11771965026855 10.74804019927979 19.19813346862793 14.97309303283691 14.97309303283691 C 19.19813346862793 10.74804019927979 24.11771965026855 7.431066513061523 29.59518623352051 5.114293098449707 C 35.26533508300781 2.716026782989502 41.28937149047852 1.5 47.5 1.5 C 53.71062850952148 1.5 59.73468017578125 2.716026782989502 65.40481567382812 5.114293098449707 C 70.88229370117188 7.431066513061523 75.80186462402344 10.74804019927979 80.02691650390625 14.97309303283691 C 84.25196075439453 19.19813346862793 87.56893157958984 24.11771965026855 89.88570404052734 29.59518623352051 C 92.28397369384766 35.26533508300781 93.5 41.28937149047852 93.5 47.5 C 93.5 53.71062850952148 92.28397369384766 59.73468017578125 89.88570404052734 65.40481567382812 C 87.56893157958984 70.88229370117188 84.25196075439453 75.80186462402344 80.02691650390625 80.02691650390625 C 75.80186462402344 84.25196075439453 70.88229370117188 87.56893157958984 65.40481567382812 89.88570404052734 C 59.73468017578125 92.28397369384766 53.71062850952148 93.5 47.5 93.5 Z" stroke="none"/>
                      <path d="M 47.5 3 C 41.49121475219727 3 35.66376876831055 4.176155090332031 30.17950439453125 6.495796203613281 C 24.88084411621094 8.736953735351562 20.12152099609375 11.94598388671875 16.03375244140625 16.03375244140625 C 11.94598388671875 20.12152099609375 8.736953735351562 24.88084411621094 6.495796203613281 30.17950439453125 C 4.176155090332031 35.66376876831055 3 41.49121475219727 3 47.5 C 3 53.50878524780273 4.176155090332031 59.33623123168945 6.495796203613281 64.82049560546875 C 8.736953735351562 70.11915588378906 11.94598388671875 74.87847900390625 16.03375244140625 78.96624755859375 C 20.12152099609375 83.05401611328125 24.88084411621094 86.26304626464844 30.17950439453125 88.50419616699219 C 35.66376876831055 90.82384490966797 41.49121475219727 92 47.5 92 C 53.50878524780273 92 59.33623123168945 90.82384490966797 64.82049560546875 88.50419616699219 C 70.11915588378906 86.26304626464844 74.87847900390625 83.05401611328125 78.96624755859375 78.96624755859375 C 83.05401611328125 74.87847900390625 86.26304626464844 70.11915588378906 88.50419616699219 64.82049560546875 C 90.82384490966797 59.33623123168945 92 53.50878524780273 92 47.5 C 92 41.49121475219727 90.82384490966797 35.66376876831055 88.50419616699219 30.17950439453125 C 86.26304626464844 24.88084411621094 83.05401611328125 20.12152099609375 78.96624755859375 16.03375244140625 C 74.87847900390625 11.94598388671875 70.11915588378906 8.736953735351562 64.82049560546875 6.495796203613281 C 59.33623123168945 4.176155090332031 53.50878524780273 3 47.5 3 M 47.5 0 C 73.7335205078125 0 95 21.2664794921875 95 47.5 C 95 73.7335205078125 73.7335205078125 95 47.5 95 C 21.2664794921875 95 0 73.7335205078125 0 47.5 C 0 21.2664794921875 21.2664794921875 0 47.5 0 Z" stroke="none" fill="#8b5e6f"/>
                    </g>
                  </g>
                </g>
              </g>
            </g>
          </g>
        </g>
      </g>
    </g>
    <g id="cubitos" transform="translate(300.723 844.821)">
      <g id="Grupo_1231498" data-name="Grupo 1231498" transform="translate(0.827 0.827)">
        <path id="Trazado_1192469" data-name="Trazado 1192469" d="M32.157,256H10.24a2.74,2.74,0,0,0-2.74,2.74v21.917a2.74,2.74,0,0,0,2.74,2.74H32.157a2.74,2.74,0,0,0,2.74-2.74V258.74A2.74,2.74,0,0,0,32.157,256Z" transform="translate(-7.5 -228.604)" fill="#b3e59f"/>
        <path id="Trazado_1192470" data-name="Trazado 1192470" d="M280.656,256H258.74a2.74,2.74,0,0,0-2.74,2.74v21.917a2.74,2.74,0,0,0,2.74,2.74h21.917a2.74,2.74,0,0,0,2.74-2.74V258.74A2.74,2.74,0,0,0,280.656,256Z" transform="translate(-228.604 -228.604)" fill="#a4ccff"/>
        <path id="Trazado_1192471" data-name="Trazado 1192471" d="M156.407,7.5H134.49a2.74,2.74,0,0,0-2.74,2.74V32.157a2.74,2.74,0,0,0,2.74,2.74h21.917a2.74,2.74,0,0,0,2.74-2.74V10.24a2.74,2.74,0,0,0-2.74-2.74Z" transform="translate(-118.052 -7.5)" fill="#ff8086"/>
        <path id="Trazado_1192472" data-name="Trazado 1192472" d="M158.978,32.157H139.056a4.571,4.571,0,0,1-4.566-4.566V7.5a2.74,2.74,0,0,0-2.74,2.74V32.157a2.74,2.74,0,0,0,2.74,2.74h21.917a2.74,2.74,0,0,0,2.74-2.74Z" transform="translate(-118.052 -7.5)" fill="#e5646e"/>
        <path id="Trazado_1192473" data-name="Trazado 1192473" d="M34.728,280.657H14.806a4.571,4.571,0,0,1-4.566-4.566V256a2.74,2.74,0,0,0-2.74,2.74v21.917a2.74,2.74,0,0,0,2.74,2.74H32.157a2.74,2.74,0,0,0,2.74-2.74Z" transform="translate(-7.5 -228.604)" fill="#95d6a4"/>
        <path id="Trazado_1192474" data-name="Trazado 1192474" d="M283.228,280.657H263.306a4.571,4.571,0,0,1-4.566-4.566V256a2.74,2.74,0,0,0-2.74,2.74v21.917a2.74,2.74,0,0,0,2.74,2.74h21.917a2.74,2.74,0,0,0,2.74-2.74Z" transform="translate(-228.604 -228.604)" fill="#8bb3ea"/>
      </g>
      <g id="Grupo_1231499" data-name="Grupo 1231499" transform="translate(0 0)">
        <path id="Trazado_1192475" data-name="Trazado 1192475" d="M52.879,27.4H42.189a3.545,3.545,0,0,0,.559-1.913V3.566A3.57,3.57,0,0,0,39.181,0H17.264A3.57,3.57,0,0,0,13.7,3.566V25.483a3.544,3.544,0,0,0,.559,1.913H3.566A3.57,3.57,0,0,0,0,30.963V52.88a3.57,3.57,0,0,0,3.566,3.566H25.483a3.56,3.56,0,0,0,2.74-1.286,3.56,3.56,0,0,0,2.74,1.286H52.879a3.57,3.57,0,0,0,3.566-3.566V30.963A3.57,3.57,0,0,0,52.879,27.4Zm-27.4,27.4H3.566A1.915,1.915,0,0,1,1.654,52.88V30.963A1.915,1.915,0,0,1,3.566,29.05H25.483A1.915,1.915,0,0,1,27.4,30.963V52.88A1.915,1.915,0,0,1,25.483,54.792ZM54.792,52.88a1.915,1.915,0,0,1-1.913,1.913H30.963A1.915,1.915,0,0,1,29.05,52.88V30.963a1.915,1.915,0,0,1,1.913-1.913H33.7a.827.827,0,0,0,0-1.654H17.264a1.915,1.915,0,0,1-1.913-1.913V3.566a1.915,1.915,0,0,1,1.913-1.913H39.181a1.915,1.915,0,0,1,1.913,1.913V25.483A1.915,1.915,0,0,1,39.181,27.4H37.355a.827.827,0,1,0,0,1.654H52.879a1.915,1.915,0,0,1,1.913,1.913Z" transform="translate(0 0)"/>
        <path id="Trazado_1192476" data-name="Trazado 1192476" d="M207.993,64.809l-.009-.023a1.118,1.118,0,0,0-1.038-.7h0a1.118,1.118,0,0,0-1.038.7l-.007.019L201,77.662a.827.827,0,1,0,1.545.589l1.016-2.669h6.725l1.006,2.667a.827.827,0,1,0,1.547-.584Zm-3.8,9.119,2.748-7.215,2.723,7.215Z" transform="translate(-178.796 -57.025)"/>
        <path id="Trazado_1192477" data-name="Trazado 1192477" d="M105.5,326.451a3.625,3.625,0,0,0-2.623-6.13H99.337a.827.827,0,0,0-.827.827V333.32a.827.827,0,0,0,.827.827h0c.033,0,3.264-.014,4.15-.014a4.1,4.1,0,0,0,2.005-7.681Zm-2.623-4.477a1.974,1.974,0,1,1,0,3.948l-2.709,0v-3.951h2.709Zm.617,10.5c-.605,0-2.3.007-3.326.011v-4.9c.422,0,3.326-.006,3.326-.006a2.45,2.45,0,0,1,0,4.9Z" transform="translate(-87.65 -285.007)"/>
        <path id="Trazado_1192478" data-name="Trazado 1192478" d="M332.648,330.969a.827.827,0,0,0-1.165.1,3.966,3.966,0,0,1-3.2,1.423,5.259,5.259,0,1,1,2.94-9.621.827.827,0,1,0,.926-1.37,6.913,6.913,0,1,0-3.866,12.645,5.618,5.618,0,0,0,4.468-2.014A.827.827,0,0,0,332.648,330.969Z" transform="translate(-285.939 -285.007)"/>
      </g>
    </g>
  </g>
</svg>
