<svg xmlns="http://www.w3.org/2000/svg" xmlns:xlink="http://www.w3.org/1999/xlink" width="113" height="113" viewBox="0 0 113 113">
  <defs>
    <filter id="Trazado_982547" x="0" y="0" width="113" height="113" filterUnits="userSpaceOnUse">
      <feOffset dy="3" input="SourceAlpha"/>
      <feGaussianBlur stdDeviation="3" result="blur"/>
      <feFlood flood-opacity="0.161"/>
      <feComposite operator="in" in2="blur"/>
      <feComposite in="SourceGraphic"/>
    </filter>
  </defs>
  <g id="Grupo_1231507" data-name="Grupo 1231507" transform="translate(-587 -819.544)">
    <g id="Grupo_1228250" data-name="Grupo 1228250" transform="translate(0.94 -1115)">
      <g id="Grupo_1227860" data-name="Grupo 1227860" transform="translate(0 -1625.728)">
        <g id="Grupo_1203993" data-name="Grupo 1203993" transform="translate(0 1619.397)">
          <g id="Grupo_1203497" data-name="Grupo 1203497" transform="translate(595.061 1946.875)">
            <g id="Grupo_1172010" data-name="Grupo 1172010" transform="translate(0)">
              <g id="Grupo_1171046" data-name="Grupo 1171046">
                <g id="Grupo_1148525" data-name="Grupo 1148525">
                  <g transform="matrix(1, 0, 0, 1, -9, -6)" filter="url(#Trazado_982547)">
                    <g id="Trazado_982547-2" data-name="Trazado 982547" transform="translate(9 6)" fill="#ffe6ef">
                      <path d="M 47.5 93.5 C 41.28937149047852 93.5 35.26533508300781 92.28397369384766 29.59518623352051 89.88570404052734 C 24.11771965026855 87.56893157958984 19.19813346862793 84.25196075439453 14.97309303283691 80.02691650390625 C 10.74804019927979 75.80186462402344 7.431066513061523 70.88229370117188 5.114293098449707 65.40481567382812 C 2.716026782989502 59.73468017578125 1.5 53.71062850952148 1.5 47.5 C 1.5 41.28937149047852 2.716026782989502 35.26533508300781 5.114293098449707 29.59518623352051 C 7.431066513061523 24.11771965026855 10.74804019927979 19.19813346862793 14.97309303283691 14.97309303283691 C 19.19813346862793 10.74804019927979 24.11771965026855 7.431066513061523 29.59518623352051 5.114293098449707 C 35.26533508300781 2.716026782989502 41.28937149047852 1.5 47.5 1.5 C 53.71062850952148 1.5 59.73468017578125 2.716026782989502 65.40481567382812 5.114293098449707 C 70.88229370117188 7.431066513061523 75.80186462402344 10.74804019927979 80.02691650390625 14.97309303283691 C 84.25196075439453 19.19813346862793 87.56893157958984 24.11771965026855 89.88570404052734 29.59518623352051 C 92.28397369384766 35.26533508300781 93.5 41.28937149047852 93.5 47.5 C 93.5 53.71062850952148 92.28397369384766 59.73468017578125 89.88570404052734 65.40481567382812 C 87.56893157958984 70.88229370117188 84.25196075439453 75.80186462402344 80.02691650390625 80.02691650390625 C 75.80186462402344 84.25196075439453 70.88229370117188 87.56893157958984 65.40481567382812 89.88570404052734 C 59.73468017578125 92.28397369384766 53.71062850952148 93.5 47.5 93.5 Z" stroke="none"/>
                      <path d="M 47.5 3 C 41.49121475219727 3 35.66376876831055 4.176155090332031 30.17950439453125 6.495796203613281 C 24.88084411621094 8.736953735351562 20.12152099609375 11.94598388671875 16.03375244140625 16.03375244140625 C 11.94598388671875 20.12152099609375 8.736953735351562 24.88084411621094 6.495796203613281 30.17950439453125 C 4.176155090332031 35.66376876831055 3 41.49121475219727 3 47.5 C 3 53.50878524780273 4.176155090332031 59.33623123168945 6.495796203613281 64.82049560546875 C 8.736953735351562 70.11915588378906 11.94598388671875 74.87847900390625 16.03375244140625 78.96624755859375 C 20.12152099609375 83.05401611328125 24.88084411621094 86.26304626464844 30.17950439453125 88.50419616699219 C 35.66376876831055 90.82384490966797 41.49121475219727 92 47.5 92 C 53.50878524780273 92 59.33623123168945 90.82384490966797 64.82049560546875 88.50419616699219 C 70.11915588378906 86.26304626464844 74.87847900390625 83.05401611328125 78.96624755859375 78.96624755859375 C 83.05401611328125 74.87847900390625 86.26304626464844 70.11915588378906 88.50419616699219 64.82049560546875 C 90.82384490966797 59.33623123168945 92 53.50878524780273 92 47.5 C 92 41.49121475219727 90.82384490966797 35.66376876831055 88.50419616699219 30.17950439453125 C 86.26304626464844 24.88084411621094 83.05401611328125 20.12152099609375 78.96624755859375 16.03375244140625 C 74.87847900390625 11.94598388671875 70.11915588378906 8.736953735351562 64.82049560546875 6.495796203613281 C 59.33623123168945 4.176155090332031 53.50878524780273 3 47.5 3 M 47.5 0 C 73.7335205078125 0 95 21.2664794921875 95 47.5 C 95 73.7335205078125 73.7335205078125 95 47.5 95 C 21.2664794921875 95 0 73.7335205078125 0 47.5 C 0 21.2664794921875 21.2664794921875 0 47.5 0 Z" stroke="none" fill="#8b5e6f"/>
                    </g>
                  </g>
                </g>
              </g>
            </g>
          </g>
        </g>
      </g>
    </g>
    <g id="repetitivo" transform="translate(613.483 842.883)">
      <g id="Grupo_1231505" data-name="Grupo 1231505" transform="translate(0.879 1.042)">
        <path id="Trazado_1192479" data-name="Trazado 1192479" d="M122.282,334.427c0-10.251,6.51-14.19,6.51-14.19l18.338-1.173s6.51,5.111,6.51,15.363Z" transform="translate(-108.823 -282.551)" fill="#ffb4bf"/>
        <path id="Trazado_1192480" data-name="Trazado 1192480" d="M352.617,9.515a6.137,6.137,0,0,1,8.68,8.68c-2.4,2.4-7.092,3.206-9.488.809S350.22,11.912,352.617,9.515Z" transform="translate(-310.163 -7.711)" fill="#4c5698"/>
        <path id="Trazado_1192481" data-name="Trazado 1192481" d="M65.465,30a22.341,22.341,0,1,1,44.682,0Z" transform="translate(-58.668 -7.663)" fill="#696eb1"/>
        <path id="Trazado_1192482" data-name="Trazado 1192482" d="M64.813,11.25a7.294,7.294,0,0,0-1.264-1.735,6.137,6.137,0,0,0-8.68,8.68,7.5,7.5,0,0,0,2.208,1.5,22.2,22.2,0,0,0-2.552,10.36h7.931A28.114,28.114,0,0,1,73.648,7.944a22.2,22.2,0,0,0-8.835,3.307Z" transform="translate(-47.729 -7.711)" fill="#4c5698"/>
        <circle id="Elipse_12935" data-name="Elipse 12935" cx="4.645" cy="4.645" r="4.645" transform="translate(43.059 19.755)" fill="#c7856a"/>
        <path id="Trazado_1192483" data-name="Trazado 1192483" d="M180.32,319.064l-18.338,1.173a10.916,10.916,0,0,0-2.1,1.832,22.577,22.577,0,0,0,11.248,2.92h.21a22.609,22.609,0,0,0,11.516-3.142A15.182,15.182,0,0,0,180.32,319.064Z" transform="translate(-142.013 -282.551)" fill="#ff8d9d"/>
        <path id="Trazado_1192484" data-name="Trazado 1192484" d="M134.373,115.581a1.4,1.4,0,0,0-2.093-.507,5.9,5.9,0,0,1-7.9-.774,1.394,1.394,0,0,0-2.057,0,5.9,5.9,0,0,1-8.752,0,1.394,1.394,0,0,0-2.057,0,5.9,5.9,0,0,1-7.9.774,1.4,1.4,0,0,0-2.086.493,18.257,18.257,0,0,0-1.917,8.171c0,10.12,8.38,17.252,18.5,17.164,10.053-.087,18.175-7.091,18.175-17.164A18.259,18.259,0,0,0,134.373,115.581Z" transform="translate(-88.808 -101.397)" fill="#da9d81"/>
        <path id="Trazado_1192485" data-name="Trazado 1192485" d="M70.317,144.81A28.24,28.24,0,0,1,68.1,122.9a5.9,5.9,0,0,1-1.179-.684,1.4,1.4,0,0,0-2.086.493,18.212,18.212,0,0,0-1.738,5.6c-.133-.012-.269-.019-.409-.019a4.645,4.645,0,0,0,0,9.289,3.971,3.971,0,0,0,1.472-.267A16.662,16.662,0,0,0,70.317,144.81Z" transform="translate(-52.118 -108.539)" fill="#c7856a"/>
        <g id="Grupo_1231504" data-name="Grupo 1231504" transform="translate(14.648 26.778)">
          <g id="Grupo_1231503" data-name="Grupo 1231503">
            <g id="Grupo_1231501" data-name="Grupo 1231501">
              <ellipse id="Elipse_12936" data-name="Elipse 12936" cx="3.905" cy="3.11" rx="3.905" ry="3.11" fill="#eeedff"/>
            </g>
            <g id="Grupo_1231502" data-name="Grupo 1231502" transform="translate(21.168)">
              <ellipse id="Elipse_12937" data-name="Elipse 12937" cx="3.905" cy="3.11" rx="3.905" ry="3.11" fill="#eeedff"/>
            </g>
          </g>
        </g>
        <path id="Trazado_1192486" data-name="Trazado 1192486" d="M7.5,438.69H65.775v7.7H7.5Z" transform="translate(-7.5 -388.151)" fill="#71dbba"/>
        <path id="Trazado_1192487" data-name="Trazado 1192487" d="M105.021,305.64a5.414,5.414,0,0,0-5.414,5.414,3.256,3.256,0,0,0,3.256,3.255h4.316a3.256,3.256,0,0,0,3.256-3.255A5.413,5.413,0,0,0,105.021,305.64Z" transform="translate(-88.807 -270.701)" fill="#c7856a"/>
        <path id="Trazado_1192488" data-name="Trazado 1192488" d="M193.493,387.844h-14.16l-2.163-4.134,2.163-4.134h14.16l2.148,4.134Z" transform="translate(-157.276 -335.968)" fill="#fce29f"/>
        <path id="Trazado_1192489" data-name="Trazado 1192489" d="M77.629,379.576a2.778,2.778,0,0,0-2.778,2.778v2.712a2.778,2.778,0,0,0,2.778,2.778H89.011v-8.268Z" transform="translate(-66.954 -335.968)" fill="#ff8d9d"/>
        <path id="Trazado_1192490" data-name="Trazado 1192490" d="M327.765,379.576H316.383v8.268h11.382a2.778,2.778,0,0,0,2.778-2.778v-2.712A2.778,2.778,0,0,0,327.765,379.576Z" transform="translate(-280.165 -335.968)" fill="#c8a9f1"/>
        <path id="Trazado_1192491" data-name="Trazado 1192491" d="M78.815,381.621a9.017,9.017,0,0,1,.236-2.045H77.629a2.778,2.778,0,0,0-2.778,2.778v2.712a2.778,2.778,0,0,0,2.778,2.778h3.687A8.969,8.969,0,0,1,78.815,381.621Z" transform="translate(-66.954 -335.968)" fill="#e95b70"/>
        <path id="Trazado_1192492" data-name="Trazado 1192492" d="M202.082,387.844a8.988,8.988,0,0,1-2.264-8.268h-4.2v8.268Z" transform="translate(-173.56 -335.968)" fill="#ffcd71"/>
        <path id="Trazado_1192493" data-name="Trazado 1192493" d="M322.848,387.844a8.988,8.988,0,0,1-2.264-8.268h-4.2v8.268Z" transform="translate(-280.165 -335.968)" fill="#b18ae3"/>
      </g>
      <g id="Grupo_1231506" data-name="Grupo 1231506" transform="translate(0 0.163)">
        <path id="Trazado_1192494" data-name="Trazado 1192494" d="M178.523,215.918a.879.879,0,0,0-.879.879v1.6a.879.879,0,0,0,1.759,0v-1.6A.879.879,0,0,0,178.523,215.918Z" transform="translate(-156.815 -190.62)"/>
        <path id="Trazado_1192495" data-name="Trazado 1192495" d="M320.235,215.918a.879.879,0,0,0-.879.879v1.6a.879.879,0,1,0,1.759,0v-1.6A.879.879,0,0,0,320.235,215.918Z" transform="translate(-281.91 -190.62)"/>
        <path id="Trazado_1192496" data-name="Trazado 1192496" d="M235.657,229.343a.879.879,0,0,0-1.241.085,2.023,2.023,0,0,1-3.055,0,.879.879,0,1,0-1.326,1.156,3.782,3.782,0,0,0,5.707,0A.879.879,0,0,0,235.657,229.343Z" transform="translate(-202.872 -202.28)"/>
        <path id="Trazado_1192497" data-name="Trazado 1192497" d="M59.154,50.7H52.093a3.672,3.672,0,0,0,.043-.562V47.428a3.661,3.661,0,0,0-3.657-3.657H44.7a20.615,20.615,0,0,0-3.535-5.512,17.388,17.388,0,0,0,6.458-7.378,5.52,5.52,0,0,0,5.591-8.443A23.079,23.079,0,0,0,50.984,13.4a8.08,8.08,0,0,0,1.651-1.254,7.025,7.025,0,0,0,0-9.923A6.947,6.947,0,0,0,49.9.533.879.879,0,1,0,49.346,2.2a5.2,5.2,0,0,1,2.046,1.267,5.264,5.264,0,0,1,0,7.436,6.259,6.259,0,0,1-1.226.941,23.478,23.478,0,0,0-6.909-7.53,5.955,5.955,0,0,1,.7-.847A5.251,5.251,0,0,1,46.333,2.1.879.879,0,1,0,45.887.4a7.013,7.013,0,0,0-3.175,1.823,7.742,7.742,0,0,0-.935,1.138,23.211,23.211,0,0,0-23.521,0,7.742,7.742,0,0,0-.935-1.139A7.017,7.017,0,0,0,7.4,12.148,8.081,8.081,0,0,0,9.05,13.4a23.079,23.079,0,0,0-2.231,9.037,5.519,5.519,0,0,0,5.608,8.44,17.2,17.2,0,0,0,2.991,4.452A6.3,6.3,0,0,0,10.8,41.395a4.111,4.111,0,0,0,.754,2.376A3.661,3.661,0,0,0,7.9,47.428V50.14a3.673,3.673,0,0,0,.043.562H.879A.879.879,0,0,0,0,51.582v7.7a.879.879,0,0,0,.879.879H12.561a.879.879,0,0,0,0-1.759H1.759V52.461H8.727A3.635,3.635,0,0,0,11.541,53.8H48.492a3.634,3.634,0,0,0,2.815-1.336h6.968V58.4h-42.2a.879.879,0,1,0,0,1.759H59.154a.879.879,0,0,0,.879-.879v-7.7a.879.879,0,0,0-.879-.879Zm-8.777-3.274V50.14a1.9,1.9,0,0,1-1.9,1.9h-10.5V45.53h10.5a1.9,1.9,0,0,1,1.9,1.9Zm-7.613-3.657H22.633a4.421,4.421,0,0,0,.666-3.414,21.5,21.5,0,0,0,16.306-1.2,18.46,18.46,0,0,1,3.159,4.609Zm-12.593-4.1a19.072,19.072,0,0,1-7.675-1.5,6.313,6.313,0,0,0-4.779-3.037,15.544,15.544,0,0,1-5.108-10.447c0-.012,0-.024,0-.036A17.464,17.464,0,0,1,14.384,15.6a.519.519,0,0,1,.773-.181,6.781,6.781,0,0,0,9.079-.888.515.515,0,0,1,.753,0,6.783,6.783,0,0,0,10.056,0,.515.515,0,0,1,.753,0,6.781,6.781,0,0,0,9.079.888.523.523,0,0,1,.779.194,17.506,17.506,0,0,1,1.818,7.765c0,9.523-7.665,16.2-17.3,16.285ZM48.583,29.207q-.142,0-.283-.011a18.173,18.173,0,0,0,.933-5.813c0-.537-.03-1.183-.07-1.659a3.764,3.764,0,0,1-.581,7.483Zm2.72-8.57a5.53,5.53,0,0,0-2.378-.708,19.121,19.121,0,0,0-1.694-5.094,2.282,2.282,0,0,0-3.406-.82,5.022,5.022,0,0,1-6.723-.659,2.275,2.275,0,0,0-3.361,0,5.023,5.023,0,0,1-7.448,0,2.275,2.275,0,0,0-3.361,0,5.022,5.022,0,0,1-6.723.659,2.273,2.273,0,0,0-1.891-.39c-1.258.3-1.627,1.35-2.09,2.48a18.9,18.9,0,0,0-1.12,3.825,5.517,5.517,0,0,0-2.378.708,21.463,21.463,0,0,1,42.572,0ZM8.642,10.9a5.258,5.258,0,0,1,7.436-7.436,5.962,5.962,0,0,1,.7.847,23.478,23.478,0,0,0-6.909,7.53A6.263,6.263,0,0,1,8.642,10.9ZM11.748,29.2a3.764,3.764,0,0,1-.878-7.471,19.383,19.383,0,0,0-.015,3.088c0,.007,0,.014,0,.021a17.756,17.756,0,0,0,.892,4.362Zm5.345,7.665c.074,0,.147,0,.22.006h0a4.544,4.544,0,0,1,4.314,4.529,2.379,2.379,0,0,1-2.376,2.376H14.935a2.379,2.379,0,0,1-2.376-2.376A4.54,4.54,0,0,1,17.093,36.861ZM9.656,47.428a1.9,1.9,0,0,1,1.9-1.9h10.5v6.509h-10.5a1.9,1.9,0,0,1-1.9-1.9Zm14.16-1.9h12.4v6.509h-12.4Z" transform="translate(0 -0.163)"/>
      </g>
    </g>
  </g>
</svg>
