<svg xmlns="http://www.w3.org/2000/svg" xmlns:xlink="http://www.w3.org/1999/xlink" width="113" height="113" viewBox="0 0 113 113">
  <defs>
    <filter id="Trazado_982547" x="0" y="-0.001" width="113" height="113" filterUnits="userSpaceOnUse">
      <feOffset dy="3" input="SourceAlpha"/>
      <feGaussianBlur stdDeviation="3" result="blur"/>
      <feFlood flood-opacity="0.161"/>
      <feComposite operator="in" in2="blur"/>
      <feComposite in="SourceGraphic"/>
    </filter>
  </defs>
  <g id="Grupo_1231540" data-name="Grupo 1231540" transform="translate(-323.555 -3179.529)">
    <g id="Grupo_1231410" data-name="Grupo 1231410" transform="translate(-0.695 1208.387)">
      <g id="Grupo_1230181" data-name="Grupo 1230181" transform="translate(0 -12711.902)">
        <g id="Grupo_1224255" data-name="Grupo 1224255" transform="translate(0.25 13230)">
          <g id="Grupo_1223775" data-name="Grupo 1223775" transform="translate(0 -4451.031)">
            <g id="Grupo_1206275" data-name="Grupo 1206275" transform="translate(0 -3448.335)">
              <g id="Grupo_1203802" data-name="Grupo 1203802" transform="translate(0.5 6552.41)">
                <g id="Grupo_1202424" data-name="Grupo 1202424" transform="translate(0 1464)">
                  <g id="Grupo_1178325" data-name="Grupo 1178325" transform="translate(0 424)">
                    <g id="Grupo_1177679" data-name="Grupo 1177679" transform="translate(332.5 918)">
                      <g id="Grupo_1172010" data-name="Grupo 1172010">
                        <g id="Grupo_1171046" data-name="Grupo 1171046">
                          <g id="Grupo_1148525" data-name="Grupo 1148525">
                            <g transform="matrix(1, 0, 0, 1, -9, -6)" filter="url(#Trazado_982547)">
                              <g id="Trazado_982547-2" data-name="Trazado 982547" transform="translate(9 6)" fill="#ffe6ef">
                                <path d="M 47.5 93.5 C 41.28937149047852 93.5 35.26533508300781 92.28397369384766 29.59518623352051 89.88570404052734 C 24.11771965026855 87.56893157958984 19.19813346862793 84.25196075439453 14.97309303283691 80.02691650390625 C 10.74804019927979 75.80186462402344 7.431066513061523 70.88229370117188 5.114293098449707 65.40481567382812 C 2.716026782989502 59.73468017578125 1.5 53.71062850952148 1.5 47.5 C 1.5 41.28937149047852 2.716026782989502 35.26533508300781 5.114293098449707 29.59518623352051 C 7.431066513061523 24.11771965026855 10.74804019927979 19.19813346862793 14.97309303283691 14.97309303283691 C 19.19813346862793 10.74804019927979 24.11771965026855 7.431066513061523 29.59518623352051 5.114293098449707 C 35.26533508300781 2.716026782989502 41.28937149047852 1.5 47.5 1.5 C 53.71062850952148 1.5 59.73468017578125 2.716026782989502 65.40481567382812 5.114293098449707 C 70.88229370117188 7.431066513061523 75.80186462402344 10.74804019927979 80.02691650390625 14.97309303283691 C 84.25196075439453 19.19813346862793 87.56893157958984 24.11771965026855 89.88570404052734 29.59518623352051 C 92.28397369384766 35.26533508300781 93.5 41.28937149047852 93.5 47.5 C 93.5 53.71062850952148 92.28397369384766 59.73468017578125 89.88570404052734 65.40481567382812 C 87.56893157958984 70.88229370117188 84.25196075439453 75.80186462402344 80.02691650390625 80.02691650390625 C 75.80186462402344 84.25196075439453 70.88229370117188 87.56893157958984 65.40481567382812 89.88570404052734 C 59.73468017578125 92.28397369384766 53.71062850952148 93.5 47.5 93.5 Z" stroke="none"/>
                                <path d="M 47.5 3 C 41.49121475219727 3 35.66376876831055 4.176155090332031 30.17950439453125 6.495796203613281 C 24.88084411621094 8.736953735351562 20.12152099609375 11.94598388671875 16.03375244140625 16.03375244140625 C 11.94598388671875 20.12152099609375 8.736953735351562 24.88084411621094 6.495796203613281 30.17950439453125 C 4.176155090332031 35.66376876831055 3 41.49121475219727 3 47.5 C 3 53.50878524780273 4.176155090332031 59.33623123168945 6.495796203613281 64.82049560546875 C 8.736953735351562 70.11915588378906 11.94598388671875 74.87847900390625 16.03375244140625 78.96624755859375 C 20.12152099609375 83.05401611328125 24.88084411621094 86.26304626464844 30.17950439453125 88.50419616699219 C 35.66376876831055 90.82384490966797 41.49121475219727 92 47.5 92 C 53.50878524780273 92 59.33623123168945 90.82384490966797 64.82049560546875 88.50419616699219 C 70.11915588378906 86.26304626464844 74.87847900390625 83.05401611328125 78.96624755859375 78.96624755859375 C 83.05401611328125 74.87847900390625 86.26304626464844 70.11915588378906 88.50419616699219 64.82049560546875 C 90.82384490966797 59.33623123168945 92 53.50878524780273 92 47.5 C 92 41.49121475219727 90.82384490966797 35.66376876831055 88.50419616699219 30.17950439453125 C 86.26304626464844 24.88084411621094 83.05401611328125 20.12152099609375 78.96624755859375 16.03375244140625 C 74.87847900390625 11.94598388671875 70.11915588378906 8.736953735351562 64.82049560546875 6.495796203613281 C 59.33623123168945 4.176155090332031 53.50878524780273 3 47.5 3 M 47.5 0 C 73.7335205078125 0 95 21.2664794921875 95 47.5 C 95 73.7335205078125 73.7335205078125 95 47.5 95 C 21.2664794921875 95 0 73.7335205078125 0 47.5 C 0 21.2664794921875 21.2664794921875 0 47.5 0 Z" stroke="none" fill="#8b5e6f"/>
                              </g>
                            </g>
                          </g>
                        </g>
                      </g>
                    </g>
                  </g>
                </g>
              </g>
            </g>
          </g>
        </g>
      </g>
    </g>
    <g id="objetivo_8_" data-name="objetivo (8)" transform="translate(342.645 3202.083)">
      <path id="Trazado_1192898" data-name="Trazado 1192898" d="M209.334,372.9l-.029.218a.861.861,0,0,0,.853.976h4.559a.861.861,0,0,0,.845-1.026l-.18-.92a8.661,8.661,0,0,1,2.7-8.164l2.784-2.422-14.811-5.4,2.19,6.161A22.619,22.619,0,0,1,209.334,372.9Z" transform="translate(-175.18 -313.112)" fill="#df73c1"/>
      <path id="Trazado_1192899" data-name="Trazado 1192899" d="M206.052,356.166l2.19,6.161a22.436,22.436,0,0,1,1.161,5.092,6.234,6.234,0,0,0,.973-.632,5.862,5.862,0,0,1,.576-.4,2.015,2.015,0,0,1,2.753.685,5.211,5.211,0,0,0,1.678,1.661,8.416,8.416,0,0,1,2.7-4.744l2.784-2.422Z" transform="translate(-175.18 -313.113)" fill="#dd4fb1"/>
      <path id="Trazado_1192900" data-name="Trazado 1192900" d="M291.926,360.559a4.7,4.7,0,0,0-4.157,2.281,5.183,5.183,0,1,0,1.307,8.1,3.212,3.212,0,0,1,2.5-.983q.112.005.225.005a4.7,4.7,0,0,0,.125-9.4Z" transform="translate(-240.29 -316.974)" fill="#df73c1"/>
      <path id="Trazado_1192901" data-name="Trazado 1192901" d="M98.089,167.33a4.6,4.6,0,0,0,.4-2.456,5.427,5.427,0,0,0-5.236-4.548,6.323,6.323,0,0,0-1.69.121,1.086,1.086,0,0,1-1.234-.586,5.667,5.667,0,0,0-5.309-3.314,6.237,6.237,0,0,0-1.835.273,1.638,1.638,0,0,1-1.991-.839,5.912,5.912,0,0,0-10.608,0,1.638,1.638,0,0,1-1.991.839,6.237,6.237,0,0,0-1.835-.273,5.667,5.667,0,0,0-5.309,3.314,1.086,1.086,0,0,1-1.234.586,6.322,6.322,0,0,0-1.69-.121,5.427,5.427,0,0,0-5.236,4.548,4.6,4.6,0,0,0,.4,2.456,1.933,1.933,0,0,1-.406,2.214,7.024,7.024,0,0,0-2.142,5.548c.264,3.531,3.787,6.708,7.726,6.965a9.43,9.43,0,0,0,2.037-.086,3.6,3.6,0,0,1,3.739,1.8,6.318,6.318,0,0,0,5.658,3.235,6.674,6.674,0,0,0,3.869-1.206,6.469,6.469,0,0,1,4.75-1.058,6.989,6.989,0,0,0,1.1.087,6.585,6.585,0,0,0,4.471-1.693,6.191,6.191,0,0,1,5.612-1.315,9.314,9.314,0,0,0,2.483.251c4.342-.14,7.874-3.286,8.055-7.177a7.037,7.037,0,0,0-2.154-5.352A1.933,1.933,0,0,1,98.089,167.33Z" transform="translate(-38.982 -134.224)" fill="#e7a2cb"/>
      <g id="Grupo_1231539" data-name="Grupo 1231539" transform="translate(32.885 18.456)">
        <path id="Trazado_1192902" data-name="Trazado 1192902" d="M249.325,169.543a1.933,1.933,0,0,1-.406-2.214,4.6,4.6,0,0,0,.4-2.456,5.427,5.427,0,0,0-5.236-4.548,6.324,6.324,0,0,0-1.69.121,1.086,1.086,0,0,1-1.234-.586,5.667,5.667,0,0,0-5.309-3.314,6.236,6.236,0,0,0-1.835.273,1.638,1.638,0,0,1-1.99-.839,5.669,5.669,0,0,0-5.3-3.3,5.979,5.979,0,0,0-4.026,1.509c.066,0,.131,0,.2,0a5.669,5.669,0,0,1,5.3,3.3,1.638,1.638,0,0,0,1.991.839,6.236,6.236,0,0,1,1.835-.273,5.667,5.667,0,0,1,5.309,3.315,1.086,1.086,0,0,0,1.234.586,6.323,6.323,0,0,1,1.69-.121,5.427,5.427,0,0,1,5.236,4.548,4.6,4.6,0,0,1-.4,2.456,1.933,1.933,0,0,0,.406,2.214,7.036,7.036,0,0,1,2.154,5.352,7.284,7.284,0,0,1-3.209,5.58c3.864-.556,6.87-3.5,7.037-7.085A7.037,7.037,0,0,0,249.325,169.543Z" transform="translate(-222.697 -152.679)" fill="#e490d0"/>
      </g>
      <circle id="Elipse_12939" data-name="Elipse 12939" cx="16.207" cy="16.207" r="16.207" transform="translate(20.703 0.906)" fill="#f9f6f9"/>
      <path id="Trazado_1192903" data-name="Trazado 1192903" d="M245.179,7.5c-.5,0-1,.024-1.488.069a16.207,16.207,0,0,1,0,32.277c.49.045.986.069,1.488.069a16.207,16.207,0,0,0,0-32.415Z" transform="translate(-208.269 -6.593)" fill="#dddaec"/>
      <circle id="Elipse_12940" data-name="Elipse 12940" cx="11.56" cy="11.56" r="11.56" transform="translate(25.35 5.554)" fill="#df73c1"/>
      <path id="Trazado_1192904" data-name="Trazado 1192904" d="M244.572,45.946a11.657,11.657,0,0,0-1.571.107,11.561,11.561,0,0,1,0,22.906,11.56,11.56,0,1,0,1.571-23.013Z" transform="translate(-207.662 -40.392)" fill="#dd4fb1"/>
      <circle id="Elipse_12941" data-name="Elipse 12941" cx="6.152" cy="6.152" r="6.152" transform="translate(30.759 10.962)" fill="#f9f6f9"/>
      <path id="Trazado_1192905" data-name="Trazado 1192905" d="M245.547,90.688a6.162,6.162,0,0,0-1.437.171,6.151,6.151,0,0,1,0,11.962,6.151,6.151,0,1,0,1.437-12.133Z" transform="translate(-208.637 -79.726)" fill="#dddaec"/>
      <path id="Trazado_1192906" data-name="Trazado 1192906" d="M66.6,11.611,63.415,9.666l.7-.223a.907.907,0,0,0-.551-1.727l-.7.223,1.47-3.431a.907.907,0,0,0-1.667-.714L60.578,8.668l-2.2.7,1.47-3.431a.907.907,0,0,0-1.667-.714L56.091,10.1,52.94,11.106a17.081,17.081,0,0,0-3.6-5.759A.907.907,0,1,0,48.02,6.594a15.272,15.272,0,0,1,3.19,5.064l-2.709.865a12.467,12.467,0,0,0-23.182,0l-2.705-.864A15.3,15.3,0,0,1,45.495,4.447a.907.907,0,1,0,1.019-1.5,17.117,17.117,0,0,0-25.629,8.161L17.729,10.1,15.641,5.226a.907.907,0,0,0-1.667.714l1.47,3.431-2.2-.7L11.154,3.794a.907.907,0,0,0-1.667.714l1.47,3.431-.7-.223a.907.907,0,1,0-.551,1.727l.7.223L7.22,11.611a.907.907,0,1,0,.945,1.548L12.691,10.4l2.2.7-3.186,1.945a.907.907,0,1,0,.945,1.548l4.526-2.763,3.159,1.008a17.122,17.122,0,0,0,1.407,12.2c-.039.083-.076.166-.11.249a.236.236,0,0,1-.211.048,7.236,7.236,0,0,0-1.932-.139,6.288,6.288,0,0,0-6.081,5.353,5.541,5.541,0,0,0,.481,2.936,1.03,1.03,0,0,1-.222,1.189,7.89,7.89,0,0,0-2.409,6.26,8.055,8.055,0,0,0,2.782,5.316,9.644,9.644,0,0,0,5.789,2.486,10.36,10.36,0,0,0,2.233-.095,2.7,2.7,0,0,1,2.8,1.322,7.265,7.265,0,0,0,6.463,3.724,7.852,7.852,0,0,0,1.875-.224c.073.479.13.965.172,1.451a.907.907,0,0,0,.9.83q.039,0,.078,0a.907.907,0,0,0,.827-.98c-.056-.658-.139-1.314-.248-1.959a7.313,7.313,0,0,0,.789-.488,5.484,5.484,0,0,1,3.268-.974,6.034,6.034,0,0,0,.859,2.314,9.849,9.849,0,0,0-.533,5.555l.169.866H35.03c0-.029.108-.709.175-1.654a.907.907,0,1,0-1.809-.128c-.061.869-.153,1.451-.17,1.591a1.767,1.767,0,0,0,1.752,2h4.559a1.768,1.768,0,0,0,1.735-2.106l-.179-.92a8.046,8.046,0,0,1,.141-3.663,6.089,6.089,0,0,0,8.214-.613,2.3,2.3,0,0,1,1.8-.7,5.615,5.615,0,0,0,5.871-5.875A9.45,9.45,0,0,0,59.5,46.6a8.212,8.212,0,0,0,2.994-5.079.907.907,0,0,0-1.792-.278c-.485,3.131-3.545,5.579-7.117,5.694a8.4,8.4,0,0,1-2.241-.226,7.572,7.572,0,0,0-1.013-.172l-.023-.014A4.721,4.721,0,0,1,48.361,42a.907.907,0,0,0-1.808-.134,8.383,8.383,0,0,0-.006,1.186,3.412,3.412,0,0,0-1.5.284.906.906,0,1,0,.741,1.655c.147-.063.879-.344,1.23.183a6.4,6.4,0,0,0,.864,1.521,6.6,6.6,0,0,0-2.98,1.547A5.652,5.652,0,0,1,41.046,49.7a6.1,6.1,0,0,1-.959-.076,7.4,7.4,0,0,0-5.418,1.214,5.734,5.734,0,0,1-3.344,1.038,5.437,5.437,0,0,1-4.854-2.747,4.149,4.149,0,0,0-1.027-1.269,7.346,7.346,0,0,0,2.347-2.083c.672-.248,1.586.508,1.609.528a.907.907,0,0,0,1.194-1.364,4.338,4.338,0,0,0-1.958-.975,5.862,5.862,0,0,0,.173-1.018A.907.907,0,0,0,27,42.8a4.973,4.973,0,0,1-3.731,4.066,4.634,4.634,0,0,0-1.48-.014,8.524,8.524,0,0,1-1.841.078c-3.5-.228-6.65-3.035-6.881-6.128a6.1,6.1,0,0,1,1.876-4.836A2.932,2.932,0,0,0,15.5,35.2c.892-.059,3.445,0,4.175,2.482a.907.907,0,0,0,1.74-.512,5.28,5.28,0,0,0-.849-1.716c.321-.376.566-.428.657-.405a.907.907,0,0,0,.837-1.607,2.308,2.308,0,0,0-2.841.8,6.549,6.549,0,0,0-3.475-.874,2.914,2.914,0,0,0-.212-.643,3.678,3.678,0,0,1-.324-1.976,4.543,4.543,0,0,1,4.39-3.742,5.43,5.43,0,0,1,1.448.1,2.051,2.051,0,0,0,1.7-.39,17.1,17.1,0,0,0,28.313,0,2.05,2.05,0,0,0,1.7.39,5.435,5.435,0,0,1,1.448-.1,4.543,4.543,0,0,1,4.39,3.742,3.678,3.678,0,0,1-.324,1.976l-.012.027a4.5,4.5,0,0,0-5.285,1.429,4.351,4.351,0,0,1-3.563,1.225,9.914,9.914,0,0,1-2.821-.577.907.907,0,1,0-.673,1.684,11.45,11.45,0,0,0,2.7.65.2.2,0,0,1-.05.131.907.907,0,0,0,.58,1.717A1.851,1.851,0,0,0,50.22,38.1a2.118,2.118,0,0,0,.229-.894,5.687,5.687,0,0,0,3.885-1.807,2.857,2.857,0,0,1,2.611-1.134,3.031,3.031,0,0,1,1.189.48,2.9,2.9,0,0,0,.741,1.224,6.433,6.433,0,0,1,1.5,2.264.907.907,0,1,0,1.692-.652,8.237,8.237,0,0,0-1.911-2.9,1.029,1.029,0,0,1-.221-1.189,5.542,5.542,0,0,0,.481-2.936A6.288,6.288,0,0,0,54.329,25.2a7.24,7.24,0,0,0-1.932.139.245.245,0,0,1-.209-.044q-.052-.127-.112-.253a17.144,17.144,0,0,0,1.409-12.2l3.157-1.008,4.526,2.763a.907.907,0,0,0,.945-1.548L58.927,11.1l2.2-.7,4.526,2.763a.907.907,0,0,0,.945-1.548ZM46.132,49.579a5.282,5.282,0,0,1,4.785-1.1,10.2,10.2,0,0,0,2.724.276,10.065,10.065,0,0,0,1.656-.191,3.8,3.8,0,0,1-3.968,3.515q-.143-.007-.286,0a2.5,2.5,0,0,1-1.2-1.04.907.907,0,1,0-1.551.939,4.469,4.469,0,0,0,.575.757,3.961,3.961,0,0,0-.741.618,4.277,4.277,0,0,1-7.255-1.837,7.479,7.479,0,0,0,5.263-1.932ZM36.91,6.46a10.67,10.67,0,0,1,9.859,6.616l-3.442,1.1a7.058,7.058,0,0,0-12.834,0l-3.442-1.1A10.67,10.67,0,0,1,36.91,6.46ZM47.564,17.114a10.653,10.653,0,1,1-21.055-2.308l3.447,1.1a7.058,7.058,0,1,0,13.91,0l3.447-1.1A10.662,10.662,0,0,1,47.564,17.114ZM35.051,15.63l-2.813-.9a5.244,5.244,0,0,1,9.344,0l-2.813.9a.907.907,0,1,0,.551,1.727l2.795-.892a5.245,5.245,0,1,1-10.41,0l2.795.892a.907.907,0,0,0,.551-1.727Zm17.16,1.484a15.3,15.3,0,1,1-30.143-3.725l2.707.864a12.467,12.467,0,1,0,24.271,0l2.709-.865A15.367,15.367,0,0,1,52.211,17.114Z" transform="translate(0 0)"/>
    </g>
  </g>
</svg>
