<svg xmlns="http://www.w3.org/2000/svg" xmlns:xlink="http://www.w3.org/1999/xlink" width="103" height="103" viewBox="0 0 103 103">
  <defs>
    <filter id="Trazado_982547" x="0" y="0" width="103" height="103" filterUnits="userSpaceOnUse">
      <feOffset dy="3" input="SourceAlpha"/>
      <feGaussianBlur stdDeviation="3" result="blur"/>
      <feFlood flood-opacity="0.161"/>
      <feComposite operator="in" in2="blur"/>
      <feComposite in="SourceGraphic"/>
    </filter>
  </defs>
  <g id="Grupo_1231621" data-name="Grupo 1231621" transform="translate(-171 -2170.02)">
    <g id="Grupo_1231434" data-name="Grupo 1231434" transform="translate(180 2176.02)">
      <g id="Grupo_1230141" data-name="Grupo 1230141">
        <g id="Grupo_1227863" data-name="Grupo 1227863" transform="translate(0 0)">
          <g id="Grupo_1203964" data-name="Grupo 1203964" transform="translate(0)">
            <g id="Grupo_1203625" data-name="Grupo 1203625" transform="translate(0 0)">
              <g id="Grupo_1178314" data-name="Grupo 1178314">
                <g id="Grupo_1173988" data-name="Grupo 1173988">
                  <g id="Grupo_1172010" data-name="Grupo 1172010">
                    <g id="Grupo_1171046" data-name="Grupo 1171046">
                      <g id="Grupo_1148525" data-name="Grupo 1148525">
                        <g transform="matrix(1, 0, 0, 1, -9, -6)" filter="url(#Trazado_982547)">
                          <g id="Trazado_982547-2" data-name="Trazado 982547" transform="translate(9 6)" fill="#f6f6fd">
                            <path d="M 42.5 83.5 C 36.96437835693359 83.5 31.59512901306152 82.41617584228516 26.54141235351562 80.27863311767578 C 21.65934181213379 78.21369171142578 17.27447128295898 75.25723266601562 13.50862312316895 71.49137878417969 C 9.742764472961426 67.72553253173828 6.786305904388428 63.34066009521484 4.721364498138428 58.45858764648438 C 2.583823442459106 53.40486907958984 1.5 48.03562164306641 1.5 42.5 C 1.5 36.96437835693359 2.583823442459106 31.59512901306152 4.721364498138428 26.54141235351562 C 6.786305904388428 21.65934181213379 9.742764472961426 17.27448272705078 13.50862312316895 13.50862312316895 C 17.27447128295898 9.742776870727539 21.65934181213379 6.786305904388428 26.54141235351562 4.721364498138428 C 31.59512901306152 2.583823442459106 36.96437835693359 1.5 42.5 1.5 C 48.03562164306641 1.5 53.40486907958984 2.583823442459106 58.45858764648438 4.721364498138428 C 63.34066009521484 6.786305904388428 67.72553253173828 9.742776870727539 71.49137878417969 13.50862312316895 C 75.25723266601562 17.27448272705078 78.21369171142578 21.65934181213379 80.27863311767578 26.54141235351562 C 82.41617584228516 31.59512901306152 83.5 36.96437835693359 83.5 42.5 C 83.5 48.03562164306641 82.41617584228516 53.40486907958984 80.27863311767578 58.45858764648438 C 78.21369171142578 63.34066009521484 75.25723266601562 67.72553253173828 71.49137878417969 71.49137878417969 C 67.72553253173828 75.25723266601562 63.34066009521484 78.21369171142578 58.45858764648438 80.27863311767578 C 53.40486907958984 82.41617584228516 48.03562164306641 83.5 42.5 83.5 Z" stroke="none"/>
                            <path d="M 42.5 3 C 37.16621398925781 3 31.99356079101562 4.043960571289062 27.125732421875 6.102882385253906 C 22.42246627807617 8.092185974121094 18.19785308837891 10.94070434570312 14.56928253173828 14.56928253173828 C 10.94070434570312 18.19785308837891 8.092185974121094 22.42246627807617 6.102882385253906 27.125732421875 C 4.043960571289062 31.99356079101562 3 37.16621398925781 3 42.5 C 3 47.83378601074219 4.043960571289062 53.00643920898438 6.102882385253906 57.87425231933594 C 8.092185974121094 62.57753372192383 10.94070434570312 66.80213165283203 14.56928253173828 70.43071746826172 C 18.19786834716797 74.05929565429688 22.42246627807617 76.90781402587891 27.125732421875 78.89711761474609 C 31.99356079101562 80.95603942871094 37.16621398925781 82 42.5 82 C 47.83378601074219 82 53.00642395019531 80.95603942871094 57.87425231933594 78.89711761474609 C 62.57753372192383 76.90781402587891 66.80213165283203 74.05929565429688 70.43071746826172 70.43071746826172 C 74.05929565429688 66.80213165283203 76.90781402587891 62.57753372192383 78.89711761474609 57.87425231933594 C 80.95603942871094 53.00642395019531 82 47.83378601074219 82 42.5 C 82 37.16621398925781 80.95603942871094 31.99356079101562 78.89711761474609 27.125732421875 C 76.90781402587891 22.42246627807617 74.05929565429688 18.19786834716797 70.43071746826172 14.56928253173828 C 66.80213165283203 10.94070434570312 62.57753372192383 8.092185974121094 57.87425231933594 6.102882385253906 C 53.00643920898438 4.043960571289062 47.83378601074219 3 42.5 3 M 42.5 0 C 65.97209167480469 0 85 19.02789306640625 85 42.5 C 85 65.97209167480469 65.97209167480469 85 42.5 85 C 19.02789306640625 85 0 65.97209167480469 0 42.5 C 0 19.02789306640625 19.02789306640625 0 42.5 0 Z" stroke="none" fill="#b1aef1"/>
                          </g>
                        </g>
                      </g>
                    </g>
                  </g>
                </g>
              </g>
            </g>
          </g>
        </g>
      </g>
    </g>
    <g id="corazon" transform="translate(192.798 2167.477)">
      <g id="Grupo_1231619" data-name="Grupo 1231619" transform="translate(0.871 25)">
        <path id="Trazado_1193012" data-name="Trazado 1193012" d="M235.215,55.366a10.222,10.222,0,0,0-5.619-9.124A7.439,7.439,0,0,0,216.421,42.3a7.442,7.442,0,0,0-10.969,6.552l-5.581,33.484a8.375,8.375,0,0,0,6.143,8.071l3.158.249a8.332,8.332,0,0,0,7.38-9.294,10.222,10.222,0,0,0,9.217-8.534,7.424,7.424,0,0,0,5.419-9.343,10.2,10.2,0,0,0,4.028-8.123Z" transform="translate(-177.552 -38.624)" fill="#f5ebcd"/>
        <path id="Trazado_1193013" data-name="Trazado 1193013" d="M209.172,64.236a7.432,7.432,0,0,0-3.72,6.437l-5.581,33.484a8.371,8.371,0,0,0,8.371,8.371,8.463,8.463,0,0,0,.93-.052Z" transform="translate(-177.552 -60.442)" fill="#f4dbb3"/>
        <path id="Trazado_1193014" data-name="Trazado 1193014" d="M35.3,36.413a16.173,16.173,0,0,0-13.2-4.8A16.42,16.42,0,0,0,7.524,48.829c.849,16.355,20.78,30.547,26.983,34.58a1.182,1.182,0,0,0,1.825-1l0-43.422A3.682,3.682,0,0,0,35.3,36.413Z" transform="translate(-7.502 -31.536)" fill="#e5646e"/>
        <path id="Trazado_1193015" data-name="Trazado 1193015" d="M10.311,60.712a16.628,16.628,0,0,1,6.03-13.653A16.591,16.591,0,0,0,7.524,62.55C8.373,78.906,28.3,93.1,34.507,97.13a1.182,1.182,0,0,0,1.825-1v-1.48C29.267,89.924,11.12,76.3,10.311,60.712Z" transform="translate(-7.502 -45.258)" fill="#db4655"/>
      </g>
      <g id="Grupo_1231620" data-name="Grupo 1231620" transform="translate(0 24.142)">
        <path id="Trazado_1193016" data-name="Trazado 1193016" d="M59.4,41.752a11.079,11.079,0,0,0-5.687-9.692,8.31,8.31,0,0,0-14.191-4.444,8.325,8.325,0,0,0-9.672,2.27,17.1,17.1,0,0,0-14.468-5.664A16.791,16.791,0,0,0,4.116,30.207,17.407,17.407,0,0,0,.024,42.348C.4,49.558,4.343,57.117,11.749,64.817A92.454,92.454,0,0,0,27.4,77.612a2.052,2.052,0,0,0,3.17-1.725V58.245a6.433,6.433,0,0,0,4.711,2.05.87.87,0,1,0,0-1.74,4.716,4.716,0,0,1-4.711-4.711V38.962a.87.87,0,1,0-1.74,0V75.887a.305.305,0,0,1-.165.279.3.3,0,0,1-.316-.013C22.322,72.234,2.589,58.207,1.762,42.258A15.673,15.673,0,0,1,5.448,31.327a15.06,15.06,0,0,1,10.105-5.372,15.364,15.364,0,0,1,13.279,5.409l0,3.878a.87.87,0,0,0,.87.871h0a.87.87,0,0,0,.87-.87l0-3.385c.012-.017.026-.034.037-.052a6.572,6.572,0,0,1,10.728-.674.87.87,0,1,0,1.357-1.09,8.369,8.369,0,0,0-1.6-1.525,6.572,6.572,0,0,1,10.584,7.132.87.87,0,1,0,1.633.6,8.257,8.257,0,0,0,.471-2.085A9.364,9.364,0,0,1,54.88,48.415q-.16-.338-.351-.661a.87.87,0,0,0-1.5.887A6.576,6.576,0,0,1,50.1,57.966c0-.134.008-.267.008-.4a11.169,11.169,0,0,0-.241-2.308.87.87,0,0,0-1.7.36A9.37,9.37,0,0,1,37.729,66.84a.87.87,0,0,0-.234,1.724,11.234,11.234,0,0,0,1.507.1h.059c0,.02,0,.04,0,.061a7.468,7.468,0,0,1-5.778,7.3.87.87,0,1,0,.4,1.694,9.244,9.244,0,0,0,7.12-9c0-.068,0-.137,0-.206a11.132,11.132,0,0,0,9.054-8.6,8.31,8.31,0,0,0,5.641-9.707A11.025,11.025,0,0,0,59.4,41.752Z" transform="translate(0 -24.142)"/>
        <path id="Trazado_1193017" data-name="Trazado 1193017" d="M337.608,156.207a.87.87,0,0,0,0-1.74,4.716,4.716,0,0,1-4.711-4.711.87.87,0,0,0-1.74,0,6.429,6.429,0,0,0,1.851,4.517,6.4,6.4,0,0,0-.693,5.012.87.87,0,1,0,1.679-.457,4.674,4.674,0,0,1,.4-3.48A6.408,6.408,0,0,0,337.608,156.207Z" transform="translate(-292.735 -134.413)"/>
      </g>
    </g>
  </g>
</svg>
