<svg xmlns="http://www.w3.org/2000/svg" xmlns:xlink="http://www.w3.org/1999/xlink" width="113" height="113" viewBox="0 0 113 113">
  <defs>
    <filter id="Trazado_982547" x="0" y="-0.001" width="113" height="113" filterUnits="userSpaceOnUse">
      <feOffset dy="3" input="SourceAlpha"/>
      <feGaussianBlur stdDeviation="3" result="blur"/>
      <feFlood flood-opacity="0.161"/>
      <feComposite operator="in" in2="blur"/>
      <feComposite in="SourceGraphic"/>
    </filter>
  </defs>
  <g id="Grupo_1231551" data-name="Grupo 1231551" transform="translate(-743.555 -3179.529)">
    <g id="Grupo_1231411" data-name="Grupo 1231411" transform="translate(0.305 1208.387)">
      <g id="Grupo_1230183" data-name="Grupo 1230183" transform="translate(0 -12711.902)">
        <g id="Grupo_1230104" data-name="Grupo 1230104">
          <g id="Grupo_1224257" data-name="Grupo 1224257" transform="translate(0.25 13230)">
            <g id="Grupo_1223773" data-name="Grupo 1223773" transform="translate(0 -4451.031)">
              <g id="Grupo_1206282" data-name="Grupo 1206282" transform="translate(0 -3448.335)">
                <g id="Grupo_1203803" data-name="Grupo 1203803" transform="translate(0 6552.41)">
                  <g id="Grupo_1202425" data-name="Grupo 1202425" transform="translate(-0.25 1464)">
                    <g id="Grupo_1178324" data-name="Grupo 1178324" transform="translate(0 424)">
                      <g id="Grupo_1177680" data-name="Grupo 1177680" transform="translate(752.25 918)">
                        <g id="Grupo_1172010" data-name="Grupo 1172010">
                          <g id="Grupo_1171046" data-name="Grupo 1171046">
                            <g id="Grupo_1148525" data-name="Grupo 1148525">
                              <g transform="matrix(1, 0, 0, 1, -9, -6)" filter="url(#Trazado_982547)">
                                <g id="Trazado_982547-2" data-name="Trazado 982547" transform="translate(9 6)" fill="#ffe6ef">
                                  <path d="M 47.5 93.5 C 41.28937149047852 93.5 35.26533508300781 92.28397369384766 29.59518623352051 89.88570404052734 C 24.11771965026855 87.56893157958984 19.19813346862793 84.25196075439453 14.97309303283691 80.02691650390625 C 10.74804019927979 75.80186462402344 7.431066513061523 70.88229370117188 5.114293098449707 65.40481567382812 C 2.716026782989502 59.73468017578125 1.5 53.71062850952148 1.5 47.5 C 1.5 41.28937149047852 2.716026782989502 35.26533508300781 5.114293098449707 29.59518623352051 C 7.431066513061523 24.11771965026855 10.74804019927979 19.19813346862793 14.97309303283691 14.97309303283691 C 19.19813346862793 10.74804019927979 24.11771965026855 7.431066513061523 29.59518623352051 5.114293098449707 C 35.26533508300781 2.716026782989502 41.28937149047852 1.5 47.5 1.5 C 53.71062850952148 1.5 59.73468017578125 2.716026782989502 65.40481567382812 5.114293098449707 C 70.88229370117188 7.431066513061523 75.80186462402344 10.74804019927979 80.02691650390625 14.97309303283691 C 84.25196075439453 19.19813346862793 87.56893157958984 24.11771965026855 89.88570404052734 29.59518623352051 C 92.28397369384766 35.26533508300781 93.5 41.28937149047852 93.5 47.5 C 93.5 53.71062850952148 92.28397369384766 59.73468017578125 89.88570404052734 65.40481567382812 C 87.56893157958984 70.88229370117188 84.25196075439453 75.80186462402344 80.02691650390625 80.02691650390625 C 75.80186462402344 84.25196075439453 70.88229370117188 87.56893157958984 65.40481567382812 89.88570404052734 C 59.73468017578125 92.28397369384766 53.71062850952148 93.5 47.5 93.5 Z" stroke="none"/>
                                  <path d="M 47.5 3 C 41.49121475219727 3 35.66376876831055 4.176155090332031 30.17950439453125 6.495796203613281 C 24.88084411621094 8.736953735351562 20.12152099609375 11.94598388671875 16.03375244140625 16.03375244140625 C 11.94598388671875 20.12152099609375 8.736953735351562 24.88084411621094 6.495796203613281 30.17950439453125 C 4.176155090332031 35.66376876831055 3 41.49121475219727 3 47.5 C 3 53.50878524780273 4.176155090332031 59.33623123168945 6.495796203613281 64.82049560546875 C 8.736953735351562 70.11915588378906 11.94598388671875 74.87847900390625 16.03375244140625 78.96624755859375 C 20.12152099609375 83.05401611328125 24.88084411621094 86.26304626464844 30.17950439453125 88.50419616699219 C 35.66376876831055 90.82384490966797 41.49121475219727 92 47.5 92 C 53.50878524780273 92 59.33623123168945 90.82384490966797 64.82049560546875 88.50419616699219 C 70.11915588378906 86.26304626464844 74.87847900390625 83.05401611328125 78.96624755859375 78.96624755859375 C 83.05401611328125 74.87847900390625 86.26304626464844 70.11915588378906 88.50419616699219 64.82049560546875 C 90.82384490966797 59.33623123168945 92 53.50878524780273 92 47.5 C 92 41.49121475219727 90.82384490966797 35.66376876831055 88.50419616699219 30.17950439453125 C 86.26304626464844 24.88084411621094 83.05401611328125 20.12152099609375 78.96624755859375 16.03375244140625 C 74.87847900390625 11.94598388671875 70.11915588378906 8.736953735351562 64.82049560546875 6.495796203613281 C 59.33623123168945 4.176155090332031 53.50878524780273 3 47.5 3 M 47.5 0 C 73.7335205078125 0 95 21.2664794921875 95 47.5 C 95 73.7335205078125 73.7335205078125 95 47.5 95 C 21.2664794921875 95 0 73.7335205078125 0 47.5 C 0 21.2664794921875 21.2664794921875 0 47.5 0 Z" stroke="none" fill="#8b5e6f"/>
                                </g>
                              </g>
                            </g>
                          </g>
                        </g>
                      </g>
                    </g>
                  </g>
                </g>
              </g>
            </g>
          </g>
        </g>
      </g>
    </g>
    <g id="concentracion_1_" data-name="concentracion (1)" transform="translate(768.874 3201.902)">
      <g id="Grupo_1231550" data-name="Grupo 1231550" transform="translate(0.905 0.902)">
        <path id="Trazado_1192907" data-name="Trazado 1192907" d="M365.589,12.866l1.325,7.544a3.536,3.536,0,0,0,2.863,2.863L377.32,24.6a2.116,2.116,0,1,0,.732-4.167l-4.782-.84,8.559-8.559a2.116,2.116,0,0,0-2.992-2.992L370.5,16.376l-.745-4.241a2.116,2.116,0,1,0-4.167.732Z" transform="translate(-321.999 -7.419)" fill="#c9f6b0"/>
        <g id="Grupo_1231541" data-name="Grupo 1231541" transform="translate(48.529)">
          <path id="Trazado_1192908" data-name="Trazado 1192908" d="M417.735,8.038a2.115,2.115,0,0,0-2.992,0l-.366.366a2.115,2.115,0,0,1-.291,2.626l-7.4,7.4a.851.851,0,0,0,.455,1.441l3.17.557a2.115,2.115,0,0,1,.861,3.806l2.056.361a2.116,2.116,0,1,0,.732-4.167l-4.782-.84,8.559-8.559A2.116,2.116,0,0,0,417.735,8.038Z" transform="translate(-406.434 -7.418)" fill="#ade194"/>
        </g>
        <path id="Trazado_1192909" data-name="Trazado 1192909" d="M24.3,12.866l-1.325,7.544a3.536,3.536,0,0,1-2.863,2.863L12.57,24.6a2.116,2.116,0,0,1-.732-4.167l4.782-.84L8.061,11.031a2.116,2.116,0,0,1,2.992-2.992l8.337,8.337.745-4.241a2.116,2.116,0,1,1,4.167.732Z" transform="translate(-7.441 -7.419)" fill="#f58a97"/>
        <g id="Grupo_1231542" data-name="Grupo 1231542" transform="translate(0.913 0.001)">
          <path id="Trazado_1192910" data-name="Trazado 1192910" d="M25.983,16.382,17.646,8.045a2.115,2.115,0,0,0-2.7-.243l8.279,8.4A2.08,2.08,0,0,0,25.983,16.382Z" transform="translate(-14.948 -7.427)" fill="#f07281"/>
          <path id="Trazado_1192911" data-name="Trazado 1192911" d="M45.145,31.827a2.108,2.108,0,0,0-1.611.374,2.105,2.105,0,0,1,.3,1.507l-1.325,7.544a3.536,3.536,0,0,1-2.863,2.863l-6.525,1.146a2.114,2.114,0,0,0,2,.747l7.544-1.325a3.536,3.536,0,0,0,2.863-2.863l1.325-7.543A2.115,2.115,0,0,0,45.145,31.827Z" transform="translate(-30.915 -28.831)" fill="#f07281"/>
        </g>
        <path id="Trazado_1192912" data-name="Trazado 1192912" d="M365.589,374.684l1.325-7.544a3.536,3.536,0,0,1,2.863-2.863l7.544-1.325a2.116,2.116,0,1,1,.732,4.167l-4.782.84,8.559,8.559a2.116,2.116,0,0,1-2.992,2.992l-8.337-8.337-.745,4.241a2.116,2.116,0,1,1-4.167-.732Z" transform="translate(-321.999 -319.681)" fill="#b3dafe"/>
        <g id="Grupo_1231543" data-name="Grupo 1231543" transform="translate(48.529 43.24)">
          <path id="Trazado_1192913" data-name="Trazado 1192913" d="M417.735,376.52l-8.559-8.559,4.782-.84a2.116,2.116,0,0,0-.732-4.167l-2.056.361a2.115,2.115,0,0,1-.861,3.806l-3.17.557a.851.851,0,0,0-.455,1.441l7.4,7.4a2.115,2.115,0,0,1,.291,2.626l.366.366a2.116,2.116,0,1,0,2.992-2.992Z" transform="translate(-406.434 -362.922)" fill="#8ac9fe"/>
        </g>
        <path id="Trazado_1192914" data-name="Trazado 1192914" d="M24.3,374.685l-1.325-7.544a3.536,3.536,0,0,0-2.863-2.863l-7.544-1.325a2.116,2.116,0,1,0-.732,4.167l4.782.84L8.06,376.521a2.116,2.116,0,0,0,2.992,2.992l8.337-8.337.745,4.241a2.116,2.116,0,0,0,4.167-.732Z" transform="translate(-7.44 -319.682)" fill="#fff0ad"/>
        <g id="Grupo_1231544" data-name="Grupo 1231544" transform="translate(0.865 43.24)">
          <path id="Trazado_1192915" data-name="Trazado 1192915" d="M48.611,374.686l-1.325-7.544a3.536,3.536,0,0,0-2.863-2.863l-7.544-1.325a2.11,2.11,0,0,0-1.763.5l6.462,1.135a3.536,3.536,0,0,1,2.863,2.863l1.325,7.544a2.11,2.11,0,0,1-.495,1.761,2.115,2.115,0,0,0,3.34-2.067Z" transform="translate(-32.616 -362.923)" fill="#ffe177"/>
          <path id="Trazado_1192916" data-name="Trazado 1192916" d="M22.724,429.741l-8.169,8a2.114,2.114,0,0,0,2.746-.208l8.337-8.337A2.654,2.654,0,0,0,22.724,429.741Z" transform="translate(-14.555 -420.948)" fill="#ffe177"/>
        </g>
        <g id="Grupo_1231549" data-name="Grupo 1231549" transform="translate(12.29 12.29)">
          <circle id="Elipse_12942" data-name="Elipse 12942" cx="17.935" cy="17.935" r="17.935" transform="translate(0 0)" fill="#eaf6ff"/>
          <path id="Trazado_1192917" data-name="Trazado 1192917" d="M242.766,108.462a18.121,18.121,0,0,0-1.824.092,17.936,17.936,0,0,1,0,35.687,18.155,18.155,0,0,0,1.824.092,17.935,17.935,0,1,0,0-35.87Z" transform="translate(-224.831 -108.462)" fill="#d8ecfe"/>
          <g id="Grupo_1231548" data-name="Grupo 1231548" transform="translate(4.396 7.357)">
            <g id="Grupo_1231547" data-name="Grupo 1231547">
              <g id="Grupo_1231545" data-name="Grupo 1231545" transform="translate(13.54)">
                <path id="Trazado_1192918" data-name="Trazado 1192918" d="M255.942,172.982a4.292,4.292,0,0,1,4.513-4.03,4.489,4.489,0,0,1,4.251,2.715.494.494,0,0,0,.445.32A4.266,4.266,0,0,1,269.482,176a3.685,3.685,0,0,1-.6,2.011.487.487,0,0,0-.026.489,5.472,5.472,0,0,1,.628,2.536,6.105,6.105,0,0,1-4.342,5.638.479.479,0,0,0-.305.332,4.428,4.428,0,0,1-4.379,3.1,4.292,4.292,0,0,1-4.513-4.03Z" transform="translate(-255.942 -168.952)" fill="#fdd1d5"/>
                <path id="Trazado_1192919" data-name="Trazado 1192919" d="M288.26,178.015a3.685,3.685,0,0,0,.6-2.011,4.266,4.266,0,0,0-4.331-4.017.494.494,0,0,1-.445-.32,4.489,4.489,0,0,0-4.251-2.715,4.957,4.957,0,0,0-1.829.346,4.255,4.255,0,0,1,2.431,2.369.494.494,0,0,0,.445.32A4.266,4.266,0,0,1,285.213,176a3.685,3.685,0,0,1-.6,2.011.487.487,0,0,0-.026.489,5.472,5.472,0,0,1,.628,2.536,6.105,6.105,0,0,1-4.342,5.638.479.479,0,0,0-.305.332,4.185,4.185,0,0,1-2.556,2.752,4.959,4.959,0,0,0,1.826.345,4.428,4.428,0,0,0,4.379-3.1.479.479,0,0,1,.305-.332,6.105,6.105,0,0,0,4.342-5.638,5.473,5.473,0,0,0-.628-2.536A.487.487,0,0,1,288.26,178.015Z" transform="translate(-275.322 -168.952)" fill="#f6b2bb"/>
              </g>
              <g id="Grupo_1231546" data-name="Grupo 1231546">
                <path id="Trazado_1192920" data-name="Trazado 1192920" d="M158.164,172.982a4.292,4.292,0,0,0-4.513-4.03,4.489,4.489,0,0,0-4.251,2.715.494.494,0,0,1-.445.32A4.266,4.266,0,0,0,144.624,176a3.685,3.685,0,0,0,.6,2.011.487.487,0,0,1,.026.489,5.472,5.472,0,0,0-.628,2.536,6.105,6.105,0,0,0,4.342,5.638.479.479,0,0,1,.305.332,4.428,4.428,0,0,0,4.379,3.1,4.292,4.292,0,0,0,4.513-4.03Z" transform="translate(-144.624 -168.952)" fill="#fdd1d5"/>
                <path id="Trazado_1192921" data-name="Trazado 1192921" d="M205.671,168.952a4.915,4.915,0,0,0-1.819.346,4.041,4.041,0,0,1,2.684,3.684v13.1a4.041,4.041,0,0,1-2.687,3.685,4.934,4.934,0,0,0,1.823.345,4.292,4.292,0,0,0,4.513-4.03v-13.1a4.292,4.292,0,0,0-4.513-4.03Z" transform="translate(-196.645 -168.952)" fill="#f6b2bb"/>
              </g>
            </g>
          </g>
        </g>
      </g>
      <path id="Trazado_1192922" data-name="Trazado 1192922" d="M26.756,30.178a.912.912,0,0,0,.384-1.232,2.415,2.415,0,0,1-.123-1.9.912.912,0,1,0-1.73-.578,4.222,4.222,0,0,0,.238,3.329.914.914,0,0,0,1.232.384ZM26.1,33.724a.912.912,0,0,0-.585,1.15,2.414,2.414,0,0,1-.2,1.9.912.912,0,1,0,1.609.861,4.222,4.222,0,0,0,.325-3.322.912.912,0,0,0-1.15-.585ZM44.921,14.051a4.45,4.45,0,0,0,3.6,3.6l7.544,1.325a3.028,3.028,0,1,0,1.047-5.964l-3.055-.537,7.319-7.319a3.066,3.066,0,0,0,0-4.282,3.052,3.052,0,0,0-4.282,0L50,7.974,49.561,5.46A3.028,3.028,0,1,0,43.6,6.507ZM46.578,4.78a1.216,1.216,0,0,1,1.186,1l.745,4.241a.912.912,0,0,0,1.544.487l8.337-8.337a1.2,1.2,0,0,1,1.7,1.7l-8.559,8.559a.912.912,0,0,0,.487,1.543l4.782.84a1.2,1.2,0,0,1-.416,2.37L48.84,15.857a2.621,2.621,0,0,1-2.122-2.122L45.393,6.192A1.214,1.214,0,0,1,46.578,4.78ZM8.2,12.478l-3.054.537a3.028,3.028,0,1,0,1.047,5.964l7.544-1.325a4.45,4.45,0,0,0,3.6-3.6l1.325-7.544A3.028,3.028,0,1,0,12.7,5.46l-.442,2.514-7.1-7.1A3.052,3.052,0,0,0,.88.877a3.047,3.047,0,0,0,0,4.282ZM2.17,2.167a1.214,1.214,0,0,1,1.7,0L12.209,10.5a.912.912,0,0,0,1.544-.487L14.5,5.775a1.2,1.2,0,0,1,2.37.416l-1.325,7.544a2.621,2.621,0,0,1-2.122,2.122L5.877,17.182a1.2,1.2,0,1,1-.416-2.37l4.782-.84a.912.912,0,0,0,.487-1.543L2.17,3.869a1.214,1.214,0,0,1,0-1.7ZM17.339,48.2a4.45,4.45,0,0,0-3.6-3.6L6.192,43.276A3.028,3.028,0,1,0,5.145,49.24l3.055.537L.88,57.1a3.028,3.028,0,1,0,4.282,4.282l7.1-7.1L12.7,56.8a3.028,3.028,0,1,0,5.964-1.047ZM15.89,57.457A1.214,1.214,0,0,1,14.5,56.48l-.745-4.241a.912.912,0,0,0-1.544-.487L3.872,60.088a1.2,1.2,0,0,1-1.7-1.7l8.559-8.559a.912.912,0,0,0-.487-1.543l-4.782-.84a1.2,1.2,0,0,1,.416-2.37L13.421,46.4a2.621,2.621,0,0,1,2.122,2.122l1.325,7.544A1.217,1.217,0,0,1,15.89,57.457ZM36.744,34.873a.912.912,0,0,0-1.735-.564,4.222,4.222,0,0,0,.325,3.322.912.912,0,1,0,1.609-.861A2.415,2.415,0,0,1,36.744,34.873Zm13.234-3.746A18.848,18.848,0,0,0,19.112,16.609a.912.912,0,0,0,1.164,1.4,17.013,17.013,0,1,1-2.785,2.926.912.912,0,0,0-1.461-1.093,18.848,18.848,0,1,0,33.947,11.28Zm8.786,23.352a.912.912,0,0,0-1.29,1.29l2.617,2.617a1.2,1.2,0,0,1-1.7,1.7l-8.337-8.337a.912.912,0,0,0-1.544.487l-.745,4.242a1.2,1.2,0,0,1-2.37-.416l1.325-7.544A2.621,2.621,0,0,1,48.841,46.4l7.544-1.325a1.2,1.2,0,1,1,.416,2.37l-4.782.84a.912.912,0,0,0-.487,1.543l2.931,2.931a.912.912,0,1,0,1.29-1.29l-1.691-1.691,3.054-.537a3.028,3.028,0,1,0-1.047-5.964L48.526,44.6a4.45,4.45,0,0,0-3.6,3.6L43.6,55.748A3.028,3.028,0,0,0,49.561,56.8L50,54.281l7.1,7.1A3.028,3.028,0,1,0,61.381,57.1ZM40.641,22.688a5.449,5.449,0,0,0-5-3.05,5.58,5.58,0,0,0-4.513,2.2,5.58,5.58,0,0,0-4.513-2.2,5.449,5.449,0,0,0-5,3.05A5.113,5.113,0,0,0,16.679,27.6a4.6,4.6,0,0,0,.622,2.3,6.33,6.33,0,0,0-.622,2.738,7.023,7.023,0,0,0,4.742,6.423,5.354,5.354,0,0,0,5.2,3.556,5.58,5.58,0,0,0,4.513-2.2,5.58,5.58,0,0,0,4.513,2.2,5.354,5.354,0,0,0,5.2-3.556,7.023,7.023,0,0,0,4.742-6.423,6.332,6.332,0,0,0-.622-2.738,4.6,4.6,0,0,0,.622-2.3A5.112,5.112,0,0,0,40.641,22.688ZM30.218,37.676a3.389,3.389,0,0,1-3.6,3.117A3.52,3.52,0,0,1,23.1,38.316a2.486,2.486,0,0,1,1.089-1.98.912.912,0,0,0-1.068-1.479,4.419,4.419,0,0,0-1.654,2.24A5.026,5.026,0,0,1,18.5,32.639,3.427,3.427,0,0,1,20.661,29.2a.912.912,0,1,0-.591-1.726,4.988,4.988,0,0,0-1.478.8A2.711,2.711,0,0,1,18.5,27.6a3.3,3.3,0,0,1,2.964-3.06,4.289,4.289,0,0,0,.936,1.789.912.912,0,0,0,1.375-1.2,2.369,2.369,0,0,1-.6-1.443,3.6,3.6,0,0,1,3.44-2.226,3.389,3.389,0,0,1,3.6,3.117v13.1ZM41.6,29.2c1.445.495,2.157,1.587,2.157,3.436A5.026,5.026,0,0,1,40.793,37.1a4.42,4.42,0,0,0-1.654-2.24.912.912,0,0,0-1.068,1.479,2.486,2.486,0,0,1,1.089,1.98,3.545,3.545,0,0,1-3.517,2.477,3.389,3.389,0,0,1-3.6-3.117v-13.1a3.389,3.389,0,0,1,3.6-3.117,3.629,3.629,0,0,1,3.44,2.226,2.371,2.371,0,0,1-.6,1.443.912.912,0,0,0,1.375,1.2,4.289,4.289,0,0,0,.936-1.789,3.3,3.3,0,0,1,2.964,3.06,2.711,2.711,0,0,1-.089.679,4.987,4.987,0,0,0-1.478-.8A.912.912,0,1,0,41.6,29.2Zm-5.78-3.315a.912.912,0,0,0-.576,1.154,2.415,2.415,0,0,1-.123,1.9.912.912,0,1,0,1.615.848,4.222,4.222,0,0,0,.238-3.329A.912.912,0,0,0,35.82,25.888Z" transform="translate(0 0)"/>
    </g>
  </g>
</svg>
