<svg xmlns="http://www.w3.org/2000/svg" xmlns:xlink="http://www.w3.org/1999/xlink" width="113" height="113" viewBox="0 0 113 113">
  <defs>
    <filter id="Trazado_982547" x="0" y="0" width="113" height="113" filterUnits="userSpaceOnUse">
      <feOffset dy="3" input="SourceAlpha"/>
      <feGaussianBlur stdDeviation="3" result="blur"/>
      <feFlood flood-opacity="0.161"/>
      <feComposite operator="in" in2="blur"/>
      <feComposite in="SourceGraphic"/>
    </filter>
  </defs>
  <g id="Grupo_1231508" data-name="Grupo 1231508" transform="translate(-902.006 -819.544)">
    <g id="Grupo_1228251" data-name="Grupo 1228251" transform="translate(0.446 -1115)">
      <g id="Grupo_1227861" data-name="Grupo 1227861" transform="translate(0 -1625.728)">
        <g id="Grupo_1203994" data-name="Grupo 1203994" transform="translate(0 1619.397)">
          <g id="Grupo_1203499" data-name="Grupo 1203499" transform="translate(0 -197.72)">
            <g id="Grupo_1202591" data-name="Grupo 1202591" transform="translate(910.561 2144.596)">
              <g id="Grupo_1172010" data-name="Grupo 1172010" transform="translate(0)">
                <g id="Grupo_1171046" data-name="Grupo 1171046">
                  <g id="Grupo_1148525" data-name="Grupo 1148525">
                    <g transform="matrix(1, 0, 0, 1, -9, -6)" filter="url(#Trazado_982547)">
                      <g id="Trazado_982547-2" data-name="Trazado 982547" transform="translate(9 6)" fill="#ffe6ef">
                        <path d="M 47.5 93.5 C 41.28937149047852 93.5 35.26533508300781 92.28397369384766 29.59518623352051 89.88570404052734 C 24.11771965026855 87.56893157958984 19.19813346862793 84.25196075439453 14.97309303283691 80.02691650390625 C 10.74804019927979 75.80186462402344 7.431066513061523 70.88229370117188 5.114293098449707 65.40481567382812 C 2.716026782989502 59.73468017578125 1.5 53.71062850952148 1.5 47.5 C 1.5 41.28937149047852 2.716026782989502 35.26533508300781 5.114293098449707 29.59518623352051 C 7.431066513061523 24.11771965026855 10.74804019927979 19.19813346862793 14.97309303283691 14.97309303283691 C 19.19813346862793 10.74804019927979 24.11771965026855 7.431066513061523 29.59518623352051 5.114293098449707 C 35.26533508300781 2.716026782989502 41.28937149047852 1.5 47.5 1.5 C 53.71062850952148 1.5 59.73468017578125 2.716026782989502 65.40481567382812 5.114293098449707 C 70.88229370117188 7.431066513061523 75.80186462402344 10.74804019927979 80.02691650390625 14.97309303283691 C 84.25196075439453 19.19813346862793 87.56893157958984 24.11771965026855 89.88570404052734 29.59518623352051 C 92.28397369384766 35.26533508300781 93.5 41.28937149047852 93.5 47.5 C 93.5 53.71062850952148 92.28397369384766 59.73468017578125 89.88570404052734 65.40481567382812 C 87.56893157958984 70.88229370117188 84.25196075439453 75.80186462402344 80.02691650390625 80.02691650390625 C 75.80186462402344 84.25196075439453 70.88229370117188 87.56893157958984 65.40481567382812 89.88570404052734 C 59.73468017578125 92.28397369384766 53.71062850952148 93.5 47.5 93.5 Z" stroke="none"/>
                        <path d="M 47.5 3 C 41.49121475219727 3 35.66376876831055 4.176155090332031 30.17950439453125 6.495796203613281 C 24.88084411621094 8.736953735351562 20.12152099609375 11.94598388671875 16.03375244140625 16.03375244140625 C 11.94598388671875 20.12152099609375 8.736953735351562 24.88084411621094 6.495796203613281 30.17950439453125 C 4.176155090332031 35.66376876831055 3 41.49121475219727 3 47.5 C 3 53.50878524780273 4.176155090332031 59.33623123168945 6.495796203613281 64.82049560546875 C 8.736953735351562 70.11915588378906 11.94598388671875 74.87847900390625 16.03375244140625 78.96624755859375 C 20.12152099609375 83.05401611328125 24.88084411621094 86.26304626464844 30.17950439453125 88.50419616699219 C 35.66376876831055 90.82384490966797 41.49121475219727 92 47.5 92 C 53.50878524780273 92 59.33623123168945 90.82384490966797 64.82049560546875 88.50419616699219 C 70.11915588378906 86.26304626464844 74.87847900390625 83.05401611328125 78.96624755859375 78.96624755859375 C 83.05401611328125 74.87847900390625 86.26304626464844 70.11915588378906 88.50419616699219 64.82049560546875 C 90.82384490966797 59.33623123168945 92 53.50878524780273 92 47.5 C 92 41.49121475219727 90.82384490966797 35.66376876831055 88.50419616699219 30.17950439453125 C 86.26304626464844 24.88084411621094 83.05401611328125 20.12152099609375 78.96624755859375 16.03375244140625 C 74.87847900390625 11.94598388671875 70.11915588378906 8.736953735351562 64.82049560546875 6.495796203613281 C 59.33623123168945 4.176155090332031 53.50878524780273 3 47.5 3 M 47.5 0 C 73.7335205078125 0 95 21.2664794921875 95 47.5 C 95 73.7335205078125 73.7335205078125 95 47.5 95 C 21.2664794921875 95 0 73.7335205078125 0 47.5 C 0 21.2664794921875 21.2664794921875 0 47.5 0 Z" stroke="none" fill="#8b5e6f"/>
                      </g>
                    </g>
                  </g>
                </g>
              </g>
            </g>
          </g>
        </g>
      </g>
    </g>
    <g id="libro-de-ciencias" transform="translate(928.502 842.772)">
      <path id="Trazado_1192498" data-name="Trazado 1192498" d="M66.54,121.477v39a2.007,2.007,0,0,1-2,2H43.37a2.006,2.006,0,0,0-1.42.59l-.82.82a2.008,2.008,0,0,1-1.42.59H35.37a2.007,2.007,0,0,1-1.42-.59l-.82-.82a2.006,2.006,0,0,0-1.42-.59H10.54a2.007,2.007,0,0,1-2-2v-39a2.006,2.006,0,0,1,2-2h54a2.007,2.007,0,0,1,2,2Zm0,0" transform="translate(-7.536 -105.476)" fill="#0377bc"/>
      <path id="Trazado_1192499" data-name="Trazado 1192499" d="M63.539,121.477v39a2.007,2.007,0,0,1-2,2H43.2a2.006,2.006,0,0,0-1.42.59l-.82.82a2.008,2.008,0,0,1-1.42.59h-4.17a2.007,2.007,0,0,1-1.42-.59l-.82-.82a2.006,2.006,0,0,0-1.42-.59H10.539a2.007,2.007,0,0,1-2-2v-39a2.006,2.006,0,0,1,2-2h51a2.006,2.006,0,0,1,2,2Zm0,0" transform="translate(-7.535 -105.476)" fill="#02a9f4"/>
      <path id="Trazado_1192500" data-name="Trazado 1192500" d="M92.672,72.96v40.95a.99.99,0,0,1-1.2.98c-4.39-.93-19.48-3.74-23.04.92a.965.965,0,0,1-1.52,0c-3.56-4.66-18.65-1.85-23.04-.92a.99.99,0,0,1-1.2-.98V72.96a1,1,0,0,1,.78-.98,84.667,84.667,0,0,1,10.08-1.57h28.28a84.668,84.668,0,0,1,10.08,1.57,1,1,0,0,1,.78.98Zm0,0" transform="translate(-37.668 -62.16)" fill="#ffe0b2"/>
      <path id="Trazado_1192501" data-name="Trazado 1192501" d="M281,72.96v40.95a.99.99,0,0,1-1.2.98c-.52-.11-1.2-.25-1.99-.39a63.669,63.669,0,0,0-13.44-1.27c-3.37.15-6.29.85-7.61,2.58a.923.923,0,0,1-.76.37V70.41h14.14a84.668,84.668,0,0,1,10.08,1.57,1,1,0,0,1,.78.98Zm0,0" transform="translate(-225.999 -62.159)" fill="#dfc49c"/>
      <path id="Trazado_1192502" data-name="Trazado 1192502" d="M278,72.959v40.95a1,1,0,0,1-1.2.98,78.727,78.727,0,0,0-12.43-1.66,21.2,21.2,0,0,0-8.37.99V70.41h11.14a84.7,84.7,0,0,1,10.08,1.57,1,1,0,0,1,.78.98Zm0,0" transform="translate(-226 -62.159)" fill="#ffe0b2"/>
      <path id="Trazado_1192503" data-name="Trazado 1192503" d="M131.86,31.3a5.794,5.794,0,0,1-1.6,4.13l-.01.01-.93,3a4.781,4.781,0,0,1-1.98,2.59l-3.18,2.09a5.606,5.606,0,0,0-1.14,1.03l-1.18,1.46a5.1,5.1,0,0,1-1.48,1.24,5.581,5.581,0,0,1-2.68.68,5.438,5.438,0,0,1-3.01-.9l-1.81-1.19-1.81,1.19a5.438,5.438,0,0,1-3.01.9,5.655,5.655,0,0,1-2.69-.68,5.188,5.188,0,0,1-1.47-1.24l-1.19-1.46a5.107,5.107,0,0,0-1.14-1.03l-3.17-2.09a4.781,4.781,0,0,1-1.98-2.59l-.93-3-.01-.01a5.794,5.794,0,0,1-1.6-4.13,5.921,5.921,0,0,1,1.28-3.78,6.288,6.288,0,0,1-.52-2.53,5.175,5.175,0,0,1,3.1-5.07,6.427,6.427,0,0,1-.07-.88,4.829,4.829,0,0,1,3.09-4.73,2.983,2.983,0,0,1-.05-.53,4.019,4.019,0,0,1,4.17-3.85,3.95,3.95,0,0,1,1.04.13,3.9,3.9,0,0,1,3.14-1.53,3.733,3.733,0,0,1,3.72,2.81,3.122,3.122,0,0,1,.07.69h.06a3.068,3.068,0,0,1,.07-.69,3.732,3.732,0,0,1,3.72-2.81,3.9,3.9,0,0,1,3.14,1.53,3.95,3.95,0,0,1,1.04-.13,4.019,4.019,0,0,1,4.17,3.85,3.026,3.026,0,0,1-.05.53,4.829,4.829,0,0,1,3.09,4.73,6.427,6.427,0,0,1-.07.88,5.175,5.175,0,0,1,3.1,5.07,6.288,6.288,0,0,1-.52,2.53,5.921,5.921,0,0,1,1.28,3.78Zm0,0" transform="translate(-82.856 -7.532)" fill="#ef314c"/>
      <path id="Trazado_1192504" data-name="Trazado 1192504" d="M275,31.31a5.794,5.794,0,0,1-1.6,4.13l-.01.01-.93,3a4.781,4.781,0,0,1-1.98,2.59l-3.18,2.09a5.606,5.606,0,0,0-1.14,1.03l-1.18,1.46a5.1,5.1,0,0,1-1.48,1.24,5.581,5.581,0,0,1-2.68.68,5.485,5.485,0,0,1-1.5-.21,5.418,5.418,0,0,1-1.51-.69L256,45.45V12.04h.03a3.068,3.068,0,0,1,.07-.69,3.579,3.579,0,0,1,2.22-2.52,4,4,0,0,1,4.64,1.24A3.95,3.95,0,0,1,264,9.94a4.019,4.019,0,0,1,4.17,3.85,3.026,3.026,0,0,1-.05.53,4.829,4.829,0,0,1,3.09,4.73,6.427,6.427,0,0,1-.07.88,5.175,5.175,0,0,1,3.1,5.07,6.288,6.288,0,0,1-.52,2.53A5.921,5.921,0,0,1,275,31.31Zm0,0" transform="translate(-226 -7.539)" fill="#bb193b"/>
      <path id="Trazado_1192505" data-name="Trazado 1192505" d="M256.938,33.5a5.792,5.792,0,0,1-1.6,4.13l-.01.01-.93,3a4.785,4.785,0,0,1-1.98,2.59l-3.18,2.09a5.6,5.6,0,0,0-1.14,1.03l-1.18,1.46a5.1,5.1,0,0,1-1.48,1.24,5.023,5.023,0,0,1-1.18.47,5.418,5.418,0,0,1-1.51-.69l-1.81-1.19-2-18.91,2-14.5h.03a3.068,3.068,0,0,1,.07-.69,3.579,3.579,0,0,1,2.22-2.52,3.776,3.776,0,0,1,1.64,1.24,3.945,3.945,0,0,1,1.04-.13,4.019,4.019,0,0,1,4.17,3.85,2.982,2.982,0,0,1-.05.53,4.828,4.828,0,0,1,3.09,4.73,6.356,6.356,0,0,1-.07.88,5.175,5.175,0,0,1,3.1,5.07,6.272,6.272,0,0,1-.52,2.53,5.921,5.921,0,0,1,1.28,3.78Zm0,0" transform="translate(-210.933 -9.726)" fill="#ef314c"/>
      <path id="Trazado_1192506" data-name="Trazado 1192506" d="M30,157.941H27.833a2.978,2.978,0,0,1-2.122-.879l-.828-.828a.994.994,0,0,0-.708-.293H3a3,3,0,0,1-3-3v-39a3,3,0,0,1,3-3H5a1,1,0,0,1,0,2H3a1,1,0,0,0-1,1v39a1,1,0,0,0,1,1H24.175a2.978,2.978,0,0,1,2.122.879l.828.828a.994.994,0,0,0,.708.293H30a1,1,0,1,1,0,2Zm0,0" transform="translate(0 -97.941)"/>
      <path id="Trazado_1192507" data-name="Trazado 1192507" d="M250.644,157.942h-2.172a1,1,0,0,1,0-2h2.172a.993.993,0,0,0,.707-.293l.828-.828a2.978,2.978,0,0,1,2.122-.879h21.171a1,1,0,0,0,1-1v-39a1,1,0,0,0-1-1h-2a1,1,0,0,1,0-2h2a3,3,0,0,1,3,3v39a3,3,0,0,1-3,3H254.3a.994.994,0,0,0-.708.293l-.828.828a2.978,2.978,0,0,1-2.121.879Zm0,0" transform="translate(-218.468 -97.941)"/>
      <path id="Trazado_1192508" data-name="Trazado 1192508" d="M60.137,109.631a1.956,1.956,0,0,1-1.558-.766c-2.526-3.306-13.039-2.449-22.034-.543a1.955,1.955,0,0,1-1.655-.387,2,2,0,0,1-.753-1.572V65.414A1.985,1.985,0,0,1,35.7,63.457a85.841,85.841,0,0,1,10.205-1.589,1,1,0,1,1,.174,1.993,83.75,83.75,0,0,0-9.955,1.551l.008,40.953c5.96-1.263,20.245-3.669,24.035,1.293,3.72-4.96,18.006-2.555,23.972-1.291l-.007-40.952A82.655,82.655,0,0,0,74.19,63.86a1,1,0,1,1,.174-1.992,85.931,85.931,0,0,1,10.2,1.588,1.985,1.985,0,0,1,1.568,1.958v40.95a2,2,0,0,1-.753,1.572,1.964,1.964,0,0,1-1.668.384c-8.98-1.9-19.493-2.76-22.025.551a1.952,1.952,0,0,1-1.554.761Zm0,0" transform="translate(-30.133 -54.613)"/>
      <path id="Trazado_1192509" data-name="Trazado 1192509" d="M248.473,371.41a1,1,0,0,1-1-1v-11a1,1,0,0,1,2,0v11A1,1,0,0,1,248.473,371.41Zm0,0" transform="translate(-218.468 -316.41)"/>
      <path id="Trazado_1192510" data-name="Trazado 1192510" d="M191.065,5.5a1,1,0,0,1-1-1,1.99,1.99,0,0,0-.049-.463A2.74,2.74,0,0,0,187.271,2a2.9,2.9,0,0,0-2.332,1.125,2.317,2.317,0,0,0-.462,1.378,1,1,0,0,1-2,0,4.311,4.311,0,0,1,.854-2.569A4.91,4.91,0,0,1,187.271,0a4.745,4.745,0,0,1,4.7,3.6,3.924,3.924,0,0,1,.1.907,1,1,0,0,1-1,1Zm0,0" transform="translate(-161.089 -0.001)"/>
      <path id="Trazado_1192511" data-name="Trazado 1192511" d="M146.4,20.95a1,1,0,0,1-.54-.159,4.766,4.766,0,0,1-2.179-3.329,3.757,3.757,0,0,1-.055-.664,5.027,5.027,0,0,1,5.174-4.854,5.275,5.275,0,0,1,1.284.157,1,1,0,0,1-.488,1.94,3.263,3.263,0,0,0-.8-.1,3.03,3.03,0,0,0-3.174,2.853,1.983,1.983,0,0,0,.03.349,2.8,2.8,0,0,0,1.287,1.963,1,1,0,0,1-.542,1.841Zm0,0" transform="translate(-126.786 -10.543)"/>
      <path id="Trazado_1192512" data-name="Trazado 1192512" d="M118.719,56.94a1,1,0,0,1-.989-.863,7.4,7.4,0,0,1-.079-1.017,5.845,5.845,0,0,1,3.79-5.684,1,1,0,0,1,.6,1.908,3.841,3.841,0,0,0-2.39,3.776,5.327,5.327,0,0,0,.06.744,1,1,0,0,1-.854,1.127,1.073,1.073,0,0,1-.138.009Zm0,0" transform="translate(-103.857 -43.55)"/>
      <path id="Trazado_1192513" data-name="Trazado 1192513" d="M95.088,108.925a1,1,0,0,1-.532-.154,5.644,5.644,0,0,1-2.14-2.6c-.009-.02-.016-.041-.024-.062a7.167,7.167,0,0,1-.58-2.86c0-2.812,1.559-5.289,3.792-6.022a1,1,0,1,1,.624,1.9c-1.422.467-2.416,2.162-2.416,4.121a5.158,5.158,0,0,0,.438,2.115.852.852,0,0,1,.031.08,3.688,3.688,0,0,0,1.342,1.633,1,1,0,0,1-.535,1.846Zm0,0" transform="translate(-81.049 -85.789)"/>
      <path id="Trazado_1192514" data-name="Trazado 1192514" d="M87.931,171.965a.989.989,0,0,1-.653-.246,6.8,6.8,0,0,1-1.951-4.893,6.879,6.879,0,0,1,1.486-4.382,1,1,0,0,1,1.8.6v.007a1,1,0,0,1-.233.641,5.172,5.172,0,0,0,.251,6.554,1,1,0,0,1-.7,1.719Zm0,0" transform="translate(-75.324 -143.057)"/>
      <path id="Trazado_1192515" data-name="Trazado 1192515" d="M112.608,243.7a6.606,6.606,0,0,1-3.162-.807,6.03,6.03,0,0,1-1.775-1.489l-1.181-1.453a4.4,4.4,0,0,0-.918-.824l-3.175-2.092a5.869,5.869,0,0,1-2.384-3.121l-.918-2.972a1,1,0,0,1,1.619-1.069,1.038,1.038,0,0,1,.281.443l.928,3a3.865,3.865,0,0,0,1.574,2.046l3.18,2.094a6.432,6.432,0,0,1,1.355,1.217l1.2,1.47a4.011,4.011,0,0,0,1.187,1,4.655,4.655,0,0,0,4.653-.172l1.814-1.2a1,1,0,1,1,1.1,1.669l-1.813,1.2a6.431,6.431,0,0,1-3.562,1.062Zm0,0" transform="translate(-87.426 -202.702)"/>
      <path id="Trazado_1192516" data-name="Trazado 1192516" d="M247.92,26.672a1,1,0,0,1-1-1v-.429a.945.945,0,0,1-.034-.179.968.968,0,0,1,.868-1.083,1.1,1.1,0,0,1,.8.255,1.032,1.032,0,0,1,.363.735v.7A1,1,0,0,1,247.92,26.672Zm0,0" transform="translate(-217.944 -21.168)"/>
      <path id="Trazado_1192517" data-name="Trazado 1192517" d="M256.3,5.5a1,1,0,0,1-1-1,2.323,2.323,0,0,0-.466-1.383A2.9,2.9,0,0,0,252.5,2a2.737,2.737,0,0,0-2.741,2.022,2.051,2.051,0,0,0-.053.481,1,1,0,0,1-2,0,4,4,0,0,1,.1-.925A4.741,4.741,0,0,1,252.5,0a4.907,4.907,0,0,1,3.936,1.93A4.316,4.316,0,0,1,257.3,4.5a1,1,0,0,1-1,1Zm0,0" transform="translate(-218.678)"/>
      <path id="Trazado_1192518" data-name="Trazado 1192518" d="M311.38,20.95a1,1,0,0,1-.542-1.841,2.773,2.773,0,0,0,1.281-1.925,2.2,2.2,0,0,0,.036-.387,3.03,3.03,0,0,0-3.174-2.854,3.264,3.264,0,0,0-.8.1,1,1,0,0,1-.487-1.94,5.269,5.269,0,0,1,1.283-.157,5.027,5.027,0,0,1,5.174,4.854,3.925,3.925,0,0,1-.061.7,4.748,4.748,0,0,1-2.173,3.291.991.991,0,0,1-.54.159Zm0,0" transform="translate(-270.98 -10.543)"/>
      <path id="Trazado_1192519" data-name="Trazado 1192519" d="M354.912,56.938a1.079,1.079,0,0,1-.138-.009,1,1,0,0,1-.854-1.127,5.32,5.32,0,0,0,.06-.743,3.84,3.84,0,0,0-2.39-3.776,1,1,0,1,1,.6-1.908,5.844,5.844,0,0,1,3.79,5.684,7.416,7.416,0,0,1-.079,1.017,1,1,0,0,1-.99.863Zm0,0" transform="translate(-309.766 -43.547)"/>
      <path id="Trazado_1192520" data-name="Trazado 1192520" d="M378.555,108.986a1,1,0,0,1-.535-1.846,3.679,3.679,0,0,0,1.343-1.635c.01-.027.019-.052.03-.077a5.165,5.165,0,0,0,.437-2.115c0-1.96-.993-3.654-2.416-4.121a1,1,0,0,1,.624-1.9c2.232.733,3.792,3.21,3.792,6.022a7.152,7.152,0,0,1-.58,2.862l-.023.06a5.633,5.633,0,0,1-2.14,2.6A1,1,0,0,1,378.555,108.986Zm0,0" transform="translate(-332.585 -85.85)"/>
      <path id="Trazado_1192521" data-name="Trazado 1192521" d="M396.9,171.967a1,1,0,0,1-.709-1.7l.007-.007a5.171,5.171,0,0,0,.259-6.56,1,1,0,1,1,1.593-1.211,6.891,6.891,0,0,1,1.456,4.345,6.78,6.78,0,0,1-1.9,4.848A1,1,0,0,1,396.9,171.967Zm0,0" transform="translate(-349.505 -143.063)"/>
      <path id="Trazado_1192522" data-name="Trazado 1192522" d="M253.3,243.71a6.426,6.426,0,0,1-3.563-1.063l-1.812-1.2a1,1,0,0,1-.448-.835v-3.958a1,1,0,0,1,2,0v3.42l1.364.9a4.649,4.649,0,0,0,4.661.169,3.991,3.991,0,0,0,1.177-.988l1.187-1.461a6.486,6.486,0,0,1,1.362-1.228l3.182-2.1a3.817,3.817,0,0,0,1.575-2.045l.929-3.005a1,1,0,1,1,1.886.673l-.9,2.921a5.827,5.827,0,0,1-2.387,3.127l-3.178,2.093a4.415,4.415,0,0,0-.926.835l-1.173,1.444a6.007,6.007,0,0,1-1.765,1.482,6.611,6.611,0,0,1-3.168.81Zm0,0" transform="translate(-218.468 -202.71)"/>
      <path id="Trazado_1192523" data-name="Trazado 1192523" d="M248.711,26.624a1,1,0,0,1-1-1v-.7a1,1,0,0,1,.326-.738,1.017,1.017,0,0,1,.764-.258,1.033,1.033,0,0,1,.944,1.089,1.058,1.058,0,0,1-.034.189v.419a1,1,0,0,1-1,1Zm0,0" transform="translate(-218.679 -21.121)"/>
      <path id="Trazado_1192524" data-name="Trazado 1192524" d="M164.663,269.473a3.036,3.036,0,0,1-3-2.128c-.416-1.193-2.7-1.888-3.467-2.037a1,1,0,0,1,.377-1.964c.419.08,4.11.852,4.979,3.342a1.175,1.175,0,0,0,1.576.719,1,1,0,0,1,.6,1.908A3.55,3.55,0,0,1,164.663,269.473Zm0,0" transform="translate(-138.938 -232.467)"/>
      <path id="Trazado_1192525" data-name="Trazado 1192525" d="M279.354,269.47a3.551,3.551,0,0,1-1.064-.16,1,1,0,0,1,.607-1.905,1.171,1.171,0,0,0,1.567-.722c.868-2.49,4.56-3.262,4.979-3.342a1,1,0,0,1,.377,1.964c-.768.15-3.051.844-3.467,2.037a3.035,3.035,0,0,1-3,2.129Zm0,0" transform="translate(-245.071 -232.465)"/>
      <path id="Trazado_1192526" data-name="Trazado 1192526" d="M279.354,269.47a3.551,3.551,0,0,1-1.064-.16,1,1,0,0,1,.607-1.905,1.171,1.171,0,0,0,1.567-.722c.868-2.49,4.56-3.262,4.979-3.342a1,1,0,0,1,.377,1.964c-.768.15-3.051.844-3.467,2.037a3.035,3.035,0,0,1-3,2.129Zm0,0" transform="translate(-245.071 -232.465)"/>
      <path id="Trazado_1192527" data-name="Trazado 1192527" d="M140.34,217.332a4.089,4.089,0,0,1-3.759-2.687,1,1,0,1,1,1.886-.666,2.058,2.058,0,0,0,1.873,1.354,1,1,0,1,1,0,2Zm0,0" transform="translate(-120.521 -188.314)"/>
      <path id="Trazado_1192528" data-name="Trazado 1192528" d="M335.383,217.352a1,1,0,1,1,0-2,2.077,2.077,0,0,0,1.87-1.347,1,1,0,1,1,1.889.659A4.089,4.089,0,0,1,335.383,217.352Zm0,0" transform="translate(-295.194 -188.335)"/>
      <path id="Trazado_1192529" data-name="Trazado 1192529" d="M171.137,171.116a1,1,0,0,1-1-1c0-1.233-.13-1.252-1.733-1.488a14.414,14.414,0,0,1-2.584-.564,5.361,5.361,0,0,1-3.684-4.948,1,1,0,1,1,2-.006,3.368,3.368,0,0,0,2.317,3.057,12.585,12.585,0,0,0,2.242.483c1.613.238,3.441.506,3.441,3.466a1,1,0,0,1-1,1Zm0,0" transform="translate(-143.133 -143.116)"/>
      <path id="Trazado_1192530" data-name="Trazado 1192530" d="M208.791,63.742a1,1,0,0,1-1-1c0-.944-1.983-1-2-1a1,1,0,0,1,0-2c1.383,0,4,.627,4,3a1,1,0,0,1-1,1Zm0,0" transform="translate(-180.787 -52.742)"/>
      <path id="Trazado_1192531" data-name="Trazado 1192531" d="M265.539,171.171a1,1,0,0,1-1-1c0-2.96,1.828-3.229,3.441-3.466a12.6,12.6,0,0,0,2.243-.483,3.367,3.367,0,0,0,2.316-3.058,1,1,0,0,1,1-.989h.008a1,1,0,0,1,.992,1,5.361,5.361,0,0,1-3.684,4.948,14.414,14.414,0,0,1-2.584.564c-1.6.236-1.733.255-1.733,1.488A1,1,0,0,1,265.539,171.171Zm0,0" transform="translate(-233.534 -143.171)"/>
      <path id="Trazado_1192532" data-name="Trazado 1192532" d="M265.539,63.742a1,1,0,0,1-1-1c0-2.373,2.617-3,4-3a1,1,0,0,1,0,2c-.038,0-2,.06-2,1a1,1,0,0,1-1,1Zm0,0" transform="translate(-233.534 -52.742)"/>
      <path id="Trazado_1192533" data-name="Trazado 1192533" d="M205.794,140.543a1,1,0,0,1,0-2c.038,0,2-.06,2-1a1,1,0,0,1,2,0c0,2.373-2.617,3-4,3Zm0,0" transform="translate(-180.79 -120.543)"/>
      <path id="Trazado_1192534" data-name="Trazado 1192534" d="M268.539,140.543c-1.383,0-4-.627-4-3a1,1,0,0,1,2,0c0,.944,1.983,1,2,1a1,1,0,0,1,0,2Zm0,0" transform="translate(-233.535 -120.542)"/>
      <path id="Trazado_1192535" data-name="Trazado 1192535" d="M70.269,326.274h-1a1,1,0,1,1,0-2h1a1,1,0,1,1,0,2Zm0,0" transform="translate(-60.266 -286.273)"/>
      <path id="Trazado_1192536" data-name="Trazado 1192536" d="M114.937,326.274h-3a1,1,0,1,1,0-2h3a1,1,0,1,1,0,2Zm0,0" transform="translate(-97.933 -286.273)"/>
      <path id="Trazado_1192537" data-name="Trazado 1192537" d="M75.27,360.411h-6a1,1,0,1,1,0-2h6a1,1,0,1,1,0,2Zm0,0" transform="translate(-60.266 -316.41)"/>
      <path id="Trazado_1192538" data-name="Trazado 1192538" d="M157.605,360.411h-3a1,1,0,0,1,0-2h3a1,1,0,0,1,0,2Zm0,0" transform="translate(-135.601 -316.41)"/>
      <path id="Trazado_1192539" data-name="Trazado 1192539" d="M71.27,394.543h-2a1,1,0,1,1,0-2h2a1,1,0,0,1,0,2Zm0,0" transform="translate(-60.266 -346.542)"/>
      <path id="Trazado_1192540" data-name="Trazado 1192540" d="M130.472,394.543h-10a1,1,0,0,1,0-2h10a1,1,0,1,1,0,2Zm0,0" transform="translate(-105.468 -346.542)"/>
      <path id="Trazado_1192541" data-name="Trazado 1192541" d="M420.137,326.274h-1a1,1,0,1,1,0-2h1a1,1,0,1,1,0,2Zm0,0" transform="translate(-369.133 -286.273)"/>
      <path id="Trazado_1192542" data-name="Trazado 1192542" d="M362.4,326.274h-3a1,1,0,1,1,0-2h3a1,1,0,0,1,0,2Zm0,0" transform="translate(-316.398 -286.273)"/>
      <path id="Trazado_1192543" data-name="Trazado 1192543" d="M382.472,360.411h-6a1,1,0,0,1,0-2h6a1,1,0,1,1,0,2Zm0,0" transform="translate(-331.468 -316.41)"/>
      <path id="Trazado_1192544" data-name="Trazado 1192544" d="M319.738,360.411h-3a1,1,0,0,1,0-2h3a1,1,0,0,1,0,2Zm0,0" transform="translate(-278.734 -316.41)"/>
      <path id="Trazado_1192545" data-name="Trazado 1192545" d="M412.605,394.543h-2a1,1,0,0,1,0-2h2a1,1,0,1,1,0,2Zm0,0" transform="translate(-361.601 -346.542)"/>
      <path id="Trazado_1192546" data-name="Trazado 1192546" d="M301.137,394.543h-10a1,1,0,1,1,0-2h10a1,1,0,1,1,0,2Zm0,0" transform="translate(-256.133 -346.542)"/>
    </g>
  </g>
</svg>
