<svg xmlns="http://www.w3.org/2000/svg" xmlns:xlink="http://www.w3.org/1999/xlink" width="103" height="103" viewBox="0 0 103 103">
  <defs>
    <filter id="Trazado_982547" x="0" y="0" width="103" height="103" filterUnits="userSpaceOnUse">
      <feOffset dy="3" input="SourceAlpha"/>
      <feGaussianBlur stdDeviation="3" result="blur"/>
      <feFlood flood-opacity="0.161"/>
      <feComposite operator="in" in2="blur"/>
      <feComposite in="SourceGraphic"/>
    </filter>
  </defs>
  <g id="Grupo_1231514" data-name="Grupo 1231514" transform="translate(-171 -1964)">
    <g id="Grupo_1231155" data-name="Grupo 1231155" transform="translate(0 105.208)">
      <g id="Grupo_1230141" data-name="Grupo 1230141" transform="translate(0 -1896.173)">
        <g id="Grupo_1227863" data-name="Grupo 1227863" transform="translate(-26.01 -717.035)">
          <g id="Grupo_1203964" data-name="Grupo 1203964" transform="translate(206.01 4478)">
            <g id="Grupo_1203625" data-name="Grupo 1203625" transform="translate(0)">
              <g id="Grupo_1178314" data-name="Grupo 1178314" transform="translate(0 0)">
                <g id="Grupo_1173988" data-name="Grupo 1173988">
                  <g id="Grupo_1172010" data-name="Grupo 1172010">
                    <g id="Grupo_1171046" data-name="Grupo 1171046">
                      <g id="Grupo_1148525" data-name="Grupo 1148525">
                        <g transform="matrix(1, 0, 0, 1, -9, -6)" filter="url(#Trazado_982547)">
                          <g id="Trazado_982547-2" data-name="Trazado 982547" transform="translate(9 6)" fill="#f6f6fd">
                            <path d="M 42.5 83.5 C 36.96437835693359 83.5 31.59512901306152 82.41617584228516 26.54141235351562 80.27863311767578 C 21.65934181213379 78.21369171142578 17.27447128295898 75.25723266601562 13.50862312316895 71.49137878417969 C 9.742764472961426 67.72553253173828 6.786305904388428 63.34066009521484 4.721364498138428 58.45858764648438 C 2.583823442459106 53.40486907958984 1.5 48.03562164306641 1.5 42.5 C 1.5 36.96437835693359 2.583823442459106 31.59512901306152 4.721364498138428 26.54141235351562 C 6.786305904388428 21.65934181213379 9.742764472961426 17.27448272705078 13.50862312316895 13.50862312316895 C 17.27447128295898 9.742776870727539 21.65934181213379 6.786305904388428 26.54141235351562 4.721364498138428 C 31.59512901306152 2.583823442459106 36.96437835693359 1.5 42.5 1.5 C 48.03562164306641 1.5 53.40486907958984 2.583823442459106 58.45858764648438 4.721364498138428 C 63.34066009521484 6.786305904388428 67.72553253173828 9.742776870727539 71.49137878417969 13.50862312316895 C 75.25723266601562 17.27448272705078 78.21369171142578 21.65934181213379 80.27863311767578 26.54141235351562 C 82.41617584228516 31.59512901306152 83.5 36.96437835693359 83.5 42.5 C 83.5 48.03562164306641 82.41617584228516 53.40486907958984 80.27863311767578 58.45858764648438 C 78.21369171142578 63.34066009521484 75.25723266601562 67.72553253173828 71.49137878417969 71.49137878417969 C 67.72553253173828 75.25723266601562 63.34066009521484 78.21369171142578 58.45858764648438 80.27863311767578 C 53.40486907958984 82.41617584228516 48.03562164306641 83.5 42.5 83.5 Z" stroke="none"/>
                            <path d="M 42.5 3 C 37.16621398925781 3 31.99356079101562 4.043960571289062 27.125732421875 6.102882385253906 C 22.42246627807617 8.092185974121094 18.19785308837891 10.94070434570312 14.56928253173828 14.56928253173828 C 10.94070434570312 18.19785308837891 8.092185974121094 22.42246627807617 6.102882385253906 27.125732421875 C 4.043960571289062 31.99356079101562 3 37.16621398925781 3 42.5 C 3 47.83378601074219 4.043960571289062 53.00643920898438 6.102882385253906 57.87425231933594 C 8.092185974121094 62.57753372192383 10.94070434570312 66.80213165283203 14.56928253173828 70.43071746826172 C 18.19786834716797 74.05929565429688 22.42246627807617 76.90781402587891 27.125732421875 78.89711761474609 C 31.99356079101562 80.95603942871094 37.16621398925781 82 42.5 82 C 47.83378601074219 82 53.00642395019531 80.95603942871094 57.87425231933594 78.89711761474609 C 62.57753372192383 76.90781402587891 66.80213165283203 74.05929565429688 70.43071746826172 70.43071746826172 C 74.05929565429688 66.80213165283203 76.90781402587891 62.57753372192383 78.89711761474609 57.87425231933594 C 80.95603942871094 53.00642395019531 82 47.83378601074219 82 42.5 C 82 37.16621398925781 80.95603942871094 31.99356079101562 78.89711761474609 27.125732421875 C 76.90781402587891 22.42246627807617 74.05929565429688 18.19786834716797 70.43071746826172 14.56928253173828 C 66.80213165283203 10.94070434570312 62.57753372192383 8.092185974121094 57.87425231933594 6.102882385253906 C 53.00643920898438 4.043960571289062 47.83378601074219 3 42.5 3 M 42.5 0 C 65.97209167480469 0 85 19.02789306640625 85 42.5 C 85 65.97209167480469 65.97209167480469 85 42.5 85 C 19.02789306640625 85 0 65.97209167480469 0 42.5 C 0 19.02789306640625 19.02789306640625 0 42.5 0 Z" stroke="none" fill="#b1aef1"/>
                          </g>
                        </g>
                      </g>
                    </g>
                  </g>
                </g>
              </g>
            </g>
          </g>
        </g>
      </g>
    </g>
    <g id="emocional" transform="translate(193.684 1964.057)">
      <g id="Grupo_1231512" data-name="Grupo 1231512" transform="translate(0.844 24.787)">
        <path id="Trazado_1192561" data-name="Trazado 1192561" d="M35,79.767a.845.845,0,0,0,.951,0c18.352-12.53,26.371-22.3,26.371-33.773,0-4.292-4.333-11.189-10.725-14A16.036,16.036,0,0,0,35.472,36.8c-2.933-3.29-20.072-3.706-22.939-1A15.97,15.97,0,0,0,7.5,47.457q0,.576.028,1.148S8.79,55.88,10.879,59.521C16.012,66.437,24.569,72.68,35,79.767Z" transform="translate(-7.5 -31.442)" fill="#efa5c4"/>
        <path id="Trazado_1192562" data-name="Trazado 1192562" d="M87.834,147.7c0,11.476-6.894,20.905-25.245,33.436a.846.846,0,0,1-.951,0c-10.427-7.087-18.8-13.217-24.117-19.121l4.805,6.551a70.954,70.954,0,0,0,7.368,7.06c3.664,2.623,7.066,4.454,11.471,7.443a1.691,1.691,0,0,0,1.9,0c9.835-6.674,15.844-11.382,21.058-17.187,4.1-5.374,5.965-10.543,5.965-15.932a16.138,16.138,0,0,0-.144-2.156C89.773,146.545,87.834,146.781,87.834,147.7Z" transform="translate(-34.142 -133.932)" fill="#e592b8"/>
        <path id="Trazado_1192563" data-name="Trazado 1192563" d="M164.993,358.59c2.155-1.462,6.53-4.791,6.53-4.791l-6.617-9.039h-7.879a11.543,11.543,0,0,0-3.577,4.135A87.669,87.669,0,0,0,164.993,358.59Z" transform="translate(-137.022 -309.491)" fill="#ffe07d"/>
        <path id="Trazado_1192564" data-name="Trazado 1192564" d="M156.775,325.9a11.439,11.439,0,0,0-6.656,2.123,13.641,13.641,0,0,0,5.542,1.679,13.82,13.82,0,0,0,6.664,7.608q-1.8,1.3-3.765,2.645a.846.846,0,0,1-.951,0c-4.012-2.727-7.72-5.312-11.068-7.8a11.414,11.414,0,0,0-.876,2.288,140.029,140.029,0,0,0,11.471,8.569,1.691,1.691,0,0,0,1.9,0q5.118-3.473,9.182-6.7A11.492,11.492,0,0,0,156.775,325.9Z" transform="translate(-130.113 -292.753)" fill="#ffd064"/>
        <path id="Trazado_1192565" data-name="Trazado 1192565" d="M306.714,55.29l7.032,2.4a12.761,12.761,0,0,0,8.481-9.675c-.445-4.006-2.645-6.547-5.506-9.407a15.938,15.938,0,0,0-4.945-2.294,11.492,11.492,0,0,0-11.091,10.513Z" transform="translate(-267.684 -35.762)" fill="#ffe07d"/>
        <path id="Trazado_1192566" data-name="Trazado 1192566" d="M316.4,56.689a15.1,15.1,0,0,1,4.561,9.231,11.509,11.509,0,0,1-7.648,8.726,13.652,13.652,0,0,0-6.342-2.161,13.818,13.818,0,0,0-6.606-7.577c-.027.321-.041.645-.041.972a11.492,11.492,0,0,0,22.838,1.826A16.009,16.009,0,0,0,316.4,56.689Z" transform="translate(-267.361 -53.847)" fill="#ffd064"/>
        <path id="Trazado_1192567" data-name="Trazado 1192567" d="M193.017,377.645c1.772-1.2,2.507-2.146,2.507-3.177a1.485,1.485,0,0,0-2.595-.988,1.485,1.485,0,0,0-2.595.988c0,1.03.735,1.974,2.507,3.177A.157.157,0,0,0,193.017,377.645Z" transform="translate(-169.754 -334.538)" fill="#e175a5"/>
        <path id="Trazado_1192568" data-name="Trazado 1192568" d="M15.921,166.27a14.108,14.108,0,0,0,8.38-3.037V150.852l-11.631-5.48a11.54,11.54,0,0,0-4.909,4.338,24.018,24.018,0,0,0,3.351,10.918C12.451,162.115,14.209,164.743,15.921,166.27Z" transform="translate(-7.732 -132.548)" fill="#d3effd"/>
        <path id="Trazado_1192569" data-name="Trazado 1192569" d="M43.925,135.9a11.448,11.448,0,0,0-4.839,1.067,13.755,13.755,0,0,0,8.716,5.99,13.718,13.718,0,0,0,1.113,11.309,11.438,11.438,0,0,1-6.8,2.474,59.22,59.22,0,0,1-4.583-4.517,39.548,39.548,0,0,0,4.8,6.55A11.492,11.492,0,1,0,43.925,135.9Z" transform="translate(-34.148 -124.139)" fill="#b2e5fb"/>
        <path id="Trazado_1192570" data-name="Trazado 1192570" d="M164.242,147.618a12.726,12.726,0,0,0-3.493-8.111,11.434,11.434,0,0,0-5.084-2.21s-12.441,7.186-12.618,7.179a11.5,11.5,0,0,0,1.593,11.14,12.263,12.263,0,0,0,8.111,3.493A11.492,11.492,0,0,0,164.242,147.618Z" transform="translate(-127.102 -125.382)" fill="#ecb880"/>
        <path id="Trazado_1192571" data-name="Trazado 1192571" d="M179.414,156.927a11.491,11.491,0,0,1-16.11,16.11,11.491,11.491,0,1,0,16.11-16.11Z" transform="translate(-145.766 -142.802)" fill="#e9a761"/>
        <path id="Trazado_1192572" data-name="Trazado 1192572" d="M149.155,143.233c.178.007.356.011.535.011a13.74,13.74,0,0,0,12.083-7.19,11.5,11.5,0,0,0-12.618,7.179Z" transform="translate(-133.21 -124.139)" fill="#e9a761"/>
        <path id="Trazado_1192573" data-name="Trazado 1192573" d="M202.307,207.157l-7.965,5.459a2.251,2.251,0,0,0,2.545,3.714l7.965-5.459a2.251,2.251,0,0,0-2.545-3.714Z" transform="translate(-172.442 -187.028)" fill="#f5fcff"/>
        <path id="Trazado_1192574" data-name="Trazado 1192574" d="M72.662,34.805a16.011,16.011,0,0,0-20.8,1c-.029.331-.044.665-.044,1a11.44,11.44,0,0,0,2.367,6.985c1.737,2.194,5.483,3.493,8.111,3.493C68.6,47.284,74.445,42.146,72.662,34.805Z" transform="translate(-46.83 -31.443)" fill="#fff0af"/>
        <path id="Trazado_1192575" data-name="Trazado 1192575" d="M91.325,61.315A11.49,11.49,0,0,1,72.85,70.3a11.491,11.491,0,0,0,20.616-6.985A16.1,16.1,0,0,0,91.325,61.315Z" transform="translate(-65.494 -57.952)" fill="#ffe07d"/>
        <path id="Trazado_1192576" data-name="Trazado 1192576" d="M103.056,94.084c-2.084,8.16-12.691,8.16-14.775,0Z" transform="translate(-79.188 -87.033)" fill="#f5fcff"/>
        <path id="Trazado_1192577" data-name="Trazado 1192577" d="M269.018,226.756a13,13,0,0,0-3.155-7.773,11.491,11.491,0,0,0-16.11,16.11,11.215,11.215,0,0,0,7.453,3.151A47.649,47.649,0,0,0,269.018,226.756Z" transform="translate(-220.384 -195.772)" fill="#e592b8"/>
        <path id="Trazado_1192578" data-name="Trazado 1192578" d="M289.025,246.382a11.472,11.472,0,0,0-4.5-8.736,11.435,11.435,0,0,1,2.351,6.359l-.359,1.142a64.633,64.633,0,0,1-10.927,10.57,1.707,1.707,0,0,1-1.21.36,11.432,11.432,0,0,1-5.964-2.322,11.474,11.474,0,0,0,8.424,4.485,68.732,68.732,0,0,0,12.185-11.858Z" transform="translate(-239.047 -214.435)" fill="#e175a5"/>
      </g>
      <g id="Grupo_1231513" data-name="Grupo 1231513" transform="translate(0 23.943)">
        <path id="Trazado_1192579" data-name="Trazado 1192579" d="M55.815,33.182a.844.844,0,0,0-1.506.764,14.958,14.958,0,0,1,1.48,4.682,10.7,10.7,0,0,1-8.918,8.721,12.348,12.348,0,0,0-12.015-1.72,3.084,3.084,0,0,0-2.307-1.9,3.072,3.072,0,0,0-2.318.49l-7.965,5.459a3.1,3.1,0,0,0,3.5,5.107l1.753-1.2A12.294,12.294,0,0,0,27,57.122a12.42,12.42,0,0,0,.1,1.553,10.649,10.649,0,0,1-8.65-16.241A12.337,12.337,0,0,0,27.3,37.393c.068,0,.135,0,.2,0a10.648,10.648,0,0,1,9.582,6,.844.844,0,0,0,1.518-.738,12.361,12.361,0,0,0-3.888-4.62,10.812,10.812,0,0,1-.069-1.209,10.647,10.647,0,0,1,10.19-10.637,15.13,15.13,0,0,1,7.7,5.047.844.844,0,1,0,1.309-1.066,16.857,16.857,0,0,0-25.037-1.245,16.881,16.881,0,0,0-16.94-4.227.844.844,0,1,0,.5,1.613,15.19,15.19,0,0,1,15.591,4.167A10.647,10.647,0,0,1,6.677,30.15c0-.2.008-.406.019-.609a15.162,15.162,0,0,1,2.751-1.98.844.844,0,1,0-.826-1.473A16.891,16.891,0,0,0,0,40.8,23.487,23.487,0,0,0,.851,47.07a.844.844,0,0,0,1.627-.451,21.446,21.446,0,0,1-.747-4.439A10.592,10.592,0,0,1,7.66,37.807,12.326,12.326,0,0,0,16.5,42.458a12.269,12.269,0,0,0-1.318,5.019.863.863,0,0,0-.158-.007,2.278,2.278,0,0,1-1.92-1.065.844.844,0,0,0-1.442.879,4,4,0,0,0,3.279,1.877,2.5,2.5,0,0,0,.277-.015,12.251,12.251,0,0,0,.468,2.431c-3.328-1.218-8.021-.989-10.835.687a26.924,26.924,0,0,1-1.331-2.678.844.844,0,0,0-1.553.664,39.726,39.726,0,0,0,8.826,12.265,114.469,114.469,0,0,0,16.6,13.231,2.521,2.521,0,0,0,2.846,0C39.922,69.174,46.747,63.288,51.1,57.751,55.5,52.166,57.632,46.622,57.632,40.8a16.679,16.679,0,0,0-1.816-7.619ZM40.051,25.649A12.36,12.36,0,0,0,32.96,36.82c0,.05,0,.1,0,.151a12.292,12.292,0,0,0-4.638-1.243,12.251,12.251,0,0,0,1.331-5.245A15.192,15.192,0,0,1,40.051,25.649ZM1.75,39.461a15.194,15.194,0,0,1,3.292-8.166,12.248,12.248,0,0,0,1.621,5.054A12.232,12.232,0,0,0,1.75,39.461Zm52.085,6.262A12.411,12.411,0,0,0,55.8,43.3a25.054,25.054,0,0,1-4.406,11.194,12.276,12.276,0,0,0-2.981-5.735A12.227,12.227,0,0,0,53.835,45.723Zm-29.022,7.67a1.407,1.407,0,1,1-1.591-2.321l7.965-5.459a1.4,1.4,0,0,1,2.137.743,12.428,12.428,0,0,0-4.462,4.262Zm-8.106.6a12.38,12.38,0,0,0,1.213,1.8,10.549,10.549,0,0,1-7.3,2.894,10.813,10.813,0,0,1-1.159-.064,40.649,40.649,0,0,1-3.739-4.914c2.858-1.709,8.427-1.613,10.983.286Zm-5.641,6.372a12.209,12.209,0,0,0,8-3.337,12.4,12.4,0,0,0,2.289,1.7,12.423,12.423,0,0,0-5.372,6.281Q13.245,62.637,11.065,60.363ZM29.291,74.348a.852.852,0,0,1-.949,0c-4.193-2.845-7.84-5.557-10.978-8.17a10.705,10.705,0,0,1,5.944-6.542,12.276,12.276,0,0,0,4.129.735,12.35,12.35,0,0,0,9.113,8.769q-3.313,2.53-7.258,5.207Zm16.218-12.9a8.6,8.6,0,0,0-12.8.532.844.844,0,0,0,1.324,1.048,6.911,6.911,0,0,1,10.261-.4q-2.63,2.483-5.923,5.1a10.646,10.646,0,1,1,11.6-11.26c-.063.081-.125.162-.189.244A52.089,52.089,0,0,1,45.508,61.449Z" transform="translate(0 -23.943)"/>
        <path id="Trazado_1192580" data-name="Trazado 1192580" d="M187.38,365.483a2.331,2.331,0,0,0-1.109.281,2.329,2.329,0,0,0-3.439,2.048c0,1.694,1.454,2.91,2.876,3.875a1,1,0,0,0,1.125,0c1.422-.965,2.877-2.181,2.877-3.875A2.332,2.332,0,0,0,187.38,365.483Zm-1.109,4.537c-1.541-1.117-1.75-1.763-1.75-2.207a.642.642,0,0,1,.641-.641.634.634,0,0,1,.479.215.844.844,0,0,0,1.26,0,.634.634,0,0,1,.479-.215.642.642,0,0,1,.641.641C188.021,368.257,187.812,368.9,186.271,370.02Z" transform="translate(-162.252 -327.039)"/>
        <path id="Trazado_1192581" data-name="Trazado 1192581" d="M339.773,144.9a.844.844,0,0,0-1.621.474,7.28,7.28,0,0,0,7.2,5.229h0a7.28,7.28,0,0,0,7.2-5.229.844.844,0,0,0-1.621-.474,5.888,5.888,0,0,1-11.164,0Z" transform="translate(-300.059 -130.744)"/>
        <path id="Trazado_1192582" data-name="Trazado 1192582" d="M80.958,86.91a.844.844,0,0,0-.151.727,8.361,8.361,0,0,0,16.41,0,.844.844,0,0,0-.818-1.053H81.625A.844.844,0,0,0,80.958,86.91ZM95.24,88.272a6.593,6.593,0,0,1-12.457,0Z" transform="translate(-71.688 -79.533)"/>
        <path id="Trazado_1192583" data-name="Trazado 1192583" d="M372.048,98.952V96.107a.844.844,0,1,0-1.688,0v2.845a.844.844,0,0,0,1.688,0Z" transform="translate(-328.672 -87.235)"/>
        <path id="Trazado_1192584" data-name="Trazado 1192584" d="M421.147,98.952V96.107a.844.844,0,1,0-1.688,0v2.845a.844.844,0,1,0,1.688,0Z" transform="translate(-372.244 -87.235)"/>
        <path id="Trazado_1192585" data-name="Trazado 1192585" d="M304.217,266.248a2.777,2.777,0,0,1-2.334-1.291.844.844,0,1,0-1.442.879,4.488,4.488,0,0,0,1.8,1.636v2.016a.844.844,0,0,0,1.688,0v-1.554c.061,0,.121.007.182.007s.133,0,.2-.006a.844.844,0,0,0-.1-1.686Z" transform="translate(-266.513 -237.469)"/>
        <path id="Trazado_1192586" data-name="Trazado 1192586" d="M360.454,264.677a.844.844,0,0,0-1.16.281,2.778,2.778,0,0,1-2.334,1.291.844.844,0,1,0-.1,1.686q.1.006.2.006c.06,0,.121,0,.182-.007v1.554a.844.844,0,0,0,1.688,0v-2.015a4.489,4.489,0,0,0,1.8-1.636A.844.844,0,0,0,360.454,264.677Z" transform="translate(-315.987 -237.47)"/>
        <path id="Trazado_1192587" data-name="Trazado 1192587" d="M48.278,223.056a4,4,0,0,0,3.279-1.877.844.844,0,0,0-1.442-.879,2.278,2.278,0,0,1-1.92,1.065.844.844,0,0,0-.1,1.686Q48.189,223.056,48.278,223.056Z" transform="translate(-41.979 -197.839)"/>
        <path id="Trazado_1192588" data-name="Trazado 1192588" d="M229.524,164.106a.844.844,0,0,0-1.15.323l-1.546,2.752a.844.844,0,0,0,1,1.215l3.061-1.007a.844.844,0,1,0-.527-1.6l-1,.328.482-.858A.844.844,0,0,0,229.524,164.106Z" transform="translate(-201.2 -148.233)"/>
        <path id="Trazado_1192589" data-name="Trazado 1192589" d="M174.945,209.851a.844.844,0,0,0,1.188-.118l2.043-2.492a.844.844,0,0,0-.773-1.371l-3.124.449a.844.844,0,1,0,.24,1.671l.974-.14-.666.812a.844.844,0,0,0,.118,1.188Z" transform="translate(-154.019 -185.385)"/>
      </g>
    </g>
  </g>
</svg>
