<svg xmlns="http://www.w3.org/2000/svg" xmlns:xlink="http://www.w3.org/1999/xlink" width="113" height="113" viewBox="0 0 113 113">
  <defs>
    <filter id="Trazado_982547" x="0" y="0" width="113" height="113" filterUnits="userSpaceOnUse">
      <feOffset dy="3" input="SourceAlpha"/>
      <feGaussianBlur stdDeviation="3" result="blur"/>
      <feFlood flood-opacity="0.161"/>
      <feComposite operator="in" in2="blur"/>
      <feComposite in="SourceGraphic"/>
    </filter>
  </defs>
  <g id="Grupo_1231511" data-name="Grupo 1231511" transform="translate(-1217.006 -819.271)">
    <g id="Grupo_1228256" data-name="Grupo 1228256" transform="translate(0.446 -1115)">
      <g id="Grupo_1227862" data-name="Grupo 1227862" transform="translate(0 -1625.728)">
        <g id="Grupo_1203995" data-name="Grupo 1203995" transform="translate(0 1619.125)">
          <g id="Grupo_1203500" data-name="Grupo 1203500" transform="translate(0 -197.72)">
            <g id="Grupo_1202592" data-name="Grupo 1202592" transform="translate(1225.561 2144.596)">
              <g id="Grupo_1172010" data-name="Grupo 1172010" transform="translate(0)">
                <g id="Grupo_1171046" data-name="Grupo 1171046">
                  <g id="Grupo_1148525" data-name="Grupo 1148525">
                    <g transform="matrix(1, 0, 0, 1, -9, -6)" filter="url(#Trazado_982547)">
                      <g id="Trazado_982547-2" data-name="Trazado 982547" transform="translate(9 6)" fill="#ffe6ef">
                        <path d="M 47.5 93.5 C 41.28937149047852 93.5 35.26533508300781 92.28397369384766 29.59518623352051 89.88570404052734 C 24.11771965026855 87.56893157958984 19.19813346862793 84.25196075439453 14.97309303283691 80.02691650390625 C 10.74804019927979 75.80186462402344 7.431066513061523 70.88229370117188 5.114293098449707 65.40481567382812 C 2.716026782989502 59.73468017578125 1.5 53.71062850952148 1.5 47.5 C 1.5 41.28937149047852 2.716026782989502 35.26533508300781 5.114293098449707 29.59518623352051 C 7.431066513061523 24.11771965026855 10.74804019927979 19.19813346862793 14.97309303283691 14.97309303283691 C 19.19813346862793 10.74804019927979 24.11771965026855 7.431066513061523 29.59518623352051 5.114293098449707 C 35.26533508300781 2.716026782989502 41.28937149047852 1.5 47.5 1.5 C 53.71062850952148 1.5 59.73468017578125 2.716026782989502 65.40481567382812 5.114293098449707 C 70.88229370117188 7.431066513061523 75.80186462402344 10.74804019927979 80.02691650390625 14.97309303283691 C 84.25196075439453 19.19813346862793 87.56893157958984 24.11771965026855 89.88570404052734 29.59518623352051 C 92.28397369384766 35.26533508300781 93.5 41.28937149047852 93.5 47.5 C 93.5 53.71062850952148 92.28397369384766 59.73468017578125 89.88570404052734 65.40481567382812 C 87.56893157958984 70.88229370117188 84.25196075439453 75.80186462402344 80.02691650390625 80.02691650390625 C 75.80186462402344 84.25196075439453 70.88229370117188 87.56893157958984 65.40481567382812 89.88570404052734 C 59.73468017578125 92.28397369384766 53.71062850952148 93.5 47.5 93.5 Z" stroke="none"/>
                        <path d="M 47.5 3 C 41.49121475219727 3 35.66376876831055 4.176155090332031 30.17950439453125 6.495796203613281 C 24.88084411621094 8.736953735351562 20.12152099609375 11.94598388671875 16.03375244140625 16.03375244140625 C 11.94598388671875 20.12152099609375 8.736953735351562 24.88084411621094 6.495796203613281 30.17950439453125 C 4.176155090332031 35.66376876831055 3 41.49121475219727 3 47.5 C 3 53.50878524780273 4.176155090332031 59.33623123168945 6.495796203613281 64.82049560546875 C 8.736953735351562 70.11915588378906 11.94598388671875 74.87847900390625 16.03375244140625 78.96624755859375 C 20.12152099609375 83.05401611328125 24.88084411621094 86.26304626464844 30.17950439453125 88.50419616699219 C 35.66376876831055 90.82384490966797 41.49121475219727 92 47.5 92 C 53.50878524780273 92 59.33623123168945 90.82384490966797 64.82049560546875 88.50419616699219 C 70.11915588378906 86.26304626464844 74.87847900390625 83.05401611328125 78.96624755859375 78.96624755859375 C 83.05401611328125 74.87847900390625 86.26304626464844 70.11915588378906 88.50419616699219 64.82049560546875 C 90.82384490966797 59.33623123168945 92 53.50878524780273 92 47.5 C 92 41.49121475219727 90.82384490966797 35.66376876831055 88.50419616699219 30.17950439453125 C 86.26304626464844 24.88084411621094 83.05401611328125 20.12152099609375 78.96624755859375 16.03375244140625 C 74.87847900390625 11.94598388671875 70.11915588378906 8.736953735351562 64.82049560546875 6.495796203613281 C 59.33623123168945 4.176155090332031 53.50878524780273 3 47.5 3 M 47.5 0 C 73.7335205078125 0 95 21.2664794921875 95 47.5 C 95 73.7335205078125 73.7335205078125 95 47.5 95 C 21.2664794921875 95 0 73.7335205078125 0 47.5 C 0 21.2664794921875 21.2664794921875 0 47.5 0 Z" stroke="none" fill="#8b5e6f"/>
                      </g>
                    </g>
                  </g>
                </g>
              </g>
            </g>
          </g>
        </g>
      </g>
    </g>
    <g id="libro_4_" data-name="libro (4)" transform="translate(1245.213 822.134)">
      <g id="Grupo_1231509" data-name="Grupo 1231509" transform="translate(1.203 23.828)">
        <path id="Trazado_1192547" data-name="Trazado 1192547" d="M41.845,85.958h-30.4c-1.433.523-1.423,2.61-1.423,4.15v37.2a3.631,3.631,0,0,0,3.919,3.642l23.195-.013a2.418,2.418,0,0,0,4.823,0Z" transform="translate(-10.02 -79.559)" fill="#d1aee4"/>
        <path id="Trazado_1192548" data-name="Trazado 1192548" d="M53.348,55.275a1.815,1.815,0,0,0-1.667,1.809v39.58a1.815,1.815,0,0,0,1.964,1.809l22.678-.1.4-43.1H53.348Z" transform="translate(-46.68 -52.559)" fill="#fffbdf"/>
        <path id="Trazado_1192549" data-name="Trazado 1192549" d="M284.288,55.551c2.918-5.427-1.71-7.7-1.71-7.7a5.347,5.347,0,0,0-3.237-5.669c0-8.17-7.3-5.914-7.3-5.914-2.084-4.264-7.218-3.321-7.218-3.321-.3-.3-1.348-.3-1.348-.3a6.656,6.656,0,0,0-6.5,6.806V76.49c0,3.759,1.045,8.708,6.5,8.708,3.85-.21,5.1-3.043,5.71-4.114,8.683,3.063,8.636-5.844,8.636-5.844,8.767-1.516,4.876-9.965,4.876-9.965C289.659,62.084,284.288,55.551,284.288,55.551Z" transform="translate(-227.337 -32.644)" fill="#ff9eb1"/>
      </g>
      <g id="Grupo_1231510" data-name="Grupo 1231510" transform="translate(0 22.626)">
        <circle id="Elipse_12938" data-name="Elipse 12938" cx="1.207" cy="1.207" r="1.207" transform="translate(29.638 24.859)"/>
        <path id="Trazado_1192550" data-name="Trazado 1192550" d="M61.455,51.141a6.848,6.848,0,0,0-1.714-4.535,6.033,6.033,0,0,0-1.991-8.245c.009-.131.014-.263.014-.395a6.007,6.007,0,0,0-3.242-5.349c.008-.132.013-.265.013-.4A6.444,6.444,0,0,0,46.5,25.974a6.716,6.716,0,0,0-7.4-2.98,3.9,3.9,0,0,0-1.8-.367,7.52,7.52,0,0,0-5.753,2.716H7.844q-.049,0-.1,0a3.026,3.026,0,0,0-2.766,3v1.472H3.367A3.371,3.371,0,0,0,0,33.186v38.73a4.937,4.937,0,0,0,5.169,4.8H27.525a3.623,3.623,0,0,0,6.385.038,7.371,7.371,0,0,0,3.393.827,7.61,7.61,0,0,0,6.586-3.907,6.877,6.877,0,0,0,9.035-6.125,7.144,7.144,0,0,0,5.21-10.527,6.879,6.879,0,0,0,3.322-5.885ZM31.885,75.407a1.218,1.218,0,0,1-2.314,0,1.706,1.706,0,0,0-1.254-1.092H5.122a2.569,2.569,0,0,1-2.716-2.4V33.186a.963.963,0,0,1,.962-.962H4.981V67.941a3.208,3.208,0,0,0,3.2,3H29.751A8.064,8.064,0,0,0,31.93,75.29a1.231,1.231,0,0,0-.045.118ZM54.578,55.613a1.2,1.2,0,1,0,0,2.405,6.876,6.876,0,0,0,1.275-.12,4.739,4.739,0,0,1-3.211,7.265,6.891,6.891,0,0,0-6.583-4.889,1.484,1.484,0,0,0-.165.008,1.2,1.2,0,0,0,.184,2.4,4.477,4.477,0,0,1,4.417,3.9,4.408,4.408,0,0,1,.037.572,4.474,4.474,0,0,1-5.772,4.28,8.263,8.263,0,0,0,.2-1.815,1.2,1.2,0,0,0-2.405,0,5.263,5.263,0,1,1-10.508,0V54.135a1.2,1.2,0,0,0-2.405,0V68.54H8.139c-.351,0-.753-.164-.753-.6V28.347a.608.608,0,0,1,.52-.6H30.15a8.209,8.209,0,0,0-.507,2.846V43.3a1.2,1.2,0,1,0,2.405,0v-12.7a5.557,5.557,0,0,1,3.543-5.259A1.2,1.2,0,0,0,37.6,26.579a4.321,4.321,0,1,1,5.172,6.762,1.2,1.2,0,1,0,1.112,2.133,6.738,6.738,0,0,0,3.5-7.232,4.04,4.04,0,0,1,4.747,3.977,4.039,4.039,0,0,1-2.446,3.714,1.2,1.2,0,1,0,.95,2.21,6.467,6.467,0,0,0,3.249-3.1,3.613,3.613,0,0,1,1.476,2.922,3.684,3.684,0,0,1-.089.806,1.216,1.216,0,0,0,.708,1.372,3.629,3.629,0,0,1,1.856,4.94,6.834,6.834,0,0,0-3.256-.821,1.2,1.2,0,1,0,0,2.405,4.472,4.472,0,1,1,0,8.944Z" transform="translate(0 -22.626)"/>
        <path id="Trazado_1192551" data-name="Trazado 1192551" d="M297.589,113.364a1.2,1.2,0,0,0,1.269-2.043,3.105,3.105,0,0,1-1-4.271,1.2,1.2,0,1,0-2.043-1.269A5.513,5.513,0,0,0,297.589,113.364Z" transform="translate(-259.581 -95.3)"/>
        <path id="Trazado_1192552" data-name="Trazado 1192552" d="M295.308,322.531a2.244,2.244,0,0,1-3.113-.594,1.2,1.2,0,0,0-1.989,1.352,4.65,4.65,0,0,0,6.454,1.23,1.2,1.2,0,1,0-1.352-1.989Z" transform="translate(-255.189 -285.548)"/>
        <path id="Trazado_1192553" data-name="Trazado 1192553" d="M309.437,226.842c.789,1.468,2.819.166,2.119-1.138a2.244,2.244,0,0,1,.914-3.035,1.2,1.2,0,1,0-1.138-2.119,4.652,4.652,0,0,0-1.894,6.292Z" transform="translate(-271.809 -196.667)"/>
        <path id="Trazado_1192554" data-name="Trazado 1192554" d="M389.453,245.711a2.241,2.241,0,0,1-1.493-2.8,1.2,1.2,0,0,0-2.3-.7,4.646,4.646,0,0,0,3.1,5.8A1.2,1.2,0,0,0,389.453,245.711Z" transform="translate(-339.19 -215.109)"/>
        <path id="Trazado_1192555" data-name="Trazado 1192555" d="M376.091,159.343a1.2,1.2,0,0,0,.349-2.354,2.244,2.244,0,0,1-1.494-2.8,1.2,1.2,0,0,0-2.3-.7,4.651,4.651,0,0,0,3.1,5.8A1.2,1.2,0,0,0,376.091,159.343Z" transform="translate(-327.739 -137.035)"/>
        <path id="Trazado_1192556" data-name="Trazado 1192556" d="M102.008,123.336H88.184a1.2,1.2,0,1,0,0,2.405h13.825a1.2,1.2,0,1,0,0-2.405Z" transform="translate(-76.541 -111.248)"/>
        <path id="Trazado_1192557" data-name="Trazado 1192557" d="M102.008,169.187H88.184a1.2,1.2,0,1,0,0,2.405h13.825a1.2,1.2,0,1,0,0-2.405Z" transform="translate(-76.541 -151.595)"/>
        <path id="Trazado_1192558" data-name="Trazado 1192558" d="M102.008,215.038H88.184a1.2,1.2,0,1,0,0,2.405h13.825a1.2,1.2,0,1,0,0-2.405Z" transform="translate(-76.541 -191.943)"/>
        <path id="Trazado_1192559" data-name="Trazado 1192559" d="M102.008,260.889H88.184a1.2,1.2,0,1,0,0,2.405h13.825a1.2,1.2,0,1,0,0-2.405Z" transform="translate(-76.541 -232.29)"/>
        <path id="Trazado_1192560" data-name="Trazado 1192560" d="M102.008,306.741H88.184a1.2,1.2,0,1,0,0,2.405h13.825a1.2,1.2,0,1,0,0-2.405Z" transform="translate(-76.541 -272.639)"/>
      </g>
    </g>
  </g>
</svg>
