<svg xmlns="http://www.w3.org/2000/svg" xmlns:xlink="http://www.w3.org/1999/xlink" width="113" height="113" viewBox="0 0 113 113">
  <defs>
    <filter id="Trazado_982547" x="0" y="-0.001" width="113" height="113" filterUnits="userSpaceOnUse">
      <feOffset dy="3" input="SourceAlpha"/>
      <feGaussianBlur stdDeviation="3" result="blur"/>
      <feFlood flood-opacity="0.161"/>
      <feComposite operator="in" in2="blur"/>
      <feComposite in="SourceGraphic"/>
    </filter>
  </defs>
  <g id="Grupo_1231553" data-name="Grupo 1231553" transform="translate(-1163.555 -3179.119)">
    <g id="Grupo_1231412" data-name="Grupo 1231412" transform="translate(0.305 1208.387)">
      <g id="Grupo_1230182" data-name="Grupo 1230182" transform="translate(0 -12711.902)">
        <g id="Grupo_1224275" data-name="Grupo 1224275" transform="translate(0.25 13230)">
          <g id="Grupo_1224268" data-name="Grupo 1224268">
            <g id="Grupo_1223779" data-name="Grupo 1223779" transform="translate(0 -4451.031)">
              <g id="Grupo_1206283" data-name="Grupo 1206283" transform="translate(0 -3448.335)">
                <g id="Grupo_1203804" data-name="Grupo 1203804" transform="translate(-1 6552)">
                  <g id="Grupo_1202426" data-name="Grupo 1202426" transform="translate(0.5 1464)">
                    <g id="Grupo_1178323" data-name="Grupo 1178323" transform="translate(0 424)">
                      <g id="Grupo_1177681" data-name="Grupo 1177681" transform="translate(1172.5 918)">
                        <g id="Grupo_1172010" data-name="Grupo 1172010">
                          <g id="Grupo_1171046" data-name="Grupo 1171046">
                            <g id="Grupo_1148525" data-name="Grupo 1148525">
                              <g transform="matrix(1, 0, 0, 1, -9, -6)" filter="url(#Trazado_982547)">
                                <g id="Trazado_982547-2" data-name="Trazado 982547" transform="translate(9 6)" fill="#ffe6ef">
                                  <path d="M 47.5 93.5 C 41.28937149047852 93.5 35.26533508300781 92.28397369384766 29.59518623352051 89.88570404052734 C 24.11771965026855 87.56893157958984 19.19813346862793 84.25196075439453 14.97309303283691 80.02691650390625 C 10.74804019927979 75.80186462402344 7.431066513061523 70.88229370117188 5.114293098449707 65.40481567382812 C 2.716026782989502 59.73468017578125 1.5 53.71062850952148 1.5 47.5 C 1.5 41.28937149047852 2.716026782989502 35.26533508300781 5.114293098449707 29.59518623352051 C 7.431066513061523 24.11771965026855 10.74804019927979 19.19813346862793 14.97309303283691 14.97309303283691 C 19.19813346862793 10.74804019927979 24.11771965026855 7.431066513061523 29.59518623352051 5.114293098449707 C 35.26533508300781 2.716026782989502 41.28937149047852 1.5 47.5 1.5 C 53.71062850952148 1.5 59.73468017578125 2.716026782989502 65.40481567382812 5.114293098449707 C 70.88229370117188 7.431066513061523 75.80186462402344 10.74804019927979 80.02691650390625 14.97309303283691 C 84.25196075439453 19.19813346862793 87.56893157958984 24.11771965026855 89.88570404052734 29.59518623352051 C 92.28397369384766 35.26533508300781 93.5 41.28937149047852 93.5 47.5 C 93.5 53.71062850952148 92.28397369384766 59.73468017578125 89.88570404052734 65.40481567382812 C 87.56893157958984 70.88229370117188 84.25196075439453 75.80186462402344 80.02691650390625 80.02691650390625 C 75.80186462402344 84.25196075439453 70.88229370117188 87.56893157958984 65.40481567382812 89.88570404052734 C 59.73468017578125 92.28397369384766 53.71062850952148 93.5 47.5 93.5 Z" stroke="none"/>
                                  <path d="M 47.5 3 C 41.49121475219727 3 35.66376876831055 4.176155090332031 30.17950439453125 6.495796203613281 C 24.88084411621094 8.736953735351562 20.12152099609375 11.94598388671875 16.03375244140625 16.03375244140625 C 11.94598388671875 20.12152099609375 8.736953735351562 24.88084411621094 6.495796203613281 30.17950439453125 C 4.176155090332031 35.66376876831055 3 41.49121475219727 3 47.5 C 3 53.50878524780273 4.176155090332031 59.33623123168945 6.495796203613281 64.82049560546875 C 8.736953735351562 70.11915588378906 11.94598388671875 74.87847900390625 16.03375244140625 78.96624755859375 C 20.12152099609375 83.05401611328125 24.88084411621094 86.26304626464844 30.17950439453125 88.50419616699219 C 35.66376876831055 90.82384490966797 41.49121475219727 92 47.5 92 C 53.50878524780273 92 59.33623123168945 90.82384490966797 64.82049560546875 88.50419616699219 C 70.11915588378906 86.26304626464844 74.87847900390625 83.05401611328125 78.96624755859375 78.96624755859375 C 83.05401611328125 74.87847900390625 86.26304626464844 70.11915588378906 88.50419616699219 64.82049560546875 C 90.82384490966797 59.33623123168945 92 53.50878524780273 92 47.5 C 92 41.49121475219727 90.82384490966797 35.66376876831055 88.50419616699219 30.17950439453125 C 86.26304626464844 24.88084411621094 83.05401611328125 20.12152099609375 78.96624755859375 16.03375244140625 C 74.87847900390625 11.94598388671875 70.11915588378906 8.736953735351562 64.82049560546875 6.495796203613281 C 59.33623123168945 4.176155090332031 53.50878524780273 3 47.5 3 M 47.5 0 C 73.7335205078125 0 95 21.2664794921875 95 47.5 C 95 73.7335205078125 73.7335205078125 95 47.5 95 C 21.2664794921875 95 0 73.7335205078125 0 47.5 C 0 21.2664794921875 21.2664794921875 0 47.5 0 Z" stroke="none" fill="#8b5e6f"/>
                                </g>
                              </g>
                            </g>
                          </g>
                        </g>
                      </g>
                    </g>
                  </g>
                </g>
              </g>
            </g>
          </g>
        </g>
      </g>
    </g>
    <g id="configuraciones" transform="translate(1186.364 3198.228)">
      <g id="Grupo_1231552" data-name="Grupo 1231552" transform="translate(0 0.994)">
        <path id="Trazado_1192923" data-name="Trazado 1192923" d="M70.038,17.2,70,12.448A1.1,1.1,0,0,0,68.9,11.363h-.009a1.1,1.1,0,0,0-1.086,1.1l.011,1.443A36.816,36.816,0,0,0,40.62.994,33.5,33.5,0,0,0,14.1,13.826a1.095,1.095,0,0,0,1.722,1.353,31.32,31.32,0,0,1,24.795-12A34.494,34.494,0,0,1,66.794,16.117h-3a1.095,1.095,0,1,0,0,2.19h5.154a1.2,1.2,0,0,0,1.095-1.1Z" transform="translate(-6.277 -0.994)" fill="#2b1100"/>
        <path id="Trazado_1192924" data-name="Trazado 1192924" d="M100.057,39.186a1.095,1.095,0,0,0-2.04.8,30.4,30.4,0,0,1,2.075,11.084c0,12.007-8.363,23.537-20.279,28.5l.816-1.248a1.095,1.095,0,0,0-1.833-1.2l-2.611,4a1.11,1.11,0,0,0,.475,1.6l4.4,1.94a1.1,1.1,0,0,0,.884-2l-1.872-.826A36.915,36.915,0,0,0,94.942,70.945a31.273,31.273,0,0,0,7.339-19.88,32.588,32.588,0,0,0-2.224-11.879Z" transform="translate(-34.4 -17.963)" fill="#2b1100"/>
        <path id="Trazado_1192925" data-name="Trazado 1192925" d="M35.642,80.863q-.646.025-1.3.026A31.168,31.168,0,0,1,2.994,49.977c0-3.016,1.267-6.787,2.475-9.971l.966,2.137a1.1,1.1,0,0,0,2-.9L6.39,36.725A1.111,1.111,0,0,0,4.9,36.2L.6,38.349a1.095,1.095,0,0,0,.98,1.958l1.763-.883C2.1,42.736.805,46.663.805,49.978a33.36,33.36,0,0,0,33.538,33.1q.7,0,1.386-.028a1.095,1.095,0,0,0-.087-2.188c-.43.018.6-.023,0,0Z" transform="translate(0 -16.875)" fill="#2b1100"/>
      </g>
      <path id="Trazado_1192926" data-name="Trazado 1192926" d="M64.077,41.748H61.022A15.994,15.994,0,0,0,58.6,35.74l2.157-2.152a1.5,1.5,0,0,0,.09-1.972l-2.606-2.69a1.5,1.5,0,0,0-1.977-.09L54.1,30.988a16.7,16.7,0,0,0-5.931-2.51V25.429a1.4,1.4,0,0,0-1.348-1.435H43.05A1.463,1.463,0,0,0,41.7,25.429v3.138a16.064,16.064,0,0,0-6.021,2.421l-2.157-2.152a1.5,1.5,0,0,0-1.977-.09l-2.7,2.6a1.5,1.5,0,0,0-.09,1.972l2.157,2.152A16.622,16.622,0,0,0,28.4,41.389H25.349A1.463,1.463,0,0,0,24,42.823v3.766a1.463,1.463,0,0,0,1.438,1.345h3.055a15.994,15.994,0,0,0,2.426,6.007l-2.157,2.152a1.5,1.5,0,0,0-.09,1.972l2.606,2.69a1.5,1.5,0,0,0,1.977.09l2.157-2.152a16.7,16.7,0,0,0,5.931,2.51v3.049A1.463,1.463,0,0,0,42.78,65.6h3.774A1.463,1.463,0,0,0,47.9,64.163V61.115a16.064,16.064,0,0,0,6.021-2.421l2.157,2.152a1.5,1.5,0,0,0,1.977.09l2.7-2.6a1.5,1.5,0,0,0,.09-1.972l-2.157-2.152A16.622,16.622,0,0,0,61.2,48.293h3.055A1.463,1.463,0,0,0,65.6,46.858V43.093A1.484,1.484,0,0,0,64.077,41.748Z" transform="translate(-10.862 -10.409)" fill="#0087ff"/>
      <path id="Trazado_1192927" data-name="Trazado 1192927" d="M45.633,65.771a31.89,31.89,0,0,1-4.756-.2,2.584,2.584,0,0,1-1.55-2.241V61.15a17.809,17.809,0,0,1-4.687-1.98L33.107,60.7a2.605,2.605,0,0,1-3.527-.093c-.451-.432-2.207-2.226-2.613-2.7a2.609,2.609,0,0,1,.1-3.512l1.543-1.539a17.239,17.239,0,0,1-1.935-4.751H24.516a2.582,2.582,0,0,1-2.532-2.44c-.034-.624-.018-3.139,0-3.766a2.576,2.576,0,0,1,2.443-2.53h2.189A17.681,17.681,0,0,1,28.6,34.7l-1.53-1.527a2.6,2.6,0,0,1,.093-3.525c.433-.45,2.231-2.2,2.7-2.608a2.619,2.619,0,0,1,3.513.1l1.545,1.542a17.305,17.305,0,0,1,4.764-1.932V24.506a2.582,2.582,0,0,1,2.443-2.53c.625-.034,3.146-.02,3.774,0a2.521,2.521,0,0,1,2.443,2.53v2.181a17.791,17.791,0,0,1,4.687,1.98l1.533-1.53a2.6,2.6,0,0,1,3.527.093c.451.432,2.207,2.225,2.613,2.7a2.609,2.609,0,0,1-.1,3.512l-1.542,1.539A17.239,17.239,0,0,1,61,39.73h2.159a2.608,2.608,0,0,1,2.614,2.3c.065.644.027,3.257.009,3.9a2.574,2.574,0,0,1-2.443,2.529H61.146a17.7,17.7,0,0,1-1.983,4.673l1.53,1.526A2.6,2.6,0,0,1,60.6,58.19c-.433.45-2.23,2.2-2.7,2.607a2.617,2.617,0,0,1-3.513-.1L52.84,59.157a17.3,17.3,0,0,1-4.764,1.932v2.151a2.569,2.569,0,0,1-2.443,2.53Zm-4.117-2.526c.024.111.1.337.343.337h3.688c.112-.024.339-.1.339-.34V60.193a1.1,1.1,0,0,1,.915-1.08,14.99,14.99,0,0,0,5.6-2.26A1.1,1.1,0,0,1,53.775,57l2.156,2.152a.415.415,0,0,0,.516.007l2.623-2.53a.4.4,0,0,0,0-.489L56.99,54.064a1.1,1.1,0,0,1-.13-1.394,15.636,15.636,0,0,0,2.347-5.523,1.1,1.1,0,0,1,1.072-.871h2.969c.112-.024.339-.1.339-.34V42.253a.392.392,0,0,0-.433-.334H60.1A1.1,1.1,0,0,1,59.02,41a14.907,14.907,0,0,0-2.264-5.59,1.1,1.1,0,0,1,.144-1.373l2.156-2.152a.41.41,0,0,0,.007-.508l-2.536-2.617a.41.41,0,0,0-.5,0l-2.077,2.073a1.093,1.093,0,0,1-1.39.129,15.72,15.72,0,0,0-5.537-2.342,1.1,1.1,0,0,1-.872-1.072V24.506a.316.316,0,0,0-.253-.34H42.213c-.112.024-.339.1-.339.34v3.138a1.1,1.1,0,0,1-.915,1.08,15,15,0,0,0-5.6,2.259,1.093,1.093,0,0,1-1.369-.143l-2.156-2.152a.417.417,0,0,0-.516-.007L28.69,31.21a.4.4,0,0,0,0,.489l2.077,2.073a1.1,1.1,0,0,1,.13,1.394,15.645,15.645,0,0,0-2.347,5.522,1.1,1.1,0,0,1-1.072.871H24.512c-.112.024-.339.1-.339.34V45.58c.024.111.1.337.343.337h3.055a1.1,1.1,0,0,1,1.08.915,14.908,14.908,0,0,0,2.264,5.59,1.1,1.1,0,0,1-.144,1.373l-2.156,2.152a.411.411,0,0,0-.007.509l2.536,2.617a.407.407,0,0,0,.5,0L33.717,57a1.094,1.094,0,0,1,1.391-.129,15.7,15.7,0,0,0,5.536,2.343,1.1,1.1,0,0,1,.872,1.072v2.962Z" transform="translate(-9.94 -9.486)" fill="#2b1100"/>
      <circle id="Elipse_12943" data-name="Elipse 12943" cx="8.759" cy="8.759" r="8.759" transform="translate(21.548 34.387) rotate(-45)" fill="#ffcc64"/>
      <path id="Trazado_1192928" data-name="Trazado 1192928" d="M50.7,70.386a6.422,6.422,0,0,1-.944-1.217,1.89,1.89,0,0,1,.8-2.647L50.8,66.4a1.916,1.916,0,0,1,2.37.552,5.777,5.777,0,0,0,2.1,1.655,1.883,1.883,0,0,1,.992,2.241,1.915,1.915,0,0,1-2.351,1.3A7,7,0,0,1,50.7,70.386Z" transform="translate(-22.399 -29.508)" fill="#f9b43a"/>
      <path id="Trazado_1192929" data-name="Trazado 1192929" d="M55.91,48.594l-.061-.189a2.05,2.05,0,0,1,1.836-2.687A10.511,10.511,0,0,1,63.63,47a2.053,2.053,0,0,1,.684,2.814l-.233.389a2.079,2.079,0,0,1-2.824.7,7.549,7.549,0,0,0-3.443-.945A2.013,2.013,0,0,1,55.91,48.594Z" transform="translate(-25.23 -20.234)" fill="#ffe6c2"/>
      <path id="Trazado_1192930" data-name="Trazado 1192930" d="M53.854,63.7A9.854,9.854,0,1,1,60.821,46.88a1.095,1.095,0,0,1-1.549,1.548,7.663,7.663,0,1,0,2.245,5.42,1.095,1.095,0,0,1,2.19,0A9.854,9.854,0,0,1,53.854,63.7Z" transform="translate(-19.913 -19.461)" fill="#2b1100"/>
    </g>
  </g>
</svg>
