<svg xmlns="http://www.w3.org/2000/svg" xmlns:xlink="http://www.w3.org/1999/xlink" width="103" height="103" viewBox="0 0 103 103">
  <defs>
    <filter id="Trazado_982547" x="0" y="0" width="103" height="103" filterUnits="userSpaceOnUse">
      <feOffset dy="3" input="SourceAlpha"/>
      <feGaussianBlur stdDeviation="3" result="blur"/>
      <feFlood flood-opacity="0.161"/>
      <feComposite operator="in" in2="blur"/>
      <feComposite in="SourceGraphic"/>
    </filter>
  </defs>
  <g id="Grupo_1231538" data-name="Grupo 1231538" transform="translate(-171 -3718.469)">
    <g id="Grupo_1231395" data-name="Grupo 1231395" transform="translate(180 3724.469)">
      <g id="Grupo_1230141" data-name="Grupo 1230141">
        <g id="Grupo_1227863" data-name="Grupo 1227863" transform="translate(0 0)">
          <g id="Grupo_1203964" data-name="Grupo 1203964" transform="translate(0)">
            <g id="Grupo_1203625" data-name="Grupo 1203625" transform="translate(0 0)">
              <g id="Grupo_1178314" data-name="Grupo 1178314">
                <g id="Grupo_1173988" data-name="Grupo 1173988">
                  <g id="Grupo_1172010" data-name="Grupo 1172010">
                    <g id="Grupo_1171046" data-name="Grupo 1171046">
                      <g id="Grupo_1148525" data-name="Grupo 1148525">
                        <g transform="matrix(1, 0, 0, 1, -9, -6)" filter="url(#Trazado_982547)">
                          <g id="Trazado_982547-2" data-name="Trazado 982547" transform="translate(9 6)" fill="#f6f6fd">
                            <path d="M 42.5 83.5 C 36.96437835693359 83.5 31.59512901306152 82.41617584228516 26.54141235351562 80.27863311767578 C 21.65934181213379 78.21369171142578 17.27447128295898 75.25723266601562 13.50862312316895 71.49137878417969 C 9.742764472961426 67.72553253173828 6.786305904388428 63.34066009521484 4.721364498138428 58.45858764648438 C 2.583823442459106 53.40486907958984 1.5 48.03562164306641 1.5 42.5 C 1.5 36.96437835693359 2.583823442459106 31.59512901306152 4.721364498138428 26.54141235351562 C 6.786305904388428 21.65934181213379 9.742764472961426 17.27448272705078 13.50862312316895 13.50862312316895 C 17.27447128295898 9.742776870727539 21.65934181213379 6.786305904388428 26.54141235351562 4.721364498138428 C 31.59512901306152 2.583823442459106 36.96437835693359 1.5 42.5 1.5 C 48.03562164306641 1.5 53.40486907958984 2.583823442459106 58.45858764648438 4.721364498138428 C 63.34066009521484 6.786305904388428 67.72553253173828 9.742776870727539 71.49137878417969 13.50862312316895 C 75.25723266601562 17.27448272705078 78.21369171142578 21.65934181213379 80.27863311767578 26.54141235351562 C 82.41617584228516 31.59512901306152 83.5 36.96437835693359 83.5 42.5 C 83.5 48.03562164306641 82.41617584228516 53.40486907958984 80.27863311767578 58.45858764648438 C 78.21369171142578 63.34066009521484 75.25723266601562 67.72553253173828 71.49137878417969 71.49137878417969 C 67.72553253173828 75.25723266601562 63.34066009521484 78.21369171142578 58.45858764648438 80.27863311767578 C 53.40486907958984 82.41617584228516 48.03562164306641 83.5 42.5 83.5 Z" stroke="none"/>
                            <path d="M 42.5 3 C 37.16621398925781 3 31.99356079101562 4.043960571289062 27.125732421875 6.102882385253906 C 22.42246627807617 8.092185974121094 18.19785308837891 10.94070434570312 14.56928253173828 14.56928253173828 C 10.94070434570312 18.19785308837891 8.092185974121094 22.42246627807617 6.102882385253906 27.125732421875 C 4.043960571289062 31.99356079101562 3 37.16621398925781 3 42.5 C 3 47.83378601074219 4.043960571289062 53.00643920898438 6.102882385253906 57.87425231933594 C 8.092185974121094 62.57753372192383 10.94070434570312 66.80213165283203 14.56928253173828 70.43071746826172 C 18.19786834716797 74.05929565429688 22.42246627807617 76.90781402587891 27.125732421875 78.89711761474609 C 31.99356079101562 80.95603942871094 37.16621398925781 82 42.5 82 C 47.83378601074219 82 53.00642395019531 80.95603942871094 57.87425231933594 78.89711761474609 C 62.57753372192383 76.90781402587891 66.80213165283203 74.05929565429688 70.43071746826172 70.43071746826172 C 74.05929565429688 66.80213165283203 76.90781402587891 62.57753372192383 78.89711761474609 57.87425231933594 C 80.95603942871094 53.00642395019531 82 47.83378601074219 82 42.5 C 82 37.16621398925781 80.95603942871094 31.99356079101562 78.89711761474609 27.125732421875 C 76.90781402587891 22.42246627807617 74.05929565429688 18.19786834716797 70.43071746826172 14.56928253173828 C 66.80213165283203 10.94070434570312 62.57753372192383 8.092185974121094 57.87425231933594 6.102882385253906 C 53.00643920898438 4.043960571289062 47.83378601074219 3 42.5 3 M 42.5 0 C 65.97209167480469 0 85 19.02789306640625 85 42.5 C 85 65.97209167480469 65.97209167480469 85 42.5 85 C 19.02789306640625 85 0 65.97209167480469 0 42.5 C 0 19.02789306640625 19.02789306640625 0 42.5 0 Z" stroke="none" fill="#b1aef1"/>
                          </g>
                        </g>
                      </g>
                    </g>
                  </g>
                </g>
              </g>
            </g>
          </g>
        </g>
      </g>
    </g>
    <g id="lluvia-de-ideas_2_" data-name="lluvia-de-ideas (2)" transform="translate(196.48 3736.881)">
      <path id="Trazado_1192880" data-name="Trazado 1192880" d="M215.121,136.846v2.364a.849.849,0,0,0,.849.849h1.912a.849.849,0,0,0,.849-.849v-2.364a.849.849,0,0,0-.849-.849H215.97A.849.849,0,0,0,215.121,136.846Zm0,0" transform="translate(-189.838 -120.012)" fill="#86919e"/>
      <path id="Trazado_1192881" data-name="Trazado 1192881" d="M24.876,98.72,15.6,83.344a2.212,2.212,0,0,0-3.04-.751L8.535,85.031a2.22,2.22,0,0,0-.752,3.045l9.527,15.8Zm0,0" transform="translate(-6.588 -72.604)" fill="#84eaf5"/>
      <path id="Trazado_1192882" data-name="Trazado 1192882" d="M185.569,14.373a6.9,6.9,0,1,0-9.661,6.325v1.639a1.512,1.512,0,0,0,1.512,1.512h2.5a1.512,1.512,0,0,0,1.512-1.512V20.7a6.9,6.9,0,0,0,4.141-6.325Zm0,0" transform="translate(-151.579 -6.593)" fill="#feda5f"/>
      <path id="Trazado_1192883" data-name="Trazado 1192883" d="M339.466,98.289l4.3-7.135-.059-8.881-7.884,4.1-4.247,7.042Zm0,0" transform="translate(-292.607 -72.604)" fill="#fce49d"/>
      <path id="Trazado_1192884" data-name="Trazado 1192884" d="M310.169,120.619h0l-3.309-3.492-8.105,13.463,2.987,4.042,4.744,1.113,8.317-13.833Zm0,0" transform="translate(-263.641 -103.362)" fill="#f4c84e"/>
      <path id="Trazado_1192885" data-name="Trazado 1192885" d="M339.909,161.955l8.317-13.833-4.634-1.294-6.963,11.5Zm0,0" transform="translate(-297.065 -129.571)" fill="#feda5f"/>
      <path id="Trazado_1192886" data-name="Trazado 1192886" d="M413.656,82.273l-2.816,1.463,2.837,1.746Zm0,0" transform="translate(-362.554 -72.604)" fill="#86919e"/>
      <path id="Trazado_1192887" data-name="Trazado 1192887" d="M67.043,219.036H78.491a6.765,6.765,0,0,0,.468-13.513,6.765,6.765,0,0,0-9.885-7.4,6.767,6.767,0,0,0-12.5,0,6.764,6.764,0,0,0-9.881,7.415,6.766,6.766,0,0,0,.7,13.495Zm0,0" transform="translate(-35.854 -171.157)" fill="#f0a8d0"/>
      <path id="Trazado_1192888" data-name="Trazado 1192888" d="M297.853,230.474a6.765,6.765,0,0,0-9.177-7.737,6.763,6.763,0,0,1,4.023,7.737,6.765,6.765,0,0,1-.468,13.513h5.154a6.765,6.765,0,0,0,.468-13.513Zm0,0" transform="translate(-254.748 -196.107)" fill="#ea89bf"/>
      <path id="Trazado_1192889" data-name="Trazado 1192889" d="M177.759,293.324l6.4.08-3.535,9.134,5.846.153-12.458,15.466,4.334-11.432-5.4-.068Zm0,0" transform="translate(-152.619 -258.849)" fill="#feda5f"/>
      <path id="Trazado_1192890" data-name="Trazado 1192890" d="M296.742,110.159l1.874,1.172a.879.879,0,0,0,.932-1.49l-1.875-1.171A.879.879,0,0,0,296.742,110.159Zm0,0" transform="translate(-261.509 -95.773)"/>
      <path id="Trazado_1192891" data-name="Trazado 1192891" d="M299.254,3.823a.876.876,0,0,0,.465-.134l1.874-1.172a.879.879,0,0,0-.931-1.49L298.788,2.2a.886.886,0,0,0,.466,1.624Zm0,0" transform="translate(-263.32 -0.783)"/>
      <path id="Trazado_1192892" data-name="Trazado 1192892" d="M310.219,60.628a.878.878,0,0,0,.878.879h2.343a.879.879,0,0,0,0-1.757H311.1a.878.878,0,0,0-.878.878Zm0,0" transform="translate(-273.759 -52.727)"/>
      <path id="Trazado_1192893" data-name="Trazado 1192893" d="M136.166,108.671l-1.875,1.171a.879.879,0,0,0,.931,1.49l1.875-1.172A.879.879,0,0,0,136.166,108.671Zm0,0" transform="translate(-118.153 -95.775)"/>
      <path id="Trazado_1192894" data-name="Trazado 1192894" d="M132.289,2.517l1.874,1.171a.879.879,0,0,0,.932-1.49L133.22,1.026a.879.879,0,0,0-.931,1.49Zm0,0" transform="translate(-116.385 -0.782)"/>
      <path id="Trazado_1192895" data-name="Trazado 1192895" d="M116.957,61.507H119.3a.879.879,0,0,0,0-1.757h-2.343a.879.879,0,0,0,0,1.757Zm0,0" transform="translate(-102.461 -52.727)"/>
      <path id="Trazado_1192896" data-name="Trazado 1192896" d="M168.428,14.656v1.089a2.386,2.386,0,0,0,.955,1.907v2.395a.879.879,0,0,0,.879.878h3.611a.878.878,0,0,0,.878-.878V17.652a2.385,2.385,0,0,0,.955-1.907V14.656A7.787,7.787,0,0,0,179.8,6.927a.879.879,0,0,0-1.746.191,6.03,6.03,0,0,1-3.578,6.181.879.879,0,0,0-.527.805v1.64a.635.635,0,0,1-.634.634h-2.5a.635.635,0,0,1-.634-.634V14.1a.878.878,0,0,0-.527-.8A6.023,6.023,0,1,1,175.44,2.79a.879.879,0,0,0,.985-1.455,7.78,7.78,0,1,0-8,13.321Zm2.712,4.512V18.135h1.853v1.033Zm0,0" transform="translate(-144.979 0)"/>
      <path id="Trazado_1192897" data-name="Trazado 1192897" d="M47.607,92.146l0-.006,4.3-7.135a.893.893,0,0,0,.126-.46l-.059-8.881a.887.887,0,0,0-1.284-.774l-7.885,4.1c-.51.265-.77,1.027-1.043,1.479L35.2,91.356a7.651,7.651,0,0,0-1.575.448,7.646,7.646,0,0,0-13.315,0,7.677,7.677,0,0,0-1.444-.426l-9.1-15.09a3.092,3.092,0,0,0-4.248-1.049L1.493,77.676a3.1,3.1,0,0,0-1.05,4.25L9.9,97.609a7.652,7.652,0,0,0-.069,2.053,7.645,7.645,0,0,0,1.709,15.1H14.2a.879.879,0,0,0,0-1.757H11.54a5.887,5.887,0,0,1-.611-11.743.887.887,0,0,0,.767-1.068A5.884,5.884,0,0,1,17.435,93a6.037,6.037,0,0,1,4.829,2.5.879.879,0,0,0,1.392-1.071,9.354,9.354,0,0,0-1.8-1.78,5.888,5.888,0,0,1,10.556.656.887.887,0,0,0,1.239.431,5.887,5.887,0,0,1,8.744,5.147,5.793,5.793,0,0,1-.041.684,6.3,6.3,0,0,0-3.5,1.464.879.879,0,0,0,1.243,1.242,4.965,4.965,0,0,1,3.036-1c3,0,5.394,2.984,5.394,5.836A5.893,5.893,0,0,1,42.637,113h-10.2l2.1-2.607a.892.892,0,0,0-.662-1.429l-4.6-.121,3.085-7.972a.887.887,0,0,0-.808-1.2l-6.4-.08a.873.873,0,0,0-.837.58l-4.806,13.314a.892.892,0,0,0,.787,1.267h4.16L20.571,125a.885.885,0,0,0,1.506.863l8.955-11.117a.883.883,0,0,0,.157.015H42.637a7.644,7.644,0,0,0,1.476-15.143c.045-.472-.172-1.393.057-1.773ZM10.629,95.414l-8.68-14.4A1.342,1.342,0,0,1,2.4,79.179l4.029-2.436a1.333,1.333,0,0,1,1.833.453l.912,1.512-1.65,1a.879.879,0,0,0,.909,1.5l1.648-1,1.781,2.954-2.64,1.6a.879.879,0,0,0,.909,1.5l2.638-1.6,1.781,2.954-1.65,1a.879.879,0,1,0,.909,1.5l1.648-1,1.292,2.144a7.655,7.655,0,0,0-6.125,4.14Zm15.92,18.776a.879.879,0,0,0-.81-1.19l-4.166-.052,4.182-11.585,4.509.056-3.078,7.954a.879.879,0,0,0,.8,1.2l4.071.107-7.882,9.785ZM37.3,91.282l2.42-4.012.005-.007,3.65-6.054,2.054,2.167L40.1,92.141a7.594,7.594,0,0,0-2.8-.859ZM47,82.477,44.658,80.01l3.565-1.852,2.026,1.22.027,4.015Zm3.239-5.159-.184-.11.182-.095Zm-8.69,15.828,5.388-8.862,2.88.8L43.434,95.663a7.686,7.686,0,0,0-1.889-2.517Zm0,0" transform="translate(0 -66.001)"/>
    </g>
  </g>
</svg>
