<svg xmlns="http://www.w3.org/2000/svg" xmlns:xlink="http://www.w3.org/1999/xlink" width="1328" height="523" viewBox="0 0 1328 523">
  <defs>
    <clipPath id="clip-path">
      <rect id="Rectángulo_422227" data-name="Rectángulo 422227" width="1328" height="523" fill="#b1aef1" opacity="0.83"/>
    </clipPath>
    <clipPath id="clip-path-2">
      <rect id="Rectángulo_422226" data-name="Rectángulo 422226" width="1669.795" height="561" fill="none"/>
    </clipPath>
  </defs>
  <g id="Enmascarar_grupo_1098792" data-name="Enmascarar grupo 1098792" clip-path="url(#clip-path)">
    <g id="Grupo_1227866" data-name="Grupo 1227866" transform="translate(-171.125 0)" clip-path="url(#clip-path-2)">
      <path id="Trazado_1047321" data-name="Trazado 1047321" d="M1669.8,561H0V0H1669.8Z" fill="#817f99"/>
      <circle id="Elipse_12747" data-name="Elipse 12747" cx="97.564" cy="97.564" r="97.564" transform="translate(1089.94 516.726)" fill="#b1aef1"/>
      <ellipse id="Elipse_12748" data-name="Elipse 12748" cx="169.172" cy="169.172" rx="169.172" ry="169.172" transform="translate(985.87 -55.29) rotate(103.59)" fill="#ffadcc"/>
      <circle id="Elipse_12749" data-name="Elipse 12749" cx="49.86" cy="49.86" r="49.86" transform="translate(1023.722 18.472) rotate(135)" fill="#b1aef1"/>
      <path id="Trazado_1047322" data-name="Trazado 1047322" d="M1105.012,746.953a204.3,204.3,0,0,0-99.6-110.237c-42.692-21.112-93.02-27.306-130.57-56.638-54.417-42.5-65.636-120.248-61.312-189.116,2.22-35.1,6.895-72.53-9.543-103.615-23.333-44.095-79.23-58.04-128.856-62.792s-104-6.622-141.555-39.42c-29.526-25.787-45.3-65.363-56.6-102.875L336.86,75.56,305.62,729.852l799.353,17.139Z" transform="translate(-306.617 -127.601)" fill="#b1aef1"/>
      <path id="Trazado_1047323" data-name="Trazado 1047323" d="M1109.3,742.663a204.305,204.305,0,0,0-99.6-110.237c-42.692-21.112-93.02-27.306-130.57-56.638-54.417-42.5-65.636-120.248-61.312-189.116,2.22-35.1,6.895-72.53-9.543-103.615-23.333-44.095-79.23-58.04-128.856-62.792s-104-6.622-141.555-39.42c-29.526-25.787-45.3-65.363-56.6-102.875L341.15,71.27,309.91,725.562,1109.263,742.7Z" transform="translate(-327.618 -106.6)" fill="#97dee9"/>
      <path id="Trazado_1047324" data-name="Trazado 1047324" d="M459.057,715.956c-40.667-1.324-77.555-31.357-81.684-66.609-3.9-33.422,17.84-69.492,0-99.33-16.983-28.475-59.637-34.4-92.552-48.925-44.212-19.515-74.984-60.3-77.984-103.3-3-43.082,18.62-90.877-8.686-126.87-22.943-30.266-69.8-37.044-105.446-55.9C41.131,187.715,11.332,129.558,25.628,78.53H625.074V718.215Z" transform="translate(1095.048 -110.394)" fill="#97dee9"/>
      <path id="Trazado_1047325" data-name="Trazado 1047325" d="M453.067,717.956c-40.667-1.324-77.555-31.357-81.684-66.609-3.9-33.422,17.84-69.492,0-99.33-16.983-28.475-59.637-34.4-92.552-48.925-44.212-19.515-74.984-60.3-77.984-103.3-3-43.082,18.62-90.877-8.686-126.87-22.943-30.266-69.8-37.044-105.446-55.9C35.141,189.715,5.342,131.558,19.638,80.53H619.123V720.215l-166.017-2.259Z" transform="translate(1124.332 -120.184)" fill="#ffadcc"/>
      <path id="Trazado_1047326" data-name="Trazado 1047326" d="M0,0H203.881V203.881H0Z" transform="translate(1311.105 701.854) rotate(-135)" fill="none" stroke="#97dee9" stroke-width="12.83"/>
      <rect id="Rectángulo_422225" data-name="Rectángulo 422225" width="203.881" height="203.881" transform="translate(654.229 213.651) rotate(-135)" fill="none" stroke="#97dee9" stroke-miterlimit="10" stroke-width="12.83"/>
      <circle id="Elipse_12750" data-name="Elipse 12750" cx="69.96" cy="69.96" r="69.96" transform="translate(869.749 537.163) rotate(135)" fill="#52797f"/>
      <circle id="Elipse_12751" data-name="Elipse 12751" cx="69.96" cy="69.96" r="69.96" transform="translate(882.696 530.675) rotate(135)" fill="#97dee9"/>
      <path id="Trazado_1047327" data-name="Trazado 1047327" d="M69.959,0A69.959,69.959,0,1,1,0,69.959,69.959,69.959,0,0,1,69.959,0Z" transform="matrix(-0.921, 0.389, -0.389, -0.921, 1525.467, 55.743)" fill="#52797f"/>
      <path id="Trazado_1047328" data-name="Trazado 1047328" d="M69.959,139.919a69.959,69.959,0,1,1,69.959-69.959A69.959,69.959,0,0,1,69.959,139.919Z" transform="translate(1376.828 -38.518)" fill="#97dee9"/>
      <circle id="Elipse_12752" data-name="Elipse 12752" cx="33.733" cy="33.733" r="33.733" transform="translate(217.292 206.116)" fill="#605f84"/>
      <path id="Trazado_1047329" data-name="Trazado 1047329" d="M33.733,67.466A33.733,33.733,0,1,1,67.466,33.733,33.733,33.733,0,0,1,33.733,67.466Z" transform="translate(228.9 198.403)" fill="#b1aef1"/>
      <path id="Trazado_1047330" data-name="Trazado 1047330" d="M826.617,592.216c2.688-44.6-33.577-81.879-71.128-106.03s-80.672-43-107.043-79.074c-57.222-78.217-11.725-201.62-73.154-276.566-22.71-27.734-57.144-43.861-92.28-51.067s-71.323-6.388-107.16-5.492" transform="translate(-372.406 98.925)" fill="none" stroke="#fbf3e8" stroke-miterlimit="10" stroke-width="1"/>
      <path id="Trazado_1047331" data-name="Trazado 1047331" d="M327.984,675.848C268,674.212,210.307,633.272,183.508,580.491,152.774,520,168.16,433.132,173.146,368.237c2.96-38.563,3.35-80.126-11.452-116.586-17.139-42.264-49.431-56.715-86.242-78.49-27.345-16.166-54.69-38.641-60.182-69.921" transform="translate(1313.548 -164.279)" fill="none" stroke="#fbf3e8" stroke-miterlimit="10" stroke-width="1"/>
      <g id="Grupo_1227864" data-name="Grupo 1227864" transform="translate(287.029 359.854)">
        <path id="Trazado_1047332" data-name="Trazado 1047332" d="M345.6,193.179h24.813v24.813h22.826V193.179h24.813V170.392H393.239V145.54H370.413v24.852H345.6Z" transform="translate(-345.6 -145.54)" fill="none" stroke="#fff" stroke-miterlimit="10" stroke-width="1"/>
        <path id="Trazado_1047333" data-name="Trazado 1047333" d="M329.96,177.529h24.852v24.852H377.6V177.529h24.813V154.742H377.6V129.89H354.812v24.852H329.96Z" transform="translate(-269.038 -68.968)" fill="none" stroke="#fff" stroke-miterlimit="10" stroke-width="1"/>
        <path id="Trazado_1047334" data-name="Trazado 1047334" d="M314.32,161.889h24.852v24.852h22.787V161.889h24.813V139.1H361.959V114.25H339.172V139.1H314.32Z" transform="translate(-192.475 7.595)" fill="none" stroke="#fff" stroke-miterlimit="10" stroke-width="1"/>
      </g>
      <g id="Grupo_1227865" data-name="Grupo 1227865" transform="translate(1174.314 -38.369)">
        <path id="Trazado_1047335" data-name="Trazado 1047335" d="M143.57,273.449h24.852V298.3h22.787V273.449h24.813V250.662H191.209V225.81H168.422v24.852H143.57Z" transform="translate(-143.57 -225.81)" fill="none" stroke="#fff" stroke-miterlimit="10" stroke-width="1"/>
        <path id="Trazado_1047336" data-name="Trazado 1047336" d="M127.93,257.771h24.852v24.852h22.787V257.771h24.813V234.983H175.569V210.17H152.782v24.813H127.93Z" transform="translate(-67.008 -149.209)" fill="none" stroke="#fff" stroke-miterlimit="10" stroke-width="1"/>
        <path id="Trazado_1047337" data-name="Trazado 1047337" d="M112.28,242.13h24.852v24.852h22.787V242.13h24.852V219.343H159.919V194.53H137.132v24.813H112.28Z" transform="translate(9.565 -72.646)" fill="none" stroke="#fff" stroke-miterlimit="10" stroke-width="1"/>
      </g>
    </g>
  </g>
</svg>
