<svg xmlns="http://www.w3.org/2000/svg" xmlns:xlink="http://www.w3.org/1999/xlink" width="1328" height="581.607" viewBox="0 0 1328 581.607">
  <defs>
    <clipPath id="clip-path">
      <rect id="Rectángulo_418093" data-name="Rectángulo 418093" width="1328" height="581.322" transform="translate(136 890.783)" fill="#f5f2ed"/>
    </clipPath>
  </defs>
  <g id="Grupo_1223993" data-name="Grupo 1223993" transform="translate(-136 -890.498)">
    <path id="Trazado_1174971" data-name="Trazado 1174971" d="M0,0H1328V581.211H0Z" transform="translate(136 890.498)" fill="#f5ddbc"/>
    <g id="Enmascarar_grupo_1098775" data-name="Enmascarar grupo 1098775" clip-path="url(#clip-path)">
      <g id="Grupo_1206104" data-name="Grupo 1206104" transform="translate(-15.347 788.679)">
        <path id="Trazado_1042744" data-name="Trazado 1042744" d="M721.687,157.168c47.711,78.516,56.907,199.206,3.351,245.908-63.96,55.776-155.045-48.389-359.221-43.632C216.123,362.936,159.063,421.4,88.669,372.315,33.352,333.758,3,251.931,13.721,190.081,36.629,58,243.619,35.653,306.439,28.873,365.256,22.52,622.96-5.293,721.687,157.168Z" transform="matrix(0.809, 0.588, -0.588, 0.809, 209.915, 323.771)" fill="#ecc68f" opacity="0.25"/>
        <path id="Trazado_1042745" data-name="Trazado 1042745" d="M84.6,335.97C43.39,321.387-.43,274.17,0,233.824.52,185.634,63.65,194.24,124.2,113.3c44.39-59.349,41.89-106,80-112.565,29.95-5.159,67,17.515,84.76,47.676,37.92,64.419-17.51,153.839-34.33,180.978C238.88,254.8,169.87,366.131,84.6,335.97Z" transform="translate(15.35 -0.004)" fill="#ecc68f" opacity="0.25"/>
        <path id="Trazado_1042746" data-name="Trazado 1042746" d="M790.38,324.017c-22.54,39.652-72.91,77.8-106.38,72.275-39.97-6.6-16.87-69.074-68.93-140.23-38.17-52.175-77.62-55.544-73.47-94.736,3.27-30.8,31.5-65.236,61.09-79.3,63.19-30.049,123.6,37.033,141.94,57.39,17.17,19.059,92.39,102.571,45.74,184.6Z" transform="translate(760.355 41.645)" fill="#ebc691" opacity="0.25"/>
      </g>
    </g>
    <g id="Grupo_1206106" data-name="Grupo 1206106" opacity="0.15">
      <path id="Trazado_1042774" data-name="Trazado 1042774" d="M177.84,719.46l-7.93,12.67h17.07Z" transform="translate(66.925 510.683)" fill="#914d86"/>
      <path id="Trazado_1043063" data-name="Trazado 1043063" d="M177.84,732.13l-7.93-12.67h17.07Z" transform="translate(1110.904 272.483)" fill="#914d86"/>
      <path id="Trazado_1043061" data-name="Trazado 1043061" d="M177.84,719.46l-7.93,12.67h17.07Z" transform="translate(1229.536 695.922)" fill="#914d86"/>
      <path id="Trazado_1042776" data-name="Trazado 1042776" d="M506.98,822.58l-9.85,15.72h21.18Z" transform="translate(-136.075 504.432)" fill="#914d86"/>
      <path id="Trazado_1042777" data-name="Trazado 1042777" d="M664.51,413.88l-20.56,32.83h44.22Z" transform="translate(601.18 933.66)" fill="#914d86"/>
      <path id="Trazado_1042778" data-name="Trazado 1042778" d="M364.15,863.69h-8.48v-8.48a1.65,1.65,0,1,0-3.3,0v8.48h-8.48a1.65,1.65,0,0,0,0,3.3h8.48v8.48a1.65,1.65,0,1,0,3.3,0v-8.48h8.48a1.65,1.65,0,0,0,0-3.3Z" transform="translate(-136.075 504.432)" fill="#914d86"/>
      <path id="Trazado_1042779" data-name="Trazado 1042779" d="M180.82,627.48h-9.96v-9.97a1.94,1.94,0,0,0-3.88,0v9.97h-9.96a1.94,1.94,0,0,0,0,3.88h9.96v9.96a1.94,1.94,0,0,0,3.88,0v-9.96h9.96a1.94,1.94,0,0,0,0-3.88Z" transform="translate(190.925 348.683)" fill="#914d86"/>
      <path id="Trazado_1043062" data-name="Trazado 1043062" d="M180.82,627.48h-9.96v-9.97a1.94,1.94,0,0,0-3.88,0v9.97h-9.96a1.94,1.94,0,0,0,0,3.88h9.96v9.96a1.94,1.94,0,0,0,3.88,0v-9.96h9.96a1.94,1.94,0,0,0,0-3.88Z" transform="translate(1229.536 695.922)" fill="#914d86"/>
      <g id="Grupo_1206062" data-name="Grupo 1206062" transform="translate(601.18 933.66)">
        <path id="Trazado_1042780" data-name="Trazado 1042780" d="M144.86,253.25l-4.04,6.44h8.68Z" fill="#914d86"/>
        <path id="Trazado_1042781" data-name="Trazado 1042781" d="M688.39,243.71l-4.03,6.44h8.68Z" fill="#914d86"/>
        <path id="Trazado_1042782" data-name="Trazado 1042782" d="M207.6,214.04H197.52V203.96a1.96,1.96,0,0,0-3.92,0v10.08H183.52a1.96,1.96,0,0,0,0,3.92H193.6v10.08a1.96,1.96,0,1,0,3.92,0V217.96H207.6a1.96,1.96,0,1,0,0-3.92Z" fill="#914d86"/>
        <path id="Trazado_1042783" data-name="Trazado 1042783" d="M687.86,165.41h-4.32v-4.32a.84.84,0,0,0-1.68,0v4.32h-4.32a.84.84,0,1,0,0,1.68h4.32v4.32a.84.84,0,0,0,1.68,0v-4.32h4.32a.84.84,0,1,0,0-1.68Z" fill="#914d86"/>
        <path id="Trazado_1042784" data-name="Trazado 1042784" d="M640.51,282.17h-7.16v-7.16a1.39,1.39,0,0,0-2.78,0v7.16h-7.16a1.39,1.39,0,0,0,0,2.78h7.16v7.16a1.39,1.39,0,0,0,2.78,0v-7.16h7.16a1.39,1.39,0,0,0,0-2.78Z" fill="#914d86"/>
        <path id="Trazado_1042785" data-name="Trazado 1042785" d="M148.93,159.64a3.77,3.77,0,1,1-3.77-3.77A3.773,3.773,0,0,1,148.93,159.64Z" fill="#914d86"/>
        <path id="Trazado_1042786" data-name="Trazado 1042786" d="M618.82,194a3.77,3.77,0,1,1-3.77-3.77A3.773,3.773,0,0,1,618.82,194Z" fill="#914d86"/>
        <path id="Trazado_1042787" data-name="Trazado 1042787" d="M246.77,166.25a3.77,3.77,0,1,1-3.77-3.77A3.773,3.773,0,0,1,246.77,166.25Z" fill="#914d86"/>
      </g>
    </g>
  </g>
</svg>
