<svg xmlns="http://www.w3.org/2000/svg" width="868.426" height="369.995" viewBox="0 0 868.426 369.995">
  <g id="Grupo_1231623" data-name="Grupo 1231623" transform="translate(-6223.232 -5913.968)">
    <g id="Grupo_1231622" data-name="Grupo 1231622" transform="translate(5857.445 3329.963)">
      <g id="Grupo_1231489" data-name="Grupo 1231489" transform="translate(0 -125.842)">
        <g id="Grupo_1231488" data-name="Grupo 1231488">
          <g id="Grupo_1228399" data-name="Grupo 1228399" transform="translate(90.13 838.619)">
            <g id="Grupo_1219567" data-name="Grupo 1219567" transform="translate(-2591.001 -262.042)">
              <path id="Trazado_1092052" data-name="Trazado 1092052" d="M234.656,96.131,154.291,176.5a14.649,14.649,0,0,0-4.29,10.36V412.712H333.126V186.856a14.658,14.658,0,0,0-4.29-10.36L248.471,96.131A9.77,9.77,0,0,0,234.656,96.131Z" transform="translate(3067.833 2040)" fill="#52797f"/>
              <path id="Trazado_1092054" data-name="Trazado 1092054" d="M164.656,120.638,84.291,201A14.649,14.649,0,0,0,80,211.363V377.381H263.125V211.363a14.658,14.658,0,0,0-4.29-10.36l-80.365-80.365A9.77,9.77,0,0,0,164.656,120.638Z" transform="translate(2966.916 2075.331)" fill="#97dee9"/>
              <path id="Trazado_1092055" data-name="Trazado 1092055" d="M98.975,144.519,14.51,224.884A14.3,14.3,0,0,0,10,235.244V342.955H202.468V235.242a14.306,14.306,0,0,0-4.509-10.36l-84.465-80.365A10.641,10.641,0,0,0,98.975,144.519Z" transform="translate(2856.657 2109.756)" fill="#b1aef1"/>
              <g id="Grupo_1219555" data-name="Grupo 1219555" transform="translate(2942.49 2426.439)">
                <circle id="Elipse_12054" data-name="Elipse 12054" cx="22.873" cy="22.873" r="22.873" transform="translate(2.197 2.198)" fill="#b1aef1"/>
                <path id="Trazado_1092075" data-name="Trazado 1092075" d="M62.3,217.735a20.676,20.676,0,1,1-20.676,20.676A20.675,20.675,0,0,1,62.3,217.735m0-4.395a25.071,25.071,0,1,0,25.071,25.071A25.1,25.1,0,0,0,62.3,213.34Z" transform="translate(-37.232 -213.34)" fill="#fff"/>
              </g>
              <g id="Grupo_1219556" data-name="Grupo 1219556" transform="translate(3114.507 2421.63)">
                <circle id="Elipse_12055" data-name="Elipse 12055" cx="22.873" cy="22.873" r="22.873" transform="translate(0 17.507) rotate(-22.5)" fill="#97dee9"/>
                <path id="Trazado_1092076" data-name="Trazado 1092076" d="M134.72,217.735a20.676,20.676,0,1,1-20.676,20.676,20.675,20.675,0,0,1,20.676-20.676m0-4.395a25.071,25.071,0,1,0,25.071,25.071A25.1,25.1,0,0,0,134.72,213.34Z" transform="translate(-104.848 -208.531)" fill="#fff"/>
              </g>
              <g id="Grupo_1219560" data-name="Grupo 1219560" transform="translate(2963.747 2443.189)">
                <path id="Trazado_1092080" data-name="Trazado 1092080" d="M49.8,223.657h-.051l-3.174,1.509-.64-2.918,4.4-2.049h3.225v16.645H49.8Z" transform="translate(-45.938 -220.2)" fill="#fff"/>
              </g>
              <g id="Grupo_1219561" data-name="Grupo 1219561" transform="translate(3138.477 2443.05)">
                <path id="Trazado_1092081" data-name="Trazado 1092081" d="M117.5,237.066V234.71l2.151-1.946c3.636-3.252,5.4-5.123,5.455-7.066,0-1.358-.82-2.432-2.74-2.432a6.034,6.034,0,0,0-3.56,1.384l-1.1-2.791a9.217,9.217,0,0,1,5.455-1.716c3.763,0,5.838,2.2,5.838,5.225,0,2.791-2.022,5.018-4.429,7.169l-1.536,1.279v.051h6.273v3.2H117.5Z" transform="translate(-117.5 -220.143)" fill="#fff"/>
              </g>
              <path id="Trazado_1092085" data-name="Trazado 1092085" d="M234.656,95.6l-80.365,65.311a10.9,10.9,0,0,0-4.29,8.419V352.874H333.126V169.325a10.91,10.91,0,0,0-4.29-8.419L248.471,95.6A11.425,11.425,0,0,0,234.656,95.6Z" transform="translate(3233.485 2099.838)" fill="#ffadcc"/>
              <g id="Grupo_1219565" data-name="Grupo 1219565" transform="translate(3449.977 2426.439)">
                <circle id="Elipse_12056" data-name="Elipse 12056" cx="22.873" cy="22.873" r="22.873" transform="translate(2.198 2.198)" fill="#ffadcc"/>
                <path id="Trazado_1092077" data-name="Trazado 1092077" d="M202.3,217.735a20.676,20.676,0,1,1-20.676,20.676A20.675,20.675,0,0,1,202.3,217.735m0-4.395a25.071,25.071,0,1,0,25.071,25.071A25.1,25.1,0,0,0,202.3,213.34Z" transform="translate(-177.232 -213.34)" fill="#fff"/>
              </g>
              <g id="Grupo_1219566" data-name="Grupo 1219566" transform="translate(3469.171 2442.908)">
                <path id="Trazado_1092082" data-name="Trazado 1092082" d="M185.887,233.194a9.16,9.16,0,0,0,3.865,1.026c2.024,0,3.047-.974,3.047-2.227,0-1.638-1.638-2.381-3.355-2.381h-1.587v-2.793h1.511c1.306-.024,2.971-.513,2.971-1.919,0-1-.82-1.741-2.459-1.741a7.586,7.586,0,0,0-3.482,1l-.794-2.818a10.437,10.437,0,0,1,5.147-1.255c3.56,0,5.53,1.87,5.53,4.148a3.99,3.99,0,0,1-3.047,3.868v.051a4.136,4.136,0,0,1,3.611,4.046c0,2.945-2.586,5.1-6.812,5.1a9.847,9.847,0,0,1-4.942-1.177Z" transform="translate(-185.093 -220.085)" fill="#fff"/>
              </g>
              <path id="Trazado_1092053" data-name="Trazado 1092053" d="M304.656,120l-80.365,62.315a10.253,10.253,0,0,0-4.29,8.033V319.076H403.126V190.344a10.258,10.258,0,0,0-4.29-8.033L318.471,120A11.865,11.865,0,0,0,304.656,120Z" transform="translate(3331.959 2133.635)" fill="#605f84"/>
              <g id="Grupo_1219558" data-name="Grupo 1219558" transform="translate(3618.449 2426.439)">
                <circle id="Elipse_12057" data-name="Elipse 12057" cx="22.873" cy="22.873" r="22.873" transform="translate(2.198 2.198)" fill="#605f84"/>
                <path id="Trazado_1092078" data-name="Trazado 1092078" d="M272.3,217.735a20.676,20.676,0,1,1-20.676,20.676A20.675,20.675,0,0,1,272.3,217.735m0-4.395a25.071,25.071,0,1,0,25.071,25.071A25.1,25.1,0,0,0,272.3,213.34Z" transform="translate(-247.232 -213.34)" fill="#fff"/>
              </g>
              <g id="Grupo_1219563" data-name="Grupo 1219563" transform="translate(3636.991 2443.189)">
                <path id="Trazado_1092083" data-name="Trazado 1092083" d="M262.2,236.845v-3.97h-7.374V230.34l6.3-10.14h4.764v9.757h2v2.918h-2v3.97H262.2Zm0-6.888V226.27c0-1,.051-2.022.127-3.1h-.1c-.537,1.074-.974,2.049-1.538,3.1l-2.227,3.636v.051Z" transform="translate(-254.826 -220.2)" fill="#fff"/>
              </g>
            </g>
            <path id="Trazado_1193018" data-name="Trazado 1193018" d="M46.95,10.336a4.237,4.237,0,0,0,1.383-.187,1.336,1.336,0,0,0,1.008-1.336.986.986,0,0,0-.5-.883,5.377,5.377,0,0,0-1.57-.539l-1.219-.273a7.7,7.7,0,0,1-2.484-.883A2.808,2.808,0,0,1,42.4,3.742a3.328,3.328,0,0,1,1.125-2.57,4.757,4.757,0,0,1,3.3-1.023,5.024,5.024,0,0,1,3.105.965,3.445,3.445,0,0,1,1.348,2.8H48.973a1.652,1.652,0,0,0-.906-1.477,3.039,3.039,0,0,0-1.4-.289,2.611,2.611,0,0,0-1.484.375A1.194,1.194,0,0,0,44.63,3.57a.991.991,0,0,0,.547.922,6.694,6.694,0,0,0,1.5.477l1.984.477a5.13,5.13,0,0,1,1.969.836,2.816,2.816,0,0,1,1.031,2.352,3.319,3.319,0,0,1-1.207,2.621,5.057,5.057,0,0,1-3.41,1.043A5.531,5.531,0,0,1,43.5,11.27a3.414,3.414,0,0,1-1.289-2.824h2.3a2.365,2.365,0,0,0,.43,1.18A2.472,2.472,0,0,0,46.95,10.336Zm11.775.461q-.031.039-.156.234a1.568,1.568,0,0,1-.3.344,3.1,3.1,0,0,1-1.012.641,3.448,3.448,0,0,1-1.145.172,2.551,2.551,0,0,1-2.547-1.359A5.2,5.2,0,0,1,53.2,8.617V3.484h2.281V8.617a2.687,2.687,0,0,0,.172,1.094,1.19,1.19,0,0,0,1.2.648,1.563,1.563,0,0,0,1.563-.922,3.337,3.337,0,0,0,.219-1.32V3.484h2.258V12H58.725Zm11.6-1.3a2.824,2.824,0,0,1-.789,1.539,3.866,3.866,0,0,1-3.062,1.242,4.318,4.318,0,0,1-2.867-1.047,4.222,4.222,0,0,1-1.242-3.406,4.734,4.734,0,0,1,1.121-3.391,3.833,3.833,0,0,1,2.91-1.18,4.463,4.463,0,0,1,1.914.4,3.353,3.353,0,0,1,1.406,1.258,4.292,4.292,0,0,1,.648,1.758,11.353,11.353,0,0,1,.07,1.688H64.609a2.116,2.116,0,0,0,.8,1.8,1.9,1.9,0,0,0,1.109.32,1.6,1.6,0,0,0,1.117-.391,1.855,1.855,0,0,0,.414-.586Zm-2.2-2.609a1.938,1.938,0,0,0-.535-1.34A1.662,1.662,0,0,0,66.4,5.094a1.512,1.512,0,0,0-1.2.484,2.418,2.418,0,0,0-.535,1.313Zm7.822-1.758a1.55,1.55,0,0,0-1.555.961,3.3,3.3,0,0,0-.219,1.3V12H71.955V3.5H74.1V4.742a3.78,3.78,0,0,1,.813-.945,2.824,2.824,0,0,1,1.742-.516,3.287,3.287,0,0,1,2.16.691,2.811,2.811,0,0,1,.84,2.293V12H77.377V6.82a2.364,2.364,0,0,0-.18-1.031A1.264,1.264,0,0,0,75.947,5.133Zm1.039-3.016A2.924,2.924,0,0,1,76.3,2q-.258-.062-.492-.141l-.633-.211a1.447,1.447,0,0,0-.258-.066,1.617,1.617,0,0,0-.25-.02.689.689,0,0,0-.484.172,1,1,0,0,0-.266.492H72.9a3.639,3.639,0,0,1,.445-1.219A1.673,1.673,0,0,1,74.83.266a1.835,1.835,0,0,1,.414.047,2.536,2.536,0,0,1,.344.1l.734.273q.328.109.43.141a.769.769,0,0,0,.227.031.625.625,0,0,0,.527-.2,1.3,1.3,0,0,0,.223-.473h1.039a3.123,3.123,0,0,1-.559,1.375A1.436,1.436,0,0,1,76.986,2.117Zm11.83,2.445a4.969,4.969,0,0,1,1.078,3.2,4.936,4.936,0,0,1-1.078,3.207,4.688,4.688,0,0,1-6.547,0,4.936,4.936,0,0,1-1.078-3.207,4.969,4.969,0,0,1,1.078-3.2,4.64,4.64,0,0,1,6.547,0Zm-3.281.531a1.779,1.779,0,0,0-1.5.691A3.2,3.2,0,0,0,83.5,7.758a3.217,3.217,0,0,0,.527,1.977,1.97,1.97,0,0,0,3,0,3.235,3.235,0,0,0,.523-1.977,3.217,3.217,0,0,0-.523-1.973A1.769,1.769,0,0,0,85.534,5.094Z" transform="translate(309 2124.381)" fill="#0b0a0a"/>
            <path id="Trazado_1193019" data-name="Trazado 1193019" d="M29.222,9.633H24.979L24.183,12H21.667L25.776.484H28.5L32.573,12H29.964ZM28.55,7.648,27.112,3.117,25.628,7.648ZM33.9.484H36.13V12H33.9Zm6.689,3V12H38.334V3.484Zm0-3.07V2.469H38.334V.414Zm6.939,5.414a1.091,1.091,0,0,0-1.1-.617,1.315,1.315,0,0,0-1.281.617,2.378,2.378,0,0,0-.18,1.047V12H42.711V3.5h2.164V4.742a3.583,3.583,0,0,1,.781-.945,3.091,3.091,0,0,1,3.258-.07,2.5,2.5,0,0,1,.734,1.023,2.831,2.831,0,0,1,1.086-1.1A3.314,3.314,0,0,1,52.266,3.3a2.964,2.964,0,0,1,1.109.219,2.475,2.475,0,0,1,.992.766,2.446,2.446,0,0,1,.484,1.094,7.56,7.56,0,0,1,.078,1.258L54.914,12H52.633V6.578a1.78,1.78,0,0,0-.156-.8,1.11,1.11,0,0,0-1.094-.594,1.28,1.28,0,0,0-1.273.766,2.4,2.4,0,0,0-.18.977V12H47.687V6.93A2.848,2.848,0,0,0,47.531,5.828ZM64.267,9.5a2.824,2.824,0,0,1-.789,1.539,3.866,3.866,0,0,1-3.062,1.242,4.318,4.318,0,0,1-2.867-1.047,4.222,4.222,0,0,1-1.242-3.406,4.734,4.734,0,0,1,1.121-3.391,3.833,3.833,0,0,1,2.91-1.18,4.463,4.463,0,0,1,1.914.4,3.353,3.353,0,0,1,1.406,1.258,4.292,4.292,0,0,1,.648,1.758,11.353,11.353,0,0,1,.07,1.688H58.548a2.116,2.116,0,0,0,.8,1.8,1.9,1.9,0,0,0,1.109.32,1.6,1.6,0,0,0,1.117-.391,1.855,1.855,0,0,0,.414-.586Zm-2.2-2.609a1.938,1.938,0,0,0-.535-1.34,1.662,1.662,0,0,0-1.191-.457,1.512,1.512,0,0,0-1.2.484A2.418,2.418,0,0,0,58.6,6.891Zm7.822-1.758a1.55,1.55,0,0,0-1.555.961,3.3,3.3,0,0,0-.219,1.3V12H65.894V3.5h2.148V4.742a3.78,3.78,0,0,1,.813-.945A2.824,2.824,0,0,1,70.6,3.281a3.287,3.287,0,0,1,2.16.691,2.811,2.811,0,0,1,.84,2.293V12H71.316V6.82a2.364,2.364,0,0,0-.18-1.031A1.264,1.264,0,0,0,69.886,5.133Zm9.666,5.281v1.664l-1.055.039a2.83,2.83,0,0,1-2.156-.547,1.628,1.628,0,0,1-.375-1.18V5.148H74.778V3.563h1.188V1.188h2.2V3.563h1.383V5.148H78.169v4.5a1.014,1.014,0,0,0,.133.652,1.462,1.462,0,0,0,.813.129q.1,0,.215,0T79.552,10.414ZM81.3,4.406a3.636,3.636,0,0,1,3.031-1.125,5.386,5.386,0,0,1,2.484.555A2.13,2.13,0,0,1,87.9,5.93V9.836q0,.406.016.984a1.238,1.238,0,0,0,.133.594.8.8,0,0,0,.328.258V12H85.959a2.48,2.48,0,0,1-.141-.484q-.039-.227-.062-.516a4.575,4.575,0,0,1-1.062.852,3.2,3.2,0,0,1-1.625.414,2.794,2.794,0,0,1-1.91-.66A2.355,2.355,0,0,1,80.4,9.734a2.429,2.429,0,0,1,1.211-2.273,5.377,5.377,0,0,1,1.953-.547l.758-.094a3.475,3.475,0,0,0,.883-.2.669.669,0,0,0,.477-.633.751.751,0,0,0-.363-.723,2.269,2.269,0,0,0-1.066-.2,1.389,1.389,0,0,0-1.117.391,1.624,1.624,0,0,0-.312.781H80.678A3.268,3.268,0,0,1,81.3,4.406Zm1.656,5.984a1.163,1.163,0,0,0,.766.258,2.268,2.268,0,0,0,1.324-.422,1.8,1.8,0,0,0,.629-1.539V7.859a2.42,2.42,0,0,1-.426.215,3.561,3.561,0,0,1-.59.152l-.5.094a3.229,3.229,0,0,0-1.008.3,1.021,1.021,0,0,0-.516.945A.978.978,0,0,0,82.959,10.391ZM97.25,6.539H94.969a1.976,1.976,0,0,0-.32-.859,1.343,1.343,0,0,0-1.164-.516,1.533,1.533,0,0,0-1.539,1.117,4.671,4.671,0,0,0-.219,1.578,4.3,4.3,0,0,0,.219,1.508,1.486,1.486,0,0,0,1.5,1.063,1.323,1.323,0,0,0,1.109-.422,2.1,2.1,0,0,0,.4-1.094h2.273a3.725,3.725,0,0,1-.734,1.922,3.57,3.57,0,0,1-3.1,1.461,3.628,3.628,0,0,1-3.023-1.219A4.932,4.932,0,0,1,89.4,7.914,5,5,0,0,1,90.469,4.5a3.726,3.726,0,0,1,2.953-1.219A4.447,4.447,0,0,1,96.043,4,3.343,3.343,0,0,1,97.25,6.539Zm3.822-3.055V12H98.814V3.484Zm0-3.07V2.469H98.814V.414Zm9.259,4.148a4.969,4.969,0,0,1,1.078,3.2,4.936,4.936,0,0,1-1.078,3.207,4.688,4.688,0,0,1-6.547,0,4.936,4.936,0,0,1-1.078-3.207,4.969,4.969,0,0,1,1.078-3.2,4.64,4.64,0,0,1,6.547,0Zm-3.281.531a1.779,1.779,0,0,0-1.5.691,3.2,3.2,0,0,0-.527,1.973,3.217,3.217,0,0,0,.527,1.977,1.97,1.97,0,0,0,3,0,3.235,3.235,0,0,0,.523-1.977,3.217,3.217,0,0,0-.523-1.973A1.769,1.769,0,0,0,107.05,5.094Zm-1.312-2.758L107.238,0h2.484l-2.375,2.336Zm11.275,2.8a1.55,1.55,0,0,0-1.555.961,3.3,3.3,0,0,0-.219,1.3V12h-2.219V3.5h2.148V4.742a3.78,3.78,0,0,1,.813-.945,2.824,2.824,0,0,1,1.742-.516,3.287,3.287,0,0,1,2.16.691,2.811,2.811,0,0,1,.84,2.293V12h-2.281V6.82a2.364,2.364,0,0,0-.18-1.031A1.264,1.264,0,0,0,117.013,5.133Z" transform="translate(475 2124.381)" fill="#212429"/>
            <path id="Trazado_1193020" data-name="Trazado 1193020" d="M40.275,6.969H34.681V9.93h6.375V12H32.33V.484h8.445V2.523H34.681V4.969h5.594Zm7.259-1.141a1.091,1.091,0,0,0-1.1-.617,1.315,1.315,0,0,0-1.281.617,2.378,2.378,0,0,0-.18,1.047V12H42.714V3.5h2.164V4.742a3.583,3.583,0,0,1,.781-.945,3.091,3.091,0,0,1,3.258-.07,2.5,2.5,0,0,1,.734,1.023,2.831,2.831,0,0,1,1.086-1.1A3.314,3.314,0,0,1,52.269,3.3a2.964,2.964,0,0,1,1.109.219,2.475,2.475,0,0,1,.992.766,2.446,2.446,0,0,1,.484,1.094,7.56,7.56,0,0,1,.078,1.258L54.917,12H52.636V6.578a1.78,1.78,0,0,0-.156-.8,1.11,1.11,0,0,0-1.094-.594,1.28,1.28,0,0,0-1.273.766,2.4,2.4,0,0,0-.18.977V12H47.691V6.93A2.848,2.848,0,0,0,47.534,5.828ZM64.083,4.563a4.969,4.969,0,0,1,1.078,3.2,4.936,4.936,0,0,1-1.078,3.207,4.688,4.688,0,0,1-6.547,0,4.936,4.936,0,0,1-1.078-3.207,4.969,4.969,0,0,1,1.078-3.2,4.64,4.64,0,0,1,6.547,0ZM60.8,5.094a1.779,1.779,0,0,0-1.5.691,3.2,3.2,0,0,0-.527,1.973A3.217,3.217,0,0,0,59.3,9.734a1.97,1.97,0,0,0,3,0,3.235,3.235,0,0,0,.523-1.977A3.217,3.217,0,0,0,62.3,5.785,1.769,1.769,0,0,0,60.8,5.094ZM74.123,6.539H71.842a1.976,1.976,0,0,0-.32-.859,1.343,1.343,0,0,0-1.164-.516,1.533,1.533,0,0,0-1.539,1.117A4.671,4.671,0,0,0,68.6,7.859a4.3,4.3,0,0,0,.219,1.508,1.486,1.486,0,0,0,1.5,1.063,1.323,1.323,0,0,0,1.109-.422,2.1,2.1,0,0,0,.4-1.094H74.1a3.725,3.725,0,0,1-.734,1.922,3.57,3.57,0,0,1-3.1,1.461,3.628,3.628,0,0,1-3.023-1.219,4.932,4.932,0,0,1-.969-3.164A5,5,0,0,1,67.342,4.5,3.726,3.726,0,0,1,70.3,3.281,4.447,4.447,0,0,1,72.916,4,3.343,3.343,0,0,1,74.123,6.539Zm3.822-3.055V12H75.688V3.484Zm0-3.07V2.469H75.688V.414ZM87.2,4.563a4.969,4.969,0,0,1,1.078,3.2A4.936,4.936,0,0,1,87.2,10.965a4.688,4.688,0,0,1-6.547,0A4.936,4.936,0,0,1,79.58,7.758a4.969,4.969,0,0,1,1.078-3.2,4.64,4.64,0,0,1,6.547,0Zm-3.281.531a1.779,1.779,0,0,0-1.5.691,3.2,3.2,0,0,0-.527,1.973,3.217,3.217,0,0,0,.527,1.977,1.97,1.97,0,0,0,3,0,3.235,3.235,0,0,0,.523-1.977,3.217,3.217,0,0,0-.523-1.973A1.769,1.769,0,0,0,83.923,5.094ZM82.611,2.336,84.111,0H86.6L84.22,2.336Zm11.275,2.8a1.55,1.55,0,0,0-1.555.961,3.3,3.3,0,0,0-.219,1.3V12H89.894V3.5h2.148V4.742a3.78,3.78,0,0,1,.813-.945A2.824,2.824,0,0,1,94.6,3.281a3.287,3.287,0,0,1,2.16.691,2.811,2.811,0,0,1,.84,2.293V12H95.316V6.82a2.364,2.364,0,0,0-.18-1.031A1.264,1.264,0,0,0,93.886,5.133Zm13.675,4.633,1.758-6.281h2.367l-2.922,8.375a11.76,11.76,0,0,1-1.336,3,2.539,2.539,0,0,1-1.969.582q-.3,0-.477,0t-.539-.027V13.633l.281.016a3.509,3.509,0,0,0,.625-.023,1.122,1.122,0,0,0,.5-.18,1.2,1.2,0,0,0,.363-.555,1.173,1.173,0,0,0,.137-.516l-3.125-8.891H105.7ZM35.083,25.828a1.091,1.091,0,0,0-1.1-.617,1.315,1.315,0,0,0-1.281.617,2.378,2.378,0,0,0-.18,1.047V32H30.262V23.5h2.164v1.242a3.583,3.583,0,0,1,.781-.945,3.091,3.091,0,0,1,3.258-.07A2.5,2.5,0,0,1,37.2,24.75a2.831,2.831,0,0,1,1.086-1.1,3.314,3.314,0,0,1,1.531-.352,2.964,2.964,0,0,1,1.109.219,2.475,2.475,0,0,1,.992.766,2.446,2.446,0,0,1,.484,1.094,7.56,7.56,0,0,1,.078,1.258L42.465,32H40.184V26.578a1.78,1.78,0,0,0-.156-.8,1.11,1.11,0,0,0-1.094-.594,1.28,1.28,0,0,0-1.273.766,2.4,2.4,0,0,0-.18.977V32H35.239V26.93A2.848,2.848,0,0,0,35.083,25.828Zm16.548-1.266a5.292,5.292,0,0,1,0,6.4A3.961,3.961,0,0,1,48.358,32.3a3.961,3.961,0,0,1-3.273-1.332,5.292,5.292,0,0,1,0-6.4,3.934,3.934,0,0,1,3.273-1.352A3.934,3.934,0,0,1,51.631,24.563Zm-3.281.531a1.779,1.779,0,0,0-1.5.691,3.2,3.2,0,0,0-.527,1.973,3.217,3.217,0,0,0,.527,1.977,1.97,1.97,0,0,0,3,0,3.235,3.235,0,0,0,.523-1.977,3.217,3.217,0,0,0-.523-1.973A1.769,1.769,0,0,0,48.35,25.094Zm9.853,5.32v1.664l-1.055.039a2.83,2.83,0,0,1-2.156-.547,1.628,1.628,0,0,1-.375-1.18V25.148H53.43V23.563h1.188V21.188h2.2v2.375H58.2v1.586H56.82v4.5a1.014,1.014,0,0,0,.133.652,1.462,1.462,0,0,0,.813.129q.1,0,.215,0T58.2,30.414Zm3.72-6.93V32H59.666V23.484Zm0-3.07v2.055H59.666V20.414Zm1.322,3.07h2.5l1.773,6.281,1.813-6.281h2.391L68.652,32H66.3Zm10.056.922a3.636,3.636,0,0,1,3.031-1.125,5.386,5.386,0,0,1,2.484.555A2.13,2.13,0,0,1,79.9,25.93v3.906q0,.406.016.984a1.238,1.238,0,0,0,.133.594.8.8,0,0,0,.328.258V32H77.958a2.48,2.48,0,0,1-.141-.484q-.039-.227-.062-.516a4.575,4.575,0,0,1-1.062.852,3.2,3.2,0,0,1-1.625.414,2.794,2.794,0,0,1-1.91-.66,2.355,2.355,0,0,1-.754-1.871,2.429,2.429,0,0,1,1.211-2.273,5.377,5.377,0,0,1,1.953-.547l.758-.094a3.475,3.475,0,0,0,.883-.2.669.669,0,0,0,.477-.633.751.751,0,0,0-.363-.723,2.269,2.269,0,0,0-1.066-.2,1.389,1.389,0,0,0-1.117.391,1.624,1.624,0,0,0-.312.781H72.677A3.268,3.268,0,0,1,73.3,24.406Zm1.656,5.984a1.163,1.163,0,0,0,.766.258,2.268,2.268,0,0,0,1.324-.422,1.8,1.8,0,0,0,.629-1.539v-.828a2.42,2.42,0,0,1-.426.215,3.561,3.561,0,0,1-.59.152l-.5.094a3.229,3.229,0,0,0-1.008.3,1.021,1.021,0,0,0-.516.945A.978.978,0,0,0,74.958,30.391Zm14.291-3.852H86.967a1.976,1.976,0,0,0-.32-.859,1.343,1.343,0,0,0-1.164-.516,1.533,1.533,0,0,0-1.539,1.117,4.671,4.671,0,0,0-.219,1.578,4.3,4.3,0,0,0,.219,1.508,1.486,1.486,0,0,0,1.5,1.063,1.323,1.323,0,0,0,1.109-.422,2.1,2.1,0,0,0,.4-1.094h2.273a3.725,3.725,0,0,1-.734,1.922,3.57,3.57,0,0,1-3.1,1.461,3.628,3.628,0,0,1-3.023-1.219,4.932,4.932,0,0,1-.969-3.164,5,5,0,0,1,1.07-3.414,3.726,3.726,0,0,1,2.953-1.219A4.447,4.447,0,0,1,88.041,24,3.343,3.343,0,0,1,89.248,26.539Zm3.822-3.055V32H90.813V23.484Zm0-3.07v2.055H90.813V20.414Zm9.259,4.148a5.292,5.292,0,0,1,0,6.4,4.688,4.688,0,0,1-6.547,0,5.292,5.292,0,0,1,0-6.4,4.64,4.64,0,0,1,6.547,0Zm-3.281.531a1.779,1.779,0,0,0-1.5.691,3.2,3.2,0,0,0-.527,1.973,3.217,3.217,0,0,0,.527,1.977,1.97,1.97,0,0,0,3,0,3.235,3.235,0,0,0,.523-1.977,3.217,3.217,0,0,0-.523-1.973A1.769,1.769,0,0,0,99.049,25.094Zm-1.312-2.758L99.236,20h2.484l-2.375,2.336Zm11.275,2.8a1.55,1.55,0,0,0-1.555.961,3.3,3.3,0,0,0-.219,1.3V32h-2.219V23.5h2.148v1.242a3.78,3.78,0,0,1,.813-.945,2.824,2.824,0,0,1,1.742-.516,3.287,3.287,0,0,1,2.16.691,2.811,2.811,0,0,1,.84,2.293V32h-2.281V26.82a2.364,2.364,0,0,0-.18-1.031A1.264,1.264,0,0,0,109.011,25.133Z" transform="translate(814 2114.381)" fill="#212429"/>
            <path id="Trazado_1193021" data-name="Trazado 1193021" d="M39.8,7.859H37.352V12H34.962V.484h5.016a4.085,4.085,0,0,1,2.766.891,3.451,3.451,0,0,1,1.031,2.758,3.534,3.534,0,0,1-1.031,2.883A4.541,4.541,0,0,1,39.8,7.859Zm1.125-2.4a1.666,1.666,0,0,0,.469-1.312,1.559,1.559,0,0,0-.473-1.281,2.051,2.051,0,0,0-1.324-.383H37.352V5.875h2.242A1.96,1.96,0,0,0,40.922,5.461Zm8.759.078a1.847,1.847,0,0,0-1.8.875,3.4,3.4,0,0,0-.258,1.516V12H45.377V3.484H47.5V4.969A4.708,4.708,0,0,1,48.4,3.8a2.446,2.446,0,0,1,1.625-.523q.063,0,.105,0l.191.012V5.578q-.211-.023-.375-.031T49.682,5.539Zm2.267-1.133A3.636,3.636,0,0,1,54.98,3.281a5.385,5.385,0,0,1,2.484.555A2.13,2.13,0,0,1,58.551,5.93V9.836q0,.406.016.984a1.238,1.238,0,0,0,.133.594.8.8,0,0,0,.328.258V12H56.605a2.48,2.48,0,0,1-.141-.484q-.039-.227-.062-.516a4.575,4.575,0,0,1-1.062.852,3.2,3.2,0,0,1-1.625.414,2.794,2.794,0,0,1-1.91-.66,2.355,2.355,0,0,1-.754-1.871,2.429,2.429,0,0,1,1.211-2.273,5.377,5.377,0,0,1,1.953-.547l.758-.094a3.475,3.475,0,0,0,.883-.2.669.669,0,0,0,.477-.633.751.751,0,0,0-.363-.723,2.269,2.269,0,0,0-1.066-.2,1.389,1.389,0,0,0-1.117.391,1.624,1.624,0,0,0-.312.781H51.324A3.268,3.268,0,0,1,51.949,4.406Zm1.656,5.984a1.163,1.163,0,0,0,.766.258,2.268,2.268,0,0,0,1.324-.422,1.8,1.8,0,0,0,.629-1.539V7.859a2.42,2.42,0,0,1-.426.215,3.561,3.561,0,0,1-.59.152l-.5.094a3.229,3.229,0,0,0-1.008.3,1.021,1.021,0,0,0-.516.945A.978.978,0,0,0,53.605,10.391Zm.164-8.055L55.269,0h2.484L55.379,2.336ZM67.9,6.539H65.615a1.976,1.976,0,0,0-.32-.859,1.343,1.343,0,0,0-1.164-.516,1.533,1.533,0,0,0-1.539,1.117,4.671,4.671,0,0,0-.219,1.578,4.3,4.3,0,0,0,.219,1.508,1.486,1.486,0,0,0,1.5,1.063,1.323,1.323,0,0,0,1.109-.422,2.1,2.1,0,0,0,.4-1.094h2.273a3.725,3.725,0,0,1-.734,1.922,3.57,3.57,0,0,1-3.1,1.461,3.628,3.628,0,0,1-3.023-1.219,4.932,4.932,0,0,1-.969-3.164A5,5,0,0,1,61.115,4.5a3.726,3.726,0,0,1,2.953-1.219A4.447,4.447,0,0,1,66.689,4,3.343,3.343,0,0,1,67.9,6.539Zm5.431,3.875v1.664l-1.055.039a2.83,2.83,0,0,1-2.156-.547,1.628,1.628,0,0,1-.375-1.18V5.148H68.554V3.563h1.188V1.188h2.2V3.563h1.383V5.148H71.945v4.5a1.014,1.014,0,0,0,.133.652,1.462,1.462,0,0,0,.813.129q.1,0,.215,0T73.327,10.414Zm3.72-6.93V12H74.79V3.484Zm0-3.07V2.469H74.79V.414Zm9.525,6.125H84.291a1.976,1.976,0,0,0-.32-.859,1.343,1.343,0,0,0-1.164-.516,1.533,1.533,0,0,0-1.539,1.117,4.671,4.671,0,0,0-.219,1.578,4.3,4.3,0,0,0,.219,1.508,1.486,1.486,0,0,0,1.5,1.063,1.323,1.323,0,0,0,1.109-.422,2.1,2.1,0,0,0,.4-1.094h2.273a3.725,3.725,0,0,1-.734,1.922,3.57,3.57,0,0,1-3.1,1.461,3.628,3.628,0,0,1-3.023-1.219,4.932,4.932,0,0,1-.969-3.164A5,5,0,0,1,79.791,4.5a3.726,3.726,0,0,1,2.953-1.219A4.447,4.447,0,0,1,85.366,4,3.343,3.343,0,0,1,86.573,6.539Zm1.853-2.133a3.636,3.636,0,0,1,3.031-1.125,5.386,5.386,0,0,1,2.484.555A2.13,2.13,0,0,1,95.027,5.93V9.836q0,.406.016.984a1.238,1.238,0,0,0,.133.594.8.8,0,0,0,.328.258V12H93.082a2.48,2.48,0,0,1-.141-.484q-.039-.227-.062-.516a4.575,4.575,0,0,1-1.062.852,3.2,3.2,0,0,1-1.625.414,2.794,2.794,0,0,1-1.91-.66,2.355,2.355,0,0,1-.754-1.871,2.429,2.429,0,0,1,1.211-2.273,5.377,5.377,0,0,1,1.953-.547l.758-.094a3.475,3.475,0,0,0,.883-.2.669.669,0,0,0,.477-.633.751.751,0,0,0-.363-.723,2.269,2.269,0,0,0-1.066-.2,1.389,1.389,0,0,0-1.117.391,1.624,1.624,0,0,0-.312.781H87.8A3.268,3.268,0,0,1,88.426,4.406Zm1.656,5.984a1.163,1.163,0,0,0,.766.258,2.268,2.268,0,0,0,1.324-.422A1.8,1.8,0,0,0,92.8,8.688V7.859a2.42,2.42,0,0,1-.426.215,3.561,3.561,0,0,1-.59.152l-.5.094a3.229,3.229,0,0,0-1.008.3,1.021,1.021,0,0,0-.516.945A.978.978,0,0,0,90.082,10.391Zm14.831-.625,1.758-6.281h2.367l-2.922,8.375a11.76,11.76,0,0,1-1.336,3,2.539,2.539,0,0,1-1.969.582q-.3,0-.477,0t-.539-.027V13.633l.281.016a3.509,3.509,0,0,0,.625-.023,1.122,1.122,0,0,0,.5-.18,1.2,1.2,0,0,0,.363-.555,1.173,1.173,0,0,0,.137-.516l-3.125-8.891h2.477ZM38.583,25.539a1.847,1.847,0,0,0-1.8.875,3.4,3.4,0,0,0-.258,1.516V32H34.278V23.484H36.4v1.484a4.708,4.708,0,0,1,.9-1.164,2.446,2.446,0,0,1,1.625-.523q.063,0,.105,0l.191.012v2.281q-.211-.023-.375-.031T38.583,25.539ZM47.819,29.5a2.824,2.824,0,0,1-.789,1.539,3.866,3.866,0,0,1-3.062,1.242A4.318,4.318,0,0,1,41.1,31.234a4.222,4.222,0,0,1-1.242-3.406,4.734,4.734,0,0,1,1.121-3.391,3.833,3.833,0,0,1,2.91-1.18,4.463,4.463,0,0,1,1.914.4,3.353,3.353,0,0,1,1.406,1.258,4.292,4.292,0,0,1,.648,1.758,11.352,11.352,0,0,1,.07,1.688H42.1a2.116,2.116,0,0,0,.8,1.8,1.9,1.9,0,0,0,1.109.32,1.6,1.6,0,0,0,1.117-.391,1.855,1.855,0,0,0,.414-.586Zm-2.2-2.609a1.938,1.938,0,0,0-.535-1.34,1.662,1.662,0,0,0-1.191-.457,1.512,1.512,0,0,0-1.2.484,2.418,2.418,0,0,0-.535,1.313ZM56.562,24.4a4.569,4.569,0,0,1,1.031,3.234,5.13,5.13,0,0,1-1.012,3.43,3.275,3.275,0,0,1-2.605,1.18,2.719,2.719,0,0,1-1.687-.508,3.274,3.274,0,0,1-.719-.82v4.438h-2.2V23.484H51.5v1.258a3.575,3.575,0,0,1,.766-.875,2.813,2.813,0,0,1,1.766-.57A3.348,3.348,0,0,1,56.562,24.4ZM55.3,27.742A3.351,3.351,0,0,0,54.848,26a1.564,1.564,0,0,0-1.457-.758,1.658,1.658,0,0,0-1.664,1.148,4.356,4.356,0,0,0-.234,1.547,2.467,2.467,0,0,0,.789,2.086,1.8,1.8,0,0,0,1.109.352,1.608,1.608,0,0,0,1.418-.719A3.352,3.352,0,0,0,55.3,27.742Zm11.2,1.758a2.824,2.824,0,0,1-.789,1.539,3.866,3.866,0,0,1-3.062,1.242,4.318,4.318,0,0,1-2.867-1.047,4.222,4.222,0,0,1-1.242-3.406,4.734,4.734,0,0,1,1.121-3.391,3.833,3.833,0,0,1,2.91-1.18,4.463,4.463,0,0,1,1.914.4,3.353,3.353,0,0,1,1.406,1.258,4.292,4.292,0,0,1,.648,1.758,11.353,11.353,0,0,1,.07,1.688H60.775a2.116,2.116,0,0,0,.8,1.8,1.9,1.9,0,0,0,1.109.32,1.6,1.6,0,0,0,1.117-.391,1.855,1.855,0,0,0,.414-.586Zm-2.2-2.609a1.938,1.938,0,0,0-.535-1.34,1.662,1.662,0,0,0-1.191-.457,1.512,1.512,0,0,0-1.2.484,2.418,2.418,0,0,0-.535,1.313ZM72,30.414v1.664l-1.055.039a2.83,2.83,0,0,1-2.156-.547,1.628,1.628,0,0,1-.375-1.18V25.148H67.23V23.563h1.188V21.188h2.2v2.375H72v1.586H70.62v4.5a1.014,1.014,0,0,0,.133.652,1.462,1.462,0,0,0,.813.129q.1,0,.215,0T72,30.414Zm3.72-6.93V32H73.466V23.484Zm0-3.07v2.055H73.466V20.414Zm9.525,6.125H82.967a1.976,1.976,0,0,0-.32-.859,1.343,1.343,0,0,0-1.164-.516,1.533,1.533,0,0,0-1.539,1.117,4.671,4.671,0,0,0-.219,1.578,4.3,4.3,0,0,0,.219,1.508,1.486,1.486,0,0,0,1.5,1.063,1.323,1.323,0,0,0,1.109-.422,2.1,2.1,0,0,0,.4-1.094h2.273a3.725,3.725,0,0,1-.734,1.922,3.57,3.57,0,0,1-3.1,1.461,3.628,3.628,0,0,1-3.023-1.219,4.932,4.932,0,0,1-.969-3.164,5,5,0,0,1,1.07-3.414,3.726,3.726,0,0,1,2.953-1.219A4.447,4.447,0,0,1,84.041,24,3.343,3.343,0,0,1,85.248,26.539Zm3.822-3.055V32H86.813V23.484Zm0-3.07v2.055H86.813V20.414Zm9.259,4.148a5.292,5.292,0,0,1,0,6.4,4.688,4.688,0,0,1-6.547,0,5.292,5.292,0,0,1,0-6.4,4.64,4.64,0,0,1,6.547,0Zm-3.281.531a1.779,1.779,0,0,0-1.5.691,3.2,3.2,0,0,0-.527,1.973,3.217,3.217,0,0,0,.527,1.977,1.97,1.97,0,0,0,3,0,3.235,3.235,0,0,0,.523-1.977,3.217,3.217,0,0,0-.523-1.973A1.769,1.769,0,0,0,95.049,25.094Zm-1.312-2.758L95.236,20H97.72l-2.375,2.336Zm11.275,2.8a1.55,1.55,0,0,0-1.555.961,3.3,3.3,0,0,0-.219,1.3V32h-2.219V23.5h2.148v1.242a3.78,3.78,0,0,1,.813-.945,2.824,2.824,0,0,1,1.742-.516,3.287,3.287,0,0,1,2.16.691,2.811,2.811,0,0,1,.84,2.293V32h-2.281V26.82a2.364,2.364,0,0,0-.18-1.031A1.264,1.264,0,0,0,105.011,25.133Z" transform="translate(978 2114.381)" fill="#fff"/>
          </g>
          <g id="OBJECT" transform="translate(624.996 2695.722)">
            <g id="Grupo_1231446" data-name="Grupo 1231446" transform="translate(50.524 22.937)">
              <g id="Grupo_1231444" data-name="Grupo 1231444" transform="translate(0 43.912)">
                <path id="Trazado_1192329" data-name="Trazado 1192329" d="M56.86,44.688s7.071-9.117,3.52-12.991S53.6,33.374,53.6,33.374a4.969,4.969,0,0,0-4.952-3.05C44.884,30.513,46.884,40.89,56.86,44.688Z" transform="translate(-46.876 -30.315)" fill="#e6eafc"/>
                <path id="Trazado_1192330" data-name="Trazado 1192330" d="M175.568,162.46s5.066-6.532,2.522-9.308-4.856,1.2-4.856,1.2a3.561,3.561,0,0,0-3.548-2.186C166.987,152.3,168.42,159.739,175.568,162.46Z" transform="translate(-101.088 -133.451)" fill="#e6eafc"/>
                <path id="Trazado_1192331" data-name="Trazado 1192331" d="M42.756,251.264s5.066-6.532,2.522-9.308-4.856,1.2-4.856,1.2a3.561,3.561,0,0,0-3.548-2.186C34.175,241.109,35.608,248.543,42.756,251.264Z" transform="translate(10.141 -126.26)" fill="#e6eafc"/>
              </g>
              <g id="Grupo_1231445" data-name="Grupo 1231445" transform="translate(154.271 0)">
                <path id="Trazado_1192333" data-name="Trazado 1192333" d="M323.75,43.343s-5.066-6.532-2.522-9.307,4.856,1.2,4.856,1.2a3.561,3.561,0,0,1,3.548-2.186C332.33,33.188,330.9,40.623,323.75,43.343Z" transform="translate(-320.513 -33.046)" fill="#e6eafc"/>
                <path id="Trazado_1192334" data-name="Trazado 1192334" d="M471.138,32.993s-5.066-6.532-2.522-9.308,4.856,1.2,4.856,1.2A3.561,3.561,0,0,1,477.02,22.7C479.719,22.838,478.285,30.272,471.138,32.993Z" transform="translate(-396.152 36.768)" fill="#e6eafc"/>
              </g>
            </g>
            <g id="Grupo_1231449" data-name="Grupo 1231449" transform="translate(122.703 18.807)">
              <g id="Grupo_1231447" data-name="Grupo 1231447" transform="translate(119.769 107.762)">
                <path id="Trazado_1192336" data-name="Trazado 1192336" d="M426.541,206.669l-.171-.171a10.951,10.951,0,0,0-14.508-.869h0l-.871-.684a9.8,9.8,0,0,0-13.809,1.723h0a9.544,9.544,0,0,0,1.5,13.239l13.171,11.317L425,219.94a9.743,9.743,0,0,0,1.864-12.826C426.763,206.964,426.655,206.815,426.541,206.669Z" transform="translate(-395.2 -202.853)" fill="#a5cae5"/>
                <path id="Trazado_1192337" data-name="Trazado 1192337" d="M421.255,216.153h-3.206a.413.413,0,0,1-.413-.413v-3.206a.413.413,0,0,0-.413-.413H413.5a.413.413,0,0,0-.413.413v3.206a.413.413,0,0,1-.413.413h-3.206a.413.413,0,0,0-.413.413v3.72a.413.413,0,0,0,.413.413h3.206a.413.413,0,0,1,.413.413v3.206a.413.413,0,0,0,.413.413h3.72a.413.413,0,0,0,.413-.413v-3.206a.413.413,0,0,1,.413-.413h3.206a.413.413,0,0,0,.413-.413v-3.72A.413.413,0,0,0,421.255,216.153Z" transform="translate(-398.717 -205.205)" fill="#fafbff"/>
              </g>
              <g id="Grupo_1231448" data-name="Grupo 1231448" transform="translate(0 0)">
                <path id="Trazado_1192338" data-name="Trazado 1192338" d="M112.335,60.825l-.171-.171a10.951,10.951,0,0,0-14.508-.869h0l-.871-.684a9.8,9.8,0,0,0-13.809,1.723h0a9.541,9.541,0,0,0,1.5,13.239L97.647,85.38,110.795,74.1a9.743,9.743,0,0,0,1.864-12.826C112.556,61.12,112.448,60.971,112.335,60.825Z" transform="translate(-80.993 -57.009)" fill="#a5cae5"/>
                <path id="Trazado_1192339" data-name="Trazado 1192339" d="M107.049,70.309h-3.206a.413.413,0,0,1-.413-.413V66.689a.413.413,0,0,0-.413-.413H99.3a.413.413,0,0,0-.413.413v3.206a.413.413,0,0,1-.413.413H95.263a.413.413,0,0,0-.413.413v3.72a.413.413,0,0,0,.413.413h3.206a.413.413,0,0,1,.413.413v3.206a.413.413,0,0,0,.413.413h3.72a.413.413,0,0,0,.413-.413V75.268a.413.413,0,0,1,.413-.413h3.206a.413.413,0,0,0,.413-.413v-3.72A.413.413,0,0,0,107.049,70.309Z" transform="translate(-84.511 -59.361)" fill="#fafbff"/>
              </g>
            </g>
            <g id="Grupo_1231452" data-name="Grupo 1231452" transform="translate(64.956 110.222)">
              <path id="Trazado_1192340" data-name="Trazado 1192340" d="M142.566,182.434c5.357-.229,13.992-1.261,20.742-5.23.839-.494.476-1.965-.46-1.857a59.706,59.706,0,0,1-15.793-.04V144.952c0-2.914-2.036-5.277-4.549-5.277H80.728c-2.512,0-4.549,2.362-4.549,5.277V177.16c0,2.915,2.036,5.277,4.549,5.277h56.826s1.951.124,4.933,0h.019C142.526,182.438,142.546,182.435,142.566,182.434Z" transform="translate(-76.179 -139.675)" fill="#a5cae5"/>
            </g>
            <g id="Grupo_1231485" data-name="Grupo 1231485" transform="translate(72.606 46.875)">
              <g id="Grupo_1231481" data-name="Grupo 1231481" transform="translate(0 70.416)">
                <path id="Trazado_1192367" data-name="Trazado 1192367" d="M314.627,316.145c-1.865,28.847-4.843,33.7-12.207,36.875a.058.058,0,0,0-.022.007c-.91.4-1.88.769-2.932,1.149l.88,9.5,5.186,55.835H141.741l4.544-59.738,1.642-21.631,1.709-22.489-23.3-18.4s24.944-80.362,32.6-86.555c6.417-5.186,29.235-16.468,42.815-22.28,1.731-.739,3.305-1.388,4.678-1.933.724-.276,1.388-.53,1.992-.746,10.8-3.895,35.838-2.634,35.838-2.634s1.127.679,3.037,1.836c1.045.627,2.313,1.4,3.768,2.291,11.013,6.693,32.249,19.706,39.263,24.817,9.633,7.021,12.662,11.842,14.043,16.52S316.731,283.716,314.627,316.145Z" transform="translate(-96.562 -157.718)" fill="#fff"/>
                <path id="Trazado_1192368" data-name="Trazado 1192368" d="M166.718,271.231l1.113,46.927-6.269-4.258S164.469,278.535,166.718,271.231Z" transform="translate(-105.503 -180.137)" opacity="0.11"/>
                <path id="Trazado_1192369" data-name="Trazado 1192369" d="M249.2,319.805l36.066-1.786,8.134-45.667-2.016,50.892-3.773,1.034-28.748-1.031-1.285,5.438-10.737,1.645Z" transform="translate(-127.149 -180.422)" opacity="0.11"/>
                <path id="Trazado_1192370" data-name="Trazado 1192370" d="M170.1,251.977s-5.463,13.884-8.99,59.858" transform="translate(-105.387 -175.25)" fill="none" stroke="#afb1b2" stroke-linecap="round" stroke-linejoin="round" stroke-miterlimit="10" stroke-width="0.676"/>
                <path id="Trazado_1192371" data-name="Trazado 1192371" d="M259.819,344.692s1.255-3.97,2.336-4.131,3.822,5.988,3.822,5.988,8.5,18.258,6.042,38.957-2.78,17.017-3.58,17.177-5.444-13.209-5.124-23.3S259.819,344.692,259.819,344.692Z" transform="translate(-130.444 -197.735)" fill="#184656"/>
                <path id="Trazado_1192372" data-name="Trazado 1192372" d="M231.254,250s-8.964,8.785-8.964,91.177v95.364" transform="translate(-120.918 -174.748)" fill="none" stroke="#afb1b2" stroke-linecap="round" stroke-linejoin="round" stroke-miterlimit="10" stroke-width="0.676"/>
                <path id="Trazado_1192373" data-name="Trazado 1192373" d="M306.25,403.637l.88,9.5c-33.174,7.506-60.894,6.529-65.379,5.1-4.813-1.522-8.066-6.947-8.066-6.947l-80.616-2.059,1.642-21.631,42.778-9.842s38.875,8.715,38.83,14.2,4.455,19.43,5.022,20.169,4,.321,4,.321c37.864-.415,60.074-8.588,60.909-8.812C305.34,404.04,307.3,403.256,306.25,403.637Z" transform="translate(-103.347 -207.178)" opacity="0.11"/>
                <path id="Trazado_1192374" data-name="Trazado 1192374" d="M202.841,317.865,233,279.156s2.8-.479,4.446,3.214L205.3,324.7Z" transform="translate(-115.981 -182.144)" fill="#400d75"/>
                <path id="Trazado_1192375" data-name="Trazado 1192375" d="M277.349,165.372a10.2,10.2,0,0,0,7.974-3.712c3.438-4.056.963-12.512.963-12.512l-8.318,2.888-5.362,5.775Z" transform="translate(-133.69 -149.148)" fill="#131e33"/>
                <path id="Trazado_1192376" data-name="Trazado 1192376" d="M271.824,180.789a79.444,79.444,0,0,0-11.476,9.887c-14.878,15.162-27.086,35.928-27.086,35.928-.433-1.873-.8-4.156-1.119-6.693-1.082-8.656-1.559-20.266-1.768-28.533-.157-6.074-.164-10.349-.164-10.349l4.581-1.657-.276-2.709.276-.164L266.57,157.83c.418,4.865,2.142,11.9,3.507,16.9C271.047,178.275,271.824,180.789,271.824,180.789Z" transform="translate(-122.928 -151.352)" fill="#f0997f"/>
                <path id="Trazado_1192377" data-name="Trazado 1192377" d="M260.4,201.85c-14.879,15.162-27.086,35.928-27.086,35.928-.433-1.873-.8-4.156-1.119-6.693-1.082-8.656-1.559-20.266-1.768-28.533C234.549,204.409,243.189,205.984,260.4,201.85Z" transform="translate(-122.984 -162.526)" fill="#bad9d6"/>
                <path id="Trazado_1192378" data-name="Trazado 1192378" d="M231.874,190.282s-.56,22.489.269,36.957c-1.88-15.013-1.933-38.883-1.933-38.883l4.581-1.656Z" transform="translate(-122.928 -158.68)" fill="#020203" opacity="0.2"/>
                <path id="Trazado_1192379" data-name="Trazado 1192379" d="M230.21,181.028l4.581-1.657-.276-2.709L266.57,157.83c.418,4.865,2.142,11.9,3.507,16.9C254.841,180.678,230.21,181.028,230.21,181.028Z" transform="translate(-122.928 -151.352)" fill="#dd7057"/>
                <path id="Trazado_1192380" data-name="Trazado 1192380" d="M257.059,379.036,227.2,371.4l-2.455-4.081L200.88,327.573s15.55-12.215,18.885-12.5,12.707,3.4,14.513,4.305,2.985,3.194,3.611,5.977,2.5,2.843,4.029,5.134.351,6.947.351,6.947l6.924,2.089,1.821.552C259.842,358.054,257.059,379.036,257.059,379.036Z" transform="translate(-115.483 -191.263)" fill="#fdbd9b"/>
                <path id="Trazado_1192381" data-name="Trazado 1192381" d="M225.063,331.816a36.988,36.988,0,0,0-7.612,2.221c-2.55,1.295-7.763,4.008-7.763,4.008l-.437-1.183s7.782-4.13,10.816-4.792A13.122,13.122,0,0,1,225.063,331.816Z" transform="translate(-117.608 -195.484)" fill="#f0997f"/>
                <path id="Trazado_1192382" data-name="Trazado 1192382" d="M234.334,360.923a65.607,65.607,0,0,0-6.584,1.947,32.033,32.033,0,0,0-4,2.534l.98-2.452A26.935,26.935,0,0,1,229.387,361,29.6,29.6,0,0,1,234.334,360.923Z" transform="translate(-121.287 -202.886)" fill="#f0997f"/>
                <path id="Trazado_1192383" data-name="Trazado 1192383" d="M233.156,346.333s-7.749.307-10.582,1.261a22.15,22.15,0,0,0-6.022,3.76l.627-2.511a22.88,22.88,0,0,1,5.146-2.6C224.181,345.824,233.156,346.333,233.156,346.333Z" transform="translate(-119.461 -199.136)" fill="#f0997f"/>
                <path id="Trazado_1192384" data-name="Trazado 1192384" d="M265.176,387.359l-29.862-7.641-2.455-4.082,24.728,4.5c2.791-12.3.388-28.347-.276-32.286l1.821.552C267.96,366.377,265.176,387.359,265.176,387.359Z" transform="translate(-123.601 -199.586)" fill="#f0997f"/>
                <path id="Trazado_1192385" data-name="Trazado 1192385" d="M208.135,337.433s8.362-4.746,11.648-5.322,11.648,0,11.648,0" transform="translate(-117.325 -195.525)" fill="none" stroke="#b72525" stroke-linecap="round" stroke-linejoin="round" stroke-miterlimit="10" stroke-width="0.552"/>
                <path id="Trazado_1192386" data-name="Trazado 1192386" d="M233.505,346.477s-9.184-.823-12.618-.3-11.051,7.093-11.051,7.093" transform="translate(-117.756 -199.117)" fill="none" stroke="#b72525" stroke-linecap="round" stroke-linejoin="round" stroke-miterlimit="10" stroke-width="0.552"/>
                <path id="Trazado_1192387" data-name="Trazado 1192387" d="M238.658,361.581s-6.2-1.117-9.781-.67-9.035,4.852-9.035,4.852" transform="translate(-120.296 -202.874)" fill="none" stroke="#b72525" stroke-linecap="round" stroke-linejoin="round" stroke-miterlimit="10" stroke-width="0.552"/>
                <path id="Trazado_1192388" data-name="Trazado 1192388" d="M227.587,252.141s6.425-23.742,54.887-29.038l-16.366-12.182,25.846-11.44-15.893-11.366" transform="translate(-122.262 -159.039)" fill="none" stroke="#afb1b2" stroke-linecap="round" stroke-linejoin="round" stroke-miterlimit="10" stroke-width="0.676"/>
                <path id="Trazado_1192389" data-name="Trazado 1192389" d="M258.095,254.411a2.269,2.269,0,0,0,2.43,0c1.529-.744,5.713-16.85,9.714-21.328,4.7-5.257,7.357-6.9,12.111-6.861s-5.869-1.943-5.869-1.943l-9.054,5.028-5.826,8.074Z" transform="translate(-130.006 -168.219)" opacity="0.11"/>
                <path id="Trazado_1192390" data-name="Trazado 1192390" d="M302.538,238.615c-3.574,15.222-4.164,14.528-6.454,14.282l3.044-18.468-2.6-13.491-4.253-4.387-3.186-3.253-.634-27.668c1.045.627,2.313,1.4,3.768,2.291a69.217,69.217,0,0,1,1.925,26.325S306.1,223.393,302.538,238.615Z" transform="translate(-137.711 -158.408)" opacity="0.11"/>
                <path id="Trazado_1192391" data-name="Trazado 1192391" d="M203.595,199.459l-9.819,5.925,18.282,4.235L192.506,226.7s17.937,5.12,28.981,15.424" transform="translate(-113.357 -161.919)" fill="none" stroke="#afb1b2" stroke-linecap="round" stroke-linejoin="round" stroke-miterlimit="10" stroke-width="0.676"/>
                <path id="Trazado_1192392" data-name="Trazado 1192392" d="M216.275,192.743l-.036-3.823c-1.373.545-.358.284-2.089,1.022-6.73,4.731-19.4,16.162-24.668,37.86a194.888,194.888,0,0,0-4.546,24.683,12.386,12.386,0,1,0,3.289-.237C189.991,238.967,196.394,204.576,216.275,192.743Z" transform="translate(-108.957 -159.244)" opacity="0.11"/>
                <path id="Trazado_1192393" data-name="Trazado 1192393" d="M176.8,330.647l40.988,60.436H141.224L96.3,330.647Z" transform="translate(-88.936 -195.219)" fill="#184656"/>
                <path id="Trazado_1192394" data-name="Trazado 1192394" d="M217.783,392.632H141.227l-20.684-27.824L96.3,332.2h80.5Z" transform="translate(-88.937 -195.613)" fill="#136d94"/>
                <path id="Trazado_1192395" data-name="Trazado 1192395" d="M175.8,363.181l-55.253,1.627L96.3,332.2h79.646C169.909,341.594,175.8,363.181,175.8,363.181Z" transform="translate(-88.937 -195.613)" opacity="0.11"/>
                <path id="Trazado_1192396" data-name="Trazado 1192396" d="M126.1,373.008s-5.44,15.191,2.566,17.962c0,0-1.232,5.132,5.337,6.159,0,0,.953,3.369,5.195,2.473,0,0,1.016,1.733,6.154.836s9.62-1.852,10.814-3.944-1.494-3.764-1.494-3.764,6.333-2.749,7.051-3.645.239-4-1.912-4.361c0,0,1.553-2.748-.419-4.72s-5.5-2.211-7.289-2.032a3.023,3.023,0,0,0-.419-4.541c-2.629-2.092-9.56.478-21.45,5.138Z" transform="translate(-96.043 -205.892)" fill="#fdbd9b"/>
                <path id="Trazado_1192397" data-name="Trazado 1192397" d="M167.837,329.4a36.775,36.775,0,0,0-.88,28.011H87.587c-4.537-24.1,5.6-30.13,7.909-31.175a4.049,4.049,0,0,1,.463-.187s71.266-.791,74.258,0a6.367,6.367,0,0,1,4.074,3.343Z" transform="translate(-86.432 -193.963)" fill="#bbd6ef"/>
                <path id="Trazado_1192398" data-name="Trazado 1192398" d="M262.949,340.561s24.4.457,28.748,1.031c0,0,3.281-1,3.773-1.034s12.222,2.592,19.194,9.073" transform="translate(-131.238 -197.735)" fill="none" stroke="#afb1b2" stroke-linecap="round" stroke-linejoin="round" stroke-miterlimit="10" stroke-width="0.676"/>
                <line id="Línea_633" data-name="Línea 633" y1="61.729" x2="2.377" transform="translate(164.232 81.094)" fill="none" stroke="#afb1b2" stroke-linecap="round" stroke-linejoin="round" stroke-miterlimit="10" stroke-width="0.676"/>
                <line id="Línea_634" data-name="Línea 634" x2="2.016" y2="6.657" transform="translate(164.232 83.811)" fill="none" stroke="#afb1b2" stroke-linecap="round" stroke-linejoin="round" stroke-miterlimit="10" stroke-width="0.676"/>
                <path id="Trazado_1192399" data-name="Trazado 1192399" d="M309.72,341.273s4.793,2.464,7.877,9.345" transform="translate(-143.111 -197.916)" fill="none" stroke="#afb1b2" stroke-linecap="round" stroke-linejoin="round" stroke-miterlimit="10" stroke-width="0.676"/>
                <path id="Trazado_1192400" data-name="Trazado 1192400" d="M275.621,340.847s16.144,19.516,7.728,62.07" transform="translate(-134.455 -197.808)" fill="none" stroke="#afb1b2" stroke-linecap="round" stroke-linejoin="round" stroke-miterlimit="10" stroke-width="0.676"/>
                <path id="Trazado_1192401" data-name="Trazado 1192401" d="M271.921,421.089s29.32,2.063,64.5-8.647" transform="translate(-133.516 -215.982)" fill="none" stroke="#afb1b2" stroke-linecap="round" stroke-linejoin="round" stroke-miterlimit="10" stroke-width="0.676"/>
                <line id="Línea_635" data-name="Línea 635" x1="3.885" y2="6.172" transform="translate(62.329 79.422)" fill="none" stroke="#afb1b2" stroke-linecap="round" stroke-linejoin="round" stroke-miterlimit="10" stroke-width="0.676"/>
                <path id="Trazado_1192402" data-name="Trazado 1192402" d="M317.341,246.981s16.286-14,32.292-11.636" transform="translate(-145.045 -170.96)" fill="none" stroke="#afb1b2" stroke-linecap="round" stroke-linejoin="round" stroke-miterlimit="10" stroke-width="0.676"/>
                <path id="Trazado_1192403" data-name="Trazado 1192403" d="M170.033,220.15a76.663,76.663,0,0,1,2.328,15.138" transform="translate(-107.653 -167.171)" fill="none" stroke="#afb1b2" stroke-linecap="round" stroke-linejoin="round" stroke-miterlimit="10" stroke-width="0.676"/>
                <rect id="Rectángulo_423042" data-name="Rectángulo 423042" width="33.258" height="4.993" transform="translate(123.172 99.514)" fill="none" stroke="#afb1b2" stroke-linecap="round" stroke-linejoin="round" stroke-miterlimit="10" stroke-width="0.676"/>
                <path id="Trazado_1192404" data-name="Trazado 1192404" d="M302.966,443.506s18,25.4,36.576,36.141l-3.048,3.919" transform="translate(-141.396 -223.867)" fill="none" stroke="#afb1b2" stroke-linecap="round" stroke-linejoin="round" stroke-miterlimit="10" stroke-width="0.676"/>
                <path id="Trazado_1192405" data-name="Trazado 1192405" d="M256.209,345.051a14.044,14.044,0,0,0,0,6.526c.9,3.048,3.044,7.887,2.309,11.807s-2.083,5.39-2.083,5.39" transform="translate(-129.426 -198.875)" fill="none" stroke="#b72525" stroke-linecap="round" stroke-linejoin="round" stroke-miterlimit="10" stroke-width="0.552"/>
                <path id="Trazado_1192406" data-name="Trazado 1192406" d="M130.152,392.765a10.441,10.441,0,0,0,6.533-1.362c3.587-1.956,16.9-11.636,16.9-11.636" transform="translate(-97.53 -207.687)" fill="none" stroke="#b72525" stroke-linecap="round" stroke-linejoin="round" stroke-miterlimit="10" stroke-width="0.552"/>
                <path id="Trazado_1192407" data-name="Trazado 1192407" d="M137.3,401.22s2.229-.019,9.458-3.335a172.588,172.588,0,0,0,16.351-9.07" transform="translate(-99.345 -209.984)" fill="none" stroke="#b72525" stroke-linecap="round" stroke-linejoin="round" stroke-miterlimit="10" stroke-width="0.552"/>
                <line id="Línea_636" data-name="Línea 636" y1="6.871" x2="15.475" transform="translate(43.154 186.838)" fill="none" stroke="#b72525" stroke-linecap="round" stroke-linejoin="round" stroke-miterlimit="10" stroke-width="0.552"/>
                <path id="Trazado_1192408" data-name="Trazado 1192408" d="M189.012,252.2s1.876-50.376,34.591-66.143l-.174-1.705a25.418,25.418,0,0,1-3.816-.175s-30.695,13.644-33.48,68.8Z" transform="translate(-111.74 -158.041)" fill="#3b526d"/>
                <path id="Trazado_1192409" data-name="Trazado 1192409" d="M196.266,286.974a12.34,12.34,0,0,1-12.334,12.342,12.353,12.353,0,0,1-12.342-12.342,12.338,12.338,0,0,1,24.676,0Z" transform="translate(-108.048 -181.002)" fill="#95a1a5"/>
                <g id="Grupo_1231479" data-name="Grupo 1231479" transform="translate(125.02 85.495)">
                  <path id="Trazado_1192410" data-name="Trazado 1192410" d="M271.548,307.5c-5.664,0-10.034-1.97-12.991-5.854-4.694-6.169-4.947-16.163-4.332-23.462a89.013,89.013,0,0,1,2.466-14.455l.719.2c-.071.257-6.992,25.792,1.742,37.267,2.808,3.688,6.978,5.559,12.4,5.559Z" transform="translate(-253.982 -263.727)" fill="#95a1a5"/>
                </g>
                <g id="Grupo_1231480" data-name="Grupo 1231480" transform="translate(121.145 92.969)">
                  <path id="Trazado_1192411" data-name="Trazado 1192411" d="M258.654,305.827a17.037,17.037,0,0,1-9.865-3.429l.429-.61c4.484,3.156,9.075,4.046,13.645,2.647,14.494-4.444,24.5-30.429,24.594-30.692l.7.265a94.934,94.934,0,0,1-6.884,13.814c-4.006,6.588-10.414,14.942-18.19,17.327A15.038,15.038,0,0,1,258.654,305.827Z" transform="translate(-248.789 -273.744)" fill="#95a1a5"/>
                </g>
                <path id="Trazado_1192412" data-name="Trazado 1192412" d="M278.382,319.9v3.328h-2.044a.449.449,0,0,1-.448-.448v-2.425a.451.451,0,0,1,.448-.455Z" transform="translate(-134.523 -192.491)" fill="#3b526d"/>
                <path id="Trazado_1192413" data-name="Trazado 1192413" d="M278.382,320.5v2.88h-2.044a.449.449,0,0,1-.448-.448v-.866a3.975,3.975,0,0,0,2.455-1.522C278.36,320.53,278.367,320.515,278.382,320.5Z" transform="translate(-134.523 -192.643)" fill="#223547"/>
                <path id="Trazado_1192414" data-name="Trazado 1192414" d="M248.592,310.476a.544.544,0,0,1-.119.224l-1.649,1.776a.442.442,0,0,1-.634.022l-1.5-1.388,1.06-1.142,1.2-1.3,1.5,1.4A.451.451,0,0,1,248.592,310.476Z" transform="translate(-126.604 -189.64)" fill="#3b526d"/>
                <path id="Trazado_1192415" data-name="Trazado 1192415" d="M248.592,310.917a.544.544,0,0,1-.119.224l-1.649,1.776a.442.442,0,0,1-.634.022l-1.5-1.388,1.06-1.142A3.644,3.644,0,0,0,248.592,310.917Z" transform="translate(-126.604 -190.082)" fill="#223547"/>
                <path id="Trazado_1192416" data-name="Trazado 1192416" d="M245.167,392.24v-1.157L204.18,330.647V331.8Z" transform="translate(-116.321 -195.219)" fill="#184656"/>
                <path id="Trazado_1192417" data-name="Trazado 1192417" d="M201.984,329.513l-6.454.007a9.512,9.512,0,0,1,2.38-3.35A6.367,6.367,0,0,1,201.984,329.513Z" transform="translate(-114.125 -194.083)" fill="#7ca3c1"/>
                <path id="Trazado_1192418" data-name="Trazado 1192418" d="M166.956,357.595H87.587c-4.537-24.1,5.6-30.13,7.909-31.175,13.55,6.439,44.456,20.184,69.639,24.459A34.267,34.267,0,0,0,166.956,357.595Z" transform="translate(-86.432 -194.146)" fill="#a5cae5"/>
                <path id="Trazado_1192419" data-name="Trazado 1192419" d="M290,261a1.746,1.746,0,0,1-2.141,1.2l-.052-.015a1.432,1.432,0,0,1-.381-.164,1.721,1.721,0,0,1-.843-1.91c1.485-6.313,6.126-29.19-3.925-33.189v-.007a8.636,8.636,0,0,0-2.85-.6c-13.543-.642-18.96,20.654-20.214,26.646a1.733,1.733,0,0,1-1.9,1.373l-.09-.007a1.758,1.758,0,0,1-1.515-2.022c1.022-5.88,5.066-24.31,16.237-28.944a14.6,14.6,0,0,1,8.536-.761C298.8,226.038,292.041,253.885,290,261Z" transform="translate(-129.491 -167.716)" fill="#3b526d"/>
                <path id="Trazado_1192420" data-name="Trazado 1192420" d="M285.67,320.469a3.476,3.476,0,0,1-.09.791,3.612,3.612,0,0,1-7.089-.194,3.177,3.177,0,0,1-.052-.6,3.615,3.615,0,1,1,7.23,0Z" transform="translate(-135.171 -191.717)" fill="#95a1a5"/>
                <path id="Trazado_1192421" data-name="Trazado 1192421" d="M244.97,308.211a3.852,3.852,0,0,1-.6.88,3.62,3.62,0,0,1-6.171-3.328,3.39,3.39,0,0,1,.657-1.336,1.69,1.69,0,0,1,.209-.261,3.612,3.612,0,0,1,5.111-.187,3.213,3.213,0,0,1,.649.821A3.612,3.612,0,0,1,244.97,308.211Z" transform="translate(-124.929 -188.204)" fill="#95a1a5"/>
                <circle id="Elipse_12933" data-name="Elipse 12933" cx="9.515" cy="9.515" r="9.515" transform="translate(66.367 96.457)" fill="none" stroke="#616d70" stroke-miterlimit="10" stroke-width="0.5"/>
                <circle id="Elipse_12934" data-name="Elipse 12934" cx="6.459" cy="6.459" r="6.459" transform="translate(69.423 99.514)" fill="#616d70"/>
                <path id="Trazado_1192422" data-name="Trazado 1192422" d="M198.1,287.576a12.34,12.34,0,0,1-12.334,12.342,12.211,12.211,0,0,1-6.962-2.156c9.469-8.215,12.416-16.7,13.326-20.751A12.31,12.31,0,0,1,198.1,287.576Z" transform="translate(-109.878 -181.604)" opacity="0.11"/>
                <path id="Trazado_1192423" data-name="Trazado 1192423" d="M272.327,223.73c-9.491,5.917-14.319,25.877-15.371,30.749a1.715,1.715,0,0,1-.866-1.806C257.113,246.794,261.157,228.364,272.327,223.73Z" transform="translate(-129.491 -168.08)" fill="#223547"/>
                <path id="Trazado_1192424" data-name="Trazado 1192424" d="M296.478,263.594a1.721,1.721,0,0,1-.843-1.91c1.485-6.313,6.126-29.19-3.925-33.189v-.007l.007-.007s6.439.6,7.723,8.976C300.649,245.351,298.746,256.961,296.478,263.594Z" transform="translate(-138.539 -169.285)" fill="#223547"/>
                <path id="Trazado_1192425" data-name="Trazado 1192425" d="M244.97,309.147a3.853,3.853,0,0,1-.6.88A3.62,3.62,0,0,1,238.2,306.7,16.642,16.642,0,0,0,244.97,309.147Z" transform="translate(-124.929 -189.14)" opacity="0.11"/>
                <path id="Trazado_1192426" data-name="Trazado 1192426" d="M285.6,322.694a3.612,3.612,0,0,1-7.089-.194A16.715,16.715,0,0,0,285.6,322.694Z" transform="translate(-135.188 -193.151)" opacity="0.11"/>
                <path id="Trazado_1192427" data-name="Trazado 1192427" d="M245.079,304.8a3.213,3.213,0,0,0-.649-.821,3.612,3.612,0,0,0-5.111.187,1.686,1.686,0,0,0-.209.261,5.225,5.225,0,0,1,2.118-.592.611.611,0,0,0-.363.5c0,.389.556.706,1.242.706s1.242-.316,1.242-.706a.464.464,0,0,0-.105-.283A8.272,8.272,0,0,1,245.079,304.8Z" transform="translate(-125.187 -188.204)" fill="#cbd0d1"/>
                <path id="Trazado_1192428" data-name="Trazado 1192428" d="M283.518,317.648a7.962,7.962,0,0,1,1.061.09,3.612,3.612,0,0,0-5.529.97,9.742,9.742,0,0,1,1.942-.748.227.227,0,0,0-.005.022c0,.328.621.593,1.387.593s1.387-.266,1.387-.593A.429.429,0,0,0,283.518,317.648Z" transform="translate(-135.325 -191.717)" fill="#cbd0d1"/>
                <path id="Trazado_1192429" data-name="Trazado 1192429" d="M289.938,210.2a8.29,8.29,0,0,1-.358,1.343l-4.559-.948s4.514-21.616-1.194-29.5l-1.627-6.1a4.071,4.071,0,0,1,.791.284c1.873.873,6.514,4.238,7.365,16.4C291.109,202.494,290.415,207.933,289.938,210.2Z" transform="translate(-136.125 -155.708)" fill="#3b526d"/>
                <path id="Trazado_1192430" data-name="Trazado 1192430" d="M289.938,210.2a8.29,8.29,0,0,1-.358,1.343l-4.559-.948s4.514-21.616-1.194-29.5l-1.627-6.1a4.071,4.071,0,0,1,.791.284,21.5,21.5,0,0,0,.821,2.843c7.529,7.6,3.992,29.891,3.992,29.891A5.138,5.138,0,0,0,289.938,210.2Z" transform="translate(-136.125 -155.708)" fill="#223547"/>
              </g>
              <g id="Grupo_1231482" data-name="Grupo 1231482" transform="translate(68.721)">
                <path id="Trazado_1192431" data-name="Trazado 1192431" d="M276.429,66.749s4.018-13.729,12.459-11.783,6.333,9.148,16.345,11.783,21.955,8.606,15.456,24.941-21.449,16.51-31.8,13.173S276.429,66.749,276.429,66.749Z" transform="translate(-203.381 -54.778)" fill="#131e33"/>
                <path id="Trazado_1192432" data-name="Trazado 1192432" d="M201.038,74.074s-12-.84-18.464,4.246-4.431,11.372.868,13.385,3.825,4.941,3.189,8.014-8.16,11.607-4.769,20.268,17.368,6.119,19.176,5.589,4.986-26.917,4.986-26.917l-2.013-19.075Z" transform="translate(-178.531 -59.663)" fill="#24314f"/>
                <line id="Línea_637" data-name="Línea 637" x1="7.774" y2="3.682" transform="translate(12.262 65.516)" fill="none" stroke="#193566" stroke-miterlimit="10" stroke-width="0.958"/>
                <path id="Trazado_1192433" data-name="Trazado 1192433" d="M261.38,136.131l-.037.045c-.269.41-.545.821-.813,1.216a52.954,52.954,0,0,1-9.521,10.581c-12.185,10.207-25.959,11.454-32.824,8.461-5.514-2.41-9.245-7.35-11.939-13.64a74.5,74.5,0,0,1-4.029-13.028c-2.686-11.916-2.709-20.452-2.679-30.4.007-.231,0-.478.007-.716.022-6.812,3.022-12.685,5.037-15.863a26.389,26.389,0,0,1,1.791-2.522c25.743-4.111,47.4,18.967,49.314,33.182a79.974,79.974,0,0,1,.731,8.663,21.407,21.407,0,0,1,.545-3.858c.754-3.268,2.559-7.588,6.887-9.133,8.185-2.918,11.663,3.231,11.991,6.641C277.587,133.87,261.38,136.131,261.38,136.131Z" transform="translate(-183.862 -61.125)" fill="#fdbd9b"/>
                <path id="Trazado_1192434" data-name="Trazado 1192434" d="M263.1,136.131l-.037.045c-.269.41-.545.821-.813,1.216a52.954,52.954,0,0,1-9.521,10.581c1.925-16.147-2.791-41.8-20.863-46.307A41.3,41.3,0,0,1,206.3,82.788a26.389,26.389,0,0,1,1.791-2.522c25.743-4.111,47.4,18.967,49.314,33.182a79.949,79.949,0,0,1,.731,8.663,21.41,21.41,0,0,1,.545-3.858c.754-3.268,2.559-7.588,6.887-9.133,8.185-2.918,11.662,3.231,11.991,6.641C279.3,133.87,263.1,136.131,263.1,136.131Z" transform="translate(-185.58 -61.125)" fill="#f0997f"/>
                <path id="Trazado_1192435" data-name="Trazado 1192435" d="M288.939,140.669a2.34,2.34,0,0,0-2-2.385c-2.15-.491-3.673,1.574-3.673,1.574s-1.675-9.03,3.367-13.337c3.429-2.928,6.3.7,6.3.7,4.175,5.738-3.986,13.45-3.986,13.45" transform="translate(-205.048 -72.699)" fill="#dd7057"/>
                <path id="Trazado_1192436" data-name="Trazado 1192436" d="M283.263,139.858s-1.675-9.03,3.367-13.337c3.429-2.928,6.3.7,6.3.7" transform="translate(-205.048 -72.699)" fill="none" stroke="#b72525" stroke-linecap="round" stroke-linejoin="round" stroke-miterlimit="10" stroke-width="0.552"/>
                <path id="Trazado_1192437" data-name="Trazado 1192437" d="M290.67,133.133s-.912-2.856-3.63-2.274c-2.15.46-3.594,3.236-3.594,3.236" transform="translate(-205.162 -74.07)" fill="none" stroke="#b72525" stroke-linecap="round" stroke-linejoin="round" stroke-miterlimit="10" stroke-width="0.552"/>
                <path id="Trazado_1192438" data-name="Trazado 1192438" d="M207.281,74.578s7.855,16.749,26.082,17.538a8.777,8.777,0,0,1,6.292,6.207c1.591,5.32,6.241,10.935,12.724,12.292,0,0,4.04,11.422,4.729,11.388s1.21-6.071,1.21-6.071.879-12.113,9.343-13.629c0,0,4.2-.534,5.982.767,0,0,2.794-28.467-16.166-40.423C241,52.261,225.6,53.973,215.7,59.077,207.523,63.3,206.4,71.531,207.281,74.578Z" transform="translate(-185.765 -54.842)" fill="#24314f"/>
              </g>
              <g id="Grupo_1231484" data-name="Grupo 1231484" transform="translate(80.896 48.848)">
                <path id="Trazado_1192439" data-name="Trazado 1192439" d="M248.654,148.168c-.2-1.254,1.722-2.6,4.29-3s4.808.283,5.005,1.536-1.722,2.6-4.289,3-4.808-.282-5.006-1.536" transform="translate(-208.502 -126.539)" fill="#eb7f6a"/>
                <path id="Trazado_1192440" data-name="Trazado 1192440" d="M202.265,158.311c-.2-1.254,1.722-2.6,4.29-3s4.808.283,5.006,1.536-1.722,2.6-4.29,3-4.808-.282-5.006-1.536" transform="translate(-196.727 -129.114)" fill="#eb7f6a"/>
                <path id="Trazado_1192441" data-name="Trazado 1192441" d="M211.479,125.155c-.22-1.012-2.292-1.421-4.628-.913s-4.051,1.74-3.831,2.752,2.291,1.421,4.628.913,4.05-1.74,3.831-2.753" transform="translate(-196.917 -121.203)" fill="#020203"/>
                <path id="Trazado_1192442" data-name="Trazado 1192442" d="M249.2,122.241c-.041-1.194-2.288-2.086-5.019-1.992s-4.91,1.139-4.869,2.333,2.288,2.086,5.019,1.992,4.91-1.139,4.869-2.334" transform="translate(-206.134 -120.243)" fill="#020203"/>
                <path id="Trazado_1192443" data-name="Trazado 1192443" d="M194.957,145.312a9.339,9.339,0,0,0,10.9,7.442,9.665,9.665,0,0,0,7.653-6.232c-.961-.372-1.8-.9-1.922-1.63-.165-1.034.954-2.757,1.943-4.043a9.435,9.435,0,0,0-10.537-6.005A9.337,9.337,0,0,0,194.957,145.312Z" transform="translate(-194.848 -123.917)" fill="none" stroke="#193566" stroke-miterlimit="10" stroke-width="0.958"/>
                <path id="Trazado_1192444" data-name="Trazado 1192444" d="M228.949,140.1a8.254,8.254,0,0,0-9.4,1.437" transform="translate(-201.119 -125.063)" fill="none" stroke="#193566" stroke-miterlimit="10" stroke-width="0.958"/>
                <line id="Línea_638" data-name="Línea 638" x1="16.203" y2="6.712" transform="translate(45.938 6.372)" fill="none" stroke="#193566" stroke-miterlimit="10" stroke-width="0.958"/>
                <path id="Trazado_1192445" data-name="Trazado 1192445" d="M250.729,138.047a9.6,9.6,0,1,0-8.032,10.467A9.338,9.338,0,0,0,250.729,138.047Z" transform="translate(-204.201 -122.84)" fill="none" stroke="#193566" stroke-miterlimit="10" stroke-width="0.958"/>
                <g id="Grupo_1231483" data-name="Grupo 1231483" transform="translate(7.979 10.814)">
                  <path id="Trazado_1192446" data-name="Trazado 1192446" d="M249.345,137.869s-1.378-3.311-6.344-3.126a7.539,7.539,0,0,0-5.889,3.529" transform="translate(-213.556 -134.736)" fill="none" stroke="#000" stroke-linecap="round" stroke-linejoin="bevel" stroke-miterlimit="10" stroke-width="0.929"/>
                  <path id="Trazado_1192447" data-name="Trazado 1192447" d="M214.444,139.892s-1.071-2.266-4.683-1.982a5.605,5.605,0,0,0-4.219,2.647" transform="translate(-205.542 -135.536)" fill="none" stroke="#000" stroke-linecap="round" stroke-linejoin="bevel" stroke-miterlimit="10" stroke-width="0.929"/>
                  <path id="Trazado_1192448" data-name="Trazado 1192448" d="M220.621,140.69s-.663.716-1.4,1.677c-.989,1.285-2.108,3.009-1.943,4.042.117.733.962,1.257,1.923,1.63a15.163,15.163,0,0,0,3.065.737" transform="translate(-208.516 -136.247)" fill="none" stroke="#bc3131" stroke-linecap="round" stroke-linejoin="round" stroke-miterlimit="10" stroke-width="0.929"/>
                  <path id="Trazado_1192449" data-name="Trazado 1192449" d="M220.718,158.076a11.064,11.064,0,0,0,3.523,5.807,6.46,6.46,0,0,0,5.424,1.078,7.46,7.46,0,0,0,5.863-4.593,9.07,9.07,0,0,0,.6-2.432,10.1,10.1,0,0,0-.032-2.558l-13.343,2.341Z" transform="translate(-209.394 -139.976)" fill="#9c2d17"/>
                  <path id="Trazado_1192450" data-name="Trazado 1192450" d="M223.438,157.719l.261.693a2.3,2.3,0,0,0,2.57,1.459l10.544-1.936a10.1,10.1,0,0,0-.032-2.558Z" transform="translate(-210.085 -139.976)" fill="#fff"/>
                  <path id="Trazado_1192451" data-name="Trazado 1192451" d="M225.44,165.552a6.458,6.458,0,0,0,5.424,1.078,7.456,7.456,0,0,0,5.861-4.593,5.614,5.614,0,0,0-1.454-.06,5.884,5.884,0,0,0-3.635,1.708,4.9,4.9,0,0,0-3.639-.2,4.825,4.825,0,0,0-2.558,2.07" transform="translate(-210.593 -141.645)" fill="#e63e41"/>
                </g>
              </g>
            </g>
            <path id="Trazado_1192452" data-name="Trazado 1192452" d="M118.12,174.162s-11.177-14.41-5.563-20.534,10.713,2.65,10.713,2.65a7.854,7.854,0,0,1,7.828-4.821C137.051,151.757,133.889,168.16,118.12,174.162Z" transform="translate(-20.057 -32.441)" fill="#e6eafc"/>
          </g>
        </g>
      </g>
      <g id="sueno" transform="translate(424.233 2756.836)">
        <path id="Trazado_1192453" data-name="Trazado 1192453" d="M71.21,22.79a1.093,1.093,0,1,0-1.745,1.318,14.071,14.071,0,0,1-6.913,21.863,1.094,1.094,0,0,0-.756.983A7.067,7.067,0,0,1,49.875,51.7a1.094,1.094,0,0,0-1.608.113,14.067,14.067,0,0,1-21.877.206,1.094,1.094,0,0,0-1.523-.16,8.148,8.148,0,0,1-5.114,1.783,8.233,8.233,0,0,1-8.026-10.082,1.093,1.093,0,0,0-.662-1.26,14.072,14.072,0,0,1,1.309-26.6,1.094,1.094,0,0,0,.727-.68,7.089,7.089,0,0,1,6.651-4.669,6.993,6.993,0,0,1,3.143.737,1.094,1.094,0,0,0,1.487-.535A14.071,14.071,0,0,1,49.42,9.205a1.093,1.093,0,0,0,1.321.478A8.243,8.243,0,0,1,61.807,17.42c0,.19-.009.4-.027.639a1.094,1.094,0,0,0,.756,1.125A14.013,14.013,0,0,1,65.77,20.7a1.093,1.093,0,1,0,1.173-1.845,16.2,16.2,0,0,0-2.949-1.477A10.43,10.43,0,0,0,50.848,7.357a16.257,16.257,0,0,0-28,1.339,9.169,9.169,0,0,0-3.1-.533,9.285,9.285,0,0,0-8.5,5.592,16.386,16.386,0,0,0-7.913,5.6A16.259,16.259,0,0,0,9.429,43.979,10.416,10.416,0,0,0,19.752,55.831a10.3,10.3,0,0,0,5.625-1.649,16.254,16.254,0,0,0,23.875-.152,9.256,9.256,0,0,0,14.658-6.216,16.258,16.258,0,0,0,7.3-25.024Zm0,0"/>
        <path id="Trazado_1192454" data-name="Trazado 1192454" d="M29.8,448.875c-3.175,0-5.758,2.06-5.758,4.592s2.583,4.592,5.758,4.592,5.758-2.06,5.758-4.592-2.584-4.592-5.758-4.592Zm0,7c-1.936,0-3.571-1.1-3.571-2.405s1.635-2.405,3.571-2.405,3.571,1.1,3.571,2.405S31.741,455.872,29.8,455.872Zm0,0" transform="translate(-20.548 -383.569)"/>
        <path id="Trazado_1192455" data-name="Trazado 1192455" d="M101.946,400.781c-3.175,0-5.758,2.06-5.758,4.592s2.583,4.592,5.758,4.592,5.758-2.06,5.758-4.592S105.121,400.781,101.946,400.781Zm0,7c-1.936,0-3.571-1.1-3.571-2.405s1.636-2.405,3.571-2.405,3.571,1.1,3.571,2.405S103.882,407.778,101.946,407.778Zm0,0" transform="translate(-82.194 -342.472)"/>
        <path id="Trazado_1192456" data-name="Trazado 1192456" d="M170.564,209.047a1.094,1.094,0,0,0-1-.642h-8.163a1.093,1.093,0,1,0,0,2.187h5.754l-6.577,7.516a1.1,1.1,0,0,0,.823,1.813h8.163a1.093,1.093,0,1,0,0-2.187h-5.754l6.577-7.516A1.094,1.094,0,0,0,170.564,209.047Zm0,0" transform="translate(-136.989 -178.085)"/>
        <path id="Trazado_1192457" data-name="Trazado 1192457" d="M240.59,154.038a1.094,1.094,0,0,0,.972.593h5.831a1.093,1.093,0,1,0,0-2.187h-3.706l4.6-6.434a1.1,1.1,0,0,0-.889-1.729h-5.831a1.093,1.093,0,0,0,0,2.187h3.706l-4.6,6.434A1.094,1.094,0,0,0,240.59,154.038Zm0,0" transform="translate(-205.484 -123.29)"/>
        <path id="Trazado_1192458" data-name="Trazado 1192458" d="M304.709,110.45a1.094,1.094,0,0,0,.978.6h3.5a1.093,1.093,0,1,0,0-2.187h-1.312l2.186-2.915a1.1,1.1,0,0,0-.875-1.749h-3.5a1.093,1.093,0,0,0,0,2.187H307l-2.187,2.915a1.093,1.093,0,0,0-.1,1.145Zm0,0" transform="translate(-260.28 -89.043)"/>
      </g>
      <path id="XMLID_700_" d="M62.623,52.609a5.967,5.967,0,0,0-4.934-.711,24.715,24.715,0,0,0,1.961-3.283.958.958,0,0,0-1.715-.852,22.846,22.846,0,0,1-4.109,5.792.944.944,0,0,0-.063.072l-9.8,4.486a1.837,1.837,0,0,1-.77.168H38.413a8.235,8.235,0,0,0-1.321-3.809.958.958,0,1,0-1.6,1.05A6.331,6.331,0,0,1,36.529,59a.411.411,0,0,1-.007.068s0,.008,0,.012a.386.386,0,0,1-.377.305H25.16a6.787,6.787,0,0,0-4.831,2,.958.958,0,1,0,1.354,1.354A4.885,4.885,0,0,1,25.16,61.3H36.143A2.3,2.3,0,0,0,38.107,60.2H43.2a3.741,3.741,0,0,0,1.568-.342L57.676,53.94a4.083,4.083,0,0,1,5.783,3.724.588.588,0,0,1-.347.529l-18.777,8.6a3.685,3.685,0,0,1-1.545.337h-30.4v-9.2a.958.958,0,0,0-1.915,0v10.35a.386.386,0,0,1-.385.385H2.3a.386.386,0,0,1-.385-.385V47.054a.386.386,0,0,1,.385-.385h7.788a.386.386,0,0,1,.385.385v6.467a.958.958,0,1,0,1.915,0v-5.37h.578a8.7,8.7,0,0,1,7.369,4.05.958.958,0,0,0,.808.443h9.025a6.325,6.325,0,0,1,2.335.445.958.958,0,1,0,.7-1.781,8.235,8.235,0,0,0-3.04-.579H21.653a10.61,10.61,0,0,0-5.031-3.85,22.6,22.6,0,0,1-1.814-6.7H60.161a22.848,22.848,0,0,1-.684,3.557.958.958,0,1,0,1.846.511A24.76,24.76,0,0,0,62.1,40,2.238,2.238,0,0,0,63.47,37.94V34.62a2.237,2.237,0,0,0-2.234-2.234H55.557c.772-1.451,1.462-2.89,2.02-4.22,1.445-3.443,2-6.049,1.71-8.091,2.226-.4,3.811-1.838,3.8-3.561-.01-1.5-1.255-2.791-3.084-3.332.533-2.364-.211-4.506-1.926-5.225S54.313,8.208,53,10.244c-1.668-.926-3.463-.907-4.538.134-1.248,1.208-1.161,3.335.12,5.205-1.658,1.226-3.129,3.447-4.573,6.89-.1.249-.208.5-.31.763a13.884,13.884,0,0,0-3.872-3.795,9.756,9.756,0,0,0-2.653-1.187l-.7-3.579a.409.409,0,0,1,.207-.43A3.885,3.885,0,1,0,32.269,7.88a1.473,1.473,0,0,1-1.386.273,3.885,3.885,0,1,0-1.668,7.56.409.409,0,0,1,.354.319l.706,3.587A11.34,11.34,0,0,0,26.719,24.7a8.677,8.677,0,0,0-3.405-1.378A.469.469,0,0,1,23,23.1a4.143,4.143,0,0,0-7.626,2.738.468.468,0,0,1-.1.374,8.645,8.645,0,0,0-2.078,6.243A2.236,2.236,0,0,0,11.5,34.62v3.32A2.238,2.238,0,0,0,12.867,40a24.526,24.526,0,0,0,1.458,6.324,10.776,10.776,0,0,0-1.358-.086h-.731a2.3,2.3,0,0,0-2.147-1.483H2.3a2.3,2.3,0,0,0-2.3,2.3V68.278a2.3,2.3,0,0,0,2.3,2.3h7.788a2.3,2.3,0,0,0,2.166-1.533H42.79a5.587,5.587,0,0,0,2.342-.511l18.777-8.6a2.51,2.51,0,0,0,1.465-2.265A5.973,5.973,0,0,0,62.623,52.609ZM61.554,34.62v3.32a.32.32,0,0,1-.319.319H13.809c-.024,0-.049,0-.074,0a.319.319,0,0,1-.318-.319V34.62a.32.32,0,0,1,.319-.319h47.5A.319.319,0,0,1,61.554,34.62ZM49.794,11.754c.556-.539,1.847-.269,2.938.614a.958.958,0,0,0,1.473-.347c.828-1.813,2.287-2.652,3.13-2.3s1.266,1.983.553,3.844a.958.958,0,0,0,.785,1.294c1.395.16,2.491.892,2.5,1.666,0,.7-.963,1.5-2.446,1.7a6.756,6.756,0,0,0-3.676-3.051,6.756,6.756,0,0,0-4.752-.485C49.4,13.49,49.286,12.246,49.794,11.754Zm.484,5.014c1.117-.6,2.323-.545,4.03.171s2.588,1.54,2.946,2.755c.492,1.672.007,4.273-1.444,7.73a51.555,51.555,0,0,1-2.434,4.961H42.913c.281-1.254.607-2.519.968-3.756a26.68,26.68,0,0,0,2.592,1.605.958.958,0,1,0,.918-1.681A23.239,23.239,0,0,1,44.482,26.7c.407-1.232.842-2.408,1.292-3.482l.014-.034A28.6,28.6,0,0,0,51.273,26.2a.958.958,0,1,0,.741-1.766A26.316,26.316,0,0,1,46.6,21.4C47.8,18.989,49.03,17.434,50.279,16.768Zm-18.83-1.1a2.323,2.323,0,0,0-1.982-1.848,1.97,1.97,0,1,1,.844-3.834,3.382,3.382,0,0,0,3.181-.626,1.97,1.97,0,1,1,2.234,3.229,2.323,2.323,0,0,0-1.134,2.462l.574,2.92a7.683,7.683,0,0,0-1.6.143,7.586,7.586,0,0,0-1.538.478Zm2.482,4.324c3.158-.621,6.638,1.534,8.936,5.505a62.335,62.335,0,0,0-1.915,6.893h-13.3C27.12,26.09,29.765,20.807,33.93,19.987Zm-17.21,7.474a2.39,2.39,0,0,0,.547-1.879,2.228,2.228,0,0,1,4.1-1.472,2.391,2.391,0,0,0,1.618,1.1,6.765,6.765,0,0,1,3.148,1.445,19.011,19.011,0,0,0-.4,5.728H15.105A6.734,6.734,0,0,1,16.721,27.461Z" transform="translate(608.349 2749.847)"/>
      <g id="positividad" transform="translate(941.67 2750.37)">
        <path id="Trazado_1192459" data-name="Trazado 1192459" d="M84.9,102.966a1.026,1.026,0,0,0-1.026,1.026v1.088a1.026,1.026,0,0,0,2.052,0v-1.088A1.026,1.026,0,0,0,84.9,102.966Z" transform="translate(-72.4 -88.877)"/>
        <path id="Trazado_1192460" data-name="Trazado 1192460" d="M197.956,105.08v-1.088a1.026,1.026,0,1,0-2.052,0v1.088a1.026,1.026,0,1,0,2.052,0Z" transform="translate(-169.099 -88.877)"/>
        <path id="Trazado_1192461" data-name="Trazado 1192461" d="M87.581,154.907a8.184,8.184,0,0,0,16.367,0,1.026,1.026,0,0,0-1.026-1.026H88.607A1.026,1.026,0,0,0,87.581,154.907Zm14.229,1.026a6.132,6.132,0,0,1-12.091,0Z" transform="translate(-75.597 -132.825)"/>
        <path id="Trazado_1192462" data-name="Trazado 1192462" d="M50.759,6.677a19.322,19.322,0,0,0-12.49,4.595A20.168,20.168,0,1,0,4.724,33.137a1.026,1.026,0,0,0,1.571-1.321A18.115,18.115,0,1,1,36.7,12.76a19.292,19.292,0,0,0-1.726,2.112,1.026,1.026,0,1,0,1.678,1.182A17.236,17.236,0,1,1,47.9,42.981,19.374,19.374,0,0,0,34.581,31.956a17.31,17.31,0,0,1,.051-12.1,1.026,1.026,0,1,0-1.919-.728,19.368,19.368,0,0,0-.424,12.441,19.278,19.278,0,0,0-16.328,6.22,17.917,17.917,0,0,1-6.515-3.022A1.026,1.026,0,1,0,8.23,36.423a19.959,19.959,0,0,0,6.317,3.118,19.291,19.291,0,1,0,34.158,5.62,19.515,19.515,0,0,0,2.054.11,19.3,19.3,0,1,0,0-38.593ZM30.238,68A17.244,17.244,0,1,1,47.482,50.76,17.264,17.264,0,0,1,30.238,68Z"/>
        <path id="Trazado_1192463" data-name="Trazado 1192463" d="M311.029,147.077A1.026,1.026,0,0,0,310,148.1v1.039a1.026,1.026,0,0,0,2.052,0V148.1A1.026,1.026,0,0,0,311.029,147.077Z" transform="translate(-267.586 -126.952)"/>
        <path id="Trazado_1192464" data-name="Trazado 1192464" d="M418.987,149.142V148.1a1.026,1.026,0,1,0-2.052,0v1.039a1.026,1.026,0,1,0,2.052,0Z" transform="translate(-359.887 -126.952)"/>
        <path id="Trazado_1192465" data-name="Trazado 1192465" d="M327.2,196.7a5.806,5.806,0,1,1-11.611,0,1.026,1.026,0,0,0-2.052,0,7.858,7.858,0,1,0,15.716,0,1.026,1.026,0,0,0-2.052,0Z" transform="translate(-270.636 -168.9)"/>
        <path id="Trazado_1192466" data-name="Trazado 1192466" d="M162.056,370.665h-3.122a1.026,1.026,0,1,0,0,2.052h3.122a.659.659,0,0,1,.659.659v1.536H145.636v-1.536a.659.659,0,0,1,.659-.659h8.079a1.026,1.026,0,1,0,0-2.052H146.3a2.714,2.714,0,0,0-2.711,2.711V375.6a6.088,6.088,0,0,0,6.081,6.081h9.021a6.088,6.088,0,0,0,6.081-6.081v-2.226A2.714,2.714,0,0,0,162.056,370.665Zm-3.37,8.965h-9.021a4.035,4.035,0,0,1-3.791-2.665h16.6A4.035,4.035,0,0,1,158.686,379.63Z" transform="translate(-123.938 -319.947)"/>
        <path id="Trazado_1192467" data-name="Trazado 1192467" d="M146.93,326.123a1.026,1.026,0,0,0,1.026-1.026,1.39,1.39,0,0,1,2.78,0,1.026,1.026,0,0,0,2.052,0,3.442,3.442,0,0,0-6.885,0A1.026,1.026,0,0,0,146.93,326.123Z" transform="translate(-125.94 -277.643)"/>
        <path id="Trazado_1192468" data-name="Trazado 1192468" d="M245.492,326.123a1.026,1.026,0,0,0,1.026-1.026,1.39,1.39,0,0,1,2.78,0,1.026,1.026,0,0,0,2.052,0,3.442,3.442,0,0,0-6.885,0A1.026,1.026,0,0,0,245.492,326.123Z" transform="translate(-211.016 -277.643)"/>
      </g>
      <g id="Arrow_-arrows_-audio_-media_-multimedia_-replay_-sound-21" data-name="Arrow,-arrows,-audio,-media,-multimedia,-replay,-sound-21" transform="translate(1112.881 2763.484)">
        <path id="Shape" d="M29.837,3A26.837,26.837,0,1,1,3,29.837,26.837,26.837,0,0,1,29.837,3Zm0,2.556A24.281,24.281,0,1,0,54.118,29.837,24.281,24.281,0,0,0,29.837,5.556ZM45.172,26A16.613,16.613,0,0,1,28.559,42.616q-.386,0-.769-.017l2.95,2.948-1.807,1.807-6.015-6.015,6.015-6.015L30.74,37.13l-2.909,2.912q.362.018.727.018A14.058,14.058,0,0,0,42.612,26.372l0-.369ZM30.74,12.32l6.015,6.015L30.74,24.351l-1.807-1.807,2.909-2.912q-.362-.018-.727-.018A14.058,14.058,0,0,0,17.062,33.3l0,.369H14.5A16.613,16.613,0,0,1,31.115,17.057q.385,0,.768.017l-2.949-2.948Z" fill="#fff"/>
      </g>
      <rect id="Rectángulo_423043" data-name="Rectángulo 423043" width="341" height="11" rx="5.5" transform="translate(640.555 2943)" fill="#52797f"/>
    </g>
  </g>
</svg>
